<svg xmlns="http://www.w3.org/2000/svg" xmlns:xlink="http://www.w3.org/1999/xlink" version="1.1" width="4600" height="2151" style="width: 4600px; height: 2151px; background: #ffffff" viewBox="0 0 4600 2211"><style id="v-3" type="text/css">        .joint-element .scalable * {            vector-effect: non-scaling-stroke;        }    </style><defs joint-selector="defs"><marker id="v-21252848929" orient="auto" overflow="visible" markerUnits="userSpaceOnUse"><path id="v-137" stroke="#444444" fill="#444444" transform="rotate(180)" d="M 20 -10 0 0 20 10 Z"></path></marker><marker id="v-21611757857" orient="auto" overflow="visible" markerUnits="userSpaceOnUse"><path id="v-235" stroke="#999999" fill="#999999" transform="rotate(180)" d="M 20 -10 0 0 20 10 Z"></path></marker></defs><g joint-selector="layers"  transform="matrix(1,0,0,1,0,0)"><g  style="pointer-events: none;"></g><g ></g><g  style="user-select: none;"><!--z-index:0--><!--z-index:1--><!--z-index:2--><!--z-index:3--><!--z-index:4--><!--z-index:5--><!--z-index:6--><!--z-index:7--><!--z-index:8--><!--z-index:9--><!--z-index:10--><!--z-index:11--><!--z-index:12--><!--z-index:13--><!--z-index:14--><!--z-index:15--><!--z-index:16--><!--z-index:17--><!--z-index:18--><!--z-index:19--><!--z-index:20--><g   id="j_3"  transform="translate(20,2107)"><g id="v-8"><text  id="v-9" font-size="24px" xml:space="preserve" y="0.8em" font-weight="normal" text-anchor="start" fill="#444444" pointer-events="none" display="block" font-family="Tahoma, Verdana, Helvetica, Arial"><tspan dy="0"  display="none">Wednesday, April 1, 2026 at 11:01 PM Coordinated Universal Time</tspan></text></g></g><!--z-index:21--><g   id="j_2"  transform="translate(20,2073)"><g id="v-6"><text  id="v-7" font-size="24px" xml:space="preserve" y="0.8em" font-weight="normal" text-anchor="start" fill="#444444" pointer-events="none" display="block" font-family="Tahoma, Verdana, Helvetica, Arial"><tspan dy="0"  display="none">System Context diagram for JIM</tspan></text></g></g><!--z-index:22--><g   id="j_1"  transform="translate(20,2027)"><g id="v-4"><text  id="v-5" font-size="36px" xml:space="preserve" y="0.8em" font-weight="normal" text-anchor="start" fill="#444444" pointer-events="none" display="block" font-family="Tahoma, Verdana, Helvetica, Arial"><tspan dy="0"  display="none">System Context View: JIM</tspan></text></g></g><!--z-index:23--><g   id="j_4"  transform="translate(2117,143)" style=""><g  id="v-13" style="opacity: 1;"><rect  x="0" y="160" width="400" height="240" rx="70" id="v-15" stroke-width="2" pointer-events="visiblePainted" fill="#1a6fbf" stroke="#1764ac" stroke-dasharray="" style="fill: rgb(26, 111, 191); stroke: rgb(23, 100, 172);"></rect><circle  cx="200" cy="88.88888888888889" r="88.88888888888889" id="v-14" stroke-width="2" pointer-events="visiblePainted" fill="#1a6fbf" stroke="#1764ac" stroke-dasharray="" style="fill: rgb(26, 111, 191); stroke: rgb(23, 100, 172);"></circle><line  x1="80" y1="266.6666666666667" x2="80" y2="400" id="v-21" stroke="#1764ac" stroke-width="1" stroke-dasharray="" style="stroke: rgb(23, 100, 172);"></line><line  x1="320" y1="266.6666666666667" x2="320" y2="400" id="v-22" stroke="#1764ac" stroke-width="1" stroke-dasharray="" style="stroke: rgb(23, 100, 172);"></line><text  id="v-16" font-size="33.599999999999994px" xml:space="preserve" y="173.70000000000002" font-weight="bold" text-anchor="middle" pointer-events="visible" font-family="Tahoma, Verdana, Helvetica, Arial" fill="#ffffff" dominant-baseline="hanging" transform="matrix(1,0,0,1,200,0)" style="fill: rgb(255, 255, 255);"><tspan dy="0" >Administrator</tspan></text><text  id="v-17" font-size="16.799999999999997px" xml:space="preserve" y="215.3" text-anchor="middle" font-family="Tahoma, Verdana, Helvetica, Arial" fill="#ffffff" dominant-baseline="hanging" transform="matrix(1,0,0,1,200,0)" style="display: block; fill: rgb(255, 255, 255);"><tspan dy="0" >[Person]</tspan></text><text  id="v-18" font-size="24px" xml:space="preserve" y="247.10000000000002" text-anchor="middle" font-family="Tahoma, Verdana, Helvetica, Arial" fill="#ffffff" dominant-baseline="hanging" transform="matrix(1,0,0,1,200,0)" style="display: block; fill: rgb(255, 255, 255);"><tspan dy="0" >Identity management</tspan><tspan dy="1.2em" x="0" >administrator who</tspan><tspan dy="1.2em" x="0" >configures connected</tspan><tspan dy="1.2em" x="0" >systems, sync rules, and</tspan><tspan dy="1.2em" x="0" >monitors synchronisation</tspan></text><g  id="v-19" font-weight="normal" text-anchor="middle" color="#ffffff" transform="matrix(1,0,0,1,197.5,368)" display="none" style="fill: rgb(255, 255, 255);"><g ></g><g ></g><g ></g><g ></g></g><image  id="v-20"></image></g></g><!--z-index:24--><g   id="j_5"  transform="translate(2817,143)" style=""><g  id="v-29" style="opacity: 1;"><rect  x="0" y="160" width="400" height="240" rx="70" id="v-31" stroke-width="2" pointer-events="visiblePainted" fill="#1a6fbf" stroke="#1764ac" stroke-dasharray="" style="fill: rgb(26, 111, 191); stroke: rgb(23, 100, 172);"></rect><circle  cx="200" cy="88.88888888888889" r="88.88888888888889" id="v-30" stroke-width="2" pointer-events="visiblePainted" fill="#1a6fbf" stroke="#1764ac" stroke-dasharray="" style="fill: rgb(26, 111, 191); stroke: rgb(23, 100, 172);"></circle><line  x1="80" y1="266.6666666666667" x2="80" y2="400" id="v-37" stroke="#1764ac" stroke-width="1" stroke-dasharray="" style="stroke: rgb(23, 100, 172);"></line><line  x1="320" y1="266.6666666666667" x2="320" y2="400" id="v-38" stroke="#1764ac" stroke-width="1" stroke-dasharray="" style="stroke: rgb(23, 100, 172);"></line><text  id="v-32" font-size="33.599999999999994px" xml:space="preserve" y="216.9" font-weight="bold" text-anchor="middle" pointer-events="visible" font-family="Tahoma, Verdana, Helvetica, Arial" fill="#ffffff" dominant-baseline="hanging" transform="matrix(1,0,0,1,200,0)" style="fill: rgb(255, 255, 255);"><tspan dy="0" >Automation Client</tspan></text><text  id="v-33" font-size="16.799999999999997px" xml:space="preserve" y="258.5" text-anchor="middle" font-family="Tahoma, Verdana, Helvetica, Arial" fill="#ffffff" dominant-baseline="hanging" transform="matrix(1,0,0,1,200,0)" style="display: block; fill: rgb(255, 255, 255);"><tspan dy="0" >[Person]</tspan></text><text  id="v-34" font-size="24px" xml:space="preserve" y="290.3" text-anchor="middle" font-family="Tahoma, Verdana, Helvetica, Arial" fill="#ffffff" dominant-baseline="hanging" transform="matrix(1,0,0,1,200,0)" style="display: block; fill: rgb(255, 255, 255);"><tspan dy="0" >CI/CD pipelines and scripts</tspan><tspan dy="1.2em" x="0" >using API keys</tspan></text><g  id="v-35" font-weight="normal" text-anchor="middle" color="#ffffff" transform="matrix(1,0,0,1,197.5,368)" display="none" style="fill: rgb(255, 255, 255);"><g ></g><g ></g><g ></g><g ></g></g><image  id="v-36"></image></g></g><!--z-index:25--><g   id="j_6"  transform="translate(3942,1593)" style=""><g  id="v-45" style="opacity: 1;"><rect  id="v-46" rx="20" ry="20" stroke-width="2" pointer-events="visiblePainted" fill="#777777" stroke="#6b6b6b" stroke-dasharray="" width="450" height="300" style="fill: rgb(119, 119, 119); stroke: rgb(107, 107, 107);"></rect><text  id="v-47" font-size="33.599999999999994px" xml:space="preserve" y="86.9" font-weight="bold" text-anchor="middle" pointer-events="visible" font-family="Tahoma, Verdana, Helvetica, Arial" fill="#ffffff" dominant-baseline="hanging" transform="matrix(1,0,0,1,225,0)" style="fill: rgb(255, 255, 255);"><tspan dy="0" >Identity Provider</tspan></text><text  id="v-48" font-size="16.799999999999997px" xml:space="preserve" y="128.5" text-anchor="middle" font-family="Tahoma, Verdana, Helvetica, Arial" fill="#ffffff" dominant-baseline="hanging" transform="matrix(1,0,0,1,225,0)" style="display: block; fill: rgb(255, 255, 255);"><tspan dy="0" >[Software System]</tspan></text><text  id="v-49" font-size="24px" xml:space="preserve" y="160.3" text-anchor="middle" font-family="Tahoma, Verdana, Helvetica, Arial" fill="#ffffff" dominant-baseline="hanging" transform="matrix(1,0,0,1,225,0)" style="display: block; fill: rgb(255, 255, 255);"><tspan dy="0" >OIDC/SSO provider (Keycloak,</tspan><tspan dy="1.2em" x="0" >Entra ID, Auth0, AD FS)</tspan></text><g  id="v-50" color="#ffffff" transform="matrix(1,0,0,1,222.5,268)" display="none" style="fill: rgb(255, 255, 255);"><g ></g><g ></g><g ></g><g ></g></g><image  id="v-51"></image></g></g><!--z-index:26--><g   id="j_7"  transform="translate(192,1593)" style=""><g  id="v-58" style="opacity: 1;"><rect  id="v-59" rx="20" ry="20" stroke-width="2" pointer-events="visiblePainted" fill="#777777" stroke="#6b6b6b" stroke-dasharray="" width="450" height="300" style="fill: rgb(119, 119, 119); stroke: rgb(107, 107, 107);"></rect><text  id="v-60" font-size="33.599999999999994px" xml:space="preserve" y="86.9" font-weight="bold" text-anchor="middle" pointer-events="visible" font-family="Tahoma, Verdana, Helvetica, Arial" fill="#ffffff" dominant-baseline="hanging" transform="matrix(1,0,0,1,225,0)" style="fill: rgb(255, 255, 255);"><tspan dy="0" >Active Directory / LDAP</tspan></text><text  id="v-61" font-size="16.799999999999997px" xml:space="preserve" y="128.5" text-anchor="middle" font-family="Tahoma, Verdana, Helvetica, Arial" fill="#ffffff" dominant-baseline="hanging" transform="matrix(1,0,0,1,225,0)" style="display: block; fill: rgb(255, 255, 255);"><tspan dy="0" >[Software System]</tspan></text><text  id="v-62" font-size="24px" xml:space="preserve" y="160.3" text-anchor="middle" font-family="Tahoma, Verdana, Helvetica, Arial" fill="#ffffff" dominant-baseline="hanging" transform="matrix(1,0,0,1,225,0)" style="display: block; fill: rgb(255, 255, 255);"><tspan dy="0" >Enterprise directory services for</tspan><tspan dy="1.2em" x="0" >users and groups</tspan></text><g  id="v-63" color="#ffffff" transform="matrix(1,0,0,1,222.5,268)" display="none" style="fill: rgb(255, 255, 255);"><g ></g><g ></g><g ></g><g ></g></g><image  id="v-64"></image></g></g><!--z-index:27--><g   id="j_8"  transform="translate(942,1593)" style=""><g  id="v-68" style="opacity: 1;"><rect  id="v-69" rx="20" ry="20" stroke-width="2" pointer-events="visiblePainted" fill="#777777" stroke="#6b6b6b" stroke-dasharray="" width="450" height="300" style="fill: rgb(119, 119, 119); stroke: rgb(107, 107, 107);"></rect><text  id="v-70" font-size="33.599999999999994px" xml:space="preserve" y="86.9" font-weight="bold" text-anchor="middle" pointer-events="visible" font-family="Tahoma, Verdana, Helvetica, Arial" fill="#ffffff" dominant-baseline="hanging" transform="matrix(1,0,0,1,225,0)" style="fill: rgb(255, 255, 255);"><tspan dy="0" >HR Systems</tspan></text><text  id="v-71" font-size="16.799999999999997px" xml:space="preserve" y="128.5" text-anchor="middle" font-family="Tahoma, Verdana, Helvetica, Arial" fill="#ffffff" dominant-baseline="hanging" transform="matrix(1,0,0,1,225,0)" style="display: block; fill: rgb(255, 255, 255);"><tspan dy="0" >[Software System]</tspan></text><text  id="v-72" font-size="24px" xml:space="preserve" y="160.3" text-anchor="middle" font-family="Tahoma, Verdana, Helvetica, Arial" fill="#ffffff" dominant-baseline="hanging" transform="matrix(1,0,0,1,225,0)" style="display: block; fill: rgb(255, 255, 255);"><tspan dy="0" >Authoritative source for</tspan><tspan dy="1.2em" x="0" >employee identity data</tspan></text><g  id="v-73" color="#ffffff" transform="matrix(1,0,0,1,222.5,268)" display="none" style="fill: rgb(255, 255, 255);"><g ></g><g ></g><g ></g><g ></g></g><image  id="v-74"></image></g></g><!--z-index:28--><g   id="j_9"  transform="translate(1692,1593)" style=""><g  id="v-78" style="opacity: 1;"><rect  id="v-79" rx="20" ry="20" stroke-width="2" pointer-events="visiblePainted" fill="#777777" stroke="#6b6b6b" stroke-dasharray="" width="450" height="300" style="fill: rgb(119, 119, 119); stroke: rgb(107, 107, 107);"></rect><text  id="v-80" font-size="33.599999999999994px" xml:space="preserve" y="86.9" font-weight="bold" text-anchor="middle" pointer-events="visible" font-family="Tahoma, Verdana, Helvetica, Arial" fill="#ffffff" dominant-baseline="hanging" transform="matrix(1,0,0,1,225,0)" style="fill: rgb(255, 255, 255);"><tspan dy="0" >File Systems</tspan></text><text  id="v-81" font-size="16.799999999999997px" xml:space="preserve" y="128.5" text-anchor="middle" font-family="Tahoma, Verdana, Helvetica, Arial" fill="#ffffff" dominant-baseline="hanging" transform="matrix(1,0,0,1,225,0)" style="display: block; fill: rgb(255, 255, 255);"><tspan dy="0" >[Software System]</tspan></text><text  id="v-82" font-size="24px" xml:space="preserve" y="160.3" text-anchor="middle" font-family="Tahoma, Verdana, Helvetica, Arial" fill="#ffffff" dominant-baseline="hanging" transform="matrix(1,0,0,1,225,0)" style="display: block; fill: rgb(255, 255, 255);"><tspan dy="0" >CSV file-based bulk</tspan><tspan dy="1.2em" x="0" >import/export</tspan></text><g  id="v-83" color="#ffffff" transform="matrix(1,0,0,1,222.5,268)" display="none" style="fill: rgb(255, 255, 255);"><g ></g><g ></g><g ></g><g ></g></g><image  id="v-84"></image></g></g><!--z-index:29--><g   id="j_10"  transform="translate(2442,1593)" style=""><g  id="v-91" style="opacity: 1;"><rect  id="v-92" rx="20" ry="20" stroke-width="2" pointer-events="visiblePainted" fill="#999999" stroke="#979797" stroke-dasharray="8,8" width="450" height="300" style="fill: rgb(153, 153, 153); stroke: rgb(151, 151, 151);"></rect><text  id="v-93" font-size="33.599999999999994px" xml:space="preserve" y="86.9" font-weight="bold" text-anchor="middle" pointer-events="visible" font-family="Tahoma, Verdana, Helvetica, Arial" fill="#cccccc" dominant-baseline="hanging" transform="matrix(1,0,0,1,225,0)" style="fill: rgb(204, 204, 204);"><tspan dy="0" >Enterprise Databases</tspan></text><text  id="v-94" font-size="16.799999999999997px" xml:space="preserve" y="128.5" text-anchor="middle" font-family="Tahoma, Verdana, Helvetica, Arial" fill="#cccccc" dominant-baseline="hanging" transform="matrix(1,0,0,1,225,0)" style="display: block; fill: rgb(204, 204, 204);"><tspan dy="0" >[Software System]</tspan></text><text  id="v-95" font-size="24px" xml:space="preserve" y="160.3" text-anchor="middle" font-family="Tahoma, Verdana, Helvetica, Arial" fill="#cccccc" dominant-baseline="hanging" transform="matrix(1,0,0,1,225,0)" style="display: block; fill: rgb(204, 204, 204);"><tspan dy="0" >PostgreSQL, MySQL, Oracle,</tspan><tspan dy="1.2em" x="0" >SQL Server with identity data</tspan></text><g  id="v-96" color="#cccccc" transform="matrix(1,0,0,1,222.5,268)" display="none" style="fill: rgb(204, 204, 204);"><g ></g><g ></g><g ></g><g ></g></g><image  id="v-97"></image></g></g><!--z-index:30--><g   id="j_11"  transform="translate(3192,1593)" style=""><g  id="v-104" style="opacity: 1;"><rect  id="v-105" rx="20" ry="20" stroke-width="2" pointer-events="visiblePainted" fill="#999999" stroke="#979797" stroke-dasharray="8,8" width="450" height="300" style="fill: rgb(153, 153, 153); stroke: rgb(151, 151, 151);"></rect><text  id="v-106" font-size="33.599999999999994px" xml:space="preserve" y="86.9" font-weight="bold" text-anchor="middle" pointer-events="visible" font-family="Tahoma, Verdana, Helvetica, Arial" fill="#cccccc" dominant-baseline="hanging" transform="matrix(1,0,0,1,225,0)" style="fill: rgb(204, 204, 204);"><tspan dy="0" >SCIM 2.0 Systems</tspan></text><text  id="v-107" font-size="16.799999999999997px" xml:space="preserve" y="128.5" text-anchor="middle" font-family="Tahoma, Verdana, Helvetica, Arial" fill="#cccccc" dominant-baseline="hanging" transform="matrix(1,0,0,1,225,0)" style="display: block; fill: rgb(204, 204, 204);"><tspan dy="0" >[Software System]</tspan></text><text  id="v-108" font-size="24px" xml:space="preserve" y="160.3" text-anchor="middle" font-family="Tahoma, Verdana, Helvetica, Arial" fill="#cccccc" dominant-baseline="hanging" transform="matrix(1,0,0,1,225,0)" style="display: block; fill: rgb(204, 204, 204);"><tspan dy="0" >Cloud applications supporting</tspan><tspan dy="1.2em" x="0" >SCIM provisioning</tspan></text><g  id="v-109" color="#cccccc" transform="matrix(1,0,0,1,222.5,268)" display="none" style="fill: rgb(204, 204, 204);"><g ></g><g ></g><g ></g><g ></g></g><image  id="v-110"></image></g></g><!--z-index:31--><g   id="j_12"  transform="translate(2442,913)" style=""><g  id="v-114" style="opacity: 1;"><rect  id="v-115" rx="20" ry="20" stroke-width="2" pointer-events="visiblePainted" fill="#2b8ee6" stroke="#2780cf" stroke-dasharray="" width="450" height="300" style="fill: rgb(43, 142, 230); stroke: rgb(39, 128, 207);"></rect><text  id="v-116" font-size="33.599999999999994px" xml:space="preserve" y="29.30000000000001" font-weight="bold" text-anchor="middle" pointer-events="visible" font-family="Tahoma, Verdana, Helvetica, Arial" fill="#ffffff" dominant-baseline="hanging" transform="matrix(1,0,0,1,225,0)" style="fill: rgb(255, 255, 255);"><tspan dy="0" >JIM</tspan></text><text  id="v-117" font-size="16.799999999999997px" xml:space="preserve" y="70.9" text-anchor="middle" font-family="Tahoma, Verdana, Helvetica, Arial" fill="#ffffff" dominant-baseline="hanging" transform="matrix(1,0,0,1,225,0)" style="display: block; fill: rgb(255, 255, 255);"><tspan dy="0" >[Software System]</tspan></text><text  id="v-118" font-size="24px" xml:space="preserve" y="102.7" text-anchor="middle" font-family="Tahoma, Verdana, Helvetica, Arial" fill="#ffffff" dominant-baseline="hanging" transform="matrix(1,0,0,1,225,0)" style="display: block; fill: rgb(255, 255, 255);"><tspan dy="0" >Central identity hub</tspan><tspan dy="1.2em" x="0" >implementing the metaverse</tspan><tspan dy="1.2em" x="0" >pattern. Synchronises identities</tspan><tspan dy="1.2em" x="0" >across enterprise systems with</tspan><tspan dy="1.2em" x="0" >bidirectional data flow and</tspan><tspan dy="1.2em" x="0" >transformation</tspan></text><g  id="v-119" color="#ffffff" transform="matrix(1,0,0,1,185,268)" display="none" style="fill: rgb(255, 255, 255);"><g  transform="translate(5 0)"><svg xmlns="http://www.w3.org/2000/svg" width="20" height="20" fill="currentColor" viewBox="0 0 16 16"><path fill-rule="evenodd" d="M6.5 12a5.5 5.5 0 1 0 0-11 5.5 5.5 0 0 0 0 11zM13 6.5a6.5 6.5 0 1 1-13 0 6.5 6.5 0 0 1 13 0z"></path><path d="M10.344 11.742c.03.04.062.078.098.115l3.85 3.85a1 1 0 0 0 1.415-1.414l-3.85-3.85a1.007 1.007 0 0 0-.115-.1 6.538 6.538 0 0 1-1.398 1.4z"></path><path fill-rule="evenodd" d="M6.5 3a.5.5 0 0 1 .5.5V6h2.5a.5.5 0 0 1 0 1H7v2.5a.5.5 0 0 1-1 0V7H3.5a.5.5 0 0 1 0-1H6V3.5a.5.5 0 0 1 .5-.5z"></path></svg></g><g  transform="translate(30 0)"><svg xmlns="http://www.w3.org/2000/svg" width="20" height="20" fill="currentColor" viewBox="0 0 16 16"><path d="M1 2.828c.885-.37 2.154-.769 3.388-.893 1.33-.134 2.458.063 3.112.752v9.746c-.935-.53-2.12-.603-3.213-.493-1.18.12-2.37.461-3.287.811V2.828zm7.5-.141c.654-.689 1.782-.886 3.112-.752 1.234.124 2.503.523 3.388.893v9.923c-.918-.35-2.107-.692-3.287-.81-1.094-.111-2.278-.039-3.213.492V2.687zM8 1.783C7.015.936 5.587.81 4.287.94c-1.514.153-3.042.672-3.994 1.105A.5.5 0 0 0 0 2.5v11a.5.5 0 0 0 .707.455c.882-.4 2.303-.881 3.68-1.02 1.409-.142 2.59.087 3.223.877a.5.5 0 0 0 .78 0c.633-.79 1.814-1.019 3.222-.877 1.378.139 2.8.62 3.681 1.02A.5.5 0 0 0 16 13.5v-11a.5.5 0 0 0-.293-.455c-.952-.433-2.48-.952-3.994-1.105C10.413.809 8.985.936 8 1.783z"></path></svg></g><g  transform="translate(55 0)"><svg xmlns="http://www.w3.org/2000/svg" width="20" height="20" fill="currentColor" viewBox="0 0 16 16"><path d="M5 10.5a.5.5 0 0 1 .5-.5h2a.5.5 0 0 1 0 1h-2a.5.5 0 0 1-.5-.5zm0-2a.5.5 0 0 1 .5-.5h5a.5.5 0 0 1 0 1h-5a.5.5 0 0 1-.5-.5zm0-2a.5.5 0 0 1 .5-.5h5a.5.5 0 0 1 0 1h-5a.5.5 0 0 1-.5-.5zm0-2a.5.5 0 0 1 .5-.5h5a.5.5 0 0 1 0 1h-5a.5.5 0 0 1-.5-.5z"></path><path d="M3 0h10a2 2 0 0 1 2 2v12a2 2 0 0 1-2 2H3a2 2 0 0 1-2-2v-1h1v1a1 1 0 0 0 1 1h10a1 1 0 0 0 1-1V2a1 1 0 0 0-1-1H3a1 1 0 0 0-1 1v1H1V2a2 2 0 0 1 2-2z"></path><path d="M1 5v-.5a.5.5 0 0 1 1 0V5h.5a.5.5 0 0 1 0 1h-2a.5.5 0 0 1 0-1H1zm0 3v-.5a.5.5 0 0 1 1 0V8h.5a.5.5 0 0 1 0 1h-2a.5.5 0 0 1 0-1H1zm0 3v-.5a.5.5 0 0 1 1 0v.5h.5a.5.5 0 0 1 0 1h-2a.5.5 0 0 1 0-1H1z"></path></svg></g><g ></g></g><image  id="v-120"></image></g></g><!--z-index:32--><g   id="j_13"  style="opacity: 1;"><path fill="none" cursor="pointer" stroke="transparent" stroke-linecap="round" joint-selector="wrapper" id="v-135" stroke-width="10" stroke-linejoin="round" d="M 2317 543 L 2317 718 C 2317 724.9866666666667 2319.333333333333 730.6533333333333 2324 735 L 2510.06 913"></path><path fill="none" pointer-events="none" joint-selector="line" id="v-134" stroke="#444444" stroke-width="2" stroke-linejoin="round" stroke-dasharray="" d="M 2317 543 L 2317 718 C 2317 724.9866666666667 2319.333333333333 730.6533333333333 2324 735 L 2510.06 913" marker-end="url(#v-21252848929)"></path><g id="v-124" ><g id="v-125"  label-idx="0" cursor="move" transform="matrix(1,0,0,1,2318.72265625,703.9435424804688)" style="cursor: default;"><rect joint-selector="rect" id="v-129" fill="#ffffff" rx="3" ry="3" x="-75.45808410644531" y="-16.896385192871094" width="152.2347869873047" height="28.112449645996094" pointer-events="none"  style="display: block;"></rect><text joint-selector="text" id="v-128" font-size="24px" xml:space="preserve" fill="#444444" text-anchor="middle" pointer-events="none" font-family="Tahoma, Verdana, Helvetica, Arial" font-weight="normal"  style="display: block;"><tspan dy="0.3em" >Manages via</tspan></text></g><g id="v-126"  label-idx="1" cursor="move" transform="matrix(1,0,0,1,2318.72265625,744.4235229492188)" style="cursor: default;"><rect joint-selector="rect" id="v-131" fill="#ffffff" rx="3" ry="3" x="-64.31977844238281" y="-21.104257583618164" width="128.63955688476562" height="40.24032211303711"  pointer-events="none" style="display: block;"></rect><text joint-selector="text" id="v-130" font-size="16.799999999999997px" xml:space="preserve" fill="#444444" text-anchor="middle" pointer-events="none" font-family="Tahoma, Verdana, Helvetica, Arial" font-weight="normal"  style="display: block;"><tspan dy="-0.3em" >[Blazor Web UI,</tspan><tspan dy="1.2em" x="0" >PowerShell]</tspan></text></g><g id="v-127"  label-idx="2" cursor="move" transform="matrix(1,0,0,1,2336.958984375,792.4443969726562)" style="cursor: default;"><rect joint-selector="rect" id="v-133" fill="#ffffff" rx="3" ry="3" x="0" y="0" width="0" height="0"  display="none"></rect><text joint-selector="text" id="v-132" fill="#000000" font-size="14" text-anchor="middle" text-vertical-anchor="middle" pointer-events="none"></text></g></g></g><!--z-index:33--><g   id="j_14"  style="opacity: 1;"><path fill="none" cursor="pointer" stroke="transparent" stroke-linecap="round" joint-selector="wrapper" id="v-155" stroke-width="10" stroke-linejoin="round" d="M 3017 543 L 3017 718 C 3017 724.9866666666667 3014.6666666666665 730.6533333333333 3010 735 L 2823.94 913"></path><path fill="none" pointer-events="none" joint-selector="line" id="v-154" stroke="#444444" stroke-width="2" stroke-linejoin="round" stroke-dasharray="" d="M 3017 543 L 3017 718 C 3017 724.9866666666667 3014.6666666666665 730.6533333333333 3010 735 L 2823.94 913" marker-end="url(#v-21252848929)"></path><g id="v-144" ><g id="v-145"  label-idx="0" cursor="move" transform="matrix(1,0,0,1,3015.27734375,714.0235595703125)" style="cursor: default;"><rect joint-selector="rect" id="v-149" fill="#ffffff" rx="3" ry="3" x="-86.75325775146484" y="-16.896385192871094" width="174.85964965820312" height="28.112449645996094" pointer-events="none"  style="display: block;"></rect><text joint-selector="text" id="v-148" font-size="24px" xml:space="preserve" fill="#444444" text-anchor="middle" pointer-events="none" font-family="Tahoma, Verdana, Helvetica, Arial" font-weight="normal"  style="display: block;"><tspan dy="0.3em" >Automates via</tspan></text></g><g id="v-146"  label-idx="1" cursor="move" transform="matrix(1,0,0,1,3015.27734375,744.4235229492188)" style="cursor: default;"><rect joint-selector="rect" id="v-151" fill="#ffffff" rx="3" ry="3" x="-95.0991439819336" y="-11.024256706237793" width="191.67662048339844" height="20.080320358276367"  pointer-events="none" style="display: block;"></rect><text joint-selector="text" id="v-150" font-size="16.799999999999997px" xml:space="preserve" fill="#444444" text-anchor="middle" pointer-events="none" font-family="Tahoma, Verdana, Helvetica, Arial" font-weight="normal"  style="display: block;"><tspan dy="0.3em" >[REST API, PowerShell]</tspan></text></g><g id="v-147"  label-idx="2" cursor="move" transform="matrix(1,0,0,1,2977.041015625,782.3643798828125)" style="cursor: default;"><rect joint-selector="rect" id="v-153" fill="#ffffff" rx="3" ry="3" x="0" y="0" width="0" height="0"  display="none"></rect><text joint-selector="text" id="v-152" fill="#000000" font-size="14" text-anchor="middle" text-vertical-anchor="middle" pointer-events="none"></text></g></g></g><!--z-index:34--><g   id="j_15"  style="opacity: 1;"><path fill="none" cursor="pointer" stroke="transparent" stroke-linecap="round" joint-selector="wrapper" id="v-173" stroke-width="10" stroke-linejoin="round" d="M 4231.11 1593 L 4308 1413 C 4310.666666666666 1406.84 4308.666666666666 1403.1733333333332 4302 1402 L 2892 1109.61"></path><path fill="none" pointer-events="none" joint-selector="line" id="v-172" stroke="#444444" stroke-width="2" stroke-linejoin="round" stroke-dasharray="" d="M 4231.11 1593 L 4308 1413 C 4310.666666666666 1406.84 4308.666666666666 1403.1733333333332 4302 1402 L 2892 1109.61" marker-end="url(#v-21252848929)"></path><g id="v-162" ><g id="v-163"  label-idx="0" cursor="move" transform="matrix(1,0,0,1,4306.9697265625,1390.4949951171875)" style="cursor: default;"><rect joint-selector="rect" id="v-167" fill="#ffffff" rx="3" ry="3" x="-83.36470794677734" y="-16.896385192871094" width="166.7294158935547" height="28.112449645996094" pointer-events="none"  style="display: block;"></rect><text joint-selector="text" id="v-166" font-size="24px" xml:space="preserve" fill="#444444" text-anchor="middle" pointer-events="none" font-family="Tahoma, Verdana, Helvetica, Arial" font-weight="normal"  style="display: block;"><tspan dy="0.3em" >Authenticates</tspan></text></g><g id="v-164"  label-idx="1" cursor="move" transform="matrix(1,0,0,1,4306.9697265625,1420.8948974609375)" style="cursor: default;"><rect joint-selector="rect" id="v-169" fill="#ffffff" rx="3" ry="3" x="-99.3348388671875" y="-11.024256706237793" width="200.1365966796875" height="20.080320358276367"  pointer-events="none" style="display: block;"></rect><text joint-selector="text" id="v-168" font-size="16.799999999999997px" xml:space="preserve" fill="#444444" text-anchor="middle" pointer-events="none" font-family="Tahoma, Verdana, Helvetica, Arial" font-weight="normal"  style="display: block;"><tspan dy="0.3em" >[OIDC/OpenID Connect]</tspan></text></g><g id="v-165"  label-idx="2" cursor="move" transform="matrix(1,0,0,1,3690.339599609375,1302.6343994140625)" style="cursor: default;"><rect joint-selector="rect" id="v-171" fill="#ffffff" rx="3" ry="3" x="0" y="0" width="0" height="0"  display="none"></rect><text joint-selector="text" id="v-170" fill="#000000" font-size="14" text-anchor="middle" text-vertical-anchor="middle" pointer-events="none"></text></g></g></g><!--z-index:35--><g   id="j_16"  style="opacity: 1;"><path fill="none" cursor="pointer" stroke="transparent" stroke-linecap="round" joint-selector="wrapper" id="v-188" stroke-width="10" stroke-linejoin="round" d="M 2442 1097.08 L 427 1402 C 420.3333333333333 1403.1733333333332 417 1407.1733333333332 417 1414 L 417 1593"></path><path fill="none" pointer-events="none" joint-selector="line" id="v-187" stroke="#444444" stroke-width="2" stroke-linejoin="round" stroke-dasharray="" d="M 2442 1097.08 L 427 1402 C 420.3333333333333 1403.1733333333332 417 1407.1733333333332 417 1414 L 417 1593" marker-end="url(#v-21252848929)"></path><g id="v-177" ><g id="v-178"  label-idx="0" cursor="move" transform="matrix(1,0,0,1,420.8092041015625,1391.190185546875)" style="cursor: default;"><rect joint-selector="rect" id="v-182" fill="#ffffff" rx="3" ry="3" x="-79.285888671875" y="-16.896385192871094" width="158.57177734375" height="28.112449645996094" pointer-events="none"  style="display: block;"></rect><text joint-selector="text" id="v-181" font-size="24px" xml:space="preserve" fill="#444444" text-anchor="middle" pointer-events="none" font-family="Tahoma, Verdana, Helvetica, Arial" font-weight="normal"  style="display: block;"><tspan dy="0.3em" >Synchronises</tspan></text></g><g id="v-179"  label-idx="1" cursor="move" transform="matrix(1,0,0,1,420.8092041015625,1421.5902099609375)" style="cursor: default;"><rect joint-selector="rect" id="v-184" fill="#ffffff" rx="3" ry="3" x="-58.20155334472656" y="-11.024256706237793" width="117.860107421875" height="20.080320358276367"  pointer-events="none" style="display: block;"></rect><text joint-selector="text" id="v-183" font-size="16.799999999999997px" xml:space="preserve" fill="#444444" text-anchor="middle" pointer-events="none" font-family="Tahoma, Verdana, Helvetica, Arial" font-weight="normal"  style="display: block;"><tspan dy="0.3em" >[LDAP/LDAPS]</tspan></text></g><g id="v-180"  label-idx="2" cursor="move" transform="matrix(1,0,0,1,1327.458740234375,1289.624755859375)" style="cursor: default;"><rect joint-selector="rect" id="v-186" fill="#ffffff" rx="3" ry="3" x="0" y="0" width="0" height="0"  display="none"></rect><text joint-selector="text" id="v-185" fill="#000000" font-size="14" text-anchor="middle" text-vertical-anchor="middle" pointer-events="none"></text></g></g></g><!--z-index:36--><g   id="j_17"  style="opacity: 1;"><path fill="none" cursor="pointer" stroke="transparent" stroke-linecap="round" joint-selector="wrapper" id="v-203" stroke-width="10" stroke-linejoin="round" d="M 2442 1114.11 L 1177 1402 C 1170.3333333333333 1403.1733333333332 1167 1407.1733333333332 1167 1414 L 1167 1593"></path><path fill="none" pointer-events="none" joint-selector="line" id="v-202" stroke="#444444" stroke-width="2" stroke-linejoin="round" stroke-dasharray="" d="M 2442 1114.11 L 1177 1402 C 1170.3333333333333 1403.1733333333332 1167 1407.1733333333332 1167 1414 L 1167 1593" marker-end="url(#v-21252848929)"></path><g id="v-192" ><g id="v-193"  label-idx="0" cursor="move" transform="matrix(1,0,0,1,1170.6895751953125,1391.288818359375)" style="cursor: default;"><rect joint-selector="rect" id="v-197" fill="#ffffff" rx="3" ry="3" x="-77.74848937988281" y="-16.896385192871094" width="156.19361877441406" height="28.112449645996094" pointer-events="none"  style="display: block;"></rect><text joint-selector="text" id="v-196" font-size="24px" xml:space="preserve" fill="#444444" text-anchor="middle" pointer-events="none" font-family="Tahoma, Verdana, Helvetica, Arial" font-weight="normal"  style="display: block;"><tspan dy="0.3em" >Imports from</tspan></text></g><g id="v-194"  label-idx="1" cursor="move" transform="matrix(1,0,0,1,1170.6895751953125,1421.6888427734375)" style="cursor: default;"><rect joint-selector="rect" id="v-199" fill="#ffffff" rx="3" ry="3" x="-23.4375" y="-11.024256706237793" width="48.36410903930664" height="20.080320358276367"  pointer-events="none" style="display: block;"></rect><text joint-selector="text" id="v-198" font-size="16.799999999999997px" xml:space="preserve" fill="#444444" text-anchor="middle" pointer-events="none" font-family="Tahoma, Verdana, Helvetica, Arial" font-weight="normal"  style="display: block;"><tspan dy="0.3em" >[CSV]</tspan></text></g><g id="v-195"  label-idx="2" cursor="move" transform="matrix(1,0,0,1,1703.8009033203125,1305.2342529296875)" style="cursor: default;"><rect joint-selector="rect" id="v-201" fill="#ffffff" rx="3" ry="3" x="0" y="0" width="0" height="0"  display="none"></rect><text joint-selector="text" id="v-200" fill="#000000" font-size="14" text-anchor="middle" text-vertical-anchor="middle" pointer-events="none"></text></g></g></g><!--z-index:37--><g   id="j_18"  style="opacity: 1;"><path fill="none" cursor="pointer" stroke="transparent" stroke-linecap="round" joint-selector="wrapper" id="v-218" stroke-width="10" stroke-linejoin="round" d="M 2442 1165.23 L 1926 1400 C 1920 1402.5066666666667 1917 1407.1733333333332 1917 1414 L 1917 1593"></path><path fill="none" pointer-events="none" joint-selector="line" id="v-217" stroke="#444444" stroke-width="2" stroke-linejoin="round" stroke-dasharray="" d="M 2442 1165.23 L 1926 1400 C 1920 1402.5066666666667 1917 1407.1733333333332 1917 1414 L 1917 1593" marker-end="url(#v-21252848929)"></path><g id="v-207" ><g id="v-208"  label-idx="0" cursor="move" transform="matrix(1,0,0,1,1919.92724609375,1391.0277099609375)" style="cursor: default;"><rect joint-selector="rect" id="v-212" fill="#ffffff" rx="3" ry="3" x="-95.53839874267578" y="-16.896385192871094" width="191.07679748535156" height="28.112449645996094" pointer-events="none"  style="display: block;"></rect><text joint-selector="text" id="v-211" font-size="24px" xml:space="preserve" fill="#444444" text-anchor="middle" pointer-events="none" font-family="Tahoma, Verdana, Helvetica, Arial" font-weight="normal"  style="display: block;"><tspan dy="0.3em" >Imports/Exports</tspan></text></g><g id="v-209"  label-idx="1" cursor="move" transform="matrix(1,0,0,1,1919.92724609375,1421.4276123046875)" style="cursor: default;"><rect joint-selector="rect" id="v-214" fill="#ffffff" rx="3" ry="3" x="-43.23543930053711" y="-11.024256706237793" width="87.93529510498047" height="20.080320358276367"  pointer-events="none" style="display: block;"></rect><text joint-selector="text" id="v-213" font-size="16.799999999999997px" xml:space="preserve" fill="#444444" text-anchor="middle" pointer-events="none" font-family="Tahoma, Verdana, Helvetica, Arial" font-weight="normal"  style="display: block;"><tspan dy="0.3em" >[CSV files]</tspan></text></g><g id="v-210"  label-idx="2" cursor="move" transform="matrix(1,0,0,1,2084.435791015625,1348.764892578125)" style="cursor: default;"><rect joint-selector="rect" id="v-216" fill="#ffffff" rx="3" ry="3" x="0" y="2.2737367544323206e-13" width="0" height="0"  display="none"></rect><text joint-selector="text" id="v-215" fill="#000000" font-size="14" text-anchor="middle" text-vertical-anchor="middle" pointer-events="none"></text></g></g></g><!--z-index:38--><g   id="j_19"  style="opacity: 1;"><path fill="none" cursor="pointer" stroke="transparent" stroke-linecap="round" joint-selector="wrapper" id="v-233" stroke-width="10" stroke-linejoin="round" d="M 2667 1213 L 2667 1593"></path><path fill="none" pointer-events="none" joint-selector="line" id="v-232" stroke="#999999" stroke-width="2" stroke-linejoin="round" stroke-dasharray="8 8" d="M 2667 1213 L 2667 1593" marker-end="url(#v-21611757857)"></path><g id="v-222" ><g id="v-223"  label-idx="0" cursor="move" transform="matrix(1,0,0,1,2667,1389.5999755859375)" style="cursor: default;"><rect joint-selector="rect" id="v-227" fill="#ffffff" rx="3" ry="3" x="-79.285888671875" y="-16.896385192871094" width="158.57177734375" height="28.112449645996094" pointer-events="none"  style="display: block;"></rect><text joint-selector="text" id="v-226" font-size="24px" xml:space="preserve" fill="#999999" text-anchor="middle" pointer-events="none" font-family="Tahoma, Verdana, Helvetica, Arial" font-weight="normal"  style="display: block;"><tspan dy="0.3em" >Synchronises</tspan></text></g><g id="v-224"  label-idx="1" cursor="move" transform="matrix(1,0,0,1,2667,1420)" style="cursor: default;"><rect joint-selector="rect" id="v-229" fill="#ffffff" rx="3" ry="3" x="-23.12374496459961" y="-11.024256706237793" width="47.72599792480469" height="20.080320358276367"  pointer-events="none" style="display: block;"></rect><text joint-selector="text" id="v-228" font-size="16.799999999999997px" xml:space="preserve" fill="#999999" text-anchor="middle" pointer-events="none" font-family="Tahoma, Verdana, Helvetica, Arial" font-weight="normal"  style="display: block;"><tspan dy="0.3em" >[SQL]</tspan></text></g><g id="v-225"  label-idx="2" cursor="move" transform="matrix(1,0,0,1,2657,1428.4000244140625)" style="cursor: default;"><rect joint-selector="rect" id="v-231" fill="#ffffff" rx="3" ry="3" x="0" y="2.2737367544323206e-13" width="0" height="0"  display="none"></rect><text joint-selector="text" id="v-230" fill="#000000" font-size="14" text-anchor="middle" text-vertical-anchor="middle" pointer-events="none"></text></g></g></g><!--z-index:39--><g   id="j_20"  style="opacity: 1;"><path fill="none" cursor="pointer" stroke="transparent" stroke-linecap="round" joint-selector="wrapper" id="v-250" stroke-width="10" stroke-linejoin="round" d="M 2892 1165.23 L 3408 1400 C 3414 1402.5066666666667 3417 1407.1733333333332 3417 1414 L 3417 1593"></path><path fill="none" pointer-events="none" joint-selector="line" id="v-249" stroke="#999999" stroke-width="2" stroke-linejoin="round" stroke-dasharray="8 8" d="M 2892 1165.23 L 3408 1400 C 3414 1402.5066666666667 3417 1407.1733333333332 3417 1414 L 3417 1593" marker-end="url(#v-21611757857)"></path><g id="v-239" ><g id="v-240"  label-idx="0" cursor="move" transform="matrix(1,0,0,1,3414.07275390625,1391.0277099609375)" style="cursor: default;"><rect joint-selector="rect" id="v-244" fill="#ffffff" rx="3" ry="3" x="-76.05421447753906" y="-16.896385192871094" width="153.45187377929688" height="28.112449645996094" pointer-events="none"  style="display: block;"></rect><text joint-selector="text" id="v-243" font-size="24px" xml:space="preserve" fill="#999999" text-anchor="middle" pointer-events="none" font-family="Tahoma, Verdana, Helvetica, Arial" font-weight="normal"  style="display: block;"><tspan dy="0.3em" >Provisions to</tspan></text></g><g id="v-241"  label-idx="1" cursor="move" transform="matrix(1,0,0,1,3414.07275390625,1421.4276123046875)" style="cursor: default;"><rect joint-selector="rect" id="v-246" fill="#ffffff" rx="3" ry="3" x="-43.39231872558594" y="-11.024256706237793" width="88.27074432373047" height="20.080320358276367"  pointer-events="none" style="display: block;"></rect><text joint-selector="text" id="v-245" font-size="16.799999999999997px" xml:space="preserve" fill="#999999" text-anchor="middle" pointer-events="none" font-family="Tahoma, Verdana, Helvetica, Arial" font-weight="normal"  style="display: block;"><tspan dy="0.3em" >[SCIM 2.0]</tspan></text></g><g id="v-242"  label-idx="2" cursor="move" transform="matrix(1,0,0,1,3229.564208984375,1348.764892578125)" style="cursor: default;"><rect joint-selector="rect" id="v-248" fill="#ffffff" rx="3" ry="3" x="0" y="2.2737367544323206e-13" width="0" height="0"  display="none"></rect><text joint-selector="text" id="v-247" fill="#000000" font-size="14" text-anchor="middle" text-vertical-anchor="middle" pointer-events="none"></text></g></g></g><!--z-index:40--><g   id="j_21"  style="opacity: 1;"><path fill="none" cursor="pointer" stroke="transparent" stroke-linecap="round" joint-selector="wrapper" id="v-265" stroke-width="10" stroke-linejoin="round" d="M 2892 1123.37 L 3927 1401 C 3933.6666666666665 1402.84 3939 1406.5066666666667 3943 1412 L 4065.3 1593"></path><path fill="none" pointer-events="none" joint-selector="line" id="v-264" stroke="#444444" stroke-width="2" stroke-linejoin="round" stroke-dasharray="" d="M 2892 1123.37 L 3927 1401 C 3933.6666666666665 1402.84 3939 1406.5066666666667 3943 1412 L 4065.3 1593" marker-end="url(#v-21252848929)"></path><g id="v-254" ><g id="v-255"  label-idx="0" cursor="move" transform="matrix(1,0,0,1,3935.4326171875,1391.35009765625)" style="cursor: default;"><rect joint-selector="rect" id="v-259" fill="#ffffff" rx="3" ry="3" x="-83.36470794677734" y="-31.296384811401367" width="166.7294158935547" height="56.912452697753906" pointer-events="none"  style="display: block;"></rect><text joint-selector="text" id="v-258" font-size="24px" xml:space="preserve" fill="#444444" text-anchor="middle" pointer-events="none" font-family="Tahoma, Verdana, Helvetica, Arial" font-weight="normal"  style="display: block;"><tspan dy="-0.3em" >Authenticates</tspan><tspan dy="1.2em" x="0" >via</tspan></text></g><g id="v-256"  label-idx="1" cursor="move" transform="matrix(1,0,0,1,3935.4326171875,1436.1500244140625)" style="cursor: default;"><rect joint-selector="rect" id="v-261" fill="#ffffff" rx="3" ry="3" x="-27.924196243286133" y="-11.024256706237793" width="57.297672271728516" height="20.080320358276367"  pointer-events="none" style="display: block;"></rect><text joint-selector="text" id="v-260" font-size="16.799999999999997px" xml:space="preserve" fill="#444444" text-anchor="middle" pointer-events="none" font-family="Tahoma, Verdana, Helvetica, Arial" font-weight="normal"  style="display: block;"><tspan dy="0.3em" >[OIDC]</tspan></text></g><g id="v-257"  label-idx="2" cursor="move" transform="matrix(1,0,0,1,3514.554443359375,1332.847412109375)" style="cursor: default;"><rect joint-selector="rect" id="v-263" fill="#ffffff" rx="3" ry="3" x="0" y="2.2737367544323206e-13" width="0" height="0"  display="none"></rect><text joint-selector="text" id="v-262" fill="#000000" font-size="14" text-anchor="middle" text-vertical-anchor="middle" pointer-events="none"></text></g></g></g><!--z-index:41--></g><g  style="user-select: none;"></g><g ></g><g  display="none"><g transform="translate(20,2141)"><g><text font-size="24px" xml:space="preserve" y="0.8em" font-weight="normal" text-anchor="start" fill="#444444" pointer-events="none" display="block" font-family="Open Sans, Tahoma, Arial"><tspan dy="0" display="block">JIM v0.7.1</tspan></text></g></g></g></g></svg>