<svg xmlns="http://www.w3.org/2000/svg" xmlns:xlink="http://www.w3.org/1999/xlink" version="1.1" viewBox="0 0 4600 2600" style="background: #ffffff"><defs joint-selector="defs"></defs><g joint-selector="layers"  transform="matrix(1,0,0,1,0,0)"><g ></g><g ><!--z-index:0--><!--z-index:1--><!--z-index:2--><!--z-index:3--><!--z-index:4--><!--z-index:5--><!--z-index:6--><!--z-index:7--><!--z-index:8--><!--z-index:9--><!--z-index:10--><!--z-index:11--><!--z-index:12--><!--z-index:13--><!--z-index:14--><!--z-index:15--><!--z-index:16--><!--z-index:17--><!--z-index:18--><!--z-index:19--><!--z-index:20--><!--z-index:21--><!--z-index:22--><!--z-index:23--><!--z-index:24--><g   id="j_3"  transform="translate(20,2556)"><g id="v-7"><text  id="v-8" font-size="24px" xml:space="preserve" y="0.8em" font-weight="normal" text-anchor="start" fill="#444444" pointer-events="none" display="block" font-family="Open Sans, Tahoma, Arial"><tspan dy="0"  display="block">Friday, February 20, 2026 at 1:45 PM Coordinated Universal Time</tspan></text></g></g><!--z-index:25--><g   id="j_2"  transform="translate(20,2522)"><g id="v-5"><text  id="v-6" font-size="24px" xml:space="preserve" y="0.8em" font-weight="normal" text-anchor="start" fill="#444444" pointer-events="none" display="block" font-family="Open Sans, Tahoma, Arial"><tspan dy="0"  display="block">System Context diagram for JIM</tspan></text></g></g><!--z-index:26--><g   id="j_1"  transform="translate(20,2476)"><g id="v-3"><text  id="v-4" font-size="36px" xml:space="preserve" y="0.8em" font-weight="normal" text-anchor="start" fill="#444444" pointer-events="none" display="block" font-family="Open Sans, Tahoma, Arial"><tspan dy="0"  display="block">System Context View: JIM</tspan></text></g></g><!--z-index:27--><g   id="j_4"  transform="translate(1374,142)" style=""><g  id="v-12" style="opacity: 1;"><rect  x="0" y="160" width="400" height="240" rx="70" id="v-14" stroke-width="2" pointer-events="visiblePainted" fill="#08427b" stroke="#073b6f" stroke-dasharray=""></rect><circle  cx="200" cy="88.88888888888889" r="88.88888888888889" id="v-13" stroke-width="2" pointer-events="visiblePainted" fill="#08427b" stroke="#073b6f" stroke-dasharray=""></circle><line  x1="80" y1="266.6666666666667" x2="80" y2="400" id="v-20" stroke="#073b6f" stroke-width="1" stroke-dasharray=""></line><line  x1="320" y1="266.6666666666667" x2="320" y2="400" id="v-21" stroke="#073b6f" stroke-width="1" stroke-dasharray=""></line><text  id="v-15" font-size="33.599999999999994px" xml:space="preserve" y="173.70000000000002" font-weight="bold" text-anchor="middle" pointer-events="visible" font-family="Open Sans, Tahoma, Arial" fill="#ffffff" dominant-baseline="hanging" transform="matrix(1,0,0,1,200,0)"><tspan dy="0" >Administrator</tspan></text><text  id="v-16" font-size="16.799999999999997px" xml:space="preserve" y="215.3" text-anchor="middle" font-family="Open Sans, Tahoma, Arial" fill="#ffffff" dominant-baseline="hanging" transform="matrix(1,0,0,1,200,0)" style="display: block;"><tspan dy="0" >[Person]</tspan></text><text  id="v-17" font-size="24px" xml:space="preserve" y="247.10000000000002" text-anchor="middle" font-family="Open Sans, Tahoma, Arial" fill="#ffffff" dominant-baseline="hanging" transform="matrix(1,0,0,1,200,0)" style="display: block;"><tspan dy="0" >Identity management</tspan><tspan dy="1.2em" x="0" >administrator who configures</tspan><tspan dy="1.2em" x="0" >connected systems, sync</tspan><tspan dy="1.2em" x="0" >rules, and monitors</tspan><tspan dy="1.2em" x="0" >synchronisation</tspan></text><g  id="v-18" font-weight="normal" text-anchor="middle" color="#ffffff" transform="matrix(1,0,0,1,197.5,368)" display="none"><g ></g><g ></g><g ></g><g ></g></g><image  id="v-19"></image></g></g><!--z-index:28--><g   id="j_5"  transform="translate(2237,142)" style=""><g  id="v-28" style="opacity: 1;"><rect  x="0" y="160" width="400" height="240" rx="70" id="v-30" stroke-width="2" pointer-events="visiblePainted" fill="#08427b" stroke="#073b6f" stroke-dasharray=""></rect><circle  cx="200" cy="88.88888888888889" r="88.88888888888889" id="v-29" stroke-width="2" pointer-events="visiblePainted" fill="#08427b" stroke="#073b6f" stroke-dasharray=""></circle><line  x1="80" y1="266.6666666666667" x2="80" y2="400" id="v-36" stroke="#073b6f" stroke-width="1" stroke-dasharray=""></line><line  x1="320" y1="266.6666666666667" x2="320" y2="400" id="v-37" stroke="#073b6f" stroke-width="1" stroke-dasharray=""></line><text  id="v-31" font-size="33.599999999999994px" xml:space="preserve" y="216.9" font-weight="bold" text-anchor="middle" pointer-events="visible" font-family="Open Sans, Tahoma, Arial" fill="#ffffff" dominant-baseline="hanging" transform="matrix(1,0,0,1,200,0)"><tspan dy="0" >Automation Client</tspan></text><text  id="v-32" font-size="16.799999999999997px" xml:space="preserve" y="258.5" text-anchor="middle" font-family="Open Sans, Tahoma, Arial" fill="#ffffff" dominant-baseline="hanging" transform="matrix(1,0,0,1,200,0)" style="display: block;"><tspan dy="0" >[Person]</tspan></text><text  id="v-33" font-size="24px" xml:space="preserve" y="290.3" text-anchor="middle" font-family="Open Sans, Tahoma, Arial" fill="#ffffff" dominant-baseline="hanging" transform="matrix(1,0,0,1,200,0)" style="display: block;"><tspan dy="0" >CI/CD pipelines and scripts</tspan><tspan dy="1.2em" x="0" >using API keys</tspan></text><g  id="v-34" font-weight="normal" text-anchor="middle" color="#ffffff" transform="matrix(1,0,0,1,197.5,368)" display="none"><g ></g><g ></g><g ></g><g ></g></g><image  id="v-35"></image></g></g><!--z-index:29--><g   id="j_6"  transform="translate(199,2042)" style=""><g  id="v-44" style="opacity: 1;"><rect  id="v-45" rx="20" ry="20" stroke-width="2" pointer-events="visiblePainted" fill="#999999" stroke="#8a8a8a" stroke-dasharray="" width="450" height="300"></rect><text  id="v-46" font-size="33.599999999999994px" xml:space="preserve" y="86.9" font-weight="bold" text-anchor="middle" pointer-events="visible" font-family="Open Sans, Tahoma, Arial" fill="#ffffff" dominant-baseline="hanging" transform="matrix(1,0,0,1,225,0)"><tspan dy="0" >Identity Provider</tspan></text><text  id="v-47" font-size="16.799999999999997px" xml:space="preserve" y="128.5" text-anchor="middle" font-family="Open Sans, Tahoma, Arial" fill="#ffffff" dominant-baseline="hanging" transform="matrix(1,0,0,1,225,0)" style="display: block;"><tspan dy="0" >[Software System]</tspan></text><text  id="v-48" font-size="24px" xml:space="preserve" y="160.3" text-anchor="middle" font-family="Open Sans, Tahoma, Arial" fill="#ffffff" dominant-baseline="hanging" transform="matrix(1,0,0,1,225,0)" style="display: block;"><tspan dy="0" >OIDC/SSO provider (Keycloak,</tspan><tspan dy="1.2em" x="0" >Entra ID, Auth0, AD FS)</tspan></text><g  id="v-49" color="#ffffff" transform="matrix(1,0,0,1,222.5,268)" display="none"><g ></g><g ></g><g ></g><g ></g></g><image  id="v-50"></image></g></g><!--z-index:30--><g   id="j_7"  transform="translate(1699,842)" style=""><g  id="v-57" style="opacity: 1;"><rect  id="v-58" rx="20" ry="20" stroke-width="2" pointer-events="visiblePainted" fill="#999999" stroke="#8a8a8a" stroke-dasharray="" width="450" height="300"></rect><text  id="v-59" font-size="33.599999999999994px" xml:space="preserve" y="72.5" font-weight="bold" text-anchor="middle" pointer-events="visible" font-family="Open Sans, Tahoma, Arial" fill="#ffffff" dominant-baseline="hanging" transform="matrix(1,0,0,1,225,0)"><tspan dy="0" >JIM PowerShell Module</tspan></text><text  id="v-60" font-size="16.799999999999997px" xml:space="preserve" y="114.1" text-anchor="middle" font-family="Open Sans, Tahoma, Arial" fill="#ffffff" dominant-baseline="hanging" transform="matrix(1,0,0,1,225,0)" style="display: block;"><tspan dy="0" >[Software System]</tspan></text><text  id="v-61" font-size="24px" xml:space="preserve" y="145.89999999999998" text-anchor="middle" font-family="Open Sans, Tahoma, Arial" fill="#ffffff" dominant-baseline="hanging" transform="matrix(1,0,0,1,225,0)" style="display: block;"><tspan dy="0" >Cross-platform module with 35+</tspan><tspan dy="1.2em" x="0" >cmdlets for automation and</tspan><tspan dy="1.2em" x="0" >scripting</tspan></text><g  id="v-62" color="#ffffff" transform="matrix(1,0,0,1,222.5,268)" display="none"><g ></g><g ></g><g ></g><g ></g></g><image  id="v-63"></image></g></g><!--z-index:31--><g   id="j_8"  transform="translate(949,2042)" style=""><g  id="v-70" style="opacity: 1;"><rect  id="v-71" rx="20" ry="20" stroke-width="2" pointer-events="visiblePainted" fill="#999999" stroke="#8a8a8a" stroke-dasharray="" width="450" height="300"></rect><text  id="v-72" font-size="33.599999999999994px" xml:space="preserve" y="86.9" font-weight="bold" text-anchor="middle" pointer-events="visible" font-family="Open Sans, Tahoma, Arial" fill="#ffffff" dominant-baseline="hanging" transform="matrix(1,0,0,1,225,0)"><tspan dy="0" >Active Directory / LDAP</tspan></text><text  id="v-73" font-size="16.799999999999997px" xml:space="preserve" y="128.5" text-anchor="middle" font-family="Open Sans, Tahoma, Arial" fill="#ffffff" dominant-baseline="hanging" transform="matrix(1,0,0,1,225,0)" style="display: block;"><tspan dy="0" >[Software System]</tspan></text><text  id="v-74" font-size="24px" xml:space="preserve" y="160.3" text-anchor="middle" font-family="Open Sans, Tahoma, Arial" fill="#ffffff" dominant-baseline="hanging" transform="matrix(1,0,0,1,225,0)" style="display: block;"><tspan dy="0" >Enterprise directory services for</tspan><tspan dy="1.2em" x="0" >users and groups</tspan></text><g  id="v-75" color="#ffffff" transform="matrix(1,0,0,1,222.5,268)" display="none"><g ></g><g ></g><g ></g><g ></g></g><image  id="v-76"></image></g></g><!--z-index:32--><g   id="j_9"  transform="translate(1699,2042)" style=""><g  id="v-80" style="opacity: 1;"><rect  id="v-81" rx="20" ry="20" stroke-width="2" pointer-events="visiblePainted" fill="#999999" stroke="#8a8a8a" stroke-dasharray="" width="450" height="300"></rect><text  id="v-82" font-size="33.599999999999994px" xml:space="preserve" y="86.9" font-weight="bold" text-anchor="middle" pointer-events="visible" font-family="Open Sans, Tahoma, Arial" fill="#ffffff" dominant-baseline="hanging" transform="matrix(1,0,0,1,225,0)"><tspan dy="0" >HR Systems</tspan></text><text  id="v-83" font-size="16.799999999999997px" xml:space="preserve" y="128.5" text-anchor="middle" font-family="Open Sans, Tahoma, Arial" fill="#ffffff" dominant-baseline="hanging" transform="matrix(1,0,0,1,225,0)" style="display: block;"><tspan dy="0" >[Software System]</tspan></text><text  id="v-84" font-size="24px" xml:space="preserve" y="160.3" text-anchor="middle" font-family="Open Sans, Tahoma, Arial" fill="#ffffff" dominant-baseline="hanging" transform="matrix(1,0,0,1,225,0)" style="display: block;"><tspan dy="0" >Authoritative source for employee</tspan><tspan dy="1.2em" x="0" >identity data</tspan></text><g  id="v-85" color="#ffffff" transform="matrix(1,0,0,1,222.5,268)" display="none"><g ></g><g ></g><g ></g><g ></g></g><image  id="v-86"></image></g></g><!--z-index:33--><g   id="j_10"  transform="translate(2449,2042)" style=""><g  id="v-90" style="opacity: 1;"><rect  id="v-91" rx="20" ry="20" stroke-width="2" pointer-events="visiblePainted" fill="#999999" stroke="#8a8a8a" stroke-dasharray="" width="450" height="300"></rect><text  id="v-92" font-size="33.599999999999994px" xml:space="preserve" y="101.30000000000001" font-weight="bold" text-anchor="middle" pointer-events="visible" font-family="Open Sans, Tahoma, Arial" fill="#ffffff" dominant-baseline="hanging" transform="matrix(1,0,0,1,225,0)"><tspan dy="0" >File Systems</tspan></text><text  id="v-93" font-size="16.799999999999997px" xml:space="preserve" y="142.9" text-anchor="middle" font-family="Open Sans, Tahoma, Arial" fill="#ffffff" dominant-baseline="hanging" transform="matrix(1,0,0,1,225,0)" style="display: block;"><tspan dy="0" >[Software System]</tspan></text><text  id="v-94" font-size="24px" xml:space="preserve" y="174.7" text-anchor="middle" font-family="Open Sans, Tahoma, Arial" fill="#ffffff" dominant-baseline="hanging" transform="matrix(1,0,0,1,225,0)" style="display: block;"><tspan dy="0" >CSV file-based bulk import/export</tspan></text><g  id="v-95" color="#ffffff" transform="matrix(1,0,0,1,222.5,268)" display="none"><g ></g><g ></g><g ></g><g ></g></g><image  id="v-96"></image></g></g><!--z-index:34--><g   id="j_11"  transform="translate(3199,2042)" style=""><g  id="v-103" style="opacity: 1;"><rect  id="v-104" rx="20" ry="20" stroke-width="2" pointer-events="visiblePainted" fill="#f0f0f0" stroke="#e5e5e5" stroke-dasharray="8,8" width="450" height="300"></rect><text  id="v-105" font-size="33.599999999999994px" xml:space="preserve" y="86.9" font-weight="bold" text-anchor="middle" pointer-events="visible" font-family="Open Sans, Tahoma, Arial" fill="#b3b3b3" dominant-baseline="hanging" transform="matrix(1,0,0,1,225,0)"><tspan dy="0" >Enterprise Databases</tspan></text><text  id="v-106" font-size="16.799999999999997px" xml:space="preserve" y="128.5" text-anchor="middle" font-family="Open Sans, Tahoma, Arial" fill="#b3b3b3" dominant-baseline="hanging" transform="matrix(1,0,0,1,225,0)" style="display: block;"><tspan dy="0" >[Software System]</tspan></text><text  id="v-107" font-size="24px" xml:space="preserve" y="160.3" text-anchor="middle" font-family="Open Sans, Tahoma, Arial" fill="#b3b3b3" dominant-baseline="hanging" transform="matrix(1,0,0,1,225,0)" style="display: block;"><tspan dy="0" >PostgreSQL, MySQL, Oracle, SQL</tspan><tspan dy="1.2em" x="0" >Server with identity data</tspan></text><g  id="v-108" color="#b3b3b3" transform="matrix(1,0,0,1,222.5,268)" display="none"><g ></g><g ></g><g ></g><g ></g></g><image  id="v-109"></image></g></g><!--z-index:35--><g   id="j_12"  transform="translate(3949,2042)" style=""><g  id="v-116" style="opacity: 1;"><rect  id="v-117" rx="20" ry="20" stroke-width="2" pointer-events="visiblePainted" fill="#f0f0f0" stroke="#e5e5e5" stroke-dasharray="8,8" width="450" height="300"></rect><text  id="v-118" font-size="33.599999999999994px" xml:space="preserve" y="86.9" font-weight="bold" text-anchor="middle" pointer-events="visible" font-family="Open Sans, Tahoma, Arial" fill="#b3b3b3" dominant-baseline="hanging" transform="matrix(1,0,0,1,225,0)"><tspan dy="0" >SCIM 2.0 Systems</tspan></text><text  id="v-119" font-size="16.799999999999997px" xml:space="preserve" y="128.5" text-anchor="middle" font-family="Open Sans, Tahoma, Arial" fill="#b3b3b3" dominant-baseline="hanging" transform="matrix(1,0,0,1,225,0)" style="display: block;"><tspan dy="0" >[Software System]</tspan></text><text  id="v-120" font-size="24px" xml:space="preserve" y="160.3" text-anchor="middle" font-family="Open Sans, Tahoma, Arial" fill="#b3b3b3" dominant-baseline="hanging" transform="matrix(1,0,0,1,225,0)" style="display: block;"><tspan dy="0" >Cloud applications supporting</tspan><tspan dy="1.2em" x="0" >SCIM provisioning</tspan></text><g  id="v-121" color="#b3b3b3" transform="matrix(1,0,0,1,222.5,268)" display="none"><g ></g><g ></g><g ></g><g ></g></g><image  id="v-122"></image></g></g><!--z-index:36--><g   id="j_13"  transform="translate(1699,1442)" style=""><g  id="v-126" style="opacity: 1;"><rect  id="v-127" rx="20" ry="20" stroke-width="2" pointer-events="visiblePainted" fill="#1168bd" stroke="#0f5eaa" stroke-dasharray="" width="450" height="300"></rect><text  id="v-128" font-size="33.599999999999994px" xml:space="preserve" y="29.30000000000001" font-weight="bold" text-anchor="middle" pointer-events="visible" font-family="Open Sans, Tahoma, Arial" fill="#ffffff" dominant-baseline="hanging" transform="matrix(1,0,0,1,225,0)"><tspan dy="0" >JIM</tspan></text><text  id="v-129" font-size="16.799999999999997px" xml:space="preserve" y="70.9" text-anchor="middle" font-family="Open Sans, Tahoma, Arial" fill="#ffffff" dominant-baseline="hanging" transform="matrix(1,0,0,1,225,0)" style="display: block;"><tspan dy="0" >[Software System]</tspan></text><text  id="v-130" font-size="24px" xml:space="preserve" y="102.7" text-anchor="middle" font-family="Open Sans, Tahoma, Arial" fill="#ffffff" dominant-baseline="hanging" transform="matrix(1,0,0,1,225,0)" style="display: block;"><tspan dy="0" >Central identity hub implementing</tspan><tspan dy="1.2em" x="0" >the metaverse pattern.</tspan><tspan dy="1.2em" x="0" >Synchronises identities across</tspan><tspan dy="1.2em" x="0" >enterprise systems with</tspan><tspan dy="1.2em" x="0" >bidirectional data flow and</tspan><tspan dy="1.2em" x="0" >transformation</tspan></text><g  id="v-131" color="#ffffff" transform="matrix(1,0,0,1,185,268)" display="none"><g  transform="translate(5 0)"><svg xmlns="http://www.w3.org/2000/svg" width="20" height="20" fill="currentColor" viewBox="0 0 16 16"><path fill-rule="evenodd" d="M6.5 12a5.5 5.5 0 1 0 0-11 5.5 5.5 0 0 0 0 11zM13 6.5a6.5 6.5 0 1 1-13 0 6.5 6.5 0 0 1 13 0z"></path><path d="M10.344 11.742c.03.04.062.078.098.115l3.85 3.85a1 1 0 0 0 1.415-1.414l-3.85-3.85a1.007 1.007 0 0 0-.115-.1 6.538 6.538 0 0 1-1.398 1.4z"></path><path fill-rule="evenodd" d="M6.5 3a.5.5 0 0 1 .5.5V6h2.5a.5.5 0 0 1 0 1H7v2.5a.5.5 0 0 1-1 0V7H3.5a.5.5 0 0 1 0-1H6V3.5a.5.5 0 0 1 .5-.5z"></path></svg></g><g  transform="translate(30 0)"><svg xmlns="http://www.w3.org/2000/svg" width="20" height="20" fill="currentColor" viewBox="0 0 16 16"><path d="M1 2.828c.885-.37 2.154-.769 3.388-.893 1.33-.134 2.458.063 3.112.752v9.746c-.935-.53-2.12-.603-3.213-.493-1.18.12-2.37.461-3.287.811V2.828zm7.5-.141c.654-.689 1.782-.886 3.112-.752 1.234.124 2.503.523 3.388.893v9.923c-.918-.35-2.107-.692-3.287-.81-1.094-.111-2.278-.039-3.213.492V2.687zM8 1.783C7.015.936 5.587.81 4.287.94c-1.514.153-3.042.672-3.994 1.105A.5.5 0 0 0 0 2.5v11a.5.5 0 0 0 .707.455c.882-.4 2.303-.881 3.68-1.02 1.409-.142 2.59.087 3.223.877a.5.5 0 0 0 .78 0c.633-.79 1.814-1.019 3.222-.877 1.378.139 2.8.62 3.681 1.02A.5.5 0 0 0 16 13.5v-11a.5.5 0 0 0-.293-.455c-.952-.433-2.48-.952-3.994-1.105C10.413.809 8.985.936 8 1.783z"></path></svg></g><g  transform="translate(55 0)"><svg xmlns="http://www.w3.org/2000/svg" width="20" height="20" fill="currentColor" viewBox="0 0 16 16"><path d="M5 10.5a.5.5 0 0 1 .5-.5h2a.5.5 0 0 1 0 1h-2a.5.5 0 0 1-.5-.5zm0-2a.5.5 0 0 1 .5-.5h5a.5.5 0 0 1 0 1h-5a.5.5 0 0 1-.5-.5zm0-2a.5.5 0 0 1 .5-.5h5a.5.5 0 0 1 0 1h-5a.5.5 0 0 1-.5-.5zm0-2a.5.5 0 0 1 .5-.5h5a.5.5 0 0 1 0 1h-5a.5.5 0 0 1-.5-.5z"></path><path d="M3 0h10a2 2 0 0 1 2 2v12a2 2 0 0 1-2 2H3a2 2 0 0 1-2-2v-1h1v1a1 1 0 0 0 1 1h10a1 1 0 0 0 1-1V2a1 1 0 0 0-1-1H3a1 1 0 0 0-1 1v1H1V2a2 2 0 0 1 2-2z"></path><path d="M1 5v-.5a.5.5 0 0 1 1 0V5h.5a.5.5 0 0 1 0 1h-2a.5.5 0 0 1 0-1H1zm0 3v-.5a.5.5 0 0 1 1 0V8h.5a.5.5 0 0 1 0 1h-2a.5.5 0 0 1 0-1H1zm0 3v-.5a.5.5 0 0 1 1 0v.5h.5a.5.5 0 0 1 0 1h-2a.5.5 0 0 1 0-1H1z"></path></svg></g><g ></g></g><image  id="v-132"></image></g></g><!--z-index:37--><g   id="j_14" ><path  stroke="#444444" d="M 1564 542 L 1549 832 C 1548.9999999999998 838.6666666666665 1548.9999999999998 845.3333333333333 1549 852 L 1549 1132 C 1548.9999999999998 1138.6666666666665 1550.9999999999998 1144.6666666666665 1555 1150 L 1799 1442" id="v-147" stroke-width="2" stroke-dasharray="" fill="none" style="opacity: 1;"></path><path  fill="black" stroke="black" d="M 0 0 0 0" transform="matrix(-0.04993759329833894,0.998752340060122,-0.998752340060122,-0.04993759329833894,1564,542)"></path><path  fill="#444444" stroke="#444444" d="M 20 0 L 0 10 L 20 20 z" id="v-149" transform="matrix(-0.6401844186703125,-0.7682212637591816,0.7682212637591816,-0.6401844186703125,1791.3177760803612,1448.4018058477325)" style="opacity: 1;"></path><path  d="M 1564 542 L 1549 832 C 1548.9999999999998 838.6666666666665 1548.9999999999998 845.3333333333333 1549 852 L 1549 1132 C 1548.9999999999998 1138.6666666666665 1550.9999999999998 1144.6666666666665 1555 1150 L 1799 1442" id="v-148" fill="none" style="cursor: auto; pointer-events: visiblepainted;"></path><g ><g id="v-138"  label-idx="0" cursor="move" transform="matrix(1,0,0,1,1549,1023.3262329101562)" style="cursor: default; opacity: 1;"><rect joint-selector="rect" id="v-142" fill="#ffffff" rx="3" ry="3" pointer-events="none" width="138.58413696289062" height="34.621337890625" transform="matrix(1,0,0,1,-69,-17.3)"></rect><text joint-selector="text" id="v-141" font-size="24px" xml:space="preserve" y="0.8em" fill="#444444" text-anchor="middle" pointer-events="none" font-family="Open Sans, Tahoma, Arial" font-weight="normal" transform="matrix(1,0,0,1,0,-8.8)"><tspan dy="0" >Manages via</tspan></text></g><g id="v-139"  label-idx="1" cursor="move" transform="matrix(1,0,0,1,1549,1053.7261962890625)" style="cursor: default; opacity: 1;"><rect joint-selector="rect" id="v-144" fill="#ffffff" rx="3" ry="3"  pointer-events="none" width="121.63491821289062" height="27.69706916809082" transform="matrix(1,0,0,1,-60.1,-13.8)" style="display: block;"></rect><text joint-selector="text" id="v-143" font-size="16.799999999999997px" xml:space="preserve" y="0.8em" fill="#444444" text-anchor="middle" pointer-events="none"  font-family="Open Sans, Tahoma, Arial" font-weight="normal" transform="matrix(1,0,0,1,0,-6.5)" style="display: block;"><tspan dy="0" >[Blazor Web UI]</tspan></text></g><g id="v-140"  label-idx="2" cursor="move" transform="matrix(1,0,0,1,1539,1062.126220703125)" style="cursor: default; opacity: 1;"><rect joint-selector="rect" id="v-146" fill="#ffffff" rx="3" ry="3"  width="0" height="0" transform="matrix(1,0,0,1,0,0)" display="none"></rect><text joint-selector="text" id="v-145" fill="#000000" font-size="14" text-anchor="middle" pointer-events="none"></text></g></g><g  display="none" style="display: none;"><g  transform="translate(1549, 842)" id="v-394"><circle  idx="0" r="10"></circle><path  idx="0" d="M16,5.333c-7.732,0-14,4.701-14,10.5c0,1.982,0.741,3.833,2.016,5.414L2,25.667l5.613-1.441c2.339,1.317,5.237,2.107,8.387,2.107c7.732,0,14-4.701,14-10.5C30,10.034,23.732,5.333,16,5.333z" transform="translate(5, -33)"></path><path  idx="0" transform="scale(.8) translate(9.5, -37)" d="M24.778,21.419 19.276,15.917 24.777,10.415 21.949,7.585 16.447,13.087 10.945,7.585 8.117,10.415 13.618,15.917 8.116,21.419 10.946,24.248 16.447,18.746 21.948,24.248z"><title>Remove vertex.</title></path></g><g  transform="translate(1549, 1142)" id="v-395"><circle  idx="1" r="10"></circle><path  idx="1" d="M16,5.333c-7.732,0-14,4.701-14,10.5c0,1.982,0.741,3.833,2.016,5.414L2,25.667l5.613-1.441c2.339,1.317,5.237,2.107,8.387,2.107c7.732,0,14-4.701,14-10.5C30,10.034,23.732,5.333,16,5.333z" transform="translate(5, -33)"></path><path  idx="1" transform="scale(.8) translate(9.5, -37)" d="M24.778,21.419 19.276,15.917 24.777,10.415 21.949,7.585 16.447,13.087 10.945,7.585 8.117,10.415 13.618,15.917 8.116,21.419 10.946,24.248 16.447,18.746 21.948,24.248z"><title>Remove vertex.</title></path></g></g><g  id="v-151" display="none"><g  id="v-136"><path  end="source" d="M 26 0 L 0 13 L 26 26 z"></path></g><g  id="v-137"><path  end="target" d="M 26 0 L 0 13 L 26 26 z"></path></g></g><g  id="v-150" display="none"><g  id="v-133" transform="translate(1561.9337965828784, 581.9465993976844) "><g  event="remove"><circle r="11"></circle><path transform="scale(.8) translate(-16, -16)" d="M24.778,21.419 19.276,15.917 24.777,10.415 21.949,7.585 16.447,13.087 10.945,7.585 8.117,10.415 13.618,15.917 8.116,21.419 10.946,24.248 16.447,18.746 21.948,24.248z"></path><title>Remove link.</title></g><g  event="link:options"><circle r="11" transform="translate(25)"></circle><path fill="white" transform="scale(.55) translate(29, -16)" d="M31.229,17.736c0.064-0.571,0.104-1.148,0.104-1.736s-0.04-1.166-0.104-1.737l-4.377-1.557c-0.218-0.716-0.504-1.401-0.851-2.05l1.993-4.192c-0.725-0.91-1.549-1.734-2.458-2.459l-4.193,1.994c-0.647-0.347-1.334-0.632-2.049-0.849l-1.558-4.378C17.165,0.708,16.588,0.667,16,0.667s-1.166,0.041-1.737,0.105L12.707,5.15c-0.716,0.217-1.401,0.502-2.05,0.849L6.464,4.005C5.554,4.73,4.73,5.554,4.005,6.464l1.994,4.192c-0.347,0.648-0.632,1.334-0.849,2.05l-4.378,1.557C0.708,14.834,0.667,15.412,0.667,16s0.041,1.165,0.105,1.736l4.378,1.558c0.217,0.715,0.502,1.401,0.849,2.049l-1.994,4.193c0.725,0.909,1.549,1.733,2.459,2.458l4.192-1.993c0.648,0.347,1.334,0.633,2.05,0.851l1.557,4.377c0.571,0.064,1.148,0.104,1.737,0.104c0.588,0,1.165-0.04,1.736-0.104l1.558-4.377c0.715-0.218,1.399-0.504,2.049-0.851l4.193,1.993c0.909-0.725,1.733-1.549,2.458-2.458l-1.993-4.193c0.347-0.647,0.633-1.334,0.851-2.049L31.229,17.736zM16,20.871c-2.69,0-4.872-2.182-4.872-4.871c0-2.69,2.182-4.872,4.872-4.872c2.689,0,4.871,2.182,4.871,4.872C20.871,18.689,18.689,20.871,16,20.871z"></path><title>Link options.</title></g></g></g></g><!--z-index:38--><g   id="j_15" ><path  stroke="#444444" d="M 1682 542 L 1843 842" id="v-170" stroke-width="2" stroke-dasharray="" fill="none" style="opacity: 1;"></path><path  fill="black" stroke="black" d="M 0 0 0 0" transform="matrix(0.47410332155505014,0.8804692160947302,-0.8804692160947302,0.47410332155505014,1681.68994140625,542)"></path><path  fill="#444444" stroke="#444444" d="M 20 0 L 0 10 L 20 20 z" id="v-172" transform="matrix(-0.4741032629342655,-0.8804692476600661,0.8804692476600661,-0.4741032629342655,1834.425353824617,846.7410376059433)" style="opacity: 1;"></path><path  d="M 1682 542 L 1843 842" id="v-171" fill="none" style="cursor: auto; pointer-events: visiblepainted;"></path><g ><g id="v-161"  label-idx="0" cursor="move" transform="matrix(1,0,0,1,1762.5,678.5999755859375)" style="cursor: default; opacity: 1;"><rect joint-selector="rect" id="v-165" fill="#ffffff" rx="3" ry="3" pointer-events="none" width="128.9644775390625" height="34.621337890625" transform="matrix(1,0,0,1,-64.5,-17.3)"></rect><text joint-selector="text" id="v-164" font-size="24px" xml:space="preserve" y="0.8em" fill="#444444" text-anchor="middle" pointer-events="none" font-family="Open Sans, Tahoma, Arial" font-weight="normal" transform="matrix(1,0,0,1,0,-8.8)"><tspan dy="0" >Scripts with</tspan></text></g><g id="v-162"  label-idx="1" cursor="move" transform="matrix(1,0,0,1,1762.5,709)" style="cursor: default; opacity: 1;"><rect joint-selector="rect" id="v-167" fill="#ffffff" rx="3" ry="3"  pointer-events="none" width="163.9883575439453" height="27.69706916809082" transform="matrix(1,0,0,1,-81.3,-13.8)" style="display: block;"></rect><text joint-selector="text" id="v-166" font-size="16.799999999999997px" xml:space="preserve" y="0.8em" fill="#444444" text-anchor="middle" pointer-events="none"  font-family="Open Sans, Tahoma, Arial" font-weight="normal" transform="matrix(1,0,0,1,0,-6.5)" style="display: block;"><tspan dy="0" >[PowerShell cmdlets]</tspan></text></g><g id="v-163"  label-idx="2" cursor="move" transform="matrix(1,0,0,1,1752.5,717.4000244140625)" style="cursor: default; opacity: 1;"><rect joint-selector="rect" id="v-169" fill="#ffffff" rx="3" ry="3"  width="0" height="0" transform="matrix(1,0,0,1,0,0)" display="none"></rect><text joint-selector="text" id="v-168" fill="#000000" font-size="14" text-anchor="middle" pointer-events="none"></text></g></g><g  display="none" style="display: none;"></g><g  id="v-174" display="none"><g  id="v-159"><path  end="source" d="M 26 0 L 0 13 L 26 26 z"></path></g><g  id="v-160"><path  end="target" d="M 26 0 L 0 13 L 26 26 z"></path></g></g><g  id="v-173" display="none"><g  id="v-158" transform="translate(1700.914933026174, 577.2452168189578) "><g  event="remove"><circle r="11"></circle><path transform="scale(.8) translate(-16, -16)" d="M24.778,21.419 19.276,15.917 24.777,10.415 21.949,7.585 16.447,13.087 10.945,7.585 8.117,10.415 13.618,15.917 8.116,21.419 10.946,24.248 16.447,18.746 21.948,24.248z"></path><title>Remove link.</title></g><g  event="link:options"><circle r="11" transform="translate(25)"></circle><path fill="white" transform="scale(.55) translate(29, -16)" d="M31.229,17.736c0.064-0.571,0.104-1.148,0.104-1.736s-0.04-1.166-0.104-1.737l-4.377-1.557c-0.218-0.716-0.504-1.401-0.851-2.05l1.993-4.192c-0.725-0.91-1.549-1.734-2.458-2.459l-4.193,1.994c-0.647-0.347-1.334-0.632-2.049-0.849l-1.558-4.378C17.165,0.708,16.588,0.667,16,0.667s-1.166,0.041-1.737,0.105L12.707,5.15c-0.716,0.217-1.401,0.502-2.05,0.849L6.464,4.005C5.554,4.73,4.73,5.554,4.005,6.464l1.994,4.192c-0.347,0.648-0.632,1.334-0.849,2.05l-4.378,1.557C0.708,14.834,0.667,15.412,0.667,16s0.041,1.165,0.105,1.736l4.378,1.558c0.217,0.715,0.502,1.401,0.849,2.049l-1.994,4.193c0.725,0.909,1.549,1.733,2.459,2.458l4.192-1.993c0.648,0.347,1.334,0.633,2.05,0.851l1.557,4.377c0.571,0.064,1.148,0.104,1.737,0.104c0.588,0,1.165-0.04,1.736-0.104l1.558-4.377c0.715-0.218,1.399-0.504,2.049-0.851l4.193,1.993c0.909-0.725,1.733-1.549,2.458-2.458l-1.993-4.193c0.347-0.647,0.633-1.334,0.851-2.049L31.229,17.736zM16,20.871c-2.69,0-4.872-2.182-4.872-4.871c0-2.69,2.182-4.872,4.872-4.872c2.689,0,4.871,2.182,4.871,4.872C20.871,18.689,18.689,20.871,16,20.871z"></path><title>Link options.</title></g></g></g></g><!--z-index:39--><g   id="j_16" ><path  stroke="#444444" d="M 2279 542 L 2042 842" id="v-193" stroke-width="2" stroke-dasharray="" fill="none" style="opacity: 1;"></path><path  fill="black" stroke="black" d="M 0 0 0 0" transform="matrix(-0.6195280346016931,0.7849745310152192,-0.7849745310152192,-0.6195280346016931,2279.14990234375,542)"></path><path  fill="#444444" stroke="#444444" d="M 20 0 L 0 10 L 20 20 z" id="v-195" transform="matrix(0.619528034601693,-0.7849745310152193,0.7849745310152193,0.619528034601693,2034.5301696563308,835.8047335188228)" style="opacity: 1;"></path><path  d="M 2279 542 L 2042 842" id="v-194" fill="none" style="cursor: auto; pointer-events: visiblepainted;"></path><g ><g id="v-184"  label-idx="0" cursor="move" transform="matrix(1,0,0,1,2160.5,678.5999755859375)" style="cursor: default; opacity: 1;"><rect joint-selector="rect" id="v-188" fill="#ffffff" rx="3" ry="3" pointer-events="none" width="159.49407958984375" height="34.621337890625" transform="matrix(1,0,0,1,-79.5,-17.3)"></rect><text joint-selector="text" id="v-187" font-size="24px" xml:space="preserve" y="0.8em" fill="#444444" text-anchor="middle" pointer-events="none" font-family="Open Sans, Tahoma, Arial" font-weight="normal" transform="matrix(1,0,0,1,0,-8.8)"><tspan dy="0" >Automates via</tspan></text></g><g id="v-185"  label-idx="1" cursor="move" transform="matrix(1,0,0,1,2160.5,709)" style="cursor: default; opacity: 1;"><rect joint-selector="rect" id="v-190" fill="#ffffff" rx="3" ry="3"  pointer-events="none" width="153.95729064941406" height="27.69706916809082" transform="matrix(1,0,0,1,-76.3,-13.8)" style="display: block;"></rect><text joint-selector="text" id="v-189" font-size="16.799999999999997px" xml:space="preserve" y="0.8em" fill="#444444" text-anchor="middle" pointer-events="none"  font-family="Open Sans, Tahoma, Arial" font-weight="normal" transform="matrix(1,0,0,1,0,-6.5)" style="display: block;"><tspan dy="0" >[PowerShell scripts]</tspan></text></g><g id="v-186"  label-idx="2" cursor="move" transform="matrix(1,0,0,1,2150.5,717.4000244140625)" style="cursor: default; opacity: 1;"><rect joint-selector="rect" id="v-192" fill="#ffffff" rx="3" ry="3"  width="0" height="0" transform="matrix(1,0,0,1,0,0)" display="none"></rect><text joint-selector="text" id="v-191" fill="#000000" font-size="14" text-anchor="middle" pointer-events="none"></text></g></g><g  display="none" style="display: none;"></g><g  id="v-197" display="none"><g  id="v-182"><path  end="source" d="M 26 0 L 0 13 L 26 26 z"></path></g><g  id="v-183"><path  end="target" d="M 26 0 L 0 13 L 26 26 z"></path></g></g><g  id="v-196" display="none"><g  id="v-181" transform="translate(2254.204052997575, 573.3872746866136) "><g  event="remove"><circle r="11"></circle><path transform="scale(.8) translate(-16, -16)" d="M24.778,21.419 19.276,15.917 24.777,10.415 21.949,7.585 16.447,13.087 10.945,7.585 8.117,10.415 13.618,15.917 8.116,21.419 10.946,24.248 16.447,18.746 21.948,24.248z"></path><title>Remove link.</title></g><g  event="link:options"><circle r="11" transform="translate(25)"></circle><path fill="white" transform="scale(.55) translate(29, -16)" d="M31.229,17.736c0.064-0.571,0.104-1.148,0.104-1.736s-0.04-1.166-0.104-1.737l-4.377-1.557c-0.218-0.716-0.504-1.401-0.851-2.05l1.993-4.192c-0.725-0.91-1.549-1.734-2.458-2.459l-4.193,1.994c-0.647-0.347-1.334-0.632-2.049-0.849l-1.558-4.378C17.165,0.708,16.588,0.667,16,0.667s-1.166,0.041-1.737,0.105L12.707,5.15c-0.716,0.217-1.401,0.502-2.05,0.849L6.464,4.005C5.554,4.73,4.73,5.554,4.005,6.464l1.994,4.192c-0.347,0.648-0.632,1.334-0.849,2.05l-4.378,1.557C0.708,14.834,0.667,15.412,0.667,16s0.041,1.165,0.105,1.736l4.378,1.558c0.217,0.715,0.502,1.401,0.849,2.049l-1.994,4.193c0.725,0.909,1.549,1.733,2.459,2.458l4.192-1.993c0.648,0.347,1.334,0.633,2.05,0.851l1.557,4.377c0.571,0.064,1.148,0.104,1.737,0.104c0.588,0,1.165-0.04,1.736-0.104l1.558-4.377c0.715-0.218,1.399-0.504,2.049-0.851l4.193,1.993c0.909-0.725,1.733-1.549,2.458-2.458l-1.993-4.193c0.347-0.647,0.633-1.334,0.851-2.049L31.229,17.736zM16,20.871c-2.69,0-4.872-2.182-4.872-4.871c0-2.69,2.182-4.872,4.872-4.872c2.689,0,4.871,2.182,4.871,4.872C20.871,18.689,18.689,20.871,16,20.871z"></path><title>Link options.</title></g></g></g></g><!--z-index:40--><g   id="j_17" ><path  stroke="#444444" d="M 2403 542 L 2301 1132 C 2299.6666666666665 1138.6666666666665 2297 1144.6666666666665 2293 1150 L 2049 1442" id="v-211" stroke-width="2" stroke-dasharray="" fill="none" style="opacity: 1;"></path><path  fill="black" stroke="black" d="M 0 0 0 0" transform="matrix(-0.16998936863928363,0.9854458963076652,-0.9854458963076652,-0.16998936863928363,2402.5,542)"></path><path  fill="#444444" stroke="#444444" d="M 20 0 L 0 10 L 20 20 z" id="v-213" transform="matrix(0.6401844186703122,-0.7682212637591819,0.7682212637591819,0.6401844186703122,2041.317798644455,1435.5981174743263)" style="opacity: 1;"></path><path  d="M 2403 542 L 2301 1132 C 2299.6666666666665 1138.6666666666665 2297 1144.6666666666665 2293 1150 L 2049 1442" id="v-212" fill="none" style="cursor: auto; pointer-events: visiblepainted;"></path><g ><g id="v-202"  label-idx="0" cursor="move" transform="matrix(1,0,0,1,2317.89599609375,1020.8681030273438)" style="cursor: default; opacity: 1;"><rect joint-selector="rect" id="v-206" fill="#ffffff" rx="3" ry="3" pointer-events="none" width="54.26742172241211" height="34.621337890625" transform="matrix(1,0,0,1,-25.9,-17.3)"></rect><text joint-selector="text" id="v-205" font-size="24px" xml:space="preserve" y="0.8em" fill="#444444" text-anchor="middle" pointer-events="none" font-family="Open Sans, Tahoma, Arial" font-weight="normal" transform="matrix(1,0,0,1,0,-8.8)"><tspan dy="0" >Calls</tspan></text></g><g id="v-203"  label-idx="1" cursor="move" transform="matrix(1,0,0,1,2317.89599609375,1051.26806640625)" style="cursor: default; opacity: 1;"><rect joint-selector="rect" id="v-208" fill="#ffffff" rx="3" ry="3"  pointer-events="none" width="79.76959991455078" height="27.69706916809082" transform="matrix(1,0,0,1,-39.2,-13.8)" style="display: block;"></rect><text joint-selector="text" id="v-207" font-size="16.799999999999997px" xml:space="preserve" y="0.8em" fill="#444444" text-anchor="middle" pointer-events="none"  font-family="Open Sans, Tahoma, Arial" font-weight="normal" transform="matrix(1,0,0,1,0,-6.5)" style="display: block;"><tspan dy="0" >[REST API]</tspan></text></g><g id="v-204"  label-idx="2" cursor="move" transform="matrix(1,0,0,1,2307.89599609375,1059.6680908203125)" style="cursor: default; opacity: 1;"><rect joint-selector="rect" id="v-210" fill="#ffffff" rx="3" ry="3"  width="0" height="0" transform="matrix(1,0,0,1,0,0)" display="none"></rect><text joint-selector="text" id="v-209" fill="#000000" font-size="14" text-anchor="middle" pointer-events="none"></text></g></g><g  display="none" style="display: none;"><g  transform="translate(2299, 1142)" id="v-396"><circle  idx="0" r="10"></circle><path  idx="0" d="M16,5.333c-7.732,0-14,4.701-14,10.5c0,1.982,0.741,3.833,2.016,5.414L2,25.667l5.613-1.441c2.339,1.317,5.237,2.107,8.387,2.107c7.732,0,14-4.701,14-10.5C30,10.034,23.732,5.333,16,5.333z" transform="translate(5, -33)"></path><path  idx="0" transform="scale(.8) translate(9.5, -37)" d="M24.778,21.419 19.276,15.917 24.777,10.415 21.949,7.585 16.447,13.087 10.945,7.585 8.117,10.415 13.618,15.917 8.116,21.419 10.946,24.248 16.447,18.746 21.948,24.248z"><title>Remove vertex.</title></path></g></g><g  id="v-215" display="none"><g  id="v-200"><path  end="source" d="M 26 0 L 0 13 L 26 26 z"></path></g><g  id="v-201"><path  end="target" d="M 26 0 L 0 13 L 26 26 z"></path></g></g><g  id="v-214" display="none"><g  id="v-198" transform="translate(2396.1858269230256, 581.4153148570075) "><g  event="remove"><circle r="11"></circle><path transform="scale(.8) translate(-16, -16)" d="M24.778,21.419 19.276,15.917 24.777,10.415 21.949,7.585 16.447,13.087 10.945,7.585 8.117,10.415 13.618,15.917 8.116,21.419 10.946,24.248 16.447,18.746 21.948,24.248z"></path><title>Remove link.</title></g><g  event="link:options"><circle r="11" transform="translate(25)"></circle><path fill="white" transform="scale(.55) translate(29, -16)" d="M31.229,17.736c0.064-0.571,0.104-1.148,0.104-1.736s-0.04-1.166-0.104-1.737l-4.377-1.557c-0.218-0.716-0.504-1.401-0.851-2.05l1.993-4.192c-0.725-0.91-1.549-1.734-2.458-2.459l-4.193,1.994c-0.647-0.347-1.334-0.632-2.049-0.849l-1.558-4.378C17.165,0.708,16.588,0.667,16,0.667s-1.166,0.041-1.737,0.105L12.707,5.15c-0.716,0.217-1.401,0.502-2.05,0.849L6.464,4.005C5.554,4.73,4.73,5.554,4.005,6.464l1.994,4.192c-0.347,0.648-0.632,1.334-0.849,2.05l-4.378,1.557C0.708,14.834,0.667,15.412,0.667,16s0.041,1.165,0.105,1.736l4.378,1.558c0.217,0.715,0.502,1.401,0.849,2.049l-1.994,4.193c0.725,0.909,1.549,1.733,2.459,2.458l4.192-1.993c0.648,0.347,1.334,0.633,2.05,0.851l1.557,4.377c0.571,0.064,1.148,0.104,1.737,0.104c0.588,0,1.165-0.04,1.736-0.104l1.558-4.377c0.715-0.218,1.399-0.504,2.049-0.851l4.193,1.993c0.909-0.725,1.733-1.549,2.458-2.458l-1.993-4.193c0.347-0.647,0.633-1.334,0.851-2.049L31.229,17.736zM16,20.871c-2.69,0-4.872-2.182-4.872-4.871c0-2.69,2.182-4.872,4.872-4.872c2.689,0,4.871,2.182,4.871,4.872C20.871,18.689,18.689,20.871,16,20.871z"></path><title>Link options.</title></g></g></g></g><!--z-index:41--><g   id="j_18" ><path  stroke="#444444" d="M 1924 1142 L 1924 1442" id="v-231" stroke-width="2" stroke-dasharray="" fill="none" style="opacity: 1;"></path><path  fill="black" stroke="black" d="M 0 0 0 0" transform="matrix(6.123233995736766e-17,1,-1,6.123233995736766e-17,1924,1142)"></path><path  fill="#444444" stroke="#444444" d="M 20 0 L 0 10 L 20 20 z" id="v-233" transform="matrix(-1.8369701987210297e-16,-1,1,-1.8369701987210297e-16,1914,1442)" style="opacity: 1;"></path><path  d="M 1924 1142 L 1924 1442" id="v-232" fill="none" style="cursor: auto; pointer-events: visiblepainted;"></path><g ><g id="v-222"  label-idx="0" cursor="move" transform="matrix(1,0,0,1,1924,1278.5999755859375)" style="cursor: default; opacity: 1;"><rect joint-selector="rect" id="v-226" fill="#ffffff" rx="3" ry="3" pointer-events="none" width="54.26742172241211" height="34.621337890625" transform="matrix(1,0,0,1,-25.9,-17.3)"></rect><text joint-selector="text" id="v-225" font-size="24px" xml:space="preserve" y="0.8em" fill="#444444" text-anchor="middle" pointer-events="none" font-family="Open Sans, Tahoma, Arial" font-weight="normal" transform="matrix(1,0,0,1,0,-8.8)"><tspan dy="0" >Calls</tspan></text></g><g id="v-223"  label-idx="1" cursor="move" transform="matrix(1,0,0,1,1924,1309)" style="cursor: default; opacity: 1;"><rect joint-selector="rect" id="v-228" fill="#ffffff" rx="3" ry="3"  pointer-events="none" width="143.93434143066406" height="27.69706916809082" transform="matrix(1,0,0,1,-71.2,-13.8)" style="display: block;"></rect><text joint-selector="text" id="v-227" font-size="16.799999999999997px" xml:space="preserve" y="0.8em" fill="#444444" text-anchor="middle" pointer-events="none"  font-family="Open Sans, Tahoma, Arial" font-weight="normal" transform="matrix(1,0,0,1,0,-6.5)" style="display: block;"><tspan dy="0" >[REST API /api/v1/]</tspan></text></g><g id="v-224"  label-idx="2" cursor="move" transform="matrix(1,0,0,1,1914,1317.4000244140625)" style="cursor: default; opacity: 1;"><rect joint-selector="rect" id="v-230" fill="#ffffff" rx="3" ry="3"  width="0" height="0" transform="matrix(1,0,0,1,0,0)" display="none"></rect><text joint-selector="text" id="v-229" fill="#000000" font-size="14" text-anchor="middle" pointer-events="none"></text></g></g><g  display="none" style="display: none;"></g><g  id="v-235" display="none"><g  id="v-220"><path  end="source" d="M 26 0 L 0 13 L 26 26 z"></path></g><g  id="v-221"><path  end="target" d="M 26 0 L 0 13 L 26 26 z"></path></g></g><g  id="v-234" display="none"><g  id="v-219" transform="translate(1924, 1182) "><g  event="remove"><circle r="11"></circle><path transform="scale(.8) translate(-16, -16)" d="M24.778,21.419 19.276,15.917 24.777,10.415 21.949,7.585 16.447,13.087 10.945,7.585 8.117,10.415 13.618,15.917 8.116,21.419 10.946,24.248 16.447,18.746 21.948,24.248z"></path><title>Remove link.</title></g><g  event="link:options"><circle r="11" transform="translate(25)"></circle><path fill="white" transform="scale(.55) translate(29, -16)" d="M31.229,17.736c0.064-0.571,0.104-1.148,0.104-1.736s-0.04-1.166-0.104-1.737l-4.377-1.557c-0.218-0.716-0.504-1.401-0.851-2.05l1.993-4.192c-0.725-0.91-1.549-1.734-2.458-2.459l-4.193,1.994c-0.647-0.347-1.334-0.632-2.049-0.849l-1.558-4.378C17.165,0.708,16.588,0.667,16,0.667s-1.166,0.041-1.737,0.105L12.707,5.15c-0.716,0.217-1.401,0.502-2.05,0.849L6.464,4.005C5.554,4.73,4.73,5.554,4.005,6.464l1.994,4.192c-0.347,0.648-0.632,1.334-0.849,2.05l-4.378,1.557C0.708,14.834,0.667,15.412,0.667,16s0.041,1.165,0.105,1.736l4.378,1.558c0.217,0.715,0.502,1.401,0.849,2.049l-1.994,4.193c0.725,0.909,1.549,1.733,2.459,2.458l4.192-1.993c0.648,0.347,1.334,0.633,2.05,0.851l1.557,4.377c0.571,0.064,1.148,0.104,1.737,0.104c0.588,0,1.165-0.04,1.736-0.104l1.558-4.377c0.715-0.218,1.399-0.504,2.049-0.851l4.193,1.993c0.909-0.725,1.733-1.549,2.458-2.458l-1.993-4.193c0.347-0.647,0.633-1.334,0.851-2.049L31.229,17.736zM16,20.871c-2.69,0-4.872-2.182-4.872-4.871c0-2.69,2.182-4.872,4.872-4.872c2.689,0,4.871,2.182,4.871,4.872C20.871,18.689,18.689,20.871,16,20.871z"></path><title>Link options.</title></g></g></g></g><!--z-index:42--><g   id="j_19" ><path  stroke="#444444" d="M 649 2147 L 1220 2033 C 1226.4724009687436 2031.847669088526 1232.4724009687436 2029.5143357551926 1238 2026 L 1699 1734" id="v-254" stroke-width="2" stroke-dasharray="" fill="none" style="opacity: 1;"></path><path  fill="black" stroke="black" d="M 0 0 0 0" transform="matrix(0.9806758116577612,-0.19563985388818725,0.19563985388818725,0.9806758116577612,649,2147.1201171875)"></path><path  fill="#444444" stroke="#444444" d="M 20 0 L 0 10 L 20 20 z" id="v-256" transform="matrix(-0.8450683546668283,0.5346582795961359,-0.5346582795961359,-0.8450683546668283,1704.3465827488797,1742.810643719457)" style="opacity: 1;"></path><path  d="M 649 2147 L 1220 2033 C 1226.4724009687436 2031.847669088526 1232.4724009687436 2029.5143357551926 1238 2026 L 1699 1734" id="v-255" fill="none" style="cursor: auto; pointer-events: visiblepainted;"></path><g ><g id="v-245"  label-idx="0" cursor="move" transform="matrix(1,0,0,1,1211.597900390625,2021.2774658203125)" style="cursor: default; opacity: 1;"><rect joint-selector="rect" id="v-249" fill="#ffffff" rx="3" ry="3" pointer-events="none" width="156.155029296875" height="34.621337890625" transform="matrix(1,0,0,1,-76.9,-17.3)"></rect><text joint-selector="text" id="v-248" font-size="24px" xml:space="preserve" y="0.8em" fill="#444444" text-anchor="middle" pointer-events="none" font-family="Open Sans, Tahoma, Arial" font-weight="normal" transform="matrix(1,0,0,1,0,-8.8)"><tspan dy="0" >Authenticates</tspan></text></g><g id="v-246"  label-idx="1" cursor="move" transform="matrix(1,0,0,1,1211.597900390625,2051.677490234375)" style="cursor: default; opacity: 1;"><rect joint-selector="rect" id="v-251" fill="#ffffff" rx="3" ry="3"  pointer-events="none" width="186.71083068847656" height="27.69706916809082" transform="matrix(1,0,0,1,-92.7,-13.8)" style="display: block;"></rect><text joint-selector="text" id="v-250" font-size="16.799999999999997px" xml:space="preserve" y="0.8em" fill="#444444" text-anchor="middle" pointer-events="none"  font-family="Open Sans, Tahoma, Arial" font-weight="normal" transform="matrix(1,0,0,1,0,-6.5)" style="display: block;"><tspan dy="0" >[OIDC/OpenID Connect]</tspan></text></g><g id="v-247"  label-idx="2" cursor="move" transform="matrix(1,0,0,1,1201.597900390625,2060.077392578125)" style="cursor: default; opacity: 1;"><rect joint-selector="rect" id="v-253" fill="#ffffff" rx="3" ry="3"  width="0" height="0" transform="matrix(1,0,0,1,0,0)" display="none"></rect><text joint-selector="text" id="v-252" fill="#000000" font-size="14" text-anchor="middle" pointer-events="none"></text></g></g><g  display="none" style="display: none;"><g  transform="translate(1229.7086014531155, 2031.271503632789)" id="v-397"><circle  idx="0" r="10"></circle><path  idx="0" d="M16,5.333c-7.732,0-14,4.701-14,10.5c0,1.982,0.741,3.833,2.016,5.414L2,25.667l5.613-1.441c2.339,1.317,5.237,2.107,8.387,2.107c7.732,0,14-4.701,14-10.5C30,10.034,23.732,5.333,16,5.333z" transform="translate(5, -33)"></path><path  idx="0" transform="scale(.8) translate(9.5, -37)" d="M24.778,21.419 19.276,15.917 24.777,10.415 21.949,7.585 16.447,13.087 10.945,7.585 8.117,10.415 13.618,15.917 8.116,21.419 10.946,24.248 16.447,18.746 21.948,24.248z"><title>Remove vertex.</title></path></g></g><g  id="v-258" display="none"><g  id="v-243"><path  end="source" d="M 26 0 L 0 13 L 26 26 z"></path></g><g  id="v-244"><path  end="target" d="M 26 0 L 0 13 L 26 26 z"></path></g></g><g  id="v-257" display="none"><g  id="v-242" transform="translate(688.2258669870508, 2139.1685659605537) "><g  event="remove"><circle r="11"></circle><path transform="scale(.8) translate(-16, -16)" d="M24.778,21.419 19.276,15.917 24.777,10.415 21.949,7.585 16.447,13.087 10.945,7.585 8.117,10.415 13.618,15.917 8.116,21.419 10.946,24.248 16.447,18.746 21.948,24.248z"></path><title>Remove link.</title></g><g  event="link:options"><circle r="11" transform="translate(25)"></circle><path fill="white" transform="scale(.55) translate(29, -16)" d="M31.229,17.736c0.064-0.571,0.104-1.148,0.104-1.736s-0.04-1.166-0.104-1.737l-4.377-1.557c-0.218-0.716-0.504-1.401-0.851-2.05l1.993-4.192c-0.725-0.91-1.549-1.734-2.458-2.459l-4.193,1.994c-0.647-0.347-1.334-0.632-2.049-0.849l-1.558-4.378C17.165,0.708,16.588,0.667,16,0.667s-1.166,0.041-1.737,0.105L12.707,5.15c-0.716,0.217-1.401,0.502-2.05,0.849L6.464,4.005C5.554,4.73,4.73,5.554,4.005,6.464l1.994,4.192c-0.347,0.648-0.632,1.334-0.849,2.05l-4.378,1.557C0.708,14.834,0.667,15.412,0.667,16s0.041,1.165,0.105,1.736l4.378,1.558c0.217,0.715,0.502,1.401,0.849,2.049l-1.994,4.193c0.725,0.909,1.549,1.733,2.459,2.458l4.192-1.993c0.648,0.347,1.334,0.633,2.05,0.851l1.557,4.377c0.571,0.064,1.148,0.104,1.737,0.104c0.588,0,1.165-0.04,1.736-0.104l1.558-4.377c0.715-0.218,1.399-0.504,2.049-0.851l4.193,1.993c0.909-0.725,1.733-1.549,2.458-2.458l-1.993-4.193c0.347-0.647,0.633-1.334,0.851-2.049L31.229,17.736zM16,20.871c-2.69,0-4.872-2.182-4.872-4.871c0-2.69,2.182-4.872,4.872-4.872c2.689,0,4.871,2.182,4.871,4.872C20.871,18.689,18.689,20.871,16,20.871z"></path><title>Link options.</title></g></g></g></g><!--z-index:43--><g   id="j_20" ><path  stroke="#444444" d="M 1737 1742 L 1362 2042" id="v-274" stroke-width="2" stroke-dasharray="" fill="none" style="opacity: 1;"></path><path  fill="black" stroke="black" d="M 0 0 0 0" transform="matrix(-0.7808688416748546,0.6246950072646418,-0.6246950072646418,-0.7808688416748546,1736.5,1742)"></path><path  fill="#444444" stroke="#444444" d="M 20 0 L 0 10 L 20 20 z" id="v-276" transform="matrix(0.7808686753084834,-0.624695215222571,0.624695215222571,0.7808686753084834,1355.2530769150019,2034.1913171569533)" style="opacity: 1;"></path><path  d="M 1737 1742 L 1362 2042" id="v-275" fill="none" style="cursor: auto; pointer-events: visiblepainted;"></path><g ><g id="v-265"  label-idx="0" cursor="move" transform="matrix(1,0,0,1,1549.5,1878.5999755859375)" style="cursor: default; opacity: 1;"><rect joint-selector="rect" id="v-269" fill="#ffffff" rx="3" ry="3" pointer-events="none" width="149.39527893066406" height="34.621337890625" transform="matrix(1,0,0,1,-73.5,-17.3)"></rect><text joint-selector="text" id="v-268" font-size="24px" xml:space="preserve" y="0.8em" fill="#444444" text-anchor="middle" pointer-events="none" font-family="Open Sans, Tahoma, Arial" font-weight="normal" transform="matrix(1,0,0,1,0,-8.8)"><tspan dy="0" >Synchronises</tspan></text></g><g id="v-266"  label-idx="1" cursor="move" transform="matrix(1,0,0,1,1549.5,1909)" style="cursor: default; opacity: 1;"><rect joint-selector="rect" id="v-271" fill="#ffffff" rx="3" ry="3"  pointer-events="none" width="110.31028747558594" height="27.69706916809082" transform="matrix(1,0,0,1,-54.4,-13.8)" style="display: block;"></rect><text joint-selector="text" id="v-270" font-size="16.799999999999997px" xml:space="preserve" y="0.8em" fill="#444444" text-anchor="middle" pointer-events="none"  font-family="Open Sans, Tahoma, Arial" font-weight="normal" transform="matrix(1,0,0,1,0,-6.5)" style="display: block;"><tspan dy="0" >[LDAP/LDAPS]</tspan></text></g><g id="v-267"  label-idx="2" cursor="move" transform="matrix(1,0,0,1,1539.5,1917.4000244140625)" style="cursor: default; opacity: 1;"><rect joint-selector="rect" id="v-273" fill="#ffffff" rx="3" ry="3"  width="0" height="0" transform="matrix(1,0,0,1,0,0)" display="none"></rect><text joint-selector="text" id="v-272" fill="#000000" font-size="14" text-anchor="middle" pointer-events="none"></text></g></g><g  display="none" style="display: none;"></g><g  id="v-278" display="none"><g  id="v-263"><path  end="source" d="M 26 0 L 0 13 L 26 26 z"></path></g><g  id="v-264"><path  end="target" d="M 26 0 L 0 13 L 26 26 z"></path></g></g><g  id="v-277" display="none"><g  id="v-262" transform="translate(1705.7652476222788, 1766.9878019021771) "><g  event="remove"><circle r="11"></circle><path transform="scale(.8) translate(-16, -16)" d="M24.778,21.419 19.276,15.917 24.777,10.415 21.949,7.585 16.447,13.087 10.945,7.585 8.117,10.415 13.618,15.917 8.116,21.419 10.946,24.248 16.447,18.746 21.948,24.248z"></path><title>Remove link.</title></g><g  event="link:options"><circle r="11" transform="translate(25)"></circle><path fill="white" transform="scale(.55) translate(29, -16)" d="M31.229,17.736c0.064-0.571,0.104-1.148,0.104-1.736s-0.04-1.166-0.104-1.737l-4.377-1.557c-0.218-0.716-0.504-1.401-0.851-2.05l1.993-4.192c-0.725-0.91-1.549-1.734-2.458-2.459l-4.193,1.994c-0.647-0.347-1.334-0.632-2.049-0.849l-1.558-4.378C17.165,0.708,16.588,0.667,16,0.667s-1.166,0.041-1.737,0.105L12.707,5.15c-0.716,0.217-1.401,0.502-2.05,0.849L6.464,4.005C5.554,4.73,4.73,5.554,4.005,6.464l1.994,4.192c-0.347,0.648-0.632,1.334-0.849,2.05l-4.378,1.557C0.708,14.834,0.667,15.412,0.667,16s0.041,1.165,0.105,1.736l4.378,1.558c0.217,0.715,0.502,1.401,0.849,2.049l-1.994,4.193c0.725,0.909,1.549,1.733,2.459,2.458l4.192-1.993c0.648,0.347,1.334,0.633,2.05,0.851l1.557,4.377c0.571,0.064,1.148,0.104,1.737,0.104c0.588,0,1.165-0.04,1.736-0.104l1.558-4.377c0.715-0.218,1.399-0.504,2.049-0.851l4.193,1.993c0.909-0.725,1.733-1.549,2.458-2.458l-1.993-4.193c0.347-0.647,0.633-1.334,0.851-2.049L31.229,17.736zM16,20.871c-2.69,0-4.872-2.182-4.872-4.871c0-2.69,2.182-4.872,4.872-4.872c2.689,0,4.871,2.182,4.871,4.872C20.871,18.689,18.689,20.871,16,20.871z"></path><title>Link options.</title></g></g></g></g><!--z-index:44--><g   id="j_21" ><path  stroke="#444444" d="M 1924 1742 L 1924 2042" id="v-294" stroke-width="2" stroke-dasharray="" fill="none" style="opacity: 1;"></path><path  fill="black" stroke="black" d="M 0 0 0 0" transform="matrix(6.123233995736766e-17,1,-1,6.123233995736766e-17,1924,1742)"></path><path  fill="#444444" stroke="#444444" d="M 20 0 L 0 10 L 20 20 z" id="v-296" transform="matrix(-1.8369701987210297e-16,-1,1,-1.8369701987210297e-16,1914,2042)" style="opacity: 1;"></path><path  d="M 1924 1742 L 1924 2042" id="v-295" fill="none" style="cursor: auto; pointer-events: visiblepainted;"></path><g ><g id="v-285"  label-idx="0" cursor="move" transform="matrix(1,0,0,1,1924,1878.5999755859375)" style="cursor: default; opacity: 1;"><rect joint-selector="rect" id="v-289" fill="#ffffff" rx="3" ry="3" pointer-events="none" width="148.11441040039062" height="34.621337890625" transform="matrix(1,0,0,1,-74.1,-17.3)"></rect><text joint-selector="text" id="v-288" font-size="24px" xml:space="preserve" y="0.8em" fill="#444444" text-anchor="middle" pointer-events="none" font-family="Open Sans, Tahoma, Arial" font-weight="normal" transform="matrix(1,0,0,1,0,-8.8)"><tspan dy="0" >Imports from</tspan></text></g><g id="v-286"  label-idx="1" cursor="move" transform="matrix(1,0,0,1,1924,1909)" style="cursor: default; opacity: 1;"><rect joint-selector="rect" id="v-291" fill="#ffffff" rx="3" ry="3"  pointer-events="none" width="41.93948745727539" height="27.69706916809082" transform="matrix(1,0,0,1,-20.3,-13.8)" style="display: block;"></rect><text joint-selector="text" id="v-290" font-size="16.799999999999997px" xml:space="preserve" y="0.8em" fill="#444444" text-anchor="middle" pointer-events="none"  font-family="Open Sans, Tahoma, Arial" font-weight="normal" transform="matrix(1,0,0,1,0,-6.5)" style="display: block;"><tspan dy="0" >[CSV]</tspan></text></g><g id="v-287"  label-idx="2" cursor="move" transform="matrix(1,0,0,1,1914,1917.4000244140625)" style="cursor: default; opacity: 1;"><rect joint-selector="rect" id="v-293" fill="#ffffff" rx="3" ry="3"  width="0" height="0" transform="matrix(1,0,0,1,0,0)" display="none"></rect><text joint-selector="text" id="v-292" fill="#000000" font-size="14" text-anchor="middle" pointer-events="none"></text></g></g><g  display="none" style="display: none;"></g><g  id="v-298" display="none"><g  id="v-283"><path  end="source" d="M 26 0 L 0 13 L 26 26 z"></path></g><g  id="v-284"><path  end="target" d="M 26 0 L 0 13 L 26 26 z"></path></g></g><g  id="v-297" display="none"><g  id="v-282" transform="translate(1924, 1782) "><g  event="remove"><circle r="11"></circle><path transform="scale(.8) translate(-16, -16)" d="M24.778,21.419 19.276,15.917 24.777,10.415 21.949,7.585 16.447,13.087 10.945,7.585 8.117,10.415 13.618,15.917 8.116,21.419 10.946,24.248 16.447,18.746 21.948,24.248z"></path><title>Remove link.</title></g><g  event="link:options"><circle r="11" transform="translate(25)"></circle><path fill="white" transform="scale(.55) translate(29, -16)" d="M31.229,17.736c0.064-0.571,0.104-1.148,0.104-1.736s-0.04-1.166-0.104-1.737l-4.377-1.557c-0.218-0.716-0.504-1.401-0.851-2.05l1.993-4.192c-0.725-0.91-1.549-1.734-2.458-2.459l-4.193,1.994c-0.647-0.347-1.334-0.632-2.049-0.849l-1.558-4.378C17.165,0.708,16.588,0.667,16,0.667s-1.166,0.041-1.737,0.105L12.707,5.15c-0.716,0.217-1.401,0.502-2.05,0.849L6.464,4.005C5.554,4.73,4.73,5.554,4.005,6.464l1.994,4.192c-0.347,0.648-0.632,1.334-0.849,2.05l-4.378,1.557C0.708,14.834,0.667,15.412,0.667,16s0.041,1.165,0.105,1.736l4.378,1.558c0.217,0.715,0.502,1.401,0.849,2.049l-1.994,4.193c0.725,0.909,1.549,1.733,2.459,2.458l4.192-1.993c0.648,0.347,1.334,0.633,2.05,0.851l1.557,4.377c0.571,0.064,1.148,0.104,1.737,0.104c0.588,0,1.165-0.04,1.736-0.104l1.558-4.377c0.715-0.218,1.399-0.504,2.049-0.851l4.193,1.993c0.909-0.725,1.733-1.549,2.458-2.458l-1.993-4.193c0.347-0.647,0.633-1.334,0.851-2.049L31.229,17.736zM16,20.871c-2.69,0-4.872-2.182-4.872-4.871c0-2.69,2.182-4.872,4.872-4.872c2.689,0,4.871,2.182,4.871,4.872C20.871,18.689,18.689,20.871,16,20.871z"></path><title>Link options.</title></g></g></g></g><!--z-index:45--><g   id="j_22" ><path  stroke="#444444" d="M 2112 1742 L 2487 2042" id="v-314" stroke-width="2" stroke-dasharray="" fill="none" style="opacity: 1;"></path><path  fill="black" stroke="black" d="M 0 0 0 0" transform="matrix(0.7808688000832672,0.624695059254128,-0.624695059254128,0.7808688000832672,2111.5,1742)"></path><path  fill="#444444" stroke="#444444" d="M 20 0 L 0 10 L 20 20 z" id="v-316" transform="matrix(-0.7808688416748548,-0.6246950072646416,0.6246950072646416,-0.7808688416748548,2480.253144594102,2049.8086902472073)" style="opacity: 1;"></path><path  d="M 2112 1742 L 2487 2042" id="v-315" fill="none" style="cursor: auto; pointer-events: visiblepainted;"></path><g ><g id="v-305"  label-idx="0" cursor="move" transform="matrix(1,0,0,1,2299.5,1878.5999755859375)" style="cursor: default; opacity: 1;"><rect joint-selector="rect" id="v-309" fill="#ffffff" rx="3" ry="3" pointer-events="none" width="183.2410888671875" height="34.621337890625" transform="matrix(1,0,0,1,-90.4,-17.3)"></rect><text joint-selector="text" id="v-308" font-size="24px" xml:space="preserve" y="0.8em" fill="#444444" text-anchor="middle" pointer-events="none" font-family="Open Sans, Tahoma, Arial" font-weight="normal" transform="matrix(1,0,0,1,0,-8.8)"><tspan dy="0" >Imports/Exports</tspan></text></g><g id="v-306"  label-idx="1" cursor="move" transform="matrix(1,0,0,1,2299.5,1909)" style="cursor: default; opacity: 1;"><rect joint-selector="rect" id="v-311" fill="#ffffff" rx="3" ry="3"  pointer-events="none" width="77.58114624023438" height="27.69706916809082" transform="matrix(1,0,0,1,-38.1,-13.8)" style="display: block;"></rect><text joint-selector="text" id="v-310" font-size="16.799999999999997px" xml:space="preserve" y="0.8em" fill="#444444" text-anchor="middle" pointer-events="none"  font-family="Open Sans, Tahoma, Arial" font-weight="normal" transform="matrix(1,0,0,1,0,-6.5)" style="display: block;"><tspan dy="0" >[CSV files]</tspan></text></g><g id="v-307"  label-idx="2" cursor="move" transform="matrix(1,0,0,1,2289.5,1917.4000244140625)" style="cursor: default; opacity: 1;"><rect joint-selector="rect" id="v-313" fill="#ffffff" rx="3" ry="3"  width="0" height="0" transform="matrix(1,0,0,1,0,0)" display="none"></rect><text joint-selector="text" id="v-312" fill="#000000" font-size="14" text-anchor="middle" pointer-events="none"></text></g></g><g  display="none" style="display: none;"></g><g  id="v-318" display="none"><g  id="v-303"><path  end="source" d="M 26 0 L 0 13 L 26 26 z"></path></g><g  id="v-304"><path  end="target" d="M 26 0 L 0 13 L 26 26 z"></path></g></g><g  id="v-317" display="none"><g  id="v-302" transform="translate(2143.234752377721, 1766.9878019021771) "><g  event="remove"><circle r="11"></circle><path transform="scale(.8) translate(-16, -16)" d="M24.778,21.419 19.276,15.917 24.777,10.415 21.949,7.585 16.447,13.087 10.945,7.585 8.117,10.415 13.618,15.917 8.116,21.419 10.946,24.248 16.447,18.746 21.948,24.248z"></path><title>Remove link.</title></g><g  event="link:options"><circle r="11" transform="translate(25)"></circle><path fill="white" transform="scale(.55) translate(29, -16)" d="M31.229,17.736c0.064-0.571,0.104-1.148,0.104-1.736s-0.04-1.166-0.104-1.737l-4.377-1.557c-0.218-0.716-0.504-1.401-0.851-2.05l1.993-4.192c-0.725-0.91-1.549-1.734-2.458-2.459l-4.193,1.994c-0.647-0.347-1.334-0.632-2.049-0.849l-1.558-4.378C17.165,0.708,16.588,0.667,16,0.667s-1.166,0.041-1.737,0.105L12.707,5.15c-0.716,0.217-1.401,0.502-2.05,0.849L6.464,4.005C5.554,4.73,4.73,5.554,4.005,6.464l1.994,4.192c-0.347,0.648-0.632,1.334-0.849,2.05l-4.378,1.557C0.708,14.834,0.667,15.412,0.667,16s0.041,1.165,0.105,1.736l4.378,1.558c0.217,0.715,0.502,1.401,0.849,2.049l-1.994,4.193c0.725,0.909,1.549,1.733,2.459,2.458l4.192-1.993c0.648,0.347,1.334,0.633,2.05,0.851l1.557,4.377c0.571,0.064,1.148,0.104,1.737,0.104c0.588,0,1.165-0.04,1.736-0.104l1.558-4.377c0.715-0.218,1.399-0.504,2.049-0.851l4.193,1.993c0.909-0.725,1.733-1.549,2.458-2.458l-1.993-4.193c0.347-0.647,0.633-1.334,0.851-2.049L31.229,17.736zM16,20.871c-2.69,0-4.872-2.182-4.872-4.871c0-2.69,2.182-4.872,4.872-4.872c2.689,0,4.871,2.182,4.871,4.872C20.871,18.689,18.689,20.871,16,20.871z"></path><title>Link options.</title></g></g></g></g><!--z-index:46--><g   id="j_23" ><path  stroke="#999999" d="M 2149 1682 L 3199 2102" id="v-334" stroke-width="2" stroke-dasharray="8 8" fill="none" style="opacity: 1;"></path><path  fill="black" stroke="black" d="M 0 0 0 0" transform="matrix(0.9284766955435519,0.371390664708372,-0.371390664708372,0.9284766955435519,2149,1682)"></path><path  fill="#999999" stroke="#999999" d="M 20 0 L 0 10 L 20 20 z" id="v-336" transform="matrix(-0.928476707906966,-0.3713906337998342,0.3713906337998342,-0.928476707906966,3195.286192772321,2111.284806229568)" style="opacity: 1;"></path><path  d="M 2149 1682 L 3199 2102" id="v-335" fill="none" style="cursor: auto; pointer-events: visiblepainted;"></path><g ><g id="v-325"  label-idx="0" cursor="move" transform="matrix(1,0,0,1,2674,1878.5999755859375)" style="cursor: default; opacity: 1;"><rect joint-selector="rect" id="v-329" fill="#ffffff" rx="3" ry="3" pointer-events="none" width="149.39527893066406" height="34.621337890625" transform="matrix(1,0,0,1,-73.5,-17.3)"></rect><text joint-selector="text" id="v-328" font-size="24px" xml:space="preserve" y="0.8em" fill="#999999" text-anchor="middle" pointer-events="none" font-family="Open Sans, Tahoma, Arial" font-weight="normal" transform="matrix(1,0,0,1,0,-8.8)"><tspan dy="0" >Synchronises</tspan></text></g><g id="v-326"  label-idx="1" cursor="move" transform="matrix(1,0,0,1,2674,1909)" style="cursor: default; opacity: 1;"><rect joint-selector="rect" id="v-331" fill="#ffffff" rx="3" ry="3"  pointer-events="none" width="43.16794967651367" height="27.69706916809082" transform="matrix(1,0,0,1,-20.9,-13.8)" style="display: block;"></rect><text joint-selector="text" id="v-330" font-size="16.799999999999997px" xml:space="preserve" y="0.8em" fill="#999999" text-anchor="middle" pointer-events="none"  font-family="Open Sans, Tahoma, Arial" font-weight="normal" transform="matrix(1,0,0,1,0,-6.5)" style="display: block;"><tspan dy="0" >[SQL]</tspan></text></g><g id="v-327"  label-idx="2" cursor="move" transform="matrix(1,0,0,1,2664,1917.4000244140625)" style="cursor: default; opacity: 1;"><rect joint-selector="rect" id="v-333" fill="#ffffff" rx="3" ry="3"  width="0" height="0" transform="matrix(1,0,0,1,0,0)" display="none"></rect><text joint-selector="text" id="v-332" fill="#000000" font-size="14" text-anchor="middle" pointer-events="none"></text></g></g><g  display="none" style="display: none;"></g><g  id="v-338" display="none"><g  id="v-323"><path  end="source" d="M 26 0 L 0 13 L 26 26 z"></path></g><g  id="v-324"><path  end="target" d="M 26 0 L 0 13 L 26 26 z"></path></g></g><g  id="v-337" display="none"><g  id="v-322" transform="translate(2186.1390676354104, 1696.8556270541642) "><g  event="remove"><circle r="11"></circle><path transform="scale(.8) translate(-16, -16)" d="M24.778,21.419 19.276,15.917 24.777,10.415 21.949,7.585 16.447,13.087 10.945,7.585 8.117,10.415 13.618,15.917 8.116,21.419 10.946,24.248 16.447,18.746 21.948,24.248z"></path><title>Remove link.</title></g><g  event="link:options"><circle r="11" transform="translate(25)"></circle><path fill="white" transform="scale(.55) translate(29, -16)" d="M31.229,17.736c0.064-0.571,0.104-1.148,0.104-1.736s-0.04-1.166-0.104-1.737l-4.377-1.557c-0.218-0.716-0.504-1.401-0.851-2.05l1.993-4.192c-0.725-0.91-1.549-1.734-2.458-2.459l-4.193,1.994c-0.647-0.347-1.334-0.632-2.049-0.849l-1.558-4.378C17.165,0.708,16.588,0.667,16,0.667s-1.166,0.041-1.737,0.105L12.707,5.15c-0.716,0.217-1.401,0.502-2.05,0.849L6.464,4.005C5.554,4.73,4.73,5.554,4.005,6.464l1.994,4.192c-0.347,0.648-0.632,1.334-0.849,2.05l-4.378,1.557C0.708,14.834,0.667,15.412,0.667,16s0.041,1.165,0.105,1.736l4.378,1.558c0.217,0.715,0.502,1.401,0.849,2.049l-1.994,4.193c0.725,0.909,1.549,1.733,2.459,2.458l4.192-1.993c0.648,0.347,1.334,0.633,2.05,0.851l1.557,4.377c0.571,0.064,1.148,0.104,1.737,0.104c0.588,0,1.165-0.04,1.736-0.104l1.558-4.377c0.715-0.218,1.399-0.504,2.049-0.851l4.193,1.993c0.909-0.725,1.733-1.549,2.458-2.458l-1.993-4.193c0.347-0.647,0.633-1.334,0.851-2.049L31.229,17.736zM16,20.871c-2.69,0-4.872-2.182-4.872-4.871c0-2.69,2.182-4.872,4.872-4.872c2.689,0,4.871,2.182,4.871,4.872C20.871,18.689,18.689,20.871,16,20.871z"></path><title>Link options.</title></g></g></g></g><!--z-index:47--><g   id="j_24" ><path  stroke="#999999" d="M 2149 1646 L 3789 2040 C 3795.6666666666665 2041.3333333333333 3802 2043.3333333333333 3808 2046 L 3949 2102" id="v-355" stroke-width="2" stroke-dasharray="8 8" fill="none" style="opacity: 1;"></path><path  fill="black" stroke="black" d="M 0 0 0 0" transform="matrix(0.9723873020607068,0.23337295214120202,-0.23337295214120202,0.9723873020607068,2149,1646)"></path><path  fill="#999999" stroke="#999999" d="M 20 0 L 0 10 L 20 20 z" id="v-357" transform="matrix(-0.928476707906966,-0.3713906337998342,0.3713906337998342,-0.928476707906966,3945.286192772321,2111.284806229568)" style="opacity: 1;"></path><path  d="M 2149 1646 L 3789 2040 C 3795.6666666666665 2041.3333333333333 3802 2043.3333333333333 3808 2046 L 3949 2102" id="v-356" fill="none" style="cursor: auto; pointer-events: visiblepainted;"></path><g ><g id="v-346"  label-idx="0" cursor="move" transform="matrix(1,0,0,1,3052.46337890625,1849.651611328125)" style="cursor: default; opacity: 1;"><rect joint-selector="rect" id="v-350" fill="#ffffff" rx="3" ry="3" pointer-events="none" width="143.5703582763672" height="34.621337890625" transform="matrix(1,0,0,1,-71.8,-17.3)"></rect><text joint-selector="text" id="v-349" font-size="24px" xml:space="preserve" y="0.8em" fill="#999999" text-anchor="middle" pointer-events="none" font-family="Open Sans, Tahoma, Arial" font-weight="normal" transform="matrix(1,0,0,1,0,-8.8)"><tspan dy="0" >Provisions to</tspan></text></g><g id="v-347"  label-idx="1" cursor="move" transform="matrix(1,0,0,1,3052.46337890625,1880.0516357421875)" style="cursor: default; opacity: 1;"><rect joint-selector="rect" id="v-352" fill="#ffffff" rx="3" ry="3"  pointer-events="none" width="79.40349578857422" height="27.69706916809082" transform="matrix(1,0,0,1,-39,-13.8)" style="display: block;"></rect><text joint-selector="text" id="v-351" font-size="16.799999999999997px" xml:space="preserve" y="0.8em" fill="#999999" text-anchor="middle" pointer-events="none"  font-family="Open Sans, Tahoma, Arial" font-weight="normal" transform="matrix(1,0,0,1,0,-6.5)" style="display: block;"><tspan dy="0" >[SCIM 2.0]</tspan></text></g><g id="v-348"  label-idx="2" cursor="move" transform="matrix(1,0,0,1,3042.46337890625,1888.4515380859375)" style="cursor: default; opacity: 1;"><rect joint-selector="rect" id="v-354" fill="#ffffff" rx="3" ry="3"  width="0" height="0" transform="matrix(1,0,0,1,0,0)" display="none"></rect><text joint-selector="text" id="v-353" fill="#000000" font-size="14" text-anchor="middle" pointer-events="none"></text></g></g><g  display="none" style="display: none;"><g  transform="translate(3799, 2042)" id="v-398"><circle  idx="0" r="10"></circle><path  idx="0" d="M16,5.333c-7.732,0-14,4.701-14,10.5c0,1.982,0.741,3.833,2.016,5.414L2,25.667l5.613-1.441c2.339,1.317,5.237,2.107,8.387,2.107c7.732,0,14-4.701,14-10.5C30,10.034,23.732,5.333,16,5.333z" transform="translate(5, -33)"></path><path  idx="0" transform="scale(.8) translate(9.5, -37)" d="M24.778,21.419 19.276,15.917 24.777,10.415 21.949,7.585 16.447,13.087 10.945,7.585 8.117,10.415 13.618,15.917 8.116,21.419 10.946,24.248 16.447,18.746 21.948,24.248z"><title>Remove vertex.</title></path></g></g><g  id="v-359" display="none"><g  id="v-344"><path  end="source" d="M 26 0 L 0 13 L 26 26 z"></path></g><g  id="v-345"><path  end="target" d="M 26 0 L 0 13 L 26 26 z"></path></g></g><g  id="v-358" display="none"><g  id="v-342" transform="translate(2187.8933383566355, 1655.3438873856796) "><g  event="remove"><circle r="11"></circle><path transform="scale(.8) translate(-16, -16)" d="M24.778,21.419 19.276,15.917 24.777,10.415 21.949,7.585 16.447,13.087 10.945,7.585 8.117,10.415 13.618,15.917 8.116,21.419 10.946,24.248 16.447,18.746 21.948,24.248z"></path><title>Remove link.</title></g><g  event="link:options"><circle r="11" transform="translate(25)"></circle><path fill="white" transform="scale(.55) translate(29, -16)" d="M31.229,17.736c0.064-0.571,0.104-1.148,0.104-1.736s-0.04-1.166-0.104-1.737l-4.377-1.557c-0.218-0.716-0.504-1.401-0.851-2.05l1.993-4.192c-0.725-0.91-1.549-1.734-2.458-2.459l-4.193,1.994c-0.647-0.347-1.334-0.632-2.049-0.849l-1.558-4.378C17.165,0.708,16.588,0.667,16,0.667s-1.166,0.041-1.737,0.105L12.707,5.15c-0.716,0.217-1.401,0.502-2.05,0.849L6.464,4.005C5.554,4.73,4.73,5.554,4.005,6.464l1.994,4.192c-0.347,0.648-0.632,1.334-0.849,2.05l-4.378,1.557C0.708,14.834,0.667,15.412,0.667,16s0.041,1.165,0.105,1.736l4.378,1.558c0.217,0.715,0.502,1.401,0.849,2.049l-1.994,4.193c0.725,0.909,1.549,1.733,2.459,2.458l4.192-1.993c0.648,0.347,1.334,0.633,2.05,0.851l1.557,4.377c0.571,0.064,1.148,0.104,1.737,0.104c0.588,0,1.165-0.04,1.736-0.104l1.558-4.377c0.715-0.218,1.399-0.504,2.049-0.851l4.193,1.993c0.909-0.725,1.733-1.549,2.458-2.458l-1.993-4.193c0.347-0.647,0.633-1.334,0.851-2.049L31.229,17.736zM16,20.871c-2.69,0-4.872-2.182-4.872-4.871c0-2.69,2.182-4.872,4.872-4.872c2.689,0,4.871,2.182,4.871,4.872C20.871,18.689,18.689,20.871,16,20.871z"></path><title>Link options.</title></g></g></g></g><!--z-index:48--><g   id="j_25" ><path  stroke="#444444" d="M 1699 1637 L 1128 1751 C 1121.5275990312562 1752.152330911474 1115.5275990312562 1754.4856642448074 1110 1758 L 649 2050" id="v-375" stroke-width="2" stroke-dasharray="" fill="none" style="opacity: 1;"></path><path  fill="black" stroke="black" d="M 0 0 0 0" transform="matrix(-0.9806758116577613,0.1956398538881867,-0.1956398538881867,-0.9806758116577613,1699,1636.8800048828125)"></path><path  fill="#444444" stroke="#444444" d="M 20 0 L 0 10 L 20 20 z" id="v-377" transform="matrix(0.8450683546668284,-0.5346582795961357,0.5346582795961357,0.8450683546668284,643.6534172511203,2041.189356280543)" style="opacity: 1;"></path><path  d="M 1699 1637 L 1128 1751 C 1121.5275990312562 1752.152330911474 1115.5275990312562 1754.4856642448074 1110 1758 L 649 2050" id="v-376" fill="none" style="cursor: auto; pointer-events: visiblepainted;"></path><g ><g id="v-366"  label-idx="0" cursor="move" transform="matrix(1,0,0,1,1136.402099609375,1735.9224853515625)" style="cursor: default; opacity: 1;"><rect joint-selector="rect" id="v-370" fill="#ffffff" rx="3" ry="3" pointer-events="none" width="191.740478515625" height="34.621337890625" transform="matrix(1,0,0,1,-95.6,-17.3)"></rect><text joint-selector="text" id="v-369" font-size="24px" xml:space="preserve" y="0.8em" fill="#444444" text-anchor="middle" pointer-events="none" font-family="Open Sans, Tahoma, Arial" font-weight="normal" transform="matrix(1,0,0,1,0,-8.8)"><tspan dy="0" >Authenticates via</tspan></text></g><g id="v-367"  label-idx="1" cursor="move" transform="matrix(1,0,0,1,1136.402099609375,1766.322509765625)" style="cursor: default; opacity: 1;"><rect joint-selector="rect" id="v-372" fill="#ffffff" rx="3" ry="3"  pointer-events="none" width="52.57259750366211" height="27.69706916809082" transform="matrix(1,0,0,1,-25.6,-13.8)" style="display: block;"></rect><text joint-selector="text" id="v-371" font-size="16.799999999999997px" xml:space="preserve" y="0.8em" fill="#444444" text-anchor="middle" pointer-events="none"  font-family="Open Sans, Tahoma, Arial" font-weight="normal" transform="matrix(1,0,0,1,0,-6.5)" style="display: block;"><tspan dy="0" >[OIDC]</tspan></text></g><g id="v-368"  label-idx="2" cursor="move" transform="matrix(1,0,0,1,1126.402099609375,1774.7225341796875)" style="cursor: default; opacity: 1;"><rect joint-selector="rect" id="v-374" fill="#ffffff" rx="3" ry="3"  width="0" height="0" transform="matrix(1,0,0,1,0,0)" display="none"></rect><text joint-selector="text" id="v-373" fill="#000000" font-size="14" text-anchor="middle" pointer-events="none"></text></g></g><g  display="none" style="display: none;"><g  transform="translate(1118.2913985468845, 1752.7284963672112)" id="v-399"><circle  idx="0" r="10"></circle><path  idx="0" d="M16,5.333c-7.732,0-14,4.701-14,10.5c0,1.982,0.741,3.833,2.016,5.414L2,25.667l5.613-1.441c2.339,1.317,5.237,2.107,8.387,2.107c7.732,0,14-4.701,14-10.5C30,10.034,23.732,5.333,16,5.333z" transform="translate(5, -33)"></path><path  idx="0" transform="scale(.8) translate(9.5, -37)" d="M24.778,21.419 19.276,15.917 24.777,10.415 21.949,7.585 16.447,13.087 10.945,7.585 8.117,10.415 13.618,15.917 8.116,21.419 10.946,24.248 16.447,18.746 21.948,24.248z"><title>Remove vertex.</title></path></g></g><g  id="v-379" display="none"><g  id="v-364"><path  end="source" d="M 26 0 L 0 13 L 26 26 z"></path></g><g  id="v-365"><path  end="target" d="M 26 0 L 0 13 L 26 26 z"></path></g></g><g  id="v-378" display="none"><g  id="v-363" transform="translate(1659.7741330129493, 1644.8314340394463) "><g  event="remove"><circle r="11"></circle><path transform="scale(.8) translate(-16, -16)" d="M24.778,21.419 19.276,15.917 24.777,10.415 21.949,7.585 16.447,13.087 10.945,7.585 8.117,10.415 13.618,15.917 8.116,21.419 10.946,24.248 16.447,18.746 21.948,24.248z"></path><title>Remove link.</title></g><g  event="link:options"><circle r="11" transform="translate(25)"></circle><path fill="white" transform="scale(.55) translate(29, -16)" d="M31.229,17.736c0.064-0.571,0.104-1.148,0.104-1.736s-0.04-1.166-0.104-1.737l-4.377-1.557c-0.218-0.716-0.504-1.401-0.851-2.05l1.993-4.192c-0.725-0.91-1.549-1.734-2.458-2.459l-4.193,1.994c-0.647-0.347-1.334-0.632-2.049-0.849l-1.558-4.378C17.165,0.708,16.588,0.667,16,0.667s-1.166,0.041-1.737,0.105L12.707,5.15c-0.716,0.217-1.401,0.502-2.05,0.849L6.464,4.005C5.554,4.73,4.73,5.554,4.005,6.464l1.994,4.192c-0.347,0.648-0.632,1.334-0.849,2.05l-4.378,1.557C0.708,14.834,0.667,15.412,0.667,16s0.041,1.165,0.105,1.736l4.378,1.558c0.217,0.715,0.502,1.401,0.849,2.049l-1.994,4.193c0.725,0.909,1.549,1.733,2.459,2.458l4.192-1.993c0.648,0.347,1.334,0.633,2.05,0.851l1.557,4.377c0.571,0.064,1.148,0.104,1.737,0.104c0.588,0,1.165-0.04,1.736-0.104l1.558-4.377c0.715-0.218,1.399-0.504,2.049-0.851l4.193,1.993c0.909-0.725,1.733-1.549,2.458-2.458l-1.993-4.193c0.347-0.647,0.633-1.334,0.851-2.049L31.229,17.736zM16,20.871c-2.69,0-4.872-2.182-4.872-4.871c0-2.69,2.182-4.872,4.872-4.872c2.689,0,4.871,2.182,4.871,4.872C20.871,18.689,18.689,20.871,16,20.871z"></path><title>Link options.</title></g></g></g></g><!--z-index:49--></g><g ></g><g ></g><g ><g transform="translate(20,2590)"><g><text font-size="24px" xml:space="preserve" y="0.8em" font-weight="normal" text-anchor="start" fill="#444444" pointer-events="none" display="block" font-family="Open Sans, Tahoma, Arial"><tspan dy="0" display="block">JIM v1.16</tspan></text></g></g></g></g></svg>