<svg xmlns="http://www.w3.org/2000/svg" xmlns:xlink="http://www.w3.org/1999/xlink" version="1.1" viewBox="0 0 1114 2039" style="background: #111111"><defs joint-selector="defs"></defs><g joint-selector="layers"  transform="matrix(1,0,0,1,0,0)"><g ></g><g ><!--z-index:0--><!--z-index:1--><!--z-index:2--><!--z-index:3--><!--z-index:4--><!--z-index:5--><!--z-index:6--><!--z-index:7--><!--z-index:8--><!--z-index:9--><!--z-index:10--><!--z-index:11--><!--z-index:12--><!--z-index:13--><!--z-index:14--><g   id="j_537"  transform="translate(20,1995)"><g id="v-7894"><text  id="v-7895" font-size="24px" xml:space="preserve" y="0.8em" font-weight="normal" text-anchor="start" fill="#cccccc" pointer-events="none" display="block" font-family="Open Sans, Tahoma, Arial"><tspan dy="0" >Tuesday, 16 December 2025 at 10:54 Greenwich Mean Time</tspan></text></g></g><!--z-index:15--><g   id="j_536"  transform="translate(20,1961)"><g id="v-7892"><text  id="v-7893" font-size="24px" xml:space="preserve" y="0.8em" font-weight="normal" text-anchor="start" fill="#cccccc" pointer-events="none" display="block" font-family="Open Sans, Tahoma, Arial"><tspan dy="0" >Component diagram for JIM Scheduler Service</tspan></text></g></g><!--z-index:16--><g   id="j_535"  transform="translate(20,1915)"><g id="v-7890"><text  id="v-7891" font-size="36px" xml:space="preserve" y="0.8em" font-weight="normal" text-anchor="start" fill="#cccccc" pointer-events="none" display="block" font-family="Open Sans, Tahoma, Arial"><tspan dy="0" >Component View: JIM - Scheduler Service</tspan></text></g></g><!--z-index:17--><g   id="j_539"  transform="translate(199,142)" style=""><g id="v-7909"><rect  id="v-7910" width="664" height="1639" rx="20" ry="20" stroke-width="2" pointer-events="none" stroke="#0f5eaa" fill="#111111" stroke-dasharray=""></rect><text  id="v-7911" font-size="33.599999999999994px" xml:space="preserve" y="1600" font-weight="bold" text-anchor="start" pointer-events="visible" font-family="Open Sans, Tahoma, Arial" fill="#ffffff" transform="matrix(1,0,0,1,15,0)"><tspan dy="0" >JIM</tspan></text><text  id="v-7912" font-size="16.799999999999997px" xml:space="preserve" y="1624" font-weight="normal" text-anchor="start" pointer-events="visible" font-family="Open Sans, Tahoma, Arial" fill="#ffffff" transform="matrix(1,0,0,1,15,0)"><tspan dy="0" >[Software System]</tspan></text><image  id="v-7913" pointer-events="visible"></image></g></g><!--z-index:18--><g   id="j_538"  transform="translate(393,1382)" style=""><g  id="v-7902" style="opacity: 1;"><rect  id="v-7903" rx="20" ry="20" stroke-width="2" pointer-events="visiblePainted" fill="#438dd5" stroke="#3c7fc0" stroke-dasharray="" width="450" height="300"></rect><text  id="v-7904" font-size="33.599999999999994px" xml:space="preserve" y="86.9" font-weight="bold" text-anchor="middle" pointer-events="visible" font-family="Open Sans, Tahoma, Arial" fill="#ffffff" dominant-baseline="hanging" transform="matrix(1,0,0,1,225,0)"><tspan dy="0" >Application Layer</tspan></text><text  id="v-7905" font-size="16.799999999999997px" xml:space="preserve" y="128.5" text-anchor="middle" font-family="Open Sans, Tahoma, Arial" fill="#ffffff" dominant-baseline="hanging" transform="matrix(1,0,0,1,225,0)" style="display: block;"><tspan dy="0" >[Container: JIM.Application]</tspan></text><text  id="v-7906" font-size="24px" xml:space="preserve" y="160.3" text-anchor="middle" font-family="Open Sans, Tahoma, Arial" fill="#ffffff" dominant-baseline="hanging" transform="matrix(1,0,0,1,225,0)" style="display: block;"><tspan dy="0" >Business logic and domain</tspan><tspan dy="1.2em" x="0" >services</tspan></text><g  id="v-7907" color="#ffffff" transform="matrix(1,0,0,1,210,268)" display="none"><g  transform="translate(5 0)"><svg xmlns="http://www.w3.org/2000/svg" width="20" height="20" fill="currentColor" viewBox="0 0 16 16"><path fill-rule="evenodd" d="M6.5 12a5.5 5.5 0 1 0 0-11 5.5 5.5 0 0 0 0 11zM13 6.5a6.5 6.5 0 1 1-13 0 6.5 6.5 0 0 1 13 0z"></path><path d="M10.344 11.742c.03.04.062.078.098.115l3.85 3.85a1 1 0 0 0 1.415-1.414l-3.85-3.85a1.007 1.007 0 0 0-.115-.1 6.538 6.538 0 0 1-1.398 1.4z"></path><path fill-rule="evenodd" d="M6.5 3a.5.5 0 0 1 .5.5V6h2.5a.5.5 0 0 1 0 1H7v2.5a.5.5 0 0 1-1 0V7H3.5a.5.5 0 0 1 0-1H6V3.5a.5.5 0 0 1 .5-.5z"></path></svg></g><g ></g><g ></g><g ></g></g><image  id="v-7908"></image></g></g><!--z-index:19--><g   id="j_541"  transform="translate(219,162)" style=""><g id="v-7927"><rect  id="v-7928" width="490" height="1019" rx="20" ry="20" stroke-width="2" pointer-events="none" stroke="#3c7fc0" fill="#111111" stroke-dasharray=""></rect><text  id="v-7929" font-size="33.599999999999994px" xml:space="preserve" y="980" font-weight="bold" text-anchor="start" pointer-events="visible" font-family="Open Sans, Tahoma, Arial" fill="#ffffff" transform="matrix(1,0,0,1,15,0)"><tspan dy="0" >Scheduler Service</tspan></text><text  id="v-7930" font-size="16.799999999999997px" xml:space="preserve" y="1004" font-weight="normal" text-anchor="start" pointer-events="visible" font-family="Open Sans, Tahoma, Arial" fill="#ffffff" transform="matrix(1,0,0,1,15,0)"><tspan dy="0" >[Container]</tspan></text><image  id="v-7931" pointer-events="visible"></image></g></g><!--z-index:20--><g   id="j_540"  transform="translate(239,182)" style=""><g  id="v-7920" style="opacity: 1;"><rect  id="v-7921" rx="20" ry="20" stroke-width="2" pointer-events="visiblePainted" fill="#85bbf0" stroke="#78a8d8" stroke-dasharray="" width="450" height="300"></rect><text  id="v-7922" font-size="33.599999999999994px" xml:space="preserve" y="86.9" font-weight="bold" text-anchor="middle" pointer-events="visible" font-family="Open Sans, Tahoma, Arial" fill="#000000" dominant-baseline="hanging" transform="matrix(1,0,0,1,225,0)"><tspan dy="0" >Scheduler Host</tspan></text><text  id="v-7923" font-size="16.799999999999997px" xml:space="preserve" y="128.5" text-anchor="middle" font-family="Open Sans, Tahoma, Arial" fill="#000000" dominant-baseline="hanging" transform="matrix(1,0,0,1,225,0)" style="display: block;"><tspan dy="0" >[Component: .NET BackgroundService]</tspan></text><text  id="v-7924" font-size="24px" xml:space="preserve" y="160.3" text-anchor="middle" font-family="Open Sans, Tahoma, Arial" fill="#000000" dominant-baseline="hanging" transform="matrix(1,0,0,1,225,0)" style="display: block;"><tspan dy="0" >Main scheduling loop, evaluates</tspan><tspan dy="1.2em" x="0" >run profile schedules</tspan></text><g  id="v-7925" color="#000000" transform="matrix(1,0,0,1,222.5,268)" display="none"><g ></g><g ></g><g ></g><g ></g></g><image  id="v-7926"></image></g></g><!--z-index:21--><g   id="j_542"  transform="translate(239,782)" style=""><g  id="v-7938" style="opacity: 1;"><rect  id="v-7939" rx="20" ry="20" stroke-width="2" pointer-events="visiblePainted" fill="#85bbf0" stroke="#78a8d8" stroke-dasharray="" width="450" height="300"></rect><text  id="v-7940" font-size="33.599999999999994px" xml:space="preserve" y="86.9" font-weight="bold" text-anchor="middle" pointer-events="visible" font-family="Open Sans, Tahoma, Arial" fill="#000000" dominant-baseline="hanging" transform="matrix(1,0,0,1,225,0)"><tspan dy="0" >Schedule Evaluator</tspan></text><text  id="v-7941" font-size="16.799999999999997px" xml:space="preserve" y="128.5" text-anchor="middle" font-family="Open Sans, Tahoma, Arial" fill="#000000" dominant-baseline="hanging" transform="matrix(1,0,0,1,225,0)" style="display: block;"><tspan dy="0" >[Component: C# Service]</tspan></text><text  id="v-7942" font-size="24px" xml:space="preserve" y="160.3" text-anchor="middle" font-family="Open Sans, Tahoma, Arial" fill="#000000" dominant-baseline="hanging" transform="matrix(1,0,0,1,225,0)" style="display: block;"><tspan dy="0" >Determines which run profiles are</tspan><tspan dy="1.2em" x="0" >due for execution</tspan></text><g  id="v-7943" color="#000000" transform="matrix(1,0,0,1,222.5,268)" display="none"><g ></g><g ></g><g ></g><g ></g></g><image  id="v-7944"></image></g></g><!--z-index:22--><g   id="j_543" ><path  stroke="#cccccc" d="M 464 482 L 464 782" id="v-7957" stroke-width="2" stroke-dasharray="" fill="none" style="opacity: 1;"></path><path  fill="black" stroke="black" d="M 0 0 0 0" transform="matrix(6.123233995736765e-17,0.9999999999999999,-0.9999999999999999,6.123233995736765e-17,464,482)"></path><path  fill="#cccccc" stroke="#cccccc" d="M 20 0 L 0 10 L 20 20 z" id="v-7959" transform="matrix(-1.8369701987210294e-16,-0.9999999999999999,0.9999999999999999,-1.8369701987210294e-16,454,782)" style="opacity: 1;"></path><path  d="M 464 482 L 464 782" id="v-7958" fill="none" style="cursor: auto; pointer-events: visiblepainted;"></path><g ><g id="v-7948"  label-idx="0" cursor="move" transform="matrix(1,0,0,1,464,618.5999755859375)" style="cursor: default; opacity: 1;"><rect joint-selector="rect" id="v-7952" fill="#111111" rx="3" ry="3" pointer-events="none" width="53.84305191040039" height="31.991626739501953" transform="matrix(1,0,0,1,-26.9,-16)"></rect><text joint-selector="text" id="v-7951" font-size="24px" xml:space="preserve" y="0.8em" fill="#cccccc" text-anchor="middle" pointer-events="none" font-family="Open Sans, Tahoma, Arial" font-weight="normal" transform="matrix(1,0,0,1,0,-10.1)"><tspan dy="0" >Uses</tspan></text></g><g id="v-7949"  label-idx="1" cursor="move" transform="matrix(1,0,0,1,464,649)" style="cursor: default; opacity: 1;"><rect joint-selector="rect" id="v-7954" fill="#111111" rx="3" ry="3"  pointer-events="none" width="110.43537902832031" height="22.851161003112793" transform="matrix(1,0,0,1,-55.2,-11.4)" style="display: block;"></rect><text joint-selector="text" id="v-7953" font-size="16.799999999999997px" xml:space="preserve" y="0.8em" fill="#cccccc" text-anchor="middle" pointer-events="none"  font-family="Open Sans, Tahoma, Arial" font-weight="normal" transform="matrix(1,0,0,1,0,-6.6)" style="display: block;"><tspan dy="0" >[Method calls]</tspan></text></g><g id="v-7950"  label-idx="2" cursor="move" transform="matrix(1,0,0,1,454,657.4000244140625)" style="cursor: default; opacity: 1;"><rect joint-selector="rect" id="v-7956" fill="#ffffff" rx="3" ry="3"  width="0" height="0" transform="matrix(1,0,0,1,0,0)" display="none"></rect><text joint-selector="text" id="v-7955" fill="#000000" font-size="14" text-anchor="middle" pointer-events="none"></text></g></g><g  display="none" style="display: none;"></g><g  id="v-7961" display="none"><g  id="v-7946"><path  end="source" d="M 26 0 L 0 13 L 26 26 z"></path></g><g  id="v-7947"><path  end="target" d="M 26 0 L 0 13 L 26 26 z"></path></g></g><g  id="v-7960" display="none"><g  id="v-7945" transform="translate(464, 522) "><g  event="remove"><circle r="11"></circle><path transform="scale(.8) translate(-16, -16)" d="M24.778,21.419 19.276,15.917 24.777,10.415 21.949,7.585 16.447,13.087 10.945,7.585 8.117,10.415 13.618,15.917 8.116,21.419 10.946,24.248 16.447,18.746 21.948,24.248z"></path><title>Remove link.</title></g><g  event="link:options"><circle r="11" transform="translate(25)"></circle><path fill="white" transform="scale(.55) translate(29, -16)" d="M31.229,17.736c0.064-0.571,0.104-1.148,0.104-1.736s-0.04-1.166-0.104-1.737l-4.377-1.557c-0.218-0.716-0.504-1.401-0.851-2.05l1.993-4.192c-0.725-0.91-1.549-1.734-2.458-2.459l-4.193,1.994c-0.647-0.347-1.334-0.632-2.049-0.849l-1.558-4.378C17.165,0.708,16.588,0.667,16,0.667s-1.166,0.041-1.737,0.105L12.707,5.15c-0.716,0.217-1.401,0.502-2.05,0.849L6.464,4.005C5.554,4.73,4.73,5.554,4.005,6.464l1.994,4.192c-0.347,0.648-0.632,1.334-0.849,2.05l-4.378,1.557C0.708,14.834,0.667,15.412,0.667,16s0.041,1.165,0.105,1.736l4.378,1.558c0.217,0.715,0.502,1.401,0.849,2.049l-1.994,4.193c0.725,0.909,1.549,1.733,2.459,2.458l4.192-1.993c0.648,0.347,1.334,0.633,2.05,0.851l1.557,4.377c0.571,0.064,1.148,0.104,1.737,0.104c0.588,0,1.165-0.04,1.736-0.104l1.558-4.377c0.715-0.218,1.399-0.504,2.049-0.851l4.193,1.993c0.909-0.725,1.733-1.549,2.458-2.458l-1.993-4.193c0.347-0.647,0.633-1.334,0.851-2.049L31.229,17.736zM16,20.871c-2.69,0-4.872-2.182-4.872-4.871c0-2.69,2.182-4.872,4.872-4.872c2.689,0,4.871,2.182,4.871,4.872C20.871,18.689,18.689,20.871,16,20.871z"></path><title>Link options.</title></g></g></g></g><!--z-index:23--><g   id="j_544" ><path  stroke="#cccccc" d="M 589 482 L 833 774 C 836.9999999999999 779.3333333333333 838.9999999999999 785.3333333333333 839 792 L 839 1176 C 838.9999999999999 1182.6666666666665 837.3333333333333 1188.6666666666665 834 1194 L 714 1382" id="v-7979" stroke-width="2" stroke-dasharray="" fill="none" style="opacity: 1;"></path><path  fill="black" stroke="black" d="M 0 0 0 0" transform="matrix(0.6401844186703122,0.7682212637591816,-0.7682212637591816,0.6401844186703122,589,482)"></path><path  fill="#cccccc" stroke="#cccccc" d="M 20 0 L 0 10 L 20 20 z" id="v-7981" transform="matrix(0.5382911086929912,-0.8427589704666869,0.8427589704666869,0.5382911086929912,705.3824313373094,1376.6170663130495)" style="opacity: 1;"></path><path  d="M 589 482 L 833 774 C 836.9999999999999 779.3333333333333 838.9999999999999 785.3333333333333 839 792 L 839 1176 C 838.9999999999999 1182.6666666666665 837.3333333333333 1188.6666666666665 834 1194 L 714 1382" id="v-7980" fill="none" style="cursor: auto; pointer-events: visiblepainted;"></path><g ><g id="v-7970"  label-idx="0" cursor="move" transform="matrix(1,0,0,1,839,891.6619262695312)" style="cursor: default; opacity: 1;"><rect joint-selector="rect" id="v-7974" fill="#111111" rx="3" ry="3" pointer-events="none" width="148.78248596191406" height="31.991626739501953" transform="matrix(1,0,0,1,-74.4,-16)"></rect><text joint-selector="text" id="v-7973" font-size="24px" xml:space="preserve" y="0.8em" fill="#cccccc" text-anchor="middle" pointer-events="none" font-family="Open Sans, Tahoma, Arial" font-weight="normal" transform="matrix(1,0,0,1,0,-10.1)"><tspan dy="0" >Creates tasks</tspan></text></g><g id="v-7971"  label-idx="1" cursor="move" transform="matrix(1,0,0,1,839,922.0619506835938)" style="cursor: default; opacity: 1;"><rect joint-selector="rect" id="v-7976" fill="#111111" rx="3" ry="3"  pointer-events="none" width="110.43537902832031" height="22.851161003112793" transform="matrix(1,0,0,1,-55.2,-11.4)" style="display: block;"></rect><text joint-selector="text" id="v-7975" font-size="16.799999999999997px" xml:space="preserve" y="0.8em" fill="#cccccc" text-anchor="middle" pointer-events="none"  font-family="Open Sans, Tahoma, Arial" font-weight="normal" transform="matrix(1,0,0,1,0,-6.6)" style="display: block;"><tspan dy="0" >[Method calls]</tspan></text></g><g id="v-7972"  label-idx="2" cursor="move" transform="matrix(1,0,0,1,829,930.4619750976562)" style="cursor: default; opacity: 1;"><rect joint-selector="rect" id="v-7978" fill="#ffffff" rx="3" ry="3"  width="0" height="0" transform="matrix(1,0,0,1,0,0)" display="none"></rect><text joint-selector="text" id="v-7977" fill="#000000" font-size="14" text-anchor="middle" pointer-events="none"></text></g></g><g  display="none" style="display: none;"><g  transform="translate(839, 782)" id="v-7966"><circle  idx="0" r="10"></circle><path  idx="0" d="M16,5.333c-7.732,0-14,4.701-14,10.5c0,1.982,0.741,3.833,2.016,5.414L2,25.667l5.613-1.441c2.339,1.317,5.237,2.107,8.387,2.107c7.732,0,14-4.701,14-10.5C30,10.034,23.732,5.333,16,5.333z" transform="translate(5, -33)"></path><path  idx="0" transform="scale(.8) translate(9.5, -37)" d="M24.778,21.419 19.276,15.917 24.777,10.415 21.949,7.585 16.447,13.087 10.945,7.585 8.117,10.415 13.618,15.917 8.116,21.419 10.946,24.248 16.447,18.746 21.948,24.248z"><title>Remove vertex.</title></path></g><g  transform="translate(839, 1186)" id="v-7967"><circle  idx="1" r="10"></circle><path  idx="1" d="M16,5.333c-7.732,0-14,4.701-14,10.5c0,1.982,0.741,3.833,2.016,5.414L2,25.667l5.613-1.441c2.339,1.317,5.237,2.107,8.387,2.107c7.732,0,14-4.701,14-10.5C30,10.034,23.732,5.333,16,5.333z" transform="translate(5, -33)"></path><path  idx="1" transform="scale(.8) translate(9.5, -37)" d="M24.778,21.419 19.276,15.917 24.777,10.415 21.949,7.585 16.447,13.087 10.945,7.585 8.117,10.415 13.618,15.917 8.116,21.419 10.946,24.248 16.447,18.746 21.948,24.248z"><title>Remove vertex.</title></path></g></g><g  id="v-7983" display="none"><g  id="v-7968"><path  end="source" d="M 26 0 L 0 13 L 26 26 z"></path></g><g  id="v-7969"><path  end="target" d="M 26 0 L 0 13 L 26 26 z"></path></g></g><g  id="v-7982" display="none"><g  id="v-7965" transform="translate(614.6487105639086, 512.694358543694) "><g  event="remove"><circle r="11"></circle><path transform="scale(.8) translate(-16, -16)" d="M24.778,21.419 19.276,15.917 24.777,10.415 21.949,7.585 16.447,13.087 10.945,7.585 8.117,10.415 13.618,15.917 8.116,21.419 10.946,24.248 16.447,18.746 21.948,24.248z"></path><title>Remove link.</title></g><g  event="link:options"><circle r="11" transform="translate(25)"></circle><path fill="white" transform="scale(.55) translate(29, -16)" d="M31.229,17.736c0.064-0.571,0.104-1.148,0.104-1.736s-0.04-1.166-0.104-1.737l-4.377-1.557c-0.218-0.716-0.504-1.401-0.851-2.05l1.993-4.192c-0.725-0.91-1.549-1.734-2.458-2.459l-4.193,1.994c-0.647-0.347-1.334-0.632-2.049-0.849l-1.558-4.378C17.165,0.708,16.588,0.667,16,0.667s-1.166,0.041-1.737,0.105L12.707,5.15c-0.716,0.217-1.401,0.502-2.05,0.849L6.464,4.005C5.554,4.73,4.73,5.554,4.005,6.464l1.994,4.192c-0.347,0.648-0.632,1.334-0.849,2.05l-4.378,1.557C0.708,14.834,0.667,15.412,0.667,16s0.041,1.165,0.105,1.736l4.378,1.558c0.217,0.715,0.502,1.401,0.849,2.049l-1.994,4.193c0.725,0.909,1.549,1.733,2.459,2.458l4.192-1.993c0.648,0.347,1.334,0.633,2.05,0.851l1.557,4.377c0.571,0.064,1.148,0.104,1.737,0.104c0.588,0,1.165-0.04,1.736-0.104l1.558-4.377c0.715-0.218,1.399-0.504,2.049-0.851l4.193,1.993c0.909-0.725,1.733-1.549,2.458-2.458l-1.993-4.193c0.347-0.647,0.633-1.334,0.851-2.049L31.229,17.736zM16,20.871c-2.69,0-4.872-2.182-4.872-4.871c0-2.69,2.182-4.872,4.872-4.872c2.689,0,4.871,2.182,4.871,4.872C20.871,18.689,18.689,20.871,16,20.871z"></path><title>Link options.</title></g></g></g></g><!--z-index:24--><g   id="j_545" ><path  stroke="#cccccc" d="M 503 1082 L 580 1382" id="v-7999" stroke-width="2" stroke-dasharray="" fill="none" style="opacity: 1;"></path><path  fill="black" stroke="black" d="M 0 0 0 0" transform="matrix(0.24860840010140423,0.9686040797968073,-0.9686040797968073,0.24860840010140423,502.5,1082)"></path><path  fill="#cccccc" stroke="#cccccc" d="M 20 0 L 0 10 L 20 20 z" id="v-8001" transform="matrix(-0.24860827112396766,-0.9686041129010095,0.9686041129010095,-0.24860827112396766,569.8139575978546,1384.4860886839997)" style="opacity: 1;"></path><path  d="M 503 1082 L 580 1382" id="v-8000" fill="none" style="cursor: auto; pointer-events: visiblepainted;"></path><g ><g id="v-7990"  label-idx="0" cursor="move" transform="matrix(1,0,0,1,541.5,1218.5999755859375)" style="cursor: default; opacity: 1;"><rect joint-selector="rect" id="v-7994" fill="#111111" rx="3" ry="3" pointer-events="none" width="185.4514617919922" height="31.991626739501953" transform="matrix(1,0,0,1,-92.7,-16)"></rect><text joint-selector="text" id="v-7993" font-size="24px" xml:space="preserve" y="0.8em" fill="#cccccc" text-anchor="middle" pointer-events="none" font-family="Open Sans, Tahoma, Arial" font-weight="normal" transform="matrix(1,0,0,1,0,-10.1)"><tspan dy="0" >Reads schedules</tspan></text></g><g id="v-7991"  label-idx="1" cursor="move" transform="matrix(1,0,0,1,541.5,1249)" style="cursor: default; opacity: 1;"><rect joint-selector="rect" id="v-7996" fill="#111111" rx="3" ry="3"  pointer-events="none" width="110.43537902832031" height="22.851161003112793" transform="matrix(1,0,0,1,-55.2,-11.4)" style="display: block;"></rect><text joint-selector="text" id="v-7995" font-size="16.799999999999997px" xml:space="preserve" y="0.8em" fill="#cccccc" text-anchor="middle" pointer-events="none"  font-family="Open Sans, Tahoma, Arial" font-weight="normal" transform="matrix(1,0,0,1,0,-6.6)" style="display: block;"><tspan dy="0" >[Method calls]</tspan></text></g><g id="v-7992"  label-idx="2" cursor="move" transform="matrix(1,0,0,1,531.5,1257.4000244140625)" style="cursor: default; opacity: 1;"><rect joint-selector="rect" id="v-7998" fill="#ffffff" rx="3" ry="3"  width="0" height="0" transform="matrix(1,0,0,1,0,0)" display="none"></rect><text joint-selector="text" id="v-7997" fill="#000000" font-size="14" text-anchor="middle" pointer-events="none"></text></g></g><g  display="none" style="display: none;"></g><g  id="v-8003" display="none"><g  id="v-7988"><path  end="source" d="M 26 0 L 0 13 L 26 26 z"></path></g><g  id="v-7989"><path  end="target" d="M 26 0 L 0 13 L 26 26 z"></path></g></g><g  id="v-8002" display="none"><g  id="v-7987" transform="translate(512.9443352677532, 1120.7441633808567) "><g  event="remove"><circle r="11"></circle><path transform="scale(.8) translate(-16, -16)" d="M24.778,21.419 19.276,15.917 24.777,10.415 21.949,7.585 16.447,13.087 10.945,7.585 8.117,10.415 13.618,15.917 8.116,21.419 10.946,24.248 16.447,18.746 21.948,24.248z"></path><title>Remove link.</title></g><g  event="link:options"><circle r="11" transform="translate(25)"></circle><path fill="white" transform="scale(.55) translate(29, -16)" d="M31.229,17.736c0.064-0.571,0.104-1.148,0.104-1.736s-0.04-1.166-0.104-1.737l-4.377-1.557c-0.218-0.716-0.504-1.401-0.851-2.05l1.993-4.192c-0.725-0.91-1.549-1.734-2.458-2.459l-4.193,1.994c-0.647-0.347-1.334-0.632-2.049-0.849l-1.558-4.378C17.165,0.708,16.588,0.667,16,0.667s-1.166,0.041-1.737,0.105L12.707,5.15c-0.716,0.217-1.401,0.502-2.05,0.849L6.464,4.005C5.554,4.73,4.73,5.554,4.005,6.464l1.994,4.192c-0.347,0.648-0.632,1.334-0.849,2.05l-4.378,1.557C0.708,14.834,0.667,15.412,0.667,16s0.041,1.165,0.105,1.736l4.378,1.558c0.217,0.715,0.502,1.401,0.849,2.049l-1.994,4.193c0.725,0.909,1.549,1.733,2.459,2.458l4.192-1.993c0.648,0.347,1.334,0.633,2.05,0.851l1.557,4.377c0.571,0.064,1.148,0.104,1.737,0.104c0.588,0,1.165-0.04,1.736-0.104l1.558-4.377c0.715-0.218,1.399-0.504,2.049-0.851l4.193,1.993c0.909-0.725,1.733-1.549,2.458-2.458l-1.993-4.193c0.347-0.647,0.633-1.334,0.851-2.049L31.229,17.736zM16,20.871c-2.69,0-4.872-2.182-4.872-4.871c0-2.69,2.182-4.872,4.872-4.872c2.689,0,4.871,2.182,4.871,4.872C20.871,18.689,18.689,20.871,16,20.871z"></path><title>Link options.</title></g></g></g></g><!--z-index:25--><!--z-index:26--><!--z-index:27--><!--z-index:28--><!--z-index:29--><!--z-index:30--><!--z-index:31--><!--z-index:32--><!--z-index:33--><!--z-index:34--><!--z-index:35--><!--z-index:36--><!--z-index:37--><!--z-index:38--><!--z-index:39--><!--z-index:40--><!--z-index:41--><!--z-index:42--><!--z-index:43--><!--z-index:44--><!--z-index:45--><!--z-index:46--><!--z-index:47--><!--z-index:48--><!--z-index:49--><!--z-index:50--><!--z-index:51--><!--z-index:52--><!--z-index:53--><!--z-index:54--><!--z-index:55--><!--z-index:56--><!--z-index:57--><!--z-index:58--><!--z-index:59--><!--z-index:60--><!--z-index:61--><!--z-index:62--><!--z-index:63--><!--z-index:64--><!--z-index:65--><!--z-index:66--><!--z-index:67--><!--z-index:68--><!--z-index:69--><!--z-index:70--><!--z-index:71--><!--z-index:72--><!--z-index:73--><!--z-index:74--><!--z-index:75--><!--z-index:76--><!--z-index:77--><!--z-index:78--><!--z-index:79--><!--z-index:80--><!--z-index:81--><!--z-index:82--><!--z-index:83--><!--z-index:84--><!--z-index:85--><!--z-index:86--><!--z-index:87--><!--z-index:88--><!--z-index:89--><!--z-index:90--><!--z-index:91--><!--z-index:92--><!--z-index:93--><!--z-index:94--><!--z-index:95--><!--z-index:96--><!--z-index:97--><!--z-index:98--><!--z-index:99--><!--z-index:100--><!--z-index:101--><!--z-index:102--><!--z-index:103--><!--z-index:104--><!--z-index:105--><!--z-index:106--><!--z-index:107--><!--z-index:108--><!--z-index:109--><!--z-index:110--><!--z-index:111--><!--z-index:112--><!--z-index:113--><!--z-index:114--><!--z-index:115--><!--z-index:116--><!--z-index:117--><!--z-index:118--><!--z-index:119--><!--z-index:120--><!--z-index:121--><!--z-index:122--><!--z-index:123--><!--z-index:124--><!--z-index:125--><!--z-index:126--><!--z-index:127--><!--z-index:128--><!--z-index:129--><!--z-index:130--><!--z-index:131--><!--z-index:132--><!--z-index:133--><!--z-index:134--><!--z-index:135--><!--z-index:136--><!--z-index:137--><!--z-index:138--><!--z-index:139--><!--z-index:140--><!--z-index:141--></g><g ></g><g ></g><g ></g></g></svg>