<svg xmlns="http://www.w3.org/2000/svg" xmlns:xlink="http://www.w3.org/1999/xlink" version="1.1" viewBox="0 0 4600 2660" style="background: #ffffff"><defs joint-selector="defs"></defs><g joint-selector="layers"  transform="matrix(1,0,0,1,0,0)"><g ></g><g ><!--z-index:0--><!--z-index:1--><!--z-index:2--><!--z-index:3--><!--z-index:4--><!--z-index:5--><!--z-index:6--><!--z-index:7--><!--z-index:8--><!--z-index:9--><!--z-index:10--><!--z-index:11--><!--z-index:12--><!--z-index:13--><!--z-index:14--><!--z-index:15--><!--z-index:16--><!--z-index:17--><!--z-index:18--><!--z-index:19--><!--z-index:20--><!--z-index:21--><!--z-index:22--><!--z-index:23--><!--z-index:24--><g   id="j_58"  transform="translate(20,2556)"><g id="v-908"><text  id="v-909" font-size="24px" xml:space="preserve" y="0.8em" font-weight="normal" text-anchor="start" fill="#444444" pointer-events="none" display="block" font-family="Open Sans, Tahoma, Arial"><tspan dy="0"  display="block">Friday, February 20, 2026 at 2:02 PM Coordinated Universal Time</tspan></text></g></g><!--z-index:25--><g   id="j_57"  transform="translate(20,2522)"><g id="v-906"><text  id="v-907" font-size="24px" xml:space="preserve" y="0.8em" font-weight="normal" text-anchor="start" fill="#444444" pointer-events="none" display="block" font-family="Open Sans, Tahoma, Arial"><tspan dy="0"  display="block">System Context diagram for JIM</tspan></text></g></g><!--z-index:26--><g   id="j_56"  transform="translate(20,2476)"><g id="v-904"><text  id="v-905" font-size="36px" xml:space="preserve" y="0.8em" font-weight="normal" text-anchor="start" fill="#444444" pointer-events="none" display="block" font-family="Open Sans, Tahoma, Arial"><tspan dy="0"  display="block">System Context View: JIM</tspan></text></g></g><!--z-index:27--><g   id="j_59"  transform="translate(1375,142)" style=""><g  id="v-913" style="opacity: 1;"><rect  x="0" y="160" width="400" height="240" rx="70" id="v-915" stroke-width="2" pointer-events="visiblePainted" fill="#08427b" stroke="#073b6f" stroke-dasharray=""></rect><circle  cx="200" cy="88.88888888888889" r="88.88888888888889" id="v-914" stroke-width="2" pointer-events="visiblePainted" fill="#08427b" stroke="#073b6f" stroke-dasharray=""></circle><line  x1="80" y1="266.6666666666667" x2="80" y2="400" id="v-921" stroke="#073b6f" stroke-width="1" stroke-dasharray=""></line><line  x1="320" y1="266.6666666666667" x2="320" y2="400" id="v-922" stroke="#073b6f" stroke-width="1" stroke-dasharray=""></line><text  id="v-916" font-size="33.599999999999994px" xml:space="preserve" y="173.70000000000002" font-weight="bold" text-anchor="middle" pointer-events="visible" font-family="Open Sans, Tahoma, Arial" fill="#ffffff" dominant-baseline="hanging" transform="matrix(1,0,0,1,200,0)"><tspan dy="0" >Administrator</tspan></text><text  id="v-917" font-size="16.799999999999997px" xml:space="preserve" y="215.3" text-anchor="middle" font-family="Open Sans, Tahoma, Arial" fill="#ffffff" dominant-baseline="hanging" transform="matrix(1,0,0,1,200,0)" style="display: block;"><tspan dy="0" >[Person]</tspan></text><text  id="v-918" font-size="24px" xml:space="preserve" y="247.10000000000002" text-anchor="middle" font-family="Open Sans, Tahoma, Arial" fill="#ffffff" dominant-baseline="hanging" transform="matrix(1,0,0,1,200,0)" style="display: block;"><tspan dy="0" >Identity management</tspan><tspan dy="1.2em" x="0" >administrator who configures</tspan><tspan dy="1.2em" x="0" >connected systems, sync</tspan><tspan dy="1.2em" x="0" >rules, and monitors</tspan><tspan dy="1.2em" x="0" >synchronisation</tspan></text><g  id="v-919" font-weight="normal" text-anchor="middle" color="#ffffff" transform="matrix(1,0,0,1,197.5,368)" display="none"><g ></g><g ></g><g ></g><g ></g></g><image  id="v-920"></image></g></g><!--z-index:28--><g   id="j_60"  transform="translate(2238,142)" style=""><g  id="v-929" style="opacity: 1;"><rect  x="0" y="160" width="400" height="240" rx="70" id="v-931" stroke-width="2" pointer-events="visiblePainted" fill="#08427b" stroke="#073b6f" stroke-dasharray=""></rect><circle  cx="200" cy="88.88888888888889" r="88.88888888888889" id="v-930" stroke-width="2" pointer-events="visiblePainted" fill="#08427b" stroke="#073b6f" stroke-dasharray=""></circle><line  x1="80" y1="266.6666666666667" x2="80" y2="400" id="v-937" stroke="#073b6f" stroke-width="1" stroke-dasharray=""></line><line  x1="320" y1="266.6666666666667" x2="320" y2="400" id="v-938" stroke="#073b6f" stroke-width="1" stroke-dasharray=""></line><text  id="v-932" font-size="33.599999999999994px" xml:space="preserve" y="216.9" font-weight="bold" text-anchor="middle" pointer-events="visible" font-family="Open Sans, Tahoma, Arial" fill="#ffffff" dominant-baseline="hanging" transform="matrix(1,0,0,1,200,0)"><tspan dy="0" >Automation Client</tspan></text><text  id="v-933" font-size="16.799999999999997px" xml:space="preserve" y="258.5" text-anchor="middle" font-family="Open Sans, Tahoma, Arial" fill="#ffffff" dominant-baseline="hanging" transform="matrix(1,0,0,1,200,0)" style="display: block;"><tspan dy="0" >[Person]</tspan></text><text  id="v-934" font-size="24px" xml:space="preserve" y="290.3" text-anchor="middle" font-family="Open Sans, Tahoma, Arial" fill="#ffffff" dominant-baseline="hanging" transform="matrix(1,0,0,1,200,0)" style="display: block;"><tspan dy="0" >CI/CD pipelines and scripts</tspan><tspan dy="1.2em" x="0" >using API keys</tspan></text><g  id="v-935" font-weight="normal" text-anchor="middle" color="#ffffff" transform="matrix(1,0,0,1,197.5,368)" display="none"><g ></g><g ></g><g ></g><g ></g></g><image  id="v-936"></image></g></g><!--z-index:29--><g   id="j_61"  transform="translate(200,2042)" style=""><g  id="v-945" style="opacity: 1;"><rect  id="v-946" rx="20" ry="20" stroke-width="2" pointer-events="visiblePainted" fill="#999999" stroke="#8a8a8a" stroke-dasharray="" width="450" height="300"></rect><text  id="v-947" font-size="33.599999999999994px" xml:space="preserve" y="86.9" font-weight="bold" text-anchor="middle" pointer-events="visible" font-family="Open Sans, Tahoma, Arial" fill="#ffffff" dominant-baseline="hanging" transform="matrix(1,0,0,1,225,0)"><tspan dy="0" >Identity Provider</tspan></text><text  id="v-948" font-size="16.799999999999997px" xml:space="preserve" y="128.5" text-anchor="middle" font-family="Open Sans, Tahoma, Arial" fill="#ffffff" dominant-baseline="hanging" transform="matrix(1,0,0,1,225,0)" style="display: block;"><tspan dy="0" >[Software System]</tspan></text><text  id="v-949" font-size="24px" xml:space="preserve" y="160.3" text-anchor="middle" font-family="Open Sans, Tahoma, Arial" fill="#ffffff" dominant-baseline="hanging" transform="matrix(1,0,0,1,225,0)" style="display: block;"><tspan dy="0" >OIDC/SSO provider (Keycloak,</tspan><tspan dy="1.2em" x="0" >Entra ID, Auth0, AD FS)</tspan></text><g  id="v-950" color="#ffffff" transform="matrix(1,0,0,1,222.5,268)" display="none"><g ></g><g ></g><g ></g><g ></g></g><image  id="v-951"></image></g></g><!--z-index:30--><g   id="j_62"  transform="translate(1700,842)" style=""><g  id="v-958" style="opacity: 1;"><rect  id="v-959" rx="20" ry="20" stroke-width="2" pointer-events="visiblePainted" fill="#999999" stroke="#8a8a8a" stroke-dasharray="" width="450" height="300"></rect><text  id="v-960" font-size="33.599999999999994px" xml:space="preserve" y="72.5" font-weight="bold" text-anchor="middle" pointer-events="visible" font-family="Open Sans, Tahoma, Arial" fill="#ffffff" dominant-baseline="hanging" transform="matrix(1,0,0,1,225,0)"><tspan dy="0" >JIM PowerShell Module</tspan></text><text  id="v-961" font-size="16.799999999999997px" xml:space="preserve" y="114.1" text-anchor="middle" font-family="Open Sans, Tahoma, Arial" fill="#ffffff" dominant-baseline="hanging" transform="matrix(1,0,0,1,225,0)" style="display: block;"><tspan dy="0" >[Software System]</tspan></text><text  id="v-962" font-size="24px" xml:space="preserve" y="145.89999999999998" text-anchor="middle" font-family="Open Sans, Tahoma, Arial" fill="#ffffff" dominant-baseline="hanging" transform="matrix(1,0,0,1,225,0)" style="display: block;"><tspan dy="0" >Cross-platform module with 35+</tspan><tspan dy="1.2em" x="0" >cmdlets for automation and</tspan><tspan dy="1.2em" x="0" >scripting</tspan></text><g  id="v-963" color="#ffffff" transform="matrix(1,0,0,1,222.5,268)" display="none"><g ></g><g ></g><g ></g><g ></g></g><image  id="v-964"></image></g></g><!--z-index:31--><g   id="j_63"  transform="translate(950,2042)" style=""><g  id="v-971" style="opacity: 1;"><rect  id="v-972" rx="20" ry="20" stroke-width="2" pointer-events="visiblePainted" fill="#999999" stroke="#8a8a8a" stroke-dasharray="" width="450" height="300"></rect><text  id="v-973" font-size="33.599999999999994px" xml:space="preserve" y="86.9" font-weight="bold" text-anchor="middle" pointer-events="visible" font-family="Open Sans, Tahoma, Arial" fill="#ffffff" dominant-baseline="hanging" transform="matrix(1,0,0,1,225,0)"><tspan dy="0" >Active Directory / LDAP</tspan></text><text  id="v-974" font-size="16.799999999999997px" xml:space="preserve" y="128.5" text-anchor="middle" font-family="Open Sans, Tahoma, Arial" fill="#ffffff" dominant-baseline="hanging" transform="matrix(1,0,0,1,225,0)" style="display: block;"><tspan dy="0" >[Software System]</tspan></text><text  id="v-975" font-size="24px" xml:space="preserve" y="160.3" text-anchor="middle" font-family="Open Sans, Tahoma, Arial" fill="#ffffff" dominant-baseline="hanging" transform="matrix(1,0,0,1,225,0)" style="display: block;"><tspan dy="0" >Enterprise directory services for</tspan><tspan dy="1.2em" x="0" >users and groups</tspan></text><g  id="v-976" color="#ffffff" transform="matrix(1,0,0,1,222.5,268)" display="none"><g ></g><g ></g><g ></g><g ></g></g><image  id="v-977"></image></g></g><!--z-index:32--><g   id="j_64"  transform="translate(1700,2042)" style=""><g  id="v-981" style="opacity: 1;"><rect  id="v-982" rx="20" ry="20" stroke-width="2" pointer-events="visiblePainted" fill="#999999" stroke="#8a8a8a" stroke-dasharray="" width="450" height="300"></rect><text  id="v-983" font-size="33.599999999999994px" xml:space="preserve" y="86.9" font-weight="bold" text-anchor="middle" pointer-events="visible" font-family="Open Sans, Tahoma, Arial" fill="#ffffff" dominant-baseline="hanging" transform="matrix(1,0,0,1,225,0)"><tspan dy="0" >HR Systems</tspan></text><text  id="v-984" font-size="16.799999999999997px" xml:space="preserve" y="128.5" text-anchor="middle" font-family="Open Sans, Tahoma, Arial" fill="#ffffff" dominant-baseline="hanging" transform="matrix(1,0,0,1,225,0)" style="display: block;"><tspan dy="0" >[Software System]</tspan></text><text  id="v-985" font-size="24px" xml:space="preserve" y="160.3" text-anchor="middle" font-family="Open Sans, Tahoma, Arial" fill="#ffffff" dominant-baseline="hanging" transform="matrix(1,0,0,1,225,0)" style="display: block;"><tspan dy="0" >Authoritative source for employee</tspan><tspan dy="1.2em" x="0" >identity data</tspan></text><g  id="v-986" color="#ffffff" transform="matrix(1,0,0,1,222.5,268)" display="none"><g ></g><g ></g><g ></g><g ></g></g><image  id="v-987"></image></g></g><!--z-index:33--><g   id="j_65"  transform="translate(2450,2042)" style=""><g  id="v-991" style="opacity: 1;"><rect  id="v-992" rx="20" ry="20" stroke-width="2" pointer-events="visiblePainted" fill="#999999" stroke="#8a8a8a" stroke-dasharray="" width="450" height="300"></rect><text  id="v-993" font-size="33.599999999999994px" xml:space="preserve" y="101.30000000000001" font-weight="bold" text-anchor="middle" pointer-events="visible" font-family="Open Sans, Tahoma, Arial" fill="#ffffff" dominant-baseline="hanging" transform="matrix(1,0,0,1,225,0)"><tspan dy="0" >File Systems</tspan></text><text  id="v-994" font-size="16.799999999999997px" xml:space="preserve" y="142.9" text-anchor="middle" font-family="Open Sans, Tahoma, Arial" fill="#ffffff" dominant-baseline="hanging" transform="matrix(1,0,0,1,225,0)" style="display: block;"><tspan dy="0" >[Software System]</tspan></text><text  id="v-995" font-size="24px" xml:space="preserve" y="174.7" text-anchor="middle" font-family="Open Sans, Tahoma, Arial" fill="#ffffff" dominant-baseline="hanging" transform="matrix(1,0,0,1,225,0)" style="display: block;"><tspan dy="0" >CSV file-based bulk import/export</tspan></text><g  id="v-996" color="#ffffff" transform="matrix(1,0,0,1,222.5,268)" display="none"><g ></g><g ></g><g ></g><g ></g></g><image  id="v-997"></image></g></g><!--z-index:34--><g   id="j_66"  transform="translate(3200,2042)" style=""><g  id="v-1004" style="opacity: 1;"><rect  id="v-1005" rx="20" ry="20" stroke-width="2" pointer-events="visiblePainted" fill="#f0f0f0" stroke="#e5e5e5" stroke-dasharray="8,8" width="450" height="300"></rect><text  id="v-1006" font-size="33.599999999999994px" xml:space="preserve" y="86.9" font-weight="bold" text-anchor="middle" pointer-events="visible" font-family="Open Sans, Tahoma, Arial" fill="#b3b3b3" dominant-baseline="hanging" transform="matrix(1,0,0,1,225,0)"><tspan dy="0" >Enterprise Databases</tspan></text><text  id="v-1007" font-size="16.799999999999997px" xml:space="preserve" y="128.5" text-anchor="middle" font-family="Open Sans, Tahoma, Arial" fill="#b3b3b3" dominant-baseline="hanging" transform="matrix(1,0,0,1,225,0)" style="display: block;"><tspan dy="0" >[Software System]</tspan></text><text  id="v-1008" font-size="24px" xml:space="preserve" y="160.3" text-anchor="middle" font-family="Open Sans, Tahoma, Arial" fill="#b3b3b3" dominant-baseline="hanging" transform="matrix(1,0,0,1,225,0)" style="display: block;"><tspan dy="0" >PostgreSQL, MySQL, Oracle, SQL</tspan><tspan dy="1.2em" x="0" >Server with identity data</tspan></text><g  id="v-1009" color="#b3b3b3" transform="matrix(1,0,0,1,222.5,268)" display="none"><g ></g><g ></g><g ></g><g ></g></g><image  id="v-1010"></image></g></g><!--z-index:35--><g   id="j_67"  transform="translate(3950,2042)" style=""><g  id="v-1017" style="opacity: 1;"><rect  id="v-1018" rx="20" ry="20" stroke-width="2" pointer-events="visiblePainted" fill="#f0f0f0" stroke="#e5e5e5" stroke-dasharray="8,8" width="450" height="300"></rect><text  id="v-1019" font-size="33.599999999999994px" xml:space="preserve" y="86.9" font-weight="bold" text-anchor="middle" pointer-events="visible" font-family="Open Sans, Tahoma, Arial" fill="#b3b3b3" dominant-baseline="hanging" transform="matrix(1,0,0,1,225,0)"><tspan dy="0" >SCIM 2.0 Systems</tspan></text><text  id="v-1020" font-size="16.799999999999997px" xml:space="preserve" y="128.5" text-anchor="middle" font-family="Open Sans, Tahoma, Arial" fill="#b3b3b3" dominant-baseline="hanging" transform="matrix(1,0,0,1,225,0)" style="display: block;"><tspan dy="0" >[Software System]</tspan></text><text  id="v-1021" font-size="24px" xml:space="preserve" y="160.3" text-anchor="middle" font-family="Open Sans, Tahoma, Arial" fill="#b3b3b3" dominant-baseline="hanging" transform="matrix(1,0,0,1,225,0)" style="display: block;"><tspan dy="0" >Cloud applications supporting</tspan><tspan dy="1.2em" x="0" >SCIM provisioning</tspan></text><g  id="v-1022" color="#b3b3b3" transform="matrix(1,0,0,1,222.5,268)" display="none"><g ></g><g ></g><g ></g><g ></g></g><image  id="v-1023"></image></g></g><!--z-index:36--><g   id="j_68"  transform="translate(1700,1442)" style=""><g  id="v-1027" style="opacity: 1;"><rect  id="v-1028" rx="20" ry="20" stroke-width="2" pointer-events="visiblePainted" fill="#1168bd" stroke="#0f5eaa" stroke-dasharray="" width="450" height="300"></rect><text  id="v-1029" font-size="33.599999999999994px" xml:space="preserve" y="29.30000000000001" font-weight="bold" text-anchor="middle" pointer-events="visible" font-family="Open Sans, Tahoma, Arial" fill="#ffffff" dominant-baseline="hanging" transform="matrix(1,0,0,1,225,0)"><tspan dy="0" >JIM</tspan></text><text  id="v-1030" font-size="16.799999999999997px" xml:space="preserve" y="70.9" text-anchor="middle" font-family="Open Sans, Tahoma, Arial" fill="#ffffff" dominant-baseline="hanging" transform="matrix(1,0,0,1,225,0)" style="display: block;"><tspan dy="0" >[Software System]</tspan></text><text  id="v-1031" font-size="24px" xml:space="preserve" y="102.7" text-anchor="middle" font-family="Open Sans, Tahoma, Arial" fill="#ffffff" dominant-baseline="hanging" transform="matrix(1,0,0,1,225,0)" style="display: block;"><tspan dy="0" >Central identity hub implementing</tspan><tspan dy="1.2em" x="0" >the metaverse pattern.</tspan><tspan dy="1.2em" x="0" >Synchronises identities across</tspan><tspan dy="1.2em" x="0" >enterprise systems with</tspan><tspan dy="1.2em" x="0" >bidirectional data flow and</tspan><tspan dy="1.2em" x="0" >transformation</tspan></text><g  id="v-1032" color="#ffffff" transform="matrix(1,0,0,1,185,268)" display="none"><g  transform="translate(5 0)"><svg xmlns="http://www.w3.org/2000/svg" width="20" height="20" fill="currentColor" viewBox="0 0 16 16"><path fill-rule="evenodd" d="M6.5 12a5.5 5.5 0 1 0 0-11 5.5 5.5 0 0 0 0 11zM13 6.5a6.5 6.5 0 1 1-13 0 6.5 6.5 0 0 1 13 0z"></path><path d="M10.344 11.742c.03.04.062.078.098.115l3.85 3.85a1 1 0 0 0 1.415-1.414l-3.85-3.85a1.007 1.007 0 0 0-.115-.1 6.538 6.538 0 0 1-1.398 1.4z"></path><path fill-rule="evenodd" d="M6.5 3a.5.5 0 0 1 .5.5V6h2.5a.5.5 0 0 1 0 1H7v2.5a.5.5 0 0 1-1 0V7H3.5a.5.5 0 0 1 0-1H6V3.5a.5.5 0 0 1 .5-.5z"></path></svg></g><g  transform="translate(30 0)"><svg xmlns="http://www.w3.org/2000/svg" width="20" height="20" fill="currentColor" viewBox="0 0 16 16"><path d="M1 2.828c.885-.37 2.154-.769 3.388-.893 1.33-.134 2.458.063 3.112.752v9.746c-.935-.53-2.12-.603-3.213-.493-1.18.12-2.37.461-3.287.811V2.828zm7.5-.141c.654-.689 1.782-.886 3.112-.752 1.234.124 2.503.523 3.388.893v9.923c-.918-.35-2.107-.692-3.287-.81-1.094-.111-2.278-.039-3.213.492V2.687zM8 1.783C7.015.936 5.587.81 4.287.94c-1.514.153-3.042.672-3.994 1.105A.5.5 0 0 0 0 2.5v11a.5.5 0 0 0 .707.455c.882-.4 2.303-.881 3.68-1.02 1.409-.142 2.59.087 3.223.877a.5.5 0 0 0 .78 0c.633-.79 1.814-1.019 3.222-.877 1.378.139 2.8.62 3.681 1.02A.5.5 0 0 0 16 13.5v-11a.5.5 0 0 0-.293-.455c-.952-.433-2.48-.952-3.994-1.105C10.413.809 8.985.936 8 1.783z"></path></svg></g><g  transform="translate(55 0)"><svg xmlns="http://www.w3.org/2000/svg" width="20" height="20" fill="currentColor" viewBox="0 0 16 16"><path d="M5 10.5a.5.5 0 0 1 .5-.5h2a.5.5 0 0 1 0 1h-2a.5.5 0 0 1-.5-.5zm0-2a.5.5 0 0 1 .5-.5h5a.5.5 0 0 1 0 1h-5a.5.5 0 0 1-.5-.5zm0-2a.5.5 0 0 1 .5-.5h5a.5.5 0 0 1 0 1h-5a.5.5 0 0 1-.5-.5zm0-2a.5.5 0 0 1 .5-.5h5a.5.5 0 0 1 0 1h-5a.5.5 0 0 1-.5-.5z"></path><path d="M3 0h10a2 2 0 0 1 2 2v12a2 2 0 0 1-2 2H3a2 2 0 0 1-2-2v-1h1v1a1 1 0 0 0 1 1h10a1 1 0 0 0 1-1V2a1 1 0 0 0-1-1H3a1 1 0 0 0-1 1v1H1V2a2 2 0 0 1 2-2z"></path><path d="M1 5v-.5a.5.5 0 0 1 1 0V5h.5a.5.5 0 0 1 0 1h-2a.5.5 0 0 1 0-1H1zm0 3v-.5a.5.5 0 0 1 1 0V8h.5a.5.5 0 0 1 0 1h-2a.5.5 0 0 1 0-1H1zm0 3v-.5a.5.5 0 0 1 1 0v.5h.5a.5.5 0 0 1 0 1h-2a.5.5 0 0 1 0-1H1z"></path></svg></g><g ></g></g><image  id="v-1033"></image></g></g><!--z-index:37--><g   id="j_69" ><path  stroke="#444444" d="M 1565 542 L 1550 832 C 1550 838.6666666666665 1550 845.3333333333333 1550 852 L 1550 1132 C 1550 1138.6666666666665 1552 1144.6666666666665 1556 1150 L 1800 1442" id="v-1048" stroke-width="2" stroke-dasharray="" fill="none" style="opacity: 1;"></path><path  fill="black" stroke="black" d="M 0 0 0 0" transform="matrix(-0.04993759329833894,0.998752340060122,-0.998752340060122,-0.04993759329833894,1565,542)"></path><path  fill="#444444" stroke="#444444" d="M 20 0 L 0 10 L 20 20 z" id="v-1050" transform="matrix(-0.6401844186703125,-0.7682212637591816,0.7682212637591816,-0.6401844186703125,1792.3177760803612,1448.4018058477325)" style="opacity: 1;"></path><path  d="M 1565 542 L 1550 832 C 1550 838.6666666666665 1550 845.3333333333333 1550 852 L 1550 1132 C 1550 1138.6666666666665 1552 1144.6666666666665 1556 1150 L 1800 1442" id="v-1049" fill="none" style="cursor: auto; pointer-events: visiblepainted;"></path><g ><g id="v-1039"  label-idx="0" cursor="move" transform="matrix(1,0,0,1,1550,1023.3262329101562)" style="cursor: default; opacity: 1;"><rect joint-selector="rect" id="v-1043" fill="#ffffff" rx="3" ry="3" pointer-events="none" width="138.58413696289062" height="34.621337890625" transform="matrix(1,0,0,1,-69,-17.3)"></rect><text joint-selector="text" id="v-1042" font-size="24px" xml:space="preserve" y="0.8em" fill="#444444" text-anchor="middle" pointer-events="none" font-family="Open Sans, Tahoma, Arial" font-weight="normal" transform="matrix(1,0,0,1,0,-8.8)"><tspan dy="0" >Manages via</tspan></text></g><g id="v-1040"  label-idx="1" cursor="move" transform="matrix(1,0,0,1,1550,1053.7261962890625)" style="cursor: default; opacity: 1;"><rect joint-selector="rect" id="v-1045" fill="#ffffff" rx="3" ry="3"  pointer-events="none" width="121.63491821289062" height="27.69706916809082" transform="matrix(1,0,0,1,-60.1,-13.8)" style="display: block;"></rect><text joint-selector="text" id="v-1044" font-size="16.799999999999997px" xml:space="preserve" y="0.8em" fill="#444444" text-anchor="middle" pointer-events="none"  font-family="Open Sans, Tahoma, Arial" font-weight="normal" transform="matrix(1,0,0,1,0,-6.5)" style="display: block;"><tspan dy="0" >[Blazor Web UI]</tspan></text></g><g id="v-1041"  label-idx="2" cursor="move" transform="matrix(1,0,0,1,1540,1062.126220703125)" style="cursor: default; opacity: 1;"><rect joint-selector="rect" id="v-1047" fill="#ffffff" rx="3" ry="3"  width="0" height="0" transform="matrix(1,0,0,1,0,0)" display="none"></rect><text joint-selector="text" id="v-1046" fill="#000000" font-size="14" text-anchor="middle" pointer-events="none"></text></g></g><g  display="none" style="display: none;"><g  transform="translate(1550, 842)" id="v-1289"><circle  idx="0" r="10"></circle><path  idx="0" d="M16,5.333c-7.732,0-14,4.701-14,10.5c0,1.982,0.741,3.833,2.016,5.414L2,25.667l5.613-1.441c2.339,1.317,5.237,2.107,8.387,2.107c7.732,0,14-4.701,14-10.5C30,10.034,23.732,5.333,16,5.333z" transform="translate(5, -33)"></path><path  idx="0" transform="scale(.8) translate(9.5, -37)" d="M24.778,21.419 19.276,15.917 24.777,10.415 21.949,7.585 16.447,13.087 10.945,7.585 8.117,10.415 13.618,15.917 8.116,21.419 10.946,24.248 16.447,18.746 21.948,24.248z"><title>Remove vertex.</title></path></g><g  transform="translate(1550, 1142)" id="v-1290"><circle  idx="1" r="10"></circle><path  idx="1" d="M16,5.333c-7.732,0-14,4.701-14,10.5c0,1.982,0.741,3.833,2.016,5.414L2,25.667l5.613-1.441c2.339,1.317,5.237,2.107,8.387,2.107c7.732,0,14-4.701,14-10.5C30,10.034,23.732,5.333,16,5.333z" transform="translate(5, -33)"></path><path  idx="1" transform="scale(.8) translate(9.5, -37)" d="M24.778,21.419 19.276,15.917 24.777,10.415 21.949,7.585 16.447,13.087 10.945,7.585 8.117,10.415 13.618,15.917 8.116,21.419 10.946,24.248 16.447,18.746 21.948,24.248z"><title>Remove vertex.</title></path></g></g><g  id="v-1052" display="none"><g  id="v-1037"><path  end="source" d="M 26 0 L 0 13 L 26 26 z"></path></g><g  id="v-1038"><path  end="target" d="M 26 0 L 0 13 L 26 26 z"></path></g></g><g  id="v-1051" display="none"><g  id="v-1034" transform="translate(1562.9337965828784, 581.9465993976844) "><g  event="remove"><circle r="11"></circle><path transform="scale(.8) translate(-16, -16)" d="M24.778,21.419 19.276,15.917 24.777,10.415 21.949,7.585 16.447,13.087 10.945,7.585 8.117,10.415 13.618,15.917 8.116,21.419 10.946,24.248 16.447,18.746 21.948,24.248z"></path><title>Remove link.</title></g><g  event="link:options"><circle r="11" transform="translate(25)"></circle><path fill="white" transform="scale(.55) translate(29, -16)" d="M31.229,17.736c0.064-0.571,0.104-1.148,0.104-1.736s-0.04-1.166-0.104-1.737l-4.377-1.557c-0.218-0.716-0.504-1.401-0.851-2.05l1.993-4.192c-0.725-0.91-1.549-1.734-2.458-2.459l-4.193,1.994c-0.647-0.347-1.334-0.632-2.049-0.849l-1.558-4.378C17.165,0.708,16.588,0.667,16,0.667s-1.166,0.041-1.737,0.105L12.707,5.15c-0.716,0.217-1.401,0.502-2.05,0.849L6.464,4.005C5.554,4.73,4.73,5.554,4.005,6.464l1.994,4.192c-0.347,0.648-0.632,1.334-0.849,2.05l-4.378,1.557C0.708,14.834,0.667,15.412,0.667,16s0.041,1.165,0.105,1.736l4.378,1.558c0.217,0.715,0.502,1.401,0.849,2.049l-1.994,4.193c0.725,0.909,1.549,1.733,2.459,2.458l4.192-1.993c0.648,0.347,1.334,0.633,2.05,0.851l1.557,4.377c0.571,0.064,1.148,0.104,1.737,0.104c0.588,0,1.165-0.04,1.736-0.104l1.558-4.377c0.715-0.218,1.399-0.504,2.049-0.851l4.193,1.993c0.909-0.725,1.733-1.549,2.458-2.458l-1.993-4.193c0.347-0.647,0.633-1.334,0.851-2.049L31.229,17.736zM16,20.871c-2.69,0-4.872-2.182-4.872-4.871c0-2.69,2.182-4.872,4.872-4.872c2.689,0,4.871,2.182,4.871,4.872C20.871,18.689,18.689,20.871,16,20.871z"></path><title>Link options.</title></g></g></g></g><!--z-index:38--><g   id="j_70" ><path  stroke="#444444" d="M 1683 542 L 1844 842" id="v-1071" stroke-width="2" stroke-dasharray="" fill="none" style="opacity: 1;"></path><path  fill="black" stroke="black" d="M 0 0 0 0" transform="matrix(0.47410332155505014,0.8804692160947302,-0.8804692160947302,0.47410332155505014,1682.68994140625,542)"></path><path  fill="#444444" stroke="#444444" d="M 20 0 L 0 10 L 20 20 z" id="v-1073" transform="matrix(-0.4741032629342655,-0.8804692476600661,0.8804692476600661,-0.4741032629342655,1835.425353824617,846.7410376059433)" style="opacity: 1;"></path><path  d="M 1683 542 L 1844 842" id="v-1072" fill="none" style="cursor: auto; pointer-events: visiblepainted;"></path><g ><g id="v-1062"  label-idx="0" cursor="move" transform="matrix(1,0,0,1,1763.5,678.5999755859375)" style="cursor: default; opacity: 1;"><rect joint-selector="rect" id="v-1066" fill="#ffffff" rx="3" ry="3" pointer-events="none" width="128.9644775390625" height="34.621337890625" transform="matrix(1,0,0,1,-64.5,-17.3)"></rect><text joint-selector="text" id="v-1065" font-size="24px" xml:space="preserve" y="0.8em" fill="#444444" text-anchor="middle" pointer-events="none" font-family="Open Sans, Tahoma, Arial" font-weight="normal" transform="matrix(1,0,0,1,0,-8.8)"><tspan dy="0" >Scripts with</tspan></text></g><g id="v-1063"  label-idx="1" cursor="move" transform="matrix(1,0,0,1,1763.5,709)" style="cursor: default; opacity: 1;"><rect joint-selector="rect" id="v-1068" fill="#ffffff" rx="3" ry="3"  pointer-events="none" width="163.9883575439453" height="27.69706916809082" transform="matrix(1,0,0,1,-81.3,-13.8)" style="display: block;"></rect><text joint-selector="text" id="v-1067" font-size="16.799999999999997px" xml:space="preserve" y="0.8em" fill="#444444" text-anchor="middle" pointer-events="none"  font-family="Open Sans, Tahoma, Arial" font-weight="normal" transform="matrix(1,0,0,1,0,-6.5)" style="display: block;"><tspan dy="0" >[PowerShell cmdlets]</tspan></text></g><g id="v-1064"  label-idx="2" cursor="move" transform="matrix(1,0,0,1,1753.5,717.4000244140625)" style="cursor: default; opacity: 1;"><rect joint-selector="rect" id="v-1070" fill="#ffffff" rx="3" ry="3"  width="0" height="0" transform="matrix(1,0,0,1,0,0)" display="none"></rect><text joint-selector="text" id="v-1069" fill="#000000" font-size="14" text-anchor="middle" pointer-events="none"></text></g></g><g  display="none" style="display: none;"></g><g  id="v-1075" display="none"><g  id="v-1060"><path  end="source" d="M 26 0 L 0 13 L 26 26 z"></path></g><g  id="v-1061"><path  end="target" d="M 26 0 L 0 13 L 26 26 z"></path></g></g><g  id="v-1074" display="none"><g  id="v-1059" transform="translate(1701.914933026174, 577.2452168189578) "><g  event="remove"><circle r="11"></circle><path transform="scale(.8) translate(-16, -16)" d="M24.778,21.419 19.276,15.917 24.777,10.415 21.949,7.585 16.447,13.087 10.945,7.585 8.117,10.415 13.618,15.917 8.116,21.419 10.946,24.248 16.447,18.746 21.948,24.248z"></path><title>Remove link.</title></g><g  event="link:options"><circle r="11" transform="translate(25)"></circle><path fill="white" transform="scale(.55) translate(29, -16)" d="M31.229,17.736c0.064-0.571,0.104-1.148,0.104-1.736s-0.04-1.166-0.104-1.737l-4.377-1.557c-0.218-0.716-0.504-1.401-0.851-2.05l1.993-4.192c-0.725-0.91-1.549-1.734-2.458-2.459l-4.193,1.994c-0.647-0.347-1.334-0.632-2.049-0.849l-1.558-4.378C17.165,0.708,16.588,0.667,16,0.667s-1.166,0.041-1.737,0.105L12.707,5.15c-0.716,0.217-1.401,0.502-2.05,0.849L6.464,4.005C5.554,4.73,4.73,5.554,4.005,6.464l1.994,4.192c-0.347,0.648-0.632,1.334-0.849,2.05l-4.378,1.557C0.708,14.834,0.667,15.412,0.667,16s0.041,1.165,0.105,1.736l4.378,1.558c0.217,0.715,0.502,1.401,0.849,2.049l-1.994,4.193c0.725,0.909,1.549,1.733,2.459,2.458l4.192-1.993c0.648,0.347,1.334,0.633,2.05,0.851l1.557,4.377c0.571,0.064,1.148,0.104,1.737,0.104c0.588,0,1.165-0.04,1.736-0.104l1.558-4.377c0.715-0.218,1.399-0.504,2.049-0.851l4.193,1.993c0.909-0.725,1.733-1.549,2.458-2.458l-1.993-4.193c0.347-0.647,0.633-1.334,0.851-2.049L31.229,17.736zM16,20.871c-2.69,0-4.872-2.182-4.872-4.871c0-2.69,2.182-4.872,4.872-4.872c2.689,0,4.871,2.182,4.871,4.872C20.871,18.689,18.689,20.871,16,20.871z"></path><title>Link options.</title></g></g></g></g><!--z-index:39--><g   id="j_71" ><path  stroke="#444444" d="M 2280 542 L 2043 842" id="v-1094" stroke-width="2" stroke-dasharray="" fill="none" style="opacity: 1;"></path><path  fill="black" stroke="black" d="M 0 0 0 0" transform="matrix(-0.6195280346016931,0.7849745310152192,-0.7849745310152192,-0.6195280346016931,2280.14990234375,542)"></path><path  fill="#444444" stroke="#444444" d="M 20 0 L 0 10 L 20 20 z" id="v-1096" transform="matrix(0.619528034601693,-0.7849745310152193,0.7849745310152193,0.619528034601693,2035.5301696563308,835.8047335188228)" style="opacity: 1;"></path><path  d="M 2280 542 L 2043 842" id="v-1095" fill="none" style="cursor: auto; pointer-events: visiblepainted;"></path><g ><g id="v-1085"  label-idx="0" cursor="move" transform="matrix(1,0,0,1,2161.5,678.5999755859375)" style="cursor: default; opacity: 1;"><rect joint-selector="rect" id="v-1089" fill="#ffffff" rx="3" ry="3" pointer-events="none" width="159.49407958984375" height="34.621337890625" transform="matrix(1,0,0,1,-79.5,-17.3)"></rect><text joint-selector="text" id="v-1088" font-size="24px" xml:space="preserve" y="0.8em" fill="#444444" text-anchor="middle" pointer-events="none" font-family="Open Sans, Tahoma, Arial" font-weight="normal" transform="matrix(1,0,0,1,0,-8.8)"><tspan dy="0" >Automates via</tspan></text></g><g id="v-1086"  label-idx="1" cursor="move" transform="matrix(1,0,0,1,2161.5,709)" style="cursor: default; opacity: 1;"><rect joint-selector="rect" id="v-1091" fill="#ffffff" rx="3" ry="3"  pointer-events="none" width="153.95729064941406" height="27.69706916809082" transform="matrix(1,0,0,1,-76.3,-13.8)" style="display: block;"></rect><text joint-selector="text" id="v-1090" font-size="16.799999999999997px" xml:space="preserve" y="0.8em" fill="#444444" text-anchor="middle" pointer-events="none"  font-family="Open Sans, Tahoma, Arial" font-weight="normal" transform="matrix(1,0,0,1,0,-6.5)" style="display: block;"><tspan dy="0" >[PowerShell scripts]</tspan></text></g><g id="v-1087"  label-idx="2" cursor="move" transform="matrix(1,0,0,1,2151.5,717.4000244140625)" style="cursor: default; opacity: 1;"><rect joint-selector="rect" id="v-1093" fill="#ffffff" rx="3" ry="3"  width="0" height="0" transform="matrix(1,0,0,1,0,0)" display="none"></rect><text joint-selector="text" id="v-1092" fill="#000000" font-size="14" text-anchor="middle" pointer-events="none"></text></g></g><g  display="none" style="display: none;"></g><g  id="v-1098" display="none"><g  id="v-1083"><path  end="source" d="M 26 0 L 0 13 L 26 26 z"></path></g><g  id="v-1084"><path  end="target" d="M 26 0 L 0 13 L 26 26 z"></path></g></g><g  id="v-1097" display="none"><g  id="v-1082" transform="translate(2255.204052997575, 573.3872746866136) "><g  event="remove"><circle r="11"></circle><path transform="scale(.8) translate(-16, -16)" d="M24.778,21.419 19.276,15.917 24.777,10.415 21.949,7.585 16.447,13.087 10.945,7.585 8.117,10.415 13.618,15.917 8.116,21.419 10.946,24.248 16.447,18.746 21.948,24.248z"></path><title>Remove link.</title></g><g  event="link:options"><circle r="11" transform="translate(25)"></circle><path fill="white" transform="scale(.55) translate(29, -16)" d="M31.229,17.736c0.064-0.571,0.104-1.148,0.104-1.736s-0.04-1.166-0.104-1.737l-4.377-1.557c-0.218-0.716-0.504-1.401-0.851-2.05l1.993-4.192c-0.725-0.91-1.549-1.734-2.458-2.459l-4.193,1.994c-0.647-0.347-1.334-0.632-2.049-0.849l-1.558-4.378C17.165,0.708,16.588,0.667,16,0.667s-1.166,0.041-1.737,0.105L12.707,5.15c-0.716,0.217-1.401,0.502-2.05,0.849L6.464,4.005C5.554,4.73,4.73,5.554,4.005,6.464l1.994,4.192c-0.347,0.648-0.632,1.334-0.849,2.05l-4.378,1.557C0.708,14.834,0.667,15.412,0.667,16s0.041,1.165,0.105,1.736l4.378,1.558c0.217,0.715,0.502,1.401,0.849,2.049l-1.994,4.193c0.725,0.909,1.549,1.733,2.459,2.458l4.192-1.993c0.648,0.347,1.334,0.633,2.05,0.851l1.557,4.377c0.571,0.064,1.148,0.104,1.737,0.104c0.588,0,1.165-0.04,1.736-0.104l1.558-4.377c0.715-0.218,1.399-0.504,2.049-0.851l4.193,1.993c0.909-0.725,1.733-1.549,2.458-2.458l-1.993-4.193c0.347-0.647,0.633-1.334,0.851-2.049L31.229,17.736zM16,20.871c-2.69,0-4.872-2.182-4.872-4.871c0-2.69,2.182-4.872,4.872-4.872c2.689,0,4.871,2.182,4.871,4.872C20.871,18.689,18.689,20.871,16,20.871z"></path><title>Link options.</title></g></g></g></g><!--z-index:40--><g   id="j_72" ><path  stroke="#444444" d="M 2404 542 L 2302 1132 C 2300.6666666666665 1138.6666666666665 2298 1144.6666666666665 2294 1150 L 2050 1442" id="v-1112" stroke-width="2" stroke-dasharray="" fill="none" style="opacity: 1;"></path><path  fill="black" stroke="black" d="M 0 0 0 0" transform="matrix(-0.16998936863928363,0.9854458963076652,-0.9854458963076652,-0.16998936863928363,2403.5,542)"></path><path  fill="#444444" stroke="#444444" d="M 20 0 L 0 10 L 20 20 z" id="v-1114" transform="matrix(0.6401844186703122,-0.7682212637591819,0.7682212637591819,0.6401844186703122,2042.317798644455,1435.5981174743263)" style="opacity: 1;"></path><path  d="M 2404 542 L 2302 1132 C 2300.6666666666665 1138.6666666666665 2298 1144.6666666666665 2294 1150 L 2050 1442" id="v-1113" fill="none" style="cursor: auto; pointer-events: visiblepainted;"></path><g ><g id="v-1103"  label-idx="0" cursor="move" transform="matrix(1,0,0,1,2318.89599609375,1020.8681030273438)" style="cursor: default; opacity: 1;"><rect joint-selector="rect" id="v-1107" fill="#ffffff" rx="3" ry="3" pointer-events="none" width="54.26742172241211" height="34.621337890625" transform="matrix(1,0,0,1,-25.9,-17.3)"></rect><text joint-selector="text" id="v-1106" font-size="24px" xml:space="preserve" y="0.8em" fill="#444444" text-anchor="middle" pointer-events="none" font-family="Open Sans, Tahoma, Arial" font-weight="normal" transform="matrix(1,0,0,1,0,-8.8)"><tspan dy="0" >Calls</tspan></text></g><g id="v-1104"  label-idx="1" cursor="move" transform="matrix(1,0,0,1,2318.89599609375,1051.26806640625)" style="cursor: default; opacity: 1;"><rect joint-selector="rect" id="v-1109" fill="#ffffff" rx="3" ry="3"  pointer-events="none" width="79.76959991455078" height="27.69706916809082" transform="matrix(1,0,0,1,-39.2,-13.8)" style="display: block;"></rect><text joint-selector="text" id="v-1108" font-size="16.799999999999997px" xml:space="preserve" y="0.8em" fill="#444444" text-anchor="middle" pointer-events="none"  font-family="Open Sans, Tahoma, Arial" font-weight="normal" transform="matrix(1,0,0,1,0,-6.5)" style="display: block;"><tspan dy="0" >[REST API]</tspan></text></g><g id="v-1105"  label-idx="2" cursor="move" transform="matrix(1,0,0,1,2308.89599609375,1059.6680908203125)" style="cursor: default; opacity: 1;"><rect joint-selector="rect" id="v-1111" fill="#ffffff" rx="3" ry="3"  width="0" height="0" transform="matrix(1,0,0,1,0,0)" display="none"></rect><text joint-selector="text" id="v-1110" fill="#000000" font-size="14" text-anchor="middle" pointer-events="none"></text></g></g><g  display="none" style="display: none;"><g  transform="translate(2300, 1142)" id="v-1291"><circle  idx="0" r="10"></circle><path  idx="0" d="M16,5.333c-7.732,0-14,4.701-14,10.5c0,1.982,0.741,3.833,2.016,5.414L2,25.667l5.613-1.441c2.339,1.317,5.237,2.107,8.387,2.107c7.732,0,14-4.701,14-10.5C30,10.034,23.732,5.333,16,5.333z" transform="translate(5, -33)"></path><path  idx="0" transform="scale(.8) translate(9.5, -37)" d="M24.778,21.419 19.276,15.917 24.777,10.415 21.949,7.585 16.447,13.087 10.945,7.585 8.117,10.415 13.618,15.917 8.116,21.419 10.946,24.248 16.447,18.746 21.948,24.248z"><title>Remove vertex.</title></path></g></g><g  id="v-1116" display="none"><g  id="v-1101"><path  end="source" d="M 26 0 L 0 13 L 26 26 z"></path></g><g  id="v-1102"><path  end="target" d="M 26 0 L 0 13 L 26 26 z"></path></g></g><g  id="v-1115" display="none"><g  id="v-1099" transform="translate(2397.1858269230256, 581.4153148570075) "><g  event="remove"><circle r="11"></circle><path transform="scale(.8) translate(-16, -16)" d="M24.778,21.419 19.276,15.917 24.777,10.415 21.949,7.585 16.447,13.087 10.945,7.585 8.117,10.415 13.618,15.917 8.116,21.419 10.946,24.248 16.447,18.746 21.948,24.248z"></path><title>Remove link.</title></g><g  event="link:options"><circle r="11" transform="translate(25)"></circle><path fill="white" transform="scale(.55) translate(29, -16)" d="M31.229,17.736c0.064-0.571,0.104-1.148,0.104-1.736s-0.04-1.166-0.104-1.737l-4.377-1.557c-0.218-0.716-0.504-1.401-0.851-2.05l1.993-4.192c-0.725-0.91-1.549-1.734-2.458-2.459l-4.193,1.994c-0.647-0.347-1.334-0.632-2.049-0.849l-1.558-4.378C17.165,0.708,16.588,0.667,16,0.667s-1.166,0.041-1.737,0.105L12.707,5.15c-0.716,0.217-1.401,0.502-2.05,0.849L6.464,4.005C5.554,4.73,4.73,5.554,4.005,6.464l1.994,4.192c-0.347,0.648-0.632,1.334-0.849,2.05l-4.378,1.557C0.708,14.834,0.667,15.412,0.667,16s0.041,1.165,0.105,1.736l4.378,1.558c0.217,0.715,0.502,1.401,0.849,2.049l-1.994,4.193c0.725,0.909,1.549,1.733,2.459,2.458l4.192-1.993c0.648,0.347,1.334,0.633,2.05,0.851l1.557,4.377c0.571,0.064,1.148,0.104,1.737,0.104c0.588,0,1.165-0.04,1.736-0.104l1.558-4.377c0.715-0.218,1.399-0.504,2.049-0.851l4.193,1.993c0.909-0.725,1.733-1.549,2.458-2.458l-1.993-4.193c0.347-0.647,0.633-1.334,0.851-2.049L31.229,17.736zM16,20.871c-2.69,0-4.872-2.182-4.872-4.871c0-2.69,2.182-4.872,4.872-4.872c2.689,0,4.871,2.182,4.871,4.872C20.871,18.689,18.689,20.871,16,20.871z"></path><title>Link options.</title></g></g></g></g><!--z-index:41--><g   id="j_73" ><path  stroke="#444444" d="M 1925 1142 L 1925 1442" id="v-1132" stroke-width="2" stroke-dasharray="" fill="none" style="opacity: 1;"></path><path  fill="black" stroke="black" d="M 0 0 0 0" transform="matrix(6.123233995736766e-17,1,-1,6.123233995736766e-17,1925,1142)"></path><path  fill="#444444" stroke="#444444" d="M 20 0 L 0 10 L 20 20 z" id="v-1134" transform="matrix(-1.8369701987210297e-16,-1,1,-1.8369701987210297e-16,1915,1442)" style="opacity: 1;"></path><path  d="M 1925 1142 L 1925 1442" id="v-1133" fill="none" style="cursor: auto; pointer-events: visiblepainted;"></path><g ><g id="v-1123"  label-idx="0" cursor="move" transform="matrix(1,0,0,1,1925,1278.5999755859375)" style="cursor: default; opacity: 1;"><rect joint-selector="rect" id="v-1127" fill="#ffffff" rx="3" ry="3" pointer-events="none" width="54.26742172241211" height="34.621337890625" transform="matrix(1,0,0,1,-25.9,-17.3)"></rect><text joint-selector="text" id="v-1126" font-size="24px" xml:space="preserve" y="0.8em" fill="#444444" text-anchor="middle" pointer-events="none" font-family="Open Sans, Tahoma, Arial" font-weight="normal" transform="matrix(1,0,0,1,0,-8.8)"><tspan dy="0" >Calls</tspan></text></g><g id="v-1124"  label-idx="1" cursor="move" transform="matrix(1,0,0,1,1925,1309)" style="cursor: default; opacity: 1;"><rect joint-selector="rect" id="v-1129" fill="#ffffff" rx="3" ry="3"  pointer-events="none" width="143.93434143066406" height="27.69706916809082" transform="matrix(1,0,0,1,-71.2,-13.8)" style="display: block;"></rect><text joint-selector="text" id="v-1128" font-size="16.799999999999997px" xml:space="preserve" y="0.8em" fill="#444444" text-anchor="middle" pointer-events="none"  font-family="Open Sans, Tahoma, Arial" font-weight="normal" transform="matrix(1,0,0,1,0,-6.5)" style="display: block;"><tspan dy="0" >[REST API /api/v1/]</tspan></text></g><g id="v-1125"  label-idx="2" cursor="move" transform="matrix(1,0,0,1,1915,1317.4000244140625)" style="cursor: default; opacity: 1;"><rect joint-selector="rect" id="v-1131" fill="#ffffff" rx="3" ry="3"  width="0" height="0" transform="matrix(1,0,0,1,0,0)" display="none"></rect><text joint-selector="text" id="v-1130" fill="#000000" font-size="14" text-anchor="middle" pointer-events="none"></text></g></g><g  display="none" style="display: none;"></g><g  id="v-1136" display="none"><g  id="v-1121"><path  end="source" d="M 26 0 L 0 13 L 26 26 z"></path></g><g  id="v-1122"><path  end="target" d="M 26 0 L 0 13 L 26 26 z"></path></g></g><g  id="v-1135" display="none"><g  id="v-1120" transform="translate(1925.0000000000002, 1182) "><g  event="remove"><circle r="11"></circle><path transform="scale(.8) translate(-16, -16)" d="M24.778,21.419 19.276,15.917 24.777,10.415 21.949,7.585 16.447,13.087 10.945,7.585 8.117,10.415 13.618,15.917 8.116,21.419 10.946,24.248 16.447,18.746 21.948,24.248z"></path><title>Remove link.</title></g><g  event="link:options"><circle r="11" transform="translate(25)"></circle><path fill="white" transform="scale(.55) translate(29, -16)" d="M31.229,17.736c0.064-0.571,0.104-1.148,0.104-1.736s-0.04-1.166-0.104-1.737l-4.377-1.557c-0.218-0.716-0.504-1.401-0.851-2.05l1.993-4.192c-0.725-0.91-1.549-1.734-2.458-2.459l-4.193,1.994c-0.647-0.347-1.334-0.632-2.049-0.849l-1.558-4.378C17.165,0.708,16.588,0.667,16,0.667s-1.166,0.041-1.737,0.105L12.707,5.15c-0.716,0.217-1.401,0.502-2.05,0.849L6.464,4.005C5.554,4.73,4.73,5.554,4.005,6.464l1.994,4.192c-0.347,0.648-0.632,1.334-0.849,2.05l-4.378,1.557C0.708,14.834,0.667,15.412,0.667,16s0.041,1.165,0.105,1.736l4.378,1.558c0.217,0.715,0.502,1.401,0.849,2.049l-1.994,4.193c0.725,0.909,1.549,1.733,2.459,2.458l4.192-1.993c0.648,0.347,1.334,0.633,2.05,0.851l1.557,4.377c0.571,0.064,1.148,0.104,1.737,0.104c0.588,0,1.165-0.04,1.736-0.104l1.558-4.377c0.715-0.218,1.399-0.504,2.049-0.851l4.193,1.993c0.909-0.725,1.733-1.549,2.458-2.458l-1.993-4.193c0.347-0.647,0.633-1.334,0.851-2.049L31.229,17.736zM16,20.871c-2.69,0-4.872-2.182-4.872-4.871c0-2.69,2.182-4.872,4.872-4.872c2.689,0,4.871,2.182,4.871,4.872C20.871,18.689,18.689,20.871,16,20.871z"></path><title>Link options.</title></g></g></g></g><!--z-index:42--><g   id="j_74" ><path  stroke="#444444" d="M 650 2147 L 1221 2033 C 1227.4724009687436 2031.847669088526 1233.4724009687436 2029.5143357551926 1239 2026 L 1700 1734" id="v-1155" stroke-width="2" stroke-dasharray="" fill="none" style="opacity: 1;"></path><path  fill="black" stroke="black" d="M 0 0 0 0" transform="matrix(0.9806758116577612,-0.19563985388818725,0.19563985388818725,0.9806758116577612,650,2147.1201171875)"></path><path  fill="#444444" stroke="#444444" d="M 20 0 L 0 10 L 20 20 z" id="v-1157" transform="matrix(-0.8450683546668283,0.5346582795961359,-0.5346582795961359,-0.8450683546668283,1705.3465827488797,1742.810643719457)" style="opacity: 1;"></path><path  d="M 650 2147 L 1221 2033 C 1227.4724009687436 2031.847669088526 1233.4724009687436 2029.5143357551926 1239 2026 L 1700 1734" id="v-1156" fill="none" style="cursor: auto; pointer-events: visiblepainted;"></path><g ><g id="v-1146"  label-idx="0" cursor="move" transform="matrix(1,0,0,1,1212.597900390625,2021.2774658203125)" style="cursor: default; opacity: 1;"><rect joint-selector="rect" id="v-1150" fill="#ffffff" rx="3" ry="3" pointer-events="none" width="156.155029296875" height="34.621337890625" transform="matrix(1,0,0,1,-76.9,-17.3)"></rect><text joint-selector="text" id="v-1149" font-size="24px" xml:space="preserve" y="0.8em" fill="#444444" text-anchor="middle" pointer-events="none" font-family="Open Sans, Tahoma, Arial" font-weight="normal" transform="matrix(1,0,0,1,0,-8.8)"><tspan dy="0" >Authenticates</tspan></text></g><g id="v-1147"  label-idx="1" cursor="move" transform="matrix(1,0,0,1,1212.597900390625,2051.677490234375)" style="cursor: default; opacity: 1;"><rect joint-selector="rect" id="v-1152" fill="#ffffff" rx="3" ry="3"  pointer-events="none" width="186.71083068847656" height="27.69706916809082" transform="matrix(1,0,0,1,-92.7,-13.8)" style="display: block;"></rect><text joint-selector="text" id="v-1151" font-size="16.799999999999997px" xml:space="preserve" y="0.8em" fill="#444444" text-anchor="middle" pointer-events="none"  font-family="Open Sans, Tahoma, Arial" font-weight="normal" transform="matrix(1,0,0,1,0,-6.5)" style="display: block;"><tspan dy="0" >[OIDC/OpenID Connect]</tspan></text></g><g id="v-1148"  label-idx="2" cursor="move" transform="matrix(1,0,0,1,1202.597900390625,2060.077392578125)" style="cursor: default; opacity: 1;"><rect joint-selector="rect" id="v-1154" fill="#ffffff" rx="3" ry="3"  width="0" height="0" transform="matrix(1,0,0,1,0,0)" display="none"></rect><text joint-selector="text" id="v-1153" fill="#000000" font-size="14" text-anchor="middle" pointer-events="none"></text></g></g><g  display="none" style="display: none;"><g  transform="translate(1230.7086014531155, 2031.271503632789)" id="v-1292"><circle  idx="0" r="10"></circle><path  idx="0" d="M16,5.333c-7.732,0-14,4.701-14,10.5c0,1.982,0.741,3.833,2.016,5.414L2,25.667l5.613-1.441c2.339,1.317,5.237,2.107,8.387,2.107c7.732,0,14-4.701,14-10.5C30,10.034,23.732,5.333,16,5.333z" transform="translate(5, -33)"></path><path  idx="0" transform="scale(.8) translate(9.5, -37)" d="M24.778,21.419 19.276,15.917 24.777,10.415 21.949,7.585 16.447,13.087 10.945,7.585 8.117,10.415 13.618,15.917 8.116,21.419 10.946,24.248 16.447,18.746 21.948,24.248z"><title>Remove vertex.</title></path></g></g><g  id="v-1159" display="none"><g  id="v-1144"><path  end="source" d="M 26 0 L 0 13 L 26 26 z"></path></g><g  id="v-1145"><path  end="target" d="M 26 0 L 0 13 L 26 26 z"></path></g></g><g  id="v-1158" display="none"><g  id="v-1143" transform="translate(689.2258669870507, 2139.1685659605537) "><g  event="remove"><circle r="11"></circle><path transform="scale(.8) translate(-16, -16)" d="M24.778,21.419 19.276,15.917 24.777,10.415 21.949,7.585 16.447,13.087 10.945,7.585 8.117,10.415 13.618,15.917 8.116,21.419 10.946,24.248 16.447,18.746 21.948,24.248z"></path><title>Remove link.</title></g><g  event="link:options"><circle r="11" transform="translate(25)"></circle><path fill="white" transform="scale(.55) translate(29, -16)" d="M31.229,17.736c0.064-0.571,0.104-1.148,0.104-1.736s-0.04-1.166-0.104-1.737l-4.377-1.557c-0.218-0.716-0.504-1.401-0.851-2.05l1.993-4.192c-0.725-0.91-1.549-1.734-2.458-2.459l-4.193,1.994c-0.647-0.347-1.334-0.632-2.049-0.849l-1.558-4.378C17.165,0.708,16.588,0.667,16,0.667s-1.166,0.041-1.737,0.105L12.707,5.15c-0.716,0.217-1.401,0.502-2.05,0.849L6.464,4.005C5.554,4.73,4.73,5.554,4.005,6.464l1.994,4.192c-0.347,0.648-0.632,1.334-0.849,2.05l-4.378,1.557C0.708,14.834,0.667,15.412,0.667,16s0.041,1.165,0.105,1.736l4.378,1.558c0.217,0.715,0.502,1.401,0.849,2.049l-1.994,4.193c0.725,0.909,1.549,1.733,2.459,2.458l4.192-1.993c0.648,0.347,1.334,0.633,2.05,0.851l1.557,4.377c0.571,0.064,1.148,0.104,1.737,0.104c0.588,0,1.165-0.04,1.736-0.104l1.558-4.377c0.715-0.218,1.399-0.504,2.049-0.851l4.193,1.993c0.909-0.725,1.733-1.549,2.458-2.458l-1.993-4.193c0.347-0.647,0.633-1.334,0.851-2.049L31.229,17.736zM16,20.871c-2.69,0-4.872-2.182-4.872-4.871c0-2.69,2.182-4.872,4.872-4.872c2.689,0,4.871,2.182,4.871,4.872C20.871,18.689,18.689,20.871,16,20.871z"></path><title>Link options.</title></g></g></g></g><!--z-index:43--><g   id="j_75" ><path  stroke="#444444" d="M 1738 1742 L 1363 2042" id="v-1175" stroke-width="2" stroke-dasharray="" fill="none" style="opacity: 1;"></path><path  fill="black" stroke="black" d="M 0 0 0 0" transform="matrix(-0.7808688416748546,0.6246950072646418,-0.6246950072646418,-0.7808688416748546,1737.5,1742)"></path><path  fill="#444444" stroke="#444444" d="M 20 0 L 0 10 L 20 20 z" id="v-1177" transform="matrix(0.7808686753084834,-0.624695215222571,0.624695215222571,0.7808686753084834,1356.2530769150019,2034.1913171569533)" style="opacity: 1;"></path><path  d="M 1738 1742 L 1363 2042" id="v-1176" fill="none" style="cursor: auto; pointer-events: visiblepainted;"></path><g ><g id="v-1166"  label-idx="0" cursor="move" transform="matrix(1,0,0,1,1550.5,1878.5999755859375)" style="cursor: default; opacity: 1;"><rect joint-selector="rect" id="v-1170" fill="#ffffff" rx="3" ry="3" pointer-events="none" width="149.39527893066406" height="34.621337890625" transform="matrix(1,0,0,1,-73.5,-17.3)"></rect><text joint-selector="text" id="v-1169" font-size="24px" xml:space="preserve" y="0.8em" fill="#444444" text-anchor="middle" pointer-events="none" font-family="Open Sans, Tahoma, Arial" font-weight="normal" transform="matrix(1,0,0,1,0,-8.8)"><tspan dy="0" >Synchronises</tspan></text></g><g id="v-1167"  label-idx="1" cursor="move" transform="matrix(1,0,0,1,1550.5,1909)" style="cursor: default; opacity: 1;"><rect joint-selector="rect" id="v-1172" fill="#ffffff" rx="3" ry="3"  pointer-events="none" width="110.31028747558594" height="27.69706916809082" transform="matrix(1,0,0,1,-54.4,-13.8)" style="display: block;"></rect><text joint-selector="text" id="v-1171" font-size="16.799999999999997px" xml:space="preserve" y="0.8em" fill="#444444" text-anchor="middle" pointer-events="none"  font-family="Open Sans, Tahoma, Arial" font-weight="normal" transform="matrix(1,0,0,1,0,-6.5)" style="display: block;"><tspan dy="0" >[LDAP/LDAPS]</tspan></text></g><g id="v-1168"  label-idx="2" cursor="move" transform="matrix(1,0,0,1,1540.5,1917.4000244140625)" style="cursor: default; opacity: 1;"><rect joint-selector="rect" id="v-1174" fill="#ffffff" rx="3" ry="3"  width="0" height="0" transform="matrix(1,0,0,1,0,0)" display="none"></rect><text joint-selector="text" id="v-1173" fill="#000000" font-size="14" text-anchor="middle" pointer-events="none"></text></g></g><g  display="none" style="display: none;"></g><g  id="v-1179" display="none"><g  id="v-1164"><path  end="source" d="M 26 0 L 0 13 L 26 26 z"></path></g><g  id="v-1165"><path  end="target" d="M 26 0 L 0 13 L 26 26 z"></path></g></g><g  id="v-1178" display="none"><g  id="v-1163" transform="translate(1706.7652476222788, 1766.9878019021771) "><g  event="remove"><circle r="11"></circle><path transform="scale(.8) translate(-16, -16)" d="M24.778,21.419 19.276,15.917 24.777,10.415 21.949,7.585 16.447,13.087 10.945,7.585 8.117,10.415 13.618,15.917 8.116,21.419 10.946,24.248 16.447,18.746 21.948,24.248z"></path><title>Remove link.</title></g><g  event="link:options"><circle r="11" transform="translate(25)"></circle><path fill="white" transform="scale(.55) translate(29, -16)" d="M31.229,17.736c0.064-0.571,0.104-1.148,0.104-1.736s-0.04-1.166-0.104-1.737l-4.377-1.557c-0.218-0.716-0.504-1.401-0.851-2.05l1.993-4.192c-0.725-0.91-1.549-1.734-2.458-2.459l-4.193,1.994c-0.647-0.347-1.334-0.632-2.049-0.849l-1.558-4.378C17.165,0.708,16.588,0.667,16,0.667s-1.166,0.041-1.737,0.105L12.707,5.15c-0.716,0.217-1.401,0.502-2.05,0.849L6.464,4.005C5.554,4.73,4.73,5.554,4.005,6.464l1.994,4.192c-0.347,0.648-0.632,1.334-0.849,2.05l-4.378,1.557C0.708,14.834,0.667,15.412,0.667,16s0.041,1.165,0.105,1.736l4.378,1.558c0.217,0.715,0.502,1.401,0.849,2.049l-1.994,4.193c0.725,0.909,1.549,1.733,2.459,2.458l4.192-1.993c0.648,0.347,1.334,0.633,2.05,0.851l1.557,4.377c0.571,0.064,1.148,0.104,1.737,0.104c0.588,0,1.165-0.04,1.736-0.104l1.558-4.377c0.715-0.218,1.399-0.504,2.049-0.851l4.193,1.993c0.909-0.725,1.733-1.549,2.458-2.458l-1.993-4.193c0.347-0.647,0.633-1.334,0.851-2.049L31.229,17.736zM16,20.871c-2.69,0-4.872-2.182-4.872-4.871c0-2.69,2.182-4.872,4.872-4.872c2.689,0,4.871,2.182,4.871,4.872C20.871,18.689,18.689,20.871,16,20.871z"></path><title>Link options.</title></g></g></g></g><!--z-index:44--><g   id="j_76" ><path  stroke="#444444" d="M 1925 1742 L 1925 2042" id="v-1195" stroke-width="2" stroke-dasharray="" fill="none" style="opacity: 1;"></path><path  fill="black" stroke="black" d="M 0 0 0 0" transform="matrix(6.123233995736766e-17,1,-1,6.123233995736766e-17,1925,1742)"></path><path  fill="#444444" stroke="#444444" d="M 20 0 L 0 10 L 20 20 z" id="v-1197" transform="matrix(-1.8369701987210297e-16,-1,1,-1.8369701987210297e-16,1915,2042)" style="opacity: 1;"></path><path  d="M 1925 1742 L 1925 2042" id="v-1196" fill="none" style="cursor: auto; pointer-events: visiblepainted;"></path><g ><g id="v-1186"  label-idx="0" cursor="move" transform="matrix(1,0,0,1,1925,1878.5999755859375)" style="cursor: default; opacity: 1;"><rect joint-selector="rect" id="v-1190" fill="#ffffff" rx="3" ry="3" pointer-events="none" width="148.11441040039062" height="34.621337890625" transform="matrix(1,0,0,1,-74.1,-17.3)"></rect><text joint-selector="text" id="v-1189" font-size="24px" xml:space="preserve" y="0.8em" fill="#444444" text-anchor="middle" pointer-events="none" font-family="Open Sans, Tahoma, Arial" font-weight="normal" transform="matrix(1,0,0,1,0,-8.8)"><tspan dy="0" >Imports from</tspan></text></g><g id="v-1187"  label-idx="1" cursor="move" transform="matrix(1,0,0,1,1925,1909)" style="cursor: default; opacity: 1;"><rect joint-selector="rect" id="v-1192" fill="#ffffff" rx="3" ry="3"  pointer-events="none" width="41.93948745727539" height="27.69706916809082" transform="matrix(1,0,0,1,-20.3,-13.8)" style="display: block;"></rect><text joint-selector="text" id="v-1191" font-size="16.799999999999997px" xml:space="preserve" y="0.8em" fill="#444444" text-anchor="middle" pointer-events="none"  font-family="Open Sans, Tahoma, Arial" font-weight="normal" transform="matrix(1,0,0,1,0,-6.5)" style="display: block;"><tspan dy="0" >[CSV]</tspan></text></g><g id="v-1188"  label-idx="2" cursor="move" transform="matrix(1,0,0,1,1915,1917.4000244140625)" style="cursor: default; opacity: 1;"><rect joint-selector="rect" id="v-1194" fill="#ffffff" rx="3" ry="3"  width="0" height="0" transform="matrix(1,0,0,1,0,0)" display="none"></rect><text joint-selector="text" id="v-1193" fill="#000000" font-size="14" text-anchor="middle" pointer-events="none"></text></g></g><g  display="none" style="display: none;"></g><g  id="v-1199" display="none"><g  id="v-1184"><path  end="source" d="M 26 0 L 0 13 L 26 26 z"></path></g><g  id="v-1185"><path  end="target" d="M 26 0 L 0 13 L 26 26 z"></path></g></g><g  id="v-1198" display="none"><g  id="v-1183" transform="translate(1925.0000000000002, 1782) "><g  event="remove"><circle r="11"></circle><path transform="scale(.8) translate(-16, -16)" d="M24.778,21.419 19.276,15.917 24.777,10.415 21.949,7.585 16.447,13.087 10.945,7.585 8.117,10.415 13.618,15.917 8.116,21.419 10.946,24.248 16.447,18.746 21.948,24.248z"></path><title>Remove link.</title></g><g  event="link:options"><circle r="11" transform="translate(25)"></circle><path fill="white" transform="scale(.55) translate(29, -16)" d="M31.229,17.736c0.064-0.571,0.104-1.148,0.104-1.736s-0.04-1.166-0.104-1.737l-4.377-1.557c-0.218-0.716-0.504-1.401-0.851-2.05l1.993-4.192c-0.725-0.91-1.549-1.734-2.458-2.459l-4.193,1.994c-0.647-0.347-1.334-0.632-2.049-0.849l-1.558-4.378C17.165,0.708,16.588,0.667,16,0.667s-1.166,0.041-1.737,0.105L12.707,5.15c-0.716,0.217-1.401,0.502-2.05,0.849L6.464,4.005C5.554,4.73,4.73,5.554,4.005,6.464l1.994,4.192c-0.347,0.648-0.632,1.334-0.849,2.05l-4.378,1.557C0.708,14.834,0.667,15.412,0.667,16s0.041,1.165,0.105,1.736l4.378,1.558c0.217,0.715,0.502,1.401,0.849,2.049l-1.994,4.193c0.725,0.909,1.549,1.733,2.459,2.458l4.192-1.993c0.648,0.347,1.334,0.633,2.05,0.851l1.557,4.377c0.571,0.064,1.148,0.104,1.737,0.104c0.588,0,1.165-0.04,1.736-0.104l1.558-4.377c0.715-0.218,1.399-0.504,2.049-0.851l4.193,1.993c0.909-0.725,1.733-1.549,2.458-2.458l-1.993-4.193c0.347-0.647,0.633-1.334,0.851-2.049L31.229,17.736zM16,20.871c-2.69,0-4.872-2.182-4.872-4.871c0-2.69,2.182-4.872,4.872-4.872c2.689,0,4.871,2.182,4.871,4.872C20.871,18.689,18.689,20.871,16,20.871z"></path><title>Link options.</title></g></g></g></g><!--z-index:45--><g   id="j_77" ><path  stroke="#444444" d="M 2113 1742 L 2488 2042" id="v-1215" stroke-width="2" stroke-dasharray="" fill="none" style="opacity: 1;"></path><path  fill="black" stroke="black" d="M 0 0 0 0" transform="matrix(0.7808688000832672,0.624695059254128,-0.624695059254128,0.7808688000832672,2112.5,1742)"></path><path  fill="#444444" stroke="#444444" d="M 20 0 L 0 10 L 20 20 z" id="v-1217" transform="matrix(-0.7808688416748548,-0.6246950072646416,0.6246950072646416,-0.7808688416748548,2481.253144594102,2049.8086902472073)" style="opacity: 1;"></path><path  d="M 2113 1742 L 2488 2042" id="v-1216" fill="none" style="cursor: auto; pointer-events: visiblepainted;"></path><g ><g id="v-1206"  label-idx="0" cursor="move" transform="matrix(1,0,0,1,2300.5,1878.5999755859375)" style="cursor: default; opacity: 1;"><rect joint-selector="rect" id="v-1210" fill="#ffffff" rx="3" ry="3" pointer-events="none" width="183.2410888671875" height="34.621337890625" transform="matrix(1,0,0,1,-90.4,-17.3)"></rect><text joint-selector="text" id="v-1209" font-size="24px" xml:space="preserve" y="0.8em" fill="#444444" text-anchor="middle" pointer-events="none" font-family="Open Sans, Tahoma, Arial" font-weight="normal" transform="matrix(1,0,0,1,0,-8.8)"><tspan dy="0" >Imports/Exports</tspan></text></g><g id="v-1207"  label-idx="1" cursor="move" transform="matrix(1,0,0,1,2300.5,1909)" style="cursor: default; opacity: 1;"><rect joint-selector="rect" id="v-1212" fill="#ffffff" rx="3" ry="3"  pointer-events="none" width="77.58114624023438" height="27.69706916809082" transform="matrix(1,0,0,1,-38.1,-13.8)" style="display: block;"></rect><text joint-selector="text" id="v-1211" font-size="16.799999999999997px" xml:space="preserve" y="0.8em" fill="#444444" text-anchor="middle" pointer-events="none"  font-family="Open Sans, Tahoma, Arial" font-weight="normal" transform="matrix(1,0,0,1,0,-6.5)" style="display: block;"><tspan dy="0" >[CSV files]</tspan></text></g><g id="v-1208"  label-idx="2" cursor="move" transform="matrix(1,0,0,1,2290.5,1917.4000244140625)" style="cursor: default; opacity: 1;"><rect joint-selector="rect" id="v-1214" fill="#ffffff" rx="3" ry="3"  width="0" height="0" transform="matrix(1,0,0,1,0,0)" display="none"></rect><text joint-selector="text" id="v-1213" fill="#000000" font-size="14" text-anchor="middle" pointer-events="none"></text></g></g><g  display="none" style="display: none;"></g><g  id="v-1219" display="none"><g  id="v-1204"><path  end="source" d="M 26 0 L 0 13 L 26 26 z"></path></g><g  id="v-1205"><path  end="target" d="M 26 0 L 0 13 L 26 26 z"></path></g></g><g  id="v-1218" display="none"><g  id="v-1203" transform="translate(2144.234752377721, 1766.9878019021771) "><g  event="remove"><circle r="11"></circle><path transform="scale(.8) translate(-16, -16)" d="M24.778,21.419 19.276,15.917 24.777,10.415 21.949,7.585 16.447,13.087 10.945,7.585 8.117,10.415 13.618,15.917 8.116,21.419 10.946,24.248 16.447,18.746 21.948,24.248z"></path><title>Remove link.</title></g><g  event="link:options"><circle r="11" transform="translate(25)"></circle><path fill="white" transform="scale(.55) translate(29, -16)" d="M31.229,17.736c0.064-0.571,0.104-1.148,0.104-1.736s-0.04-1.166-0.104-1.737l-4.377-1.557c-0.218-0.716-0.504-1.401-0.851-2.05l1.993-4.192c-0.725-0.91-1.549-1.734-2.458-2.459l-4.193,1.994c-0.647-0.347-1.334-0.632-2.049-0.849l-1.558-4.378C17.165,0.708,16.588,0.667,16,0.667s-1.166,0.041-1.737,0.105L12.707,5.15c-0.716,0.217-1.401,0.502-2.05,0.849L6.464,4.005C5.554,4.73,4.73,5.554,4.005,6.464l1.994,4.192c-0.347,0.648-0.632,1.334-0.849,2.05l-4.378,1.557C0.708,14.834,0.667,15.412,0.667,16s0.041,1.165,0.105,1.736l4.378,1.558c0.217,0.715,0.502,1.401,0.849,2.049l-1.994,4.193c0.725,0.909,1.549,1.733,2.459,2.458l4.192-1.993c0.648,0.347,1.334,0.633,2.05,0.851l1.557,4.377c0.571,0.064,1.148,0.104,1.737,0.104c0.588,0,1.165-0.04,1.736-0.104l1.558-4.377c0.715-0.218,1.399-0.504,2.049-0.851l4.193,1.993c0.909-0.725,1.733-1.549,2.458-2.458l-1.993-4.193c0.347-0.647,0.633-1.334,0.851-2.049L31.229,17.736zM16,20.871c-2.69,0-4.872-2.182-4.872-4.871c0-2.69,2.182-4.872,4.872-4.872c2.689,0,4.871,2.182,4.871,4.872C20.871,18.689,18.689,20.871,16,20.871z"></path><title>Link options.</title></g></g></g></g><!--z-index:46--><g   id="j_78" ><path  stroke="#999999" d="M 2150 1682 L 3200 2102" id="v-1235" stroke-width="2" stroke-dasharray="8 8" fill="none" style="opacity: 1;"></path><path  fill="black" stroke="black" d="M 0 0 0 0" transform="matrix(0.9284766955435519,0.371390664708372,-0.371390664708372,0.9284766955435519,2150,1682)"></path><path  fill="#999999" stroke="#999999" d="M 20 0 L 0 10 L 20 20 z" id="v-1237" transform="matrix(-0.928476707906966,-0.3713906337998342,0.3713906337998342,-0.928476707906966,3196.286192772321,2111.284806229568)" style="opacity: 1;"></path><path  d="M 2150 1682 L 3200 2102" id="v-1236" fill="none" style="cursor: auto; pointer-events: visiblepainted;"></path><g ><g id="v-1226"  label-idx="0" cursor="move" transform="matrix(1,0,0,1,2675,1878.5999755859375)" style="cursor: default; opacity: 1;"><rect joint-selector="rect" id="v-1230" fill="#ffffff" rx="3" ry="3" pointer-events="none" width="149.39527893066406" height="34.621337890625" transform="matrix(1,0,0,1,-73.5,-17.3)"></rect><text joint-selector="text" id="v-1229" font-size="24px" xml:space="preserve" y="0.8em" fill="#999999" text-anchor="middle" pointer-events="none" font-family="Open Sans, Tahoma, Arial" font-weight="normal" transform="matrix(1,0,0,1,0,-8.8)"><tspan dy="0" >Synchronises</tspan></text></g><g id="v-1227"  label-idx="1" cursor="move" transform="matrix(1,0,0,1,2675,1909)" style="cursor: default; opacity: 1;"><rect joint-selector="rect" id="v-1232" fill="#ffffff" rx="3" ry="3"  pointer-events="none" width="43.16794967651367" height="27.69706916809082" transform="matrix(1,0,0,1,-20.9,-13.8)" style="display: block;"></rect><text joint-selector="text" id="v-1231" font-size="16.799999999999997px" xml:space="preserve" y="0.8em" fill="#999999" text-anchor="middle" pointer-events="none"  font-family="Open Sans, Tahoma, Arial" font-weight="normal" transform="matrix(1,0,0,1,0,-6.5)" style="display: block;"><tspan dy="0" >[SQL]</tspan></text></g><g id="v-1228"  label-idx="2" cursor="move" transform="matrix(1,0,0,1,2665,1917.4000244140625)" style="cursor: default; opacity: 1;"><rect joint-selector="rect" id="v-1234" fill="#ffffff" rx="3" ry="3"  width="0" height="0" transform="matrix(1,0,0,1,0,0)" display="none"></rect><text joint-selector="text" id="v-1233" fill="#000000" font-size="14" text-anchor="middle" pointer-events="none"></text></g></g><g  display="none" style="display: none;"></g><g  id="v-1239" display="none"><g  id="v-1224"><path  end="source" d="M 26 0 L 0 13 L 26 26 z"></path></g><g  id="v-1225"><path  end="target" d="M 26 0 L 0 13 L 26 26 z"></path></g></g><g  id="v-1238" display="none"><g  id="v-1223" transform="translate(2187.1390676354104, 1696.8556270541642) "><g  event="remove"><circle r="11"></circle><path transform="scale(.8) translate(-16, -16)" d="M24.778,21.419 19.276,15.917 24.777,10.415 21.949,7.585 16.447,13.087 10.945,7.585 8.117,10.415 13.618,15.917 8.116,21.419 10.946,24.248 16.447,18.746 21.948,24.248z"></path><title>Remove link.</title></g><g  event="link:options"><circle r="11" transform="translate(25)"></circle><path fill="white" transform="scale(.55) translate(29, -16)" d="M31.229,17.736c0.064-0.571,0.104-1.148,0.104-1.736s-0.04-1.166-0.104-1.737l-4.377-1.557c-0.218-0.716-0.504-1.401-0.851-2.05l1.993-4.192c-0.725-0.91-1.549-1.734-2.458-2.459l-4.193,1.994c-0.647-0.347-1.334-0.632-2.049-0.849l-1.558-4.378C17.165,0.708,16.588,0.667,16,0.667s-1.166,0.041-1.737,0.105L12.707,5.15c-0.716,0.217-1.401,0.502-2.05,0.849L6.464,4.005C5.554,4.73,4.73,5.554,4.005,6.464l1.994,4.192c-0.347,0.648-0.632,1.334-0.849,2.05l-4.378,1.557C0.708,14.834,0.667,15.412,0.667,16s0.041,1.165,0.105,1.736l4.378,1.558c0.217,0.715,0.502,1.401,0.849,2.049l-1.994,4.193c0.725,0.909,1.549,1.733,2.459,2.458l4.192-1.993c0.648,0.347,1.334,0.633,2.05,0.851l1.557,4.377c0.571,0.064,1.148,0.104,1.737,0.104c0.588,0,1.165-0.04,1.736-0.104l1.558-4.377c0.715-0.218,1.399-0.504,2.049-0.851l4.193,1.993c0.909-0.725,1.733-1.549,2.458-2.458l-1.993-4.193c0.347-0.647,0.633-1.334,0.851-2.049L31.229,17.736zM16,20.871c-2.69,0-4.872-2.182-4.872-4.871c0-2.69,2.182-4.872,4.872-4.872c2.689,0,4.871,2.182,4.871,4.872C20.871,18.689,18.689,20.871,16,20.871z"></path><title>Link options.</title></g></g></g></g><!--z-index:47--><g   id="j_79" ><path  stroke="#999999" d="M 2150 1646 L 3790 2040 C 3796.666666666666 2041.3333333333333 3802.9999999999995 2043.3333333333333 3809 2046 L 3950 2102" id="v-1256" stroke-width="2" stroke-dasharray="8 8" fill="none" style="opacity: 1;"></path><path  fill="black" stroke="black" d="M 0 0 0 0" transform="matrix(0.9723873020607068,0.23337295214120202,-0.23337295214120202,0.9723873020607068,2150,1646)"></path><path  fill="#999999" stroke="#999999" d="M 20 0 L 0 10 L 20 20 z" id="v-1258" transform="matrix(-0.928476707906966,-0.3713906337998342,0.3713906337998342,-0.928476707906966,3946.286192772321,2111.284806229568)" style="opacity: 1;"></path><path  d="M 2150 1646 L 3790 2040 C 3796.666666666666 2041.3333333333333 3802.9999999999995 2043.3333333333333 3809 2046 L 3950 2102" id="v-1257" fill="none" style="cursor: auto; pointer-events: visiblepainted;"></path><g ><g id="v-1247"  label-idx="0" cursor="move" transform="matrix(1,0,0,1,3053.46337890625,1849.651611328125)" style="cursor: default; opacity: 1;"><rect joint-selector="rect" id="v-1251" fill="#ffffff" rx="3" ry="3" pointer-events="none" width="143.5703582763672" height="34.621337890625" transform="matrix(1,0,0,1,-71.8,-17.3)"></rect><text joint-selector="text" id="v-1250" font-size="24px" xml:space="preserve" y="0.8em" fill="#999999" text-anchor="middle" pointer-events="none" font-family="Open Sans, Tahoma, Arial" font-weight="normal" transform="matrix(1,0,0,1,0,-8.8)"><tspan dy="0" >Provisions to</tspan></text></g><g id="v-1248"  label-idx="1" cursor="move" transform="matrix(1,0,0,1,3053.46337890625,1880.0516357421875)" style="cursor: default; opacity: 1;"><rect joint-selector="rect" id="v-1253" fill="#ffffff" rx="3" ry="3"  pointer-events="none" width="79.40349578857422" height="27.69706916809082" transform="matrix(1,0,0,1,-39,-13.8)" style="display: block;"></rect><text joint-selector="text" id="v-1252" font-size="16.799999999999997px" xml:space="preserve" y="0.8em" fill="#999999" text-anchor="middle" pointer-events="none"  font-family="Open Sans, Tahoma, Arial" font-weight="normal" transform="matrix(1,0,0,1,0,-6.5)" style="display: block;"><tspan dy="0" >[SCIM 2.0]</tspan></text></g><g id="v-1249"  label-idx="2" cursor="move" transform="matrix(1,0,0,1,3043.46337890625,1888.4515380859375)" style="cursor: default; opacity: 1;"><rect joint-selector="rect" id="v-1255" fill="#ffffff" rx="3" ry="3"  width="0" height="0" transform="matrix(1,0,0,1,0,0)" display="none"></rect><text joint-selector="text" id="v-1254" fill="#000000" font-size="14" text-anchor="middle" pointer-events="none"></text></g></g><g  display="none" style="display: none;"><g  transform="translate(3800, 2042)" id="v-1293"><circle  idx="0" r="10"></circle><path  idx="0" d="M16,5.333c-7.732,0-14,4.701-14,10.5c0,1.982,0.741,3.833,2.016,5.414L2,25.667l5.613-1.441c2.339,1.317,5.237,2.107,8.387,2.107c7.732,0,14-4.701,14-10.5C30,10.034,23.732,5.333,16,5.333z" transform="translate(5, -33)"></path><path  idx="0" transform="scale(.8) translate(9.5, -37)" d="M24.778,21.419 19.276,15.917 24.777,10.415 21.949,7.585 16.447,13.087 10.945,7.585 8.117,10.415 13.618,15.917 8.116,21.419 10.946,24.248 16.447,18.746 21.948,24.248z"><title>Remove vertex.</title></path></g></g><g  id="v-1260" display="none"><g  id="v-1245"><path  end="source" d="M 26 0 L 0 13 L 26 26 z"></path></g><g  id="v-1246"><path  end="target" d="M 26 0 L 0 13 L 26 26 z"></path></g></g><g  id="v-1259" display="none"><g  id="v-1243" transform="translate(2188.8933383566355, 1655.3438873856796) "><g  event="remove"><circle r="11"></circle><path transform="scale(.8) translate(-16, -16)" d="M24.778,21.419 19.276,15.917 24.777,10.415 21.949,7.585 16.447,13.087 10.945,7.585 8.117,10.415 13.618,15.917 8.116,21.419 10.946,24.248 16.447,18.746 21.948,24.248z"></path><title>Remove link.</title></g><g  event="link:options"><circle r="11" transform="translate(25)"></circle><path fill="white" transform="scale(.55) translate(29, -16)" d="M31.229,17.736c0.064-0.571,0.104-1.148,0.104-1.736s-0.04-1.166-0.104-1.737l-4.377-1.557c-0.218-0.716-0.504-1.401-0.851-2.05l1.993-4.192c-0.725-0.91-1.549-1.734-2.458-2.459l-4.193,1.994c-0.647-0.347-1.334-0.632-2.049-0.849l-1.558-4.378C17.165,0.708,16.588,0.667,16,0.667s-1.166,0.041-1.737,0.105L12.707,5.15c-0.716,0.217-1.401,0.502-2.05,0.849L6.464,4.005C5.554,4.73,4.73,5.554,4.005,6.464l1.994,4.192c-0.347,0.648-0.632,1.334-0.849,2.05l-4.378,1.557C0.708,14.834,0.667,15.412,0.667,16s0.041,1.165,0.105,1.736l4.378,1.558c0.217,0.715,0.502,1.401,0.849,2.049l-1.994,4.193c0.725,0.909,1.549,1.733,2.459,2.458l4.192-1.993c0.648,0.347,1.334,0.633,2.05,0.851l1.557,4.377c0.571,0.064,1.148,0.104,1.737,0.104c0.588,0,1.165-0.04,1.736-0.104l1.558-4.377c0.715-0.218,1.399-0.504,2.049-0.851l4.193,1.993c0.909-0.725,1.733-1.549,2.458-2.458l-1.993-4.193c0.347-0.647,0.633-1.334,0.851-2.049L31.229,17.736zM16,20.871c-2.69,0-4.872-2.182-4.872-4.871c0-2.69,2.182-4.872,4.872-4.872c2.689,0,4.871,2.182,4.871,4.872C20.871,18.689,18.689,20.871,16,20.871z"></path><title>Link options.</title></g></g></g></g><!--z-index:48--><g   id="j_80" ><path  stroke="#444444" d="M 1700 1637 L 1129 1751 C 1122.5275990312562 1752.152330911474 1116.5275990312562 1754.4856642448074 1111 1758 L 650 2050" id="v-1276" stroke-width="2" stroke-dasharray="" fill="none" style="opacity: 1;"></path><path  fill="black" stroke="black" d="M 0 0 0 0" transform="matrix(-0.9806758116577613,0.1956398538881867,-0.1956398538881867,-0.9806758116577613,1700,1636.8800048828125)"></path><path  fill="#444444" stroke="#444444" d="M 20 0 L 0 10 L 20 20 z" id="v-1278" transform="matrix(0.8450683546668284,-0.5346582795961357,0.5346582795961357,0.8450683546668284,644.6534172511203,2041.189356280543)" style="opacity: 1;"></path><path  d="M 1700 1637 L 1129 1751 C 1122.5275990312562 1752.152330911474 1116.5275990312562 1754.4856642448074 1111 1758 L 650 2050" id="v-1277" fill="none" style="cursor: auto; pointer-events: visiblepainted;"></path><g ><g id="v-1267"  label-idx="0" cursor="move" transform="matrix(1,0,0,1,1137.402099609375,1735.9224853515625)" style="cursor: default; opacity: 1;"><rect joint-selector="rect" id="v-1271" fill="#ffffff" rx="3" ry="3" pointer-events="none" width="191.740478515625" height="34.621337890625" transform="matrix(1,0,0,1,-95.6,-17.3)"></rect><text joint-selector="text" id="v-1270" font-size="24px" xml:space="preserve" y="0.8em" fill="#444444" text-anchor="middle" pointer-events="none" font-family="Open Sans, Tahoma, Arial" font-weight="normal" transform="matrix(1,0,0,1,0,-8.8)"><tspan dy="0" >Authenticates via</tspan></text></g><g id="v-1268"  label-idx="1" cursor="move" transform="matrix(1,0,0,1,1137.402099609375,1766.322509765625)" style="cursor: default; opacity: 1;"><rect joint-selector="rect" id="v-1273" fill="#ffffff" rx="3" ry="3"  pointer-events="none" width="52.57259750366211" height="27.69706916809082" transform="matrix(1,0,0,1,-25.6,-13.8)" style="display: block;"></rect><text joint-selector="text" id="v-1272" font-size="16.799999999999997px" xml:space="preserve" y="0.8em" fill="#444444" text-anchor="middle" pointer-events="none"  font-family="Open Sans, Tahoma, Arial" font-weight="normal" transform="matrix(1,0,0,1,0,-6.5)" style="display: block;"><tspan dy="0" >[OIDC]</tspan></text></g><g id="v-1269"  label-idx="2" cursor="move" transform="matrix(1,0,0,1,1127.402099609375,1774.7225341796875)" style="cursor: default; opacity: 1;"><rect joint-selector="rect" id="v-1275" fill="#ffffff" rx="3" ry="3"  width="0" height="0" transform="matrix(1,0,0,1,0,0)" display="none"></rect><text joint-selector="text" id="v-1274" fill="#000000" font-size="14" text-anchor="middle" pointer-events="none"></text></g></g><g  display="none" style="display: none;"><g  transform="translate(1119.2913985468845, 1752.7284963672112)" id="v-1294"><circle  idx="0" r="10"></circle><path  idx="0" d="M16,5.333c-7.732,0-14,4.701-14,10.5c0,1.982,0.741,3.833,2.016,5.414L2,25.667l5.613-1.441c2.339,1.317,5.237,2.107,8.387,2.107c7.732,0,14-4.701,14-10.5C30,10.034,23.732,5.333,16,5.333z" transform="translate(5, -33)"></path><path  idx="0" transform="scale(.8) translate(9.5, -37)" d="M24.778,21.419 19.276,15.917 24.777,10.415 21.949,7.585 16.447,13.087 10.945,7.585 8.117,10.415 13.618,15.917 8.116,21.419 10.946,24.248 16.447,18.746 21.948,24.248z"><title>Remove vertex.</title></path></g></g><g  id="v-1280" display="none"><g  id="v-1265"><path  end="source" d="M 26 0 L 0 13 L 26 26 z"></path></g><g  id="v-1266"><path  end="target" d="M 26 0 L 0 13 L 26 26 z"></path></g></g><g  id="v-1279" display="none"><g  id="v-1264" transform="translate(1660.774133012949, 1644.8314340394463) "><g  event="remove"><circle r="11"></circle><path transform="scale(.8) translate(-16, -16)" d="M24.778,21.419 19.276,15.917 24.777,10.415 21.949,7.585 16.447,13.087 10.945,7.585 8.117,10.415 13.618,15.917 8.116,21.419 10.946,24.248 16.447,18.746 21.948,24.248z"></path><title>Remove link.</title></g><g  event="link:options"><circle r="11" transform="translate(25)"></circle><path fill="white" transform="scale(.55) translate(29, -16)" d="M31.229,17.736c0.064-0.571,0.104-1.148,0.104-1.736s-0.04-1.166-0.104-1.737l-4.377-1.557c-0.218-0.716-0.504-1.401-0.851-2.05l1.993-4.192c-0.725-0.91-1.549-1.734-2.458-2.459l-4.193,1.994c-0.647-0.347-1.334-0.632-2.049-0.849l-1.558-4.378C17.165,0.708,16.588,0.667,16,0.667s-1.166,0.041-1.737,0.105L12.707,5.15c-0.716,0.217-1.401,0.502-2.05,0.849L6.464,4.005C5.554,4.73,4.73,5.554,4.005,6.464l1.994,4.192c-0.347,0.648-0.632,1.334-0.849,2.05l-4.378,1.557C0.708,14.834,0.667,15.412,0.667,16s0.041,1.165,0.105,1.736l4.378,1.558c0.217,0.715,0.502,1.401,0.849,2.049l-1.994,4.193c0.725,0.909,1.549,1.733,2.459,2.458l4.192-1.993c0.648,0.347,1.334,0.633,2.05,0.851l1.557,4.377c0.571,0.064,1.148,0.104,1.737,0.104c0.588,0,1.165-0.04,1.736-0.104l1.558-4.377c0.715-0.218,1.399-0.504,2.049-0.851l4.193,1.993c0.909-0.725,1.733-1.549,2.458-2.458l-1.993-4.193c0.347-0.647,0.633-1.334,0.851-2.049L31.229,17.736zM16,20.871c-2.69,0-4.872-2.182-4.872-4.871c0-2.69,2.182-4.872,4.872-4.872c2.689,0,4.871,2.182,4.871,4.872C20.871,18.689,18.689,20.871,16,20.871z"></path><title>Link options.</title></g></g></g></g><!--z-index:49--><!--z-index:50--><!--z-index:51--><!--z-index:52--><!--z-index:53--><!--z-index:54--><!--z-index:55--><!--z-index:56--><!--z-index:57--><!--z-index:58--><!--z-index:59--><!--z-index:60--><!--z-index:61--><!--z-index:62--><!--z-index:63--><!--z-index:64--><!--z-index:65--><!--z-index:66--><!--z-index:67--><!--z-index:68--><!--z-index:69--><!--z-index:70--><!--z-index:71--><!--z-index:72--><!--z-index:73--><!--z-index:74--><!--z-index:75--><!--z-index:76--><!--z-index:77--><!--z-index:78--><!--z-index:79--><!--z-index:80--><!--z-index:81--><!--z-index:82--><!--z-index:83--><!--z-index:84--><!--z-index:85--><!--z-index:86--><!--z-index:87--><!--z-index:88--><!--z-index:89--><!--z-index:90--><!--z-index:91--><!--z-index:92--><!--z-index:93--><!--z-index:94--><!--z-index:95--><!--z-index:96--><!--z-index:97--><!--z-index:98--><!--z-index:99--><!--z-index:100--><!--z-index:101--><!--z-index:102--><!--z-index:103--><!--z-index:104--><!--z-index:105--><!--z-index:106--><!--z-index:107--><!--z-index:108--><!--z-index:109--><!--z-index:110--><!--z-index:111--><!--z-index:112--><!--z-index:113--><!--z-index:114--><!--z-index:115--><!--z-index:116--><!--z-index:117--><!--z-index:118--><!--z-index:119--><!--z-index:120--><!--z-index:121--><!--z-index:122--><!--z-index:123--><!--z-index:124--><!--z-index:125--><!--z-index:126--><!--z-index:127--><!--z-index:128--><!--z-index:129--><!--z-index:130--><!--z-index:131--><!--z-index:132--><!--z-index:133--><!--z-index:134--><!--z-index:135--><!--z-index:136--><!--z-index:137--><!--z-index:138--><!--z-index:139--><!--z-index:140--><!--z-index:141--><!--z-index:142--><!--z-index:143--><!--z-index:144--><!--z-index:145--><!--z-index:146--><!--z-index:147--><!--z-index:148--><!--z-index:149--><!--z-index:150--><!--z-index:151--><!--z-index:152--><!--z-index:153--><!--z-index:154--><!--z-index:155--><!--z-index:156--><!--z-index:157--><!--z-index:158--><!--z-index:159--><!--z-index:160--><!--z-index:161--><!--z-index:162--><!--z-index:163--><!--z-index:164--><!--z-index:165--><!--z-index:166--><!--z-index:167--><!--z-index:168--><!--z-index:169--><!--z-index:170--><!--z-index:171--><!--z-index:172--><!--z-index:173--></g><g ></g><g ></g><g ><g transform="translate(20,2590)"><g><text font-size="24px" xml:space="preserve" y="0.8em" font-weight="normal" text-anchor="start" fill="#444444" pointer-events="none" display="block" font-family="Open Sans, Tahoma, Arial"><tspan dy="0" display="block">JIM v0.2.0</tspan></text></g></g></g></g></svg>