<svg xmlns="http://www.w3.org/2000/svg" xmlns:xlink="http://www.w3.org/1999/xlink" version="1.1" viewBox="0 0 2500 1000" style="background: #ffffff"><g transform="translate(25,100)"><rect width="450" height="300" rx="20" ry="20" x="0" y="0" fill="#ffffff" stroke-width="2" stroke="#3c7fc0" stroke-dasharray=""/><text x="225" y="95" text-anchor="middle" dominant-baseline="hanging" fill="#3c7fc0" font-size="30px" font-family="Open Sans, Tahoma, Arial"><tspan x="225" dy="40px">Boundary, Container</tspan></text></g><g transform="translate(525,100)"><rect width="450" height="300" rx="20" ry="20" x="0" y="0" fill="#ffffff" stroke-width="2" stroke="#0f5eaa" stroke-dasharray=""/><text x="225" y="77" text-anchor="middle" dominant-baseline="hanging" fill="#0f5eaa" font-size="30px" font-family="Open Sans, Tahoma, Arial"><tspan x="225" dy="40px">Boundary, Software</tspan><tspan x="225" dy="40px">System</tspan></text></g><g transform="translate(1025,100)"><rect width="450" height="300" rx="20" ry="20" x="0" y="0" fill="#85bbf0" stroke-width="2" stroke="#78a8d8" stroke-dasharray=""/><text x="225" y="95" text-anchor="middle" dominant-baseline="hanging" fill="#000000" font-size="30px" font-family="Open Sans, Tahoma, Arial"><tspan x="225" dy="40px">Component</tspan></text></g><g transform="translate(1525,100)"><rect width="450" height="300" rx="20" ry="20" x="0" y="0" fill="#999999" stroke-width="2" stroke="#8a8a8a" stroke-dasharray=""/><text x="225" y="77" text-anchor="middle" dominant-baseline="hanging" fill="#ffffff" font-size="30px" font-family="Open Sans, Tahoma, Arial"><tspan x="225" dy="40px">Software System,</tspan><tspan x="225" dy="40px">External</tspan></text></g><g transform="translate(2025,100)"><rect width="450" height="300" rx="20" ry="20" x="0" y="0" fill="#f0f0f0" stroke-width="2" stroke="#e5e5e5" stroke-dasharray="8,8"/><text x="225" y="77" text-anchor="middle" dominant-baseline="hanging" fill="#b3b3b3" font-size="30px" font-family="Open Sans, Tahoma, Arial"><tspan x="225" dy="40px">Software System,</tspan><tspan x="225" dy="40px">External, Planned</tspan></text></g><g transform="translate(25,670)"><path d="M422,0 L422,44 L450,30 L 422,16" style="fill:#999999" /><path d="M0,30 L422,30" style="stroke:#999999; stroke-width: 2; fill: none; stroke-dasharray: 8 8;" /><text x="225" y="55" text-anchor="middle" dominant-baseline="hanging" fill="#999999" font-size="30px" font-family="Open Sans, Tahoma, Arial"><tspan x="225" dy="40px">Planned</tspan></text></g><g transform="translate(525,670)"><path d="M422,0 L422,44 L450,30 L 422,16" style="fill:#444444" /><path d="M0,30 L422,30" style="stroke:#444444; stroke-width: 2; fill: none; stroke-dasharray: ;" /><text x="225" y="55" text-anchor="middle" dominant-baseline="hanging" fill="#444444" font-size="30px" font-family="Open Sans, Tahoma, Arial"><tspan x="225" dy="40px">Relationship</tspan></text></g></svg>