<svg xmlns="http://www.w3.org/2000/svg" xmlns:xlink="http://www.w3.org/1999/xlink" version="1.1" viewBox="0 0 3890 1340" style="background: #ffffff"><defs joint-selector="defs"></defs><g joint-selector="layers"  transform="matrix(1,0,0,1,0,0)"><g ></g><g ><!--z-index:0--><!--z-index:1--><!--z-index:2--><!--z-index:3--><!--z-index:4--><!--z-index:5--><!--z-index:6--><!--z-index:7--><!--z-index:8--><!--z-index:9--><!--z-index:10--><!--z-index:11--><!--z-index:12--><!--z-index:13--><!--z-index:14--><!--z-index:15--><!--z-index:16--><!--z-index:17--><!--z-index:18--><!--z-index:19--><!--z-index:20--><g   id="j_119"  transform="translate(20,1296)"><g id="v-1871"><text  id="v-1872" font-size="24px" xml:space="preserve" y="0.8em" font-weight="normal" text-anchor="start" fill="#444444" pointer-events="none" display="block" font-family="Open Sans, Tahoma, Arial"><tspan dy="0"  display="block">Friday, February 20, 2026 at 1:36 PM Coordinated Universal Time</tspan></text></g></g><!--z-index:21--><g   id="j_118"  transform="translate(20,1262)"><g id="v-1869"><text  id="v-1870" font-size="24px" xml:space="preserve" y="0.8em" font-weight="normal" text-anchor="start" fill="#444444" pointer-events="none" display="block" font-family="Open Sans, Tahoma, Arial"><tspan dy="0"  display="block">Component diagram for JIM Connectors</tspan></text></g></g><!--z-index:22--><g   id="j_117"  transform="translate(20,1216)"><g id="v-1867"><text  id="v-1868" font-size="36px" xml:space="preserve" y="0.8em" font-weight="normal" text-anchor="start" fill="#444444" pointer-events="none" display="block" font-family="Open Sans, Tahoma, Arial"><tspan dy="0"  display="block">Component View: JIM - Connectors</tspan></text></g></g><!--z-index:23--><g   id="j_120"  transform="translate(200,783)" style=""><g  id="v-1879" style="opacity: 1;"><rect  id="v-1880" rx="20" ry="20" stroke-width="2" pointer-events="visiblePainted" fill="#999999" stroke="#8a8a8a" stroke-dasharray="" width="450" height="300"></rect><text  id="v-1881" font-size="33.599999999999994px" xml:space="preserve" y="86.9" font-weight="bold" text-anchor="middle" pointer-events="visible" font-family="Open Sans, Tahoma, Arial" fill="#ffffff" dominant-baseline="hanging" transform="matrix(1,0,0,1,225,0)"><tspan dy="0" >Active Directory / LDAP</tspan></text><text  id="v-1882" font-size="16.799999999999997px" xml:space="preserve" y="128.5" text-anchor="middle" font-family="Open Sans, Tahoma, Arial" fill="#ffffff" dominant-baseline="hanging" transform="matrix(1,0,0,1,225,0)" style="display: block;"><tspan dy="0" >[Software System]</tspan></text><text  id="v-1883" font-size="24px" xml:space="preserve" y="160.3" text-anchor="middle" font-family="Open Sans, Tahoma, Arial" fill="#ffffff" dominant-baseline="hanging" transform="matrix(1,0,0,1,225,0)" style="display: block;"><tspan dy="0" >Enterprise directory services for</tspan><tspan dy="1.2em" x="0" >users and groups</tspan></text><g  id="v-1884" color="#ffffff" transform="matrix(1,0,0,1,222.5,268)" display="none"><g ></g><g ></g><g ></g><g ></g></g><image  id="v-1885"></image></g></g><!--z-index:24--><g   id="j_121"  transform="translate(950,783)" style=""><g  id="v-1889" style="opacity: 1;"><rect  id="v-1890" rx="20" ry="20" stroke-width="2" pointer-events="visiblePainted" fill="#999999" stroke="#8a8a8a" stroke-dasharray="" width="450" height="300"></rect><text  id="v-1891" font-size="33.599999999999994px" xml:space="preserve" y="86.9" font-weight="bold" text-anchor="middle" pointer-events="visible" font-family="Open Sans, Tahoma, Arial" fill="#ffffff" dominant-baseline="hanging" transform="matrix(1,0,0,1,225,0)"><tspan dy="0" >HR Systems</tspan></text><text  id="v-1892" font-size="16.799999999999997px" xml:space="preserve" y="128.5" text-anchor="middle" font-family="Open Sans, Tahoma, Arial" fill="#ffffff" dominant-baseline="hanging" transform="matrix(1,0,0,1,225,0)" style="display: block;"><tspan dy="0" >[Software System]</tspan></text><text  id="v-1893" font-size="24px" xml:space="preserve" y="160.3" text-anchor="middle" font-family="Open Sans, Tahoma, Arial" fill="#ffffff" dominant-baseline="hanging" transform="matrix(1,0,0,1,225,0)" style="display: block;"><tspan dy="0" >Authoritative source for employee</tspan><tspan dy="1.2em" x="0" >identity data</tspan></text><g  id="v-1894" color="#ffffff" transform="matrix(1,0,0,1,222.5,268)" display="none"><g ></g><g ></g><g ></g><g ></g></g><image  id="v-1895"></image></g></g><!--z-index:25--><g   id="j_122"  transform="translate(1700,783)" style=""><g  id="v-1899" style="opacity: 1;"><rect  id="v-1900" rx="20" ry="20" stroke-width="2" pointer-events="visiblePainted" fill="#999999" stroke="#8a8a8a" stroke-dasharray="" width="450" height="300"></rect><text  id="v-1901" font-size="33.599999999999994px" xml:space="preserve" y="101.30000000000001" font-weight="bold" text-anchor="middle" pointer-events="visible" font-family="Open Sans, Tahoma, Arial" fill="#ffffff" dominant-baseline="hanging" transform="matrix(1,0,0,1,225,0)"><tspan dy="0" >File Systems</tspan></text><text  id="v-1902" font-size="16.799999999999997px" xml:space="preserve" y="142.9" text-anchor="middle" font-family="Open Sans, Tahoma, Arial" fill="#ffffff" dominant-baseline="hanging" transform="matrix(1,0,0,1,225,0)" style="display: block;"><tspan dy="0" >[Software System]</tspan></text><text  id="v-1903" font-size="24px" xml:space="preserve" y="174.7" text-anchor="middle" font-family="Open Sans, Tahoma, Arial" fill="#ffffff" dominant-baseline="hanging" transform="matrix(1,0,0,1,225,0)" style="display: block;"><tspan dy="0" >CSV file-based bulk import/export</tspan></text><g  id="v-1904" color="#ffffff" transform="matrix(1,0,0,1,222.5,268)" display="none"><g ></g><g ></g><g ></g><g ></g></g><image  id="v-1905"></image></g></g><!--z-index:26--><g   id="j_123"  transform="translate(2450,783)" style=""><g  id="v-1912" style="opacity: 1;"><rect  id="v-1913" rx="20" ry="20" stroke-width="2" pointer-events="visiblePainted" fill="#f0f0f0" stroke="#e5e5e5" stroke-dasharray="8,8" width="450" height="300"></rect><text  id="v-1914" font-size="33.599999999999994px" xml:space="preserve" y="86.9" font-weight="bold" text-anchor="middle" pointer-events="visible" font-family="Open Sans, Tahoma, Arial" fill="#b3b3b3" dominant-baseline="hanging" transform="matrix(1,0,0,1,225,0)"><tspan dy="0" >Enterprise Databases</tspan></text><text  id="v-1915" font-size="16.799999999999997px" xml:space="preserve" y="128.5" text-anchor="middle" font-family="Open Sans, Tahoma, Arial" fill="#b3b3b3" dominant-baseline="hanging" transform="matrix(1,0,0,1,225,0)" style="display: block;"><tspan dy="0" >[Software System]</tspan></text><text  id="v-1916" font-size="24px" xml:space="preserve" y="160.3" text-anchor="middle" font-family="Open Sans, Tahoma, Arial" fill="#b3b3b3" dominant-baseline="hanging" transform="matrix(1,0,0,1,225,0)" style="display: block;"><tspan dy="0" >PostgreSQL, MySQL, Oracle, SQL</tspan><tspan dy="1.2em" x="0" >Server with identity data</tspan></text><g  id="v-1917" color="#b3b3b3" transform="matrix(1,0,0,1,222.5,268)" display="none"><g ></g><g ></g><g ></g><g ></g></g><image  id="v-1918"></image></g></g><!--z-index:27--><g   id="j_124"  transform="translate(3200,783)" style=""><g  id="v-1925" style="opacity: 1;"><rect  id="v-1926" rx="20" ry="20" stroke-width="2" pointer-events="visiblePainted" fill="#f0f0f0" stroke="#e5e5e5" stroke-dasharray="8,8" width="450" height="300"></rect><text  id="v-1927" font-size="33.599999999999994px" xml:space="preserve" y="86.9" font-weight="bold" text-anchor="middle" pointer-events="visible" font-family="Open Sans, Tahoma, Arial" fill="#b3b3b3" dominant-baseline="hanging" transform="matrix(1,0,0,1,225,0)"><tspan dy="0" >SCIM 2.0 Systems</tspan></text><text  id="v-1928" font-size="16.799999999999997px" xml:space="preserve" y="128.5" text-anchor="middle" font-family="Open Sans, Tahoma, Arial" fill="#b3b3b3" dominant-baseline="hanging" transform="matrix(1,0,0,1,225,0)" style="display: block;"><tspan dy="0" >[Software System]</tspan></text><text  id="v-1929" font-size="24px" xml:space="preserve" y="160.3" text-anchor="middle" font-family="Open Sans, Tahoma, Arial" fill="#b3b3b3" dominant-baseline="hanging" transform="matrix(1,0,0,1,225,0)" style="display: block;"><tspan dy="0" >Cloud applications supporting</tspan><tspan dy="1.2em" x="0" >SCIM provisioning</tspan></text><g  id="v-1930" color="#b3b3b3" transform="matrix(1,0,0,1,222.5,268)" display="none"><g ></g><g ></g><g ></g><g ></g></g><image  id="v-1931"></image></g></g><!--z-index:28--><g   id="j_127"  transform="translate(910,143)" style=""><g id="v-1950"><rect  id="v-1951" width="2780" height="538" rx="20" ry="20" stroke-width="2" pointer-events="none" stroke="#0f5eaa" fill="#ffffff" stroke-dasharray=""></rect><text  id="v-1952" font-size="33.599999999999994px" xml:space="preserve" y="499" font-weight="bold" text-anchor="start" pointer-events="visible" font-family="Open Sans, Tahoma, Arial" fill="#0f5eaa" transform="matrix(1,0,0,1,15,0)"><tspan dy="0" >JIM</tspan></text><text  id="v-1953" font-size="16.799999999999997px" xml:space="preserve" y="523" font-weight="normal" text-anchor="start" pointer-events="visible" font-family="Open Sans, Tahoma, Arial" fill="#0f5eaa" transform="matrix(1,0,0,1,15,0)"><tspan dy="0" >[Software System]</tspan></text><image  id="v-1954" pointer-events="visible"></image></g></g><!--z-index:29--><g   id="j_126"  transform="translate(930,163)" style=""><g id="v-1945"><rect  id="v-1946" width="2740" height="419" rx="20" ry="20" stroke-width="2" pointer-events="none" stroke="#3c7fc0" fill="#ffffff" stroke-dasharray=""></rect><text  id="v-1947" font-size="33.599999999999994px" xml:space="preserve" y="380" font-weight="bold" text-anchor="start" pointer-events="visible" font-family="Open Sans, Tahoma, Arial" fill="#3c7fc0" transform="matrix(1,0,0,1,15,0)"><tspan dy="0" >Connectors</tspan></text><text  id="v-1948" font-size="16.799999999999997px" xml:space="preserve" y="404" font-weight="normal" text-anchor="start" pointer-events="visible" font-family="Open Sans, Tahoma, Arial" fill="#3c7fc0" transform="matrix(1,0,0,1,15,0)"><tspan dy="0" >[Container]</tspan></text><image  id="v-1949" pointer-events="visible"></image></g></g><!--z-index:30--><g   id="j_125"  transform="translate(950,183)" style=""><g  id="v-1938" style="opacity: 1;"><rect  id="v-1939" rx="20" ry="20" stroke-width="2" pointer-events="visiblePainted" fill="#85bbf0" stroke="#78a8d8" stroke-dasharray="" width="450" height="300"></rect><text  id="v-1940" font-size="33.599999999999994px" xml:space="preserve" y="72.5" font-weight="bold" text-anchor="middle" pointer-events="visible" font-family="Open Sans, Tahoma, Arial" fill="#000000" dominant-baseline="hanging" transform="matrix(1,0,0,1,225,0)"><tspan dy="0" >LDAP Connector</tspan></text><text  id="v-1941" font-size="16.799999999999997px" xml:space="preserve" y="114.1" text-anchor="middle" font-family="Open Sans, Tahoma, Arial" fill="#000000" dominant-baseline="hanging" transform="matrix(1,0,0,1,225,0)" style="display: block;"><tspan dy="0" >[Component: IConnector Implementation]</tspan></text><text  id="v-1942" font-size="24px" xml:space="preserve" y="145.89999999999998" text-anchor="middle" font-family="Open Sans, Tahoma, Arial" fill="#000000" dominant-baseline="hanging" transform="matrix(1,0,0,1,225,0)" style="display: block;"><tspan dy="0" >Active Directory, OpenLDAP,</tspan><tspan dy="1.2em" x="0" >AD-LDS - schema discovery,</tspan><tspan dy="1.2em" x="0" >LDAPS, partitions, delta import</tspan></text><g  id="v-1943" color="#000000" transform="matrix(1,0,0,1,222.5,268)" display="none"><g ></g><g ></g><g ></g><g ></g></g><image  id="v-1944"></image></g></g><!--z-index:31--><g   id="j_128"  transform="translate(1700,183)" style=""><g  id="v-1961" style="opacity: 1;"><rect  id="v-1962" rx="20" ry="20" stroke-width="2" pointer-events="visiblePainted" fill="#85bbf0" stroke="#78a8d8" stroke-dasharray="" width="450" height="300"></rect><text  id="v-1963" font-size="33.599999999999994px" xml:space="preserve" y="86.9" font-weight="bold" text-anchor="middle" pointer-events="visible" font-family="Open Sans, Tahoma, Arial" fill="#000000" dominant-baseline="hanging" transform="matrix(1,0,0,1,225,0)"><tspan dy="0" >File Connector</tspan></text><text  id="v-1964" font-size="16.799999999999997px" xml:space="preserve" y="128.5" text-anchor="middle" font-family="Open Sans, Tahoma, Arial" fill="#000000" dominant-baseline="hanging" transform="matrix(1,0,0,1,225,0)" style="display: block;"><tspan dy="0" >[Component: IConnector Implementation]</tspan></text><text  id="v-1965" font-size="24px" xml:space="preserve" y="160.3" text-anchor="middle" font-family="Open Sans, Tahoma, Arial" fill="#000000" dominant-baseline="hanging" transform="matrix(1,0,0,1,225,0)" style="display: block;"><tspan dy="0" >CSV import/export, configurable</tspan><tspan dy="1.2em" x="0" >delimiters, schema discovery</tspan></text><g  id="v-1966" color="#000000" transform="matrix(1,0,0,1,222.5,268)" display="none"><g ></g><g ></g><g ></g><g ></g></g><image  id="v-1967"></image></g></g><!--z-index:32--><g   id="j_129"  transform="translate(2450,183)" style=""><g  id="v-1977" style="opacity: 1;"><rect  id="v-1978" rx="20" ry="20" stroke-width="2" pointer-events="visiblePainted" fill="#85bbf0" stroke="#78a8d8" stroke-dasharray="" width="450" height="300"></rect><text  id="v-1979" font-size="33.599999999999994px" xml:space="preserve" y="62.420000000000016" font-weight="bold" text-anchor="middle" pointer-events="visible" font-family="Open Sans, Tahoma, Arial" fill="#000000" dominant-baseline="hanging" transform="matrix(1,0,0,1,225,0)"><tspan dy="0" >Database Connector</tspan></text><text  id="v-1980" font-size="16.799999999999997px" xml:space="preserve" y="104.02000000000001" text-anchor="middle" font-family="Open Sans, Tahoma, Arial" fill="#000000" dominant-baseline="hanging" transform="matrix(1,0,0,1,225,0)" style="display: block;"><tspan dy="0" >[Component: IConnector</tspan><tspan dy="1.2em" x="0" >Implementation,Planned]</tspan></text><text  id="v-1981" font-size="24px" xml:space="preserve" y="155.98000000000002" text-anchor="middle" font-family="Open Sans, Tahoma, Arial" fill="#000000" dominant-baseline="hanging" transform="matrix(1,0,0,1,225,0)" style="display: block;"><tspan dy="0" >PostgreSQL, MySQL, Oracle, SQL</tspan><tspan dy="1.2em" x="0" >Server - SQL queries, stored</tspan><tspan dy="1.2em" x="0" >procedures</tspan></text><g  id="v-1982" color="#000000" transform="matrix(1,0,0,1,222.5,268)" display="none"><g ></g><g ></g><g ></g><g ></g></g><image  id="v-1983"></image></g></g><!--z-index:33--><g   id="j_130"  transform="translate(3200,183)" style=""><g  id="v-1993" style="opacity: 1;"><rect  id="v-1994" rx="20" ry="20" stroke-width="2" pointer-events="visiblePainted" fill="#85bbf0" stroke="#78a8d8" stroke-dasharray="" width="450" height="300"></rect><text  id="v-1995" font-size="33.599999999999994px" xml:space="preserve" y="76.82000000000001" font-weight="bold" text-anchor="middle" pointer-events="visible" font-family="Open Sans, Tahoma, Arial" fill="#000000" dominant-baseline="hanging" transform="matrix(1,0,0,1,225,0)"><tspan dy="0" >SCIM 2.0 Connector</tspan></text><text  id="v-1996" font-size="16.799999999999997px" xml:space="preserve" y="118.42" text-anchor="middle" font-family="Open Sans, Tahoma, Arial" fill="#000000" dominant-baseline="hanging" transform="matrix(1,0,0,1,225,0)" style="display: block;"><tspan dy="0" >[Component: IConnector</tspan><tspan dy="1.2em" x="0" >Implementation,Planned]</tspan></text><text  id="v-1997" font-size="24px" xml:space="preserve" y="170.38" text-anchor="middle" font-family="Open Sans, Tahoma, Arial" fill="#000000" dominant-baseline="hanging" transform="matrix(1,0,0,1,225,0)" style="display: block;"><tspan dy="0" >Cloud application provisioning via</tspan><tspan dy="1.2em" x="0" >SCIM protocol</tspan></text><g  id="v-1998" color="#000000" transform="matrix(1,0,0,1,222.5,268)" display="none"><g ></g><g ></g><g ></g><g ></g></g><image  id="v-1999"></image></g></g><!--z-index:34--><g   id="j_131" ><path  stroke="#444444" d="M 988 483 L 613 783" id="v-2012" stroke-width="2" stroke-dasharray="" fill="none" style="opacity: 1;"></path><path  fill="black" stroke="black" d="M 0 0 0 0" transform="matrix(-0.7808688416748546,0.6246950072646418,-0.6246950072646418,-0.7808688416748546,987.5,483)"></path><path  fill="#444444" stroke="#444444" d="M 20 0 L 0 10 L 20 20 z" id="v-2014" transform="matrix(0.7808686753084834,-0.624695215222571,0.624695215222571,0.7808686753084834,606.2530769150021,775.1913171569536)" style="opacity: 1;"></path><path  d="M 988 483 L 613 783" id="v-2013" fill="none" style="cursor: auto; pointer-events: visiblepainted;"></path><g ><g id="v-2003"  label-idx="0" cursor="move" transform="matrix(1,0,0,1,800.5,619.5999755859375)" style="cursor: default; opacity: 1;"><rect joint-selector="rect" id="v-2007" fill="#ffffff" rx="3" ry="3" pointer-events="none" width="136.4800567626953" height="30.563678741455078" transform="matrix(1,0,0,1,-66.3,-15.3)"></rect><text joint-selector="text" id="v-2006" font-size="24px" xml:space="preserve" y="0.8em" fill="#444444" text-anchor="middle" pointer-events="none" font-family="Open Sans, Tahoma, Arial" font-weight="normal" transform="matrix(1,0,0,1,0,-10)"><tspan dy="0" >Connects to</tspan></text></g><g id="v-2004"  label-idx="1" cursor="move" transform="matrix(1,0,0,1,800.5,650)" style="cursor: default; opacity: 1;"><rect joint-selector="rect" id="v-2009" fill="#ffffff" rx="3" ry="3"  pointer-events="none" width="109.82786560058594" height="24.450942993164062" transform="matrix(1,0,0,1,-54.6,-12.2)" style="display: block;"></rect><text joint-selector="text" id="v-2008" font-size="16.799999999999997px" xml:space="preserve" y="0.8em" fill="#444444" text-anchor="middle" pointer-events="none"  font-family="Open Sans, Tahoma, Arial" font-weight="normal" transform="matrix(1,0,0,1,0,-7.3)" style="display: block;"><tspan dy="0" >[LDAP/LDAPS]</tspan></text></g><g id="v-2005"  label-idx="2" cursor="move" transform="matrix(1,0,0,1,790.5,658.4000244140625)" style="cursor: default; opacity: 1;"><rect joint-selector="rect" id="v-2011" fill="#ffffff" rx="3" ry="3"  width="0" height="0" transform="matrix(1,0,0,1,0,0)" display="none"></rect><text joint-selector="text" id="v-2010" fill="#000000" font-size="14" text-anchor="middle" pointer-events="none"></text></g></g><g  display="none" style="display: none;"></g><g  id="v-2016" display="none"><g  id="v-2001"><path  end="source" d="M 26 0 L 0 13 L 26 26 z"></path></g><g  id="v-2002"><path  end="target" d="M 26 0 L 0 13 L 26 26 z"></path></g></g><g  id="v-2015" display="none"><g  id="v-2000" transform="translate(956.7652476222789, 507.987801902177) "><g  event="remove"><circle r="11"></circle><path transform="scale(.8) translate(-16, -16)" d="M24.778,21.419 19.276,15.917 24.777,10.415 21.949,7.585 16.447,13.087 10.945,7.585 8.117,10.415 13.618,15.917 8.116,21.419 10.946,24.248 16.447,18.746 21.948,24.248z"></path><title>Remove link.</title></g><g  event="link:options"><circle r="11" transform="translate(25)"></circle><path fill="white" transform="scale(.55) translate(29, -16)" d="M31.229,17.736c0.064-0.571,0.104-1.148,0.104-1.736s-0.04-1.166-0.104-1.737l-4.377-1.557c-0.218-0.716-0.504-1.401-0.851-2.05l1.993-4.192c-0.725-0.91-1.549-1.734-2.458-2.459l-4.193,1.994c-0.647-0.347-1.334-0.632-2.049-0.849l-1.558-4.378C17.165,0.708,16.588,0.667,16,0.667s-1.166,0.041-1.737,0.105L12.707,5.15c-0.716,0.217-1.401,0.502-2.05,0.849L6.464,4.005C5.554,4.73,4.73,5.554,4.005,6.464l1.994,4.192c-0.347,0.648-0.632,1.334-0.849,2.05l-4.378,1.557C0.708,14.834,0.667,15.412,0.667,16s0.041,1.165,0.105,1.736l4.378,1.558c0.217,0.715,0.502,1.401,0.849,2.049l-1.994,4.193c0.725,0.909,1.549,1.733,2.459,2.458l4.192-1.993c0.648,0.347,1.334,0.633,2.05,0.851l1.557,4.377c0.571,0.064,1.148,0.104,1.737,0.104c0.588,0,1.165-0.04,1.736-0.104l1.558-4.377c0.715-0.218,1.399-0.504,2.049-0.851l4.193,1.993c0.909-0.725,1.733-1.549,2.458-2.458l-1.993-4.193c0.347-0.647,0.633-1.334,0.851-2.049L31.229,17.736zM16,20.871c-2.69,0-4.872-2.182-4.872-4.871c0-2.69,2.182-4.872,4.872-4.872c2.689,0,4.871,2.182,4.871,4.872C20.871,18.689,18.689,20.871,16,20.871z"></path><title>Link options.</title></g></g></g></g><!--z-index:35--><g   id="j_132" ><path  stroke="#444444" d="M 1925 483 L 1925 783" id="v-2032" stroke-width="2" stroke-dasharray="" fill="none" style="opacity: 1;"></path><path  fill="black" stroke="black" d="M 0 0 0 0" transform="matrix(6.123233995736766e-17,1,-1,6.123233995736766e-17,1925,483)"></path><path  fill="#444444" stroke="#444444" d="M 20 0 L 0 10 L 20 20 z" id="v-2034" transform="matrix(-1.8369701987210297e-16,-1,1,-1.8369701987210297e-16,1915.0000000000002,783)" style="opacity: 1;"></path><path  d="M 1925 483 L 1925 783" id="v-2033" fill="none" style="cursor: auto; pointer-events: visiblepainted;"></path><g ><g id="v-2023"  label-idx="0" cursor="move" transform="matrix(1,0,0,1,1925,619.5999755859375)" style="cursor: default; opacity: 1;"><rect joint-selector="rect" id="v-2027" fill="#ffffff" rx="3" ry="3" pointer-events="none" width="148.1358184814453" height="30.563678741455078" transform="matrix(1,0,0,1,-73.7,-15.3)"></rect><text joint-selector="text" id="v-2026" font-size="24px" xml:space="preserve" y="0.8em" fill="#444444" text-anchor="middle" pointer-events="none" font-family="Open Sans, Tahoma, Arial" font-weight="normal" transform="matrix(1,0,0,1,0,-10)"><tspan dy="0" >Reads/Writes</tspan></text></g><g id="v-2024"  label-idx="1" cursor="move" transform="matrix(1,0,0,1,1925,650)" style="cursor: default; opacity: 1;"><rect joint-selector="rect" id="v-2029" fill="#ffffff" rx="3" ry="3"  pointer-events="none" width="66.1725845336914" height="24.450942993164062" transform="matrix(1,0,0,1,-32.8,-12.2)" style="display: block;"></rect><text joint-selector="text" id="v-2028" font-size="16.799999999999997px" xml:space="preserve" y="0.8em" fill="#444444" text-anchor="middle" pointer-events="none"  font-family="Open Sans, Tahoma, Arial" font-weight="normal" transform="matrix(1,0,0,1,0,-7.3)" style="display: block;"><tspan dy="0" >[File I/O]</tspan></text></g><g id="v-2025"  label-idx="2" cursor="move" transform="matrix(1,0,0,1,1915,658.4000244140625)" style="cursor: default; opacity: 1;"><rect joint-selector="rect" id="v-2031" fill="#ffffff" rx="3" ry="3"  width="0" height="0" transform="matrix(1,0,0,1,0,0)" display="none"></rect><text joint-selector="text" id="v-2030" fill="#000000" font-size="14" text-anchor="middle" pointer-events="none"></text></g></g><g  display="none" style="display: none;"></g><g  id="v-2036" display="none"><g  id="v-2021"><path  end="source" d="M 26 0 L 0 13 L 26 26 z"></path></g><g  id="v-2022"><path  end="target" d="M 26 0 L 0 13 L 26 26 z"></path></g></g><g  id="v-2035" display="none"><g  id="v-2020" transform="translate(1925.0000000000002, 523) "><g  event="remove"><circle r="11"></circle><path transform="scale(.8) translate(-16, -16)" d="M24.778,21.419 19.276,15.917 24.777,10.415 21.949,7.585 16.447,13.087 10.945,7.585 8.117,10.415 13.618,15.917 8.116,21.419 10.946,24.248 16.447,18.746 21.948,24.248z"></path><title>Remove link.</title></g><g  event="link:options"><circle r="11" transform="translate(25)"></circle><path fill="white" transform="scale(.55) translate(29, -16)" d="M31.229,17.736c0.064-0.571,0.104-1.148,0.104-1.736s-0.04-1.166-0.104-1.737l-4.377-1.557c-0.218-0.716-0.504-1.401-0.851-2.05l1.993-4.192c-0.725-0.91-1.549-1.734-2.458-2.459l-4.193,1.994c-0.647-0.347-1.334-0.632-2.049-0.849l-1.558-4.378C17.165,0.708,16.588,0.667,16,0.667s-1.166,0.041-1.737,0.105L12.707,5.15c-0.716,0.217-1.401,0.502-2.05,0.849L6.464,4.005C5.554,4.73,4.73,5.554,4.005,6.464l1.994,4.192c-0.347,0.648-0.632,1.334-0.849,2.05l-4.378,1.557C0.708,14.834,0.667,15.412,0.667,16s0.041,1.165,0.105,1.736l4.378,1.558c0.217,0.715,0.502,1.401,0.849,2.049l-1.994,4.193c0.725,0.909,1.549,1.733,2.459,2.458l4.192-1.993c0.648,0.347,1.334,0.633,2.05,0.851l1.557,4.377c0.571,0.064,1.148,0.104,1.737,0.104c0.588,0,1.165-0.04,1.736-0.104l1.558-4.377c0.715-0.218,1.399-0.504,2.049-0.851l4.193,1.993c0.909-0.725,1.733-1.549,2.458-2.458l-1.993-4.193c0.347-0.647,0.633-1.334,0.851-2.049L31.229,17.736zM16,20.871c-2.69,0-4.872-2.182-4.872-4.871c0-2.69,2.182-4.872,4.872-4.872c2.689,0,4.871,2.182,4.871,4.872C20.871,18.689,18.689,20.871,16,20.871z"></path><title>Link options.</title></g></g></g></g><!--z-index:36--><g   id="j_133" ><path  stroke="#444444" d="M 1768 483 L 1557 684 C 1552.3333333333333 688.6666666666666 1547.3333333333333 692.6666666666666 1542 696 L 1400 788" id="v-2053" stroke-width="2" stroke-dasharray="" fill="none" style="opacity: 1;"></path><path  fill="black" stroke="black" d="M 0 0 0 0" transform="matrix(-0.7233163092487871,0.6905168475676122,-0.6905168475676122,-0.7233163092487871,1767.8800048828125,483)"></path><path  fill="#444444" stroke="#444444" d="M 20 0 L 0 10 L 20 20 z" id="v-2055" transform="matrix(0.8402307071223483,-0.5422290648874133,0.5422290648874133,0.8402307071223483,1394.5777460299025,779.3976691245258)" style="opacity: 1;"></path><path  d="M 1768 483 L 1557 684 C 1552.3333333333333 688.6666666666666 1547.3333333333333 692.6666666666666 1542 696 L 1400 788" id="v-2054" fill="none" style="cursor: auto; pointer-events: visiblepainted;"></path><g ><g id="v-2044"  label-idx="0" cursor="move" transform="matrix(1,0,0,1,1594.277099609375,635.0895385742188)" style="cursor: default; opacity: 1;"><rect joint-selector="rect" id="v-2048" fill="#ffffff" rx="3" ry="3" pointer-events="none" width="150.20619201660156" height="30.563678741455078" transform="matrix(1,0,0,1,-74,-15.3)"></rect><text joint-selector="text" id="v-2047" font-size="24px" xml:space="preserve" y="0.8em" fill="#444444" text-anchor="middle" pointer-events="none" font-family="Open Sans, Tahoma, Arial" font-weight="normal" transform="matrix(1,0,0,1,0,-10)"><tspan dy="0" >Imports from</tspan></text></g><g id="v-2045"  label-idx="1" cursor="move" transform="matrix(1,0,0,1,1594.277099609375,665.4895629882812)" style="cursor: default; opacity: 1;"><rect joint-selector="rect" id="v-2050" fill="#ffffff" rx="3" ry="3"  pointer-events="none" width="41.23942184448242" height="24.450942993164062" transform="matrix(1,0,0,1,-20.3,-12.2)" style="display: block;"></rect><text joint-selector="text" id="v-2049" font-size="16.799999999999997px" xml:space="preserve" y="0.8em" fill="#444444" text-anchor="middle" pointer-events="none"  font-family="Open Sans, Tahoma, Arial" font-weight="normal" transform="matrix(1,0,0,1,0,-7.3)" style="display: block;"><tspan dy="0" >[CSV]</tspan></text></g><g id="v-2046"  label-idx="2" cursor="move" transform="matrix(1,0,0,1,1584.277099609375,673.8895874023438)" style="cursor: default; opacity: 1;"><rect joint-selector="rect" id="v-2052" fill="#ffffff" rx="3" ry="3"  width="0" height="0" transform="matrix(1,0,0,1,0,0)" display="none"></rect><text joint-selector="text" id="v-2051" fill="#000000" font-size="14" text-anchor="middle" pointer-events="none"></text></g></g><g  display="none" style="display: none;"><g  transform="translate(1550, 691)" id="v-2107"><circle  idx="0" r="10"></circle><path  idx="0" d="M16,5.333c-7.732,0-14,4.701-14,10.5c0,1.982,0.741,3.833,2.016,5.414L2,25.667l5.613-1.441c2.339,1.317,5.237,2.107,8.387,2.107c7.732,0,14-4.701,14-10.5C30,10.034,23.732,5.333,16,5.333z" transform="translate(5, -33)"></path><path  idx="0" transform="scale(.8) translate(9.5, -37)" d="M24.778,21.419 19.276,15.917 24.777,10.415 21.949,7.585 16.447,13.087 10.945,7.585 8.117,10.415 13.618,15.917 8.116,21.419 10.946,24.248 16.447,18.746 21.948,24.248z"><title>Remove vertex.</title></path></g></g><g  id="v-2057" display="none"><g  id="v-2042"><path  end="source" d="M 26 0 L 0 13 L 26 26 z"></path></g><g  id="v-2043"><path  end="target" d="M 26 0 L 0 13 L 26 26 z"></path></g></g><g  id="v-2056" display="none"><g  id="v-2040" transform="translate(1739.0377472149498, 510.5896341696451) "><g  event="remove"><circle r="11"></circle><path transform="scale(.8) translate(-16, -16)" d="M24.778,21.419 19.276,15.917 24.777,10.415 21.949,7.585 16.447,13.087 10.945,7.585 8.117,10.415 13.618,15.917 8.116,21.419 10.946,24.248 16.447,18.746 21.948,24.248z"></path><title>Remove link.</title></g><g  event="link:options"><circle r="11" transform="translate(25)"></circle><path fill="white" transform="scale(.55) translate(29, -16)" d="M31.229,17.736c0.064-0.571,0.104-1.148,0.104-1.736s-0.04-1.166-0.104-1.737l-4.377-1.557c-0.218-0.716-0.504-1.401-0.851-2.05l1.993-4.192c-0.725-0.91-1.549-1.734-2.458-2.459l-4.193,1.994c-0.647-0.347-1.334-0.632-2.049-0.849l-1.558-4.378C17.165,0.708,16.588,0.667,16,0.667s-1.166,0.041-1.737,0.105L12.707,5.15c-0.716,0.217-1.401,0.502-2.05,0.849L6.464,4.005C5.554,4.73,4.73,5.554,4.005,6.464l1.994,4.192c-0.347,0.648-0.632,1.334-0.849,2.05l-4.378,1.557C0.708,14.834,0.667,15.412,0.667,16s0.041,1.165,0.105,1.736l4.378,1.558c0.217,0.715,0.502,1.401,0.849,2.049l-1.994,4.193c0.725,0.909,1.549,1.733,2.459,2.458l4.192-1.993c0.648,0.347,1.334,0.633,2.05,0.851l1.557,4.377c0.571,0.064,1.148,0.104,1.737,0.104c0.588,0,1.165-0.04,1.736-0.104l1.558-4.377c0.715-0.218,1.399-0.504,2.049-0.851l4.193,1.993c0.909-0.725,1.733-1.549,2.458-2.458l-1.993-4.193c0.347-0.647,0.633-1.334,0.851-2.049L31.229,17.736zM16,20.871c-2.69,0-4.872-2.182-4.872-4.871c0-2.69,2.182-4.872,4.872-4.872c2.689,0,4.871,2.182,4.871,4.872C20.871,18.689,18.689,20.871,16,20.871z"></path><title>Link options.</title></g></g></g></g><!--z-index:37--><g   id="j_134" ><path  stroke="#999999" d="M 2675 483 L 2675 783" id="v-2070" stroke-width="2" stroke-dasharray="8 8" fill="none" style="opacity: 1;"></path><path  fill="black" stroke="black" d="M 0 0 0 0" transform="matrix(6.123233995736766e-17,1,-1,6.123233995736766e-17,2675,483)"></path><path  fill="#999999" stroke="#999999" d="M 20 0 L 0 10 L 20 20 z" id="v-2072" transform="matrix(-1.8369701987210297e-16,-1,1,-1.8369701987210297e-16,2665.0000000000005,783)" style="opacity: 1;"></path><path  d="M 2675 483 L 2675 783" id="v-2071" fill="none" style="cursor: auto; pointer-events: visiblepainted;"></path><g ><g id="v-2061"  label-idx="0" cursor="move" transform="matrix(1,0,0,1,2675,619.5999755859375)" style="cursor: default; opacity: 1;"><rect joint-selector="rect" id="v-2065" fill="#ffffff" rx="3" ry="3" pointer-events="none" width="136.4800567626953" height="30.563678741455078" transform="matrix(1,0,0,1,-66.3,-15.3)"></rect><text joint-selector="text" id="v-2064" font-size="24px" xml:space="preserve" y="0.8em" fill="#999999" text-anchor="middle" pointer-events="none" font-family="Open Sans, Tahoma, Arial" font-weight="normal" transform="matrix(1,0,0,1,0,-10)"><tspan dy="0" >Connects to</tspan></text></g><g id="v-2062"  label-idx="1" cursor="move" transform="matrix(1,0,0,1,2675,650)" style="cursor: default; opacity: 1;"><rect joint-selector="rect" id="v-2067" fill="#ffffff" rx="3" ry="3"  pointer-events="none" width="42.47183609008789" height="24.450942993164062" transform="matrix(1,0,0,1,-20.9,-12.2)" style="display: block;"></rect><text joint-selector="text" id="v-2066" font-size="16.799999999999997px" xml:space="preserve" y="0.8em" fill="#999999" text-anchor="middle" pointer-events="none"  font-family="Open Sans, Tahoma, Arial" font-weight="normal" transform="matrix(1,0,0,1,0,-7.3)" style="display: block;"><tspan dy="0" >[SQL]</tspan></text></g><g id="v-2063"  label-idx="2" cursor="move" transform="matrix(1,0,0,1,2665,658.4000244140625)" style="cursor: default; opacity: 1;"><rect joint-selector="rect" id="v-2069" fill="#ffffff" rx="3" ry="3"  width="0" height="0" transform="matrix(1,0,0,1,0,0)" display="none"></rect><text joint-selector="text" id="v-2068" fill="#000000" font-size="14" text-anchor="middle" pointer-events="none"></text></g></g><g  display="none" style="display: none;"></g><g  id="v-2074" display="none"><g  id="v-2059"><path  end="source" d="M 26 0 L 0 13 L 26 26 z"></path></g><g  id="v-2060"><path  end="target" d="M 26 0 L 0 13 L 26 26 z"></path></g></g><g  id="v-2073" display="none"><g  id="v-2058" transform="translate(2675, 523) "><g  event="remove"><circle r="11"></circle><path transform="scale(.8) translate(-16, -16)" d="M24.778,21.419 19.276,15.917 24.777,10.415 21.949,7.585 16.447,13.087 10.945,7.585 8.117,10.415 13.618,15.917 8.116,21.419 10.946,24.248 16.447,18.746 21.948,24.248z"></path><title>Remove link.</title></g><g  event="link:options"><circle r="11" transform="translate(25)"></circle><path fill="white" transform="scale(.55) translate(29, -16)" d="M31.229,17.736c0.064-0.571,0.104-1.148,0.104-1.736s-0.04-1.166-0.104-1.737l-4.377-1.557c-0.218-0.716-0.504-1.401-0.851-2.05l1.993-4.192c-0.725-0.91-1.549-1.734-2.458-2.459l-4.193,1.994c-0.647-0.347-1.334-0.632-2.049-0.849l-1.558-4.378C17.165,0.708,16.588,0.667,16,0.667s-1.166,0.041-1.737,0.105L12.707,5.15c-0.716,0.217-1.401,0.502-2.05,0.849L6.464,4.005C5.554,4.73,4.73,5.554,4.005,6.464l1.994,4.192c-0.347,0.648-0.632,1.334-0.849,2.05l-4.378,1.557C0.708,14.834,0.667,15.412,0.667,16s0.041,1.165,0.105,1.736l4.378,1.558c0.217,0.715,0.502,1.401,0.849,2.049l-1.994,4.193c0.725,0.909,1.549,1.733,2.459,2.458l4.192-1.993c0.648,0.347,1.334,0.633,2.05,0.851l1.557,4.377c0.571,0.064,1.148,0.104,1.737,0.104c0.588,0,1.165-0.04,1.736-0.104l1.558-4.377c0.715-0.218,1.399-0.504,2.049-0.851l4.193,1.993c0.909-0.725,1.733-1.549,2.458-2.458l-1.993-4.193c0.347-0.647,0.633-1.334,0.851-2.049L31.229,17.736zM16,20.871c-2.69,0-4.872-2.182-4.872-4.871c0-2.69,2.182-4.872,4.872-4.872c2.689,0,4.871,2.182,4.871,4.872C20.871,18.689,18.689,20.871,16,20.871z"></path><title>Link options.</title></g></g></g></g><!--z-index:38--><g   id="j_135" ><path  stroke="#999999" d="M 3425 483 L 3425 783" id="v-2090" stroke-width="2" stroke-dasharray="8 8" fill="none" style="opacity: 1;"></path><path  fill="black" stroke="black" d="M 0 0 0 0" transform="matrix(6.123233995736766e-17,1,-1,6.123233995736766e-17,3425,483)"></path><path  fill="#999999" stroke="#999999" d="M 20 0 L 0 10 L 20 20 z" id="v-2092" transform="matrix(-1.8369701987210297e-16,-1,1,-1.8369701987210297e-16,3415.0000000000005,783)" style="opacity: 1;"></path><path  d="M 3425 483 L 3425 783" id="v-2091" fill="none" style="cursor: auto; pointer-events: visiblepainted;"></path><g ><g id="v-2081"  label-idx="0" cursor="move" transform="matrix(1,0,0,1,3425,619.5999755859375)" style="cursor: default; opacity: 1;"><rect joint-selector="rect" id="v-2085" fill="#ffffff" rx="3" ry="3" pointer-events="none" width="147.28805541992188" height="30.563678741455078" transform="matrix(1,0,0,1,-71.7,-15.3)"></rect><text joint-selector="text" id="v-2084" font-size="24px" xml:space="preserve" y="0.8em" fill="#999999" text-anchor="middle" pointer-events="none" font-family="Open Sans, Tahoma, Arial" font-weight="normal" transform="matrix(1,0,0,1,0,-10)"><tspan dy="0" >Provisions to</tspan></text></g><g id="v-2082"  label-idx="1" cursor="move" transform="matrix(1,0,0,1,3425,650)" style="cursor: default; opacity: 1;"><rect joint-selector="rect" id="v-2087" fill="#ffffff" rx="3" ry="3"  pointer-events="none" width="61.5367317199707" height="24.450942993164062" transform="matrix(1,0,0,1,-30.5,-12.2)" style="display: block;"></rect><text joint-selector="text" id="v-2086" font-size="16.799999999999997px" xml:space="preserve" y="0.8em" fill="#999999" text-anchor="middle" pointer-events="none"  font-family="Open Sans, Tahoma, Arial" font-weight="normal" transform="matrix(1,0,0,1,0,-7.3)" style="display: block;"><tspan dy="0" >[HTTPS]</tspan></text></g><g id="v-2083"  label-idx="2" cursor="move" transform="matrix(1,0,0,1,3415,658.4000244140625)" style="cursor: default; opacity: 1;"><rect joint-selector="rect" id="v-2089" fill="#ffffff" rx="3" ry="3"  width="0" height="0" transform="matrix(1,0,0,1,0,0)" display="none"></rect><text joint-selector="text" id="v-2088" fill="#000000" font-size="14" text-anchor="middle" pointer-events="none"></text></g></g><g  display="none" style="display: none;"></g><g  id="v-2094" display="none"><g  id="v-2079"><path  end="source" d="M 26 0 L 0 13 L 26 26 z"></path></g><g  id="v-2080"><path  end="target" d="M 26 0 L 0 13 L 26 26 z"></path></g></g><g  id="v-2093" display="none"><g  id="v-2078" transform="translate(3425, 523) "><g  event="remove"><circle r="11"></circle><path transform="scale(.8) translate(-16, -16)" d="M24.778,21.419 19.276,15.917 24.777,10.415 21.949,7.585 16.447,13.087 10.945,7.585 8.117,10.415 13.618,15.917 8.116,21.419 10.946,24.248 16.447,18.746 21.948,24.248z"></path><title>Remove link.</title></g><g  event="link:options"><circle r="11" transform="translate(25)"></circle><path fill="white" transform="scale(.55) translate(29, -16)" d="M31.229,17.736c0.064-0.571,0.104-1.148,0.104-1.736s-0.04-1.166-0.104-1.737l-4.377-1.557c-0.218-0.716-0.504-1.401-0.851-2.05l1.993-4.192c-0.725-0.91-1.549-1.734-2.458-2.459l-4.193,1.994c-0.647-0.347-1.334-0.632-2.049-0.849l-1.558-4.378C17.165,0.708,16.588,0.667,16,0.667s-1.166,0.041-1.737,0.105L12.707,5.15c-0.716,0.217-1.401,0.502-2.05,0.849L6.464,4.005C5.554,4.73,4.73,5.554,4.005,6.464l1.994,4.192c-0.347,0.648-0.632,1.334-0.849,2.05l-4.378,1.557C0.708,14.834,0.667,15.412,0.667,16s0.041,1.165,0.105,1.736l4.378,1.558c0.217,0.715,0.502,1.401,0.849,2.049l-1.994,4.193c0.725,0.909,1.549,1.733,2.459,2.458l4.192-1.993c0.648,0.347,1.334,0.633,2.05,0.851l1.557,4.377c0.571,0.064,1.148,0.104,1.737,0.104c0.588,0,1.165-0.04,1.736-0.104l1.558-4.377c0.715-0.218,1.399-0.504,2.049-0.851l4.193,1.993c0.909-0.725,1.733-1.549,2.458-2.458l-1.993-4.193c0.347-0.647,0.633-1.334,0.851-2.049L31.229,17.736zM16,20.871c-2.69,0-4.872-2.182-4.872-4.871c0-2.69,2.182-4.872,4.872-4.872c2.689,0,4.871,2.182,4.871,4.872C20.871,18.689,18.689,20.871,16,20.871z"></path><title>Link options.</title></g></g></g></g><!--z-index:39--><!--z-index:40--><!--z-index:41--><!--z-index:42--><!--z-index:43--><!--z-index:44--><!--z-index:45--><!--z-index:46--><!--z-index:47--><!--z-index:48--><!--z-index:49--><!--z-index:50--><!--z-index:51--><!--z-index:52--><!--z-index:53--><!--z-index:54--><!--z-index:55--><!--z-index:56--><!--z-index:57--><!--z-index:58--><!--z-index:59--><!--z-index:60--><!--z-index:61--><!--z-index:62--><!--z-index:63--><!--z-index:64--><!--z-index:65--><!--z-index:66--><!--z-index:67--><!--z-index:68--><!--z-index:69--><!--z-index:70--><!--z-index:71--><!--z-index:72--><!--z-index:73--><!--z-index:74--><!--z-index:75--><!--z-index:76--><!--z-index:77--><!--z-index:78--><!--z-index:79--><!--z-index:80--><!--z-index:81--><!--z-index:82--><!--z-index:83--><!--z-index:84--><!--z-index:85--><!--z-index:86--><!--z-index:87--><!--z-index:88--><!--z-index:89--><!--z-index:90--><!--z-index:91--><!--z-index:92--><!--z-index:93--><!--z-index:94--><!--z-index:95--><!--z-index:96--><!--z-index:97--><!--z-index:98--><!--z-index:99--><!--z-index:100--><!--z-index:101--><!--z-index:102--><!--z-index:103--><!--z-index:104--><!--z-index:105--><!--z-index:106--><!--z-index:107--><!--z-index:108--><!--z-index:109--><!--z-index:110--><!--z-index:111--><!--z-index:112--><!--z-index:113--><!--z-index:114--><!--z-index:115--><!--z-index:116--><!--z-index:117--><!--z-index:118--><!--z-index:119--><!--z-index:120--><!--z-index:121--><!--z-index:122--><!--z-index:123--><!--z-index:124--><!--z-index:125--><!--z-index:126--><!--z-index:127--><!--z-index:128--><!--z-index:129--><!--z-index:130--><!--z-index:131--><!--z-index:132--><!--z-index:133--><!--z-index:134--><!--z-index:135--><!--z-index:136--><!--z-index:137--><!--z-index:138--><!--z-index:139--><!--z-index:140--><!--z-index:141--><!--z-index:142--><!--z-index:143--><!--z-index:144--><!--z-index:145--><!--z-index:146--><!--z-index:147--><!--z-index:148--><!--z-index:149--><!--z-index:150--><!--z-index:151--><!--z-index:152--><!--z-index:153--><!--z-index:154--><!--z-index:155--><!--z-index:156--><!--z-index:157--><!--z-index:158--><!--z-index:159--><!--z-index:160--><!--z-index:161--><!--z-index:162--><!--z-index:163--><!--z-index:164--><!--z-index:165--><!--z-index:166--><!--z-index:167--><!--z-index:168--><!--z-index:169--><!--z-index:170--><!--z-index:171--><!--z-index:172--><!--z-index:173--></g><g ></g><g ></g><g ></g></g></svg>