<svg xmlns="http://www.w3.org/2000/svg" xmlns:xlink="http://www.w3.org/1999/xlink" version="1.1" viewBox="0 0 4600 2060" style="background: #0e1117"><defs joint-selector="defs"></defs><g joint-selector="layers"  transform="matrix(1,0,0,1,0,0)"><g ></g><g ><!--z-index:0--><!--z-index:1--><!--z-index:2--><!--z-index:3--><!--z-index:4--><!--z-index:5--><!--z-index:6--><!--z-index:7--><!--z-index:8--><!--z-index:9--><!--z-index:10--><!--z-index:11--><!--z-index:12--><!--z-index:13--><!--z-index:14--><!--z-index:15--><!--z-index:16--><!--z-index:17--><!--z-index:18--><!--z-index:19--><!--z-index:20--><g   id="j_23"  transform="translate(20,1956)"><g id="v-266"><text  id="v-267" font-size="24px" xml:space="preserve" y="0.8em" font-weight="normal" text-anchor="start" fill="#cccccc" pointer-events="none" display="block" font-family="Open Sans, Tahoma, Arial"><tspan dy="0"  display="block">Friday, February 20, 2026 at 4:37 PM Coordinated Universal Time</tspan></text></g></g><!--z-index:21--><g   id="j_22"  transform="translate(20,1922)"><g id="v-264"><text  id="v-265" font-size="24px" xml:space="preserve" y="0.8em" font-weight="normal" text-anchor="start" fill="#cccccc" pointer-events="none" display="block" font-family="Open Sans, Tahoma, Arial"><tspan dy="0"  display="block">System Context diagram for JIM</tspan></text></g></g><!--z-index:22--><g   id="j_21"  transform="translate(20,1876)"><g id="v-262"><text  id="v-263" font-size="36px" xml:space="preserve" y="0.8em" font-weight="normal" text-anchor="start" fill="#cccccc" pointer-events="none" display="block" font-family="Open Sans, Tahoma, Arial"><tspan dy="0"  display="block">System Context View: JIM</tspan></text></g></g><!--z-index:23--><g   id="j_24"  transform="translate(1375,143)" style=""><g  id="v-271" style="opacity: 1;"><rect  x="0" y="160" width="400" height="240" rx="70" id="v-273" stroke-width="2" pointer-events="visiblePainted" fill="#1a6fbf" stroke="#1764ac" stroke-dasharray=""></rect><circle  cx="200" cy="88.88888888888889" r="88.88888888888889" id="v-272" stroke-width="2" pointer-events="visiblePainted" fill="#1a6fbf" stroke="#1764ac" stroke-dasharray=""></circle><line  x1="80" y1="266.6666666666667" x2="80" y2="400" id="v-279" stroke="#1764ac" stroke-width="1" stroke-dasharray=""></line><line  x1="320" y1="266.6666666666667" x2="320" y2="400" id="v-280" stroke="#1764ac" stroke-width="1" stroke-dasharray=""></line><text  id="v-274" font-size="33.599999999999994px" xml:space="preserve" y="173.70000000000002" font-weight="bold" text-anchor="middle" pointer-events="visible" font-family="Open Sans, Tahoma, Arial" fill="#ffffff" dominant-baseline="hanging" transform="matrix(1,0,0,1,200,0)"><tspan dy="0" >Administrator</tspan></text><text  id="v-275" font-size="16.799999999999997px" xml:space="preserve" y="215.3" text-anchor="middle" font-family="Open Sans, Tahoma, Arial" fill="#ffffff" dominant-baseline="hanging" transform="matrix(1,0,0,1,200,0)" style="display: block;"><tspan dy="0" >[Person]</tspan></text><text  id="v-276" font-size="24px" xml:space="preserve" y="247.10000000000002" text-anchor="middle" font-family="Open Sans, Tahoma, Arial" fill="#ffffff" dominant-baseline="hanging" transform="matrix(1,0,0,1,200,0)" style="display: block;"><tspan dy="0" >Identity management</tspan><tspan dy="1.2em" x="0" >administrator who configures</tspan><tspan dy="1.2em" x="0" >connected systems, sync</tspan><tspan dy="1.2em" x="0" >rules, and monitors</tspan><tspan dy="1.2em" x="0" >synchronisation</tspan></text><g  id="v-277" font-weight="normal" text-anchor="middle" color="#ffffff" transform="matrix(1,0,0,1,197.5,368)" display="none"><g ></g><g ></g><g ></g><g ></g></g><image  id="v-278"></image></g></g><!--z-index:24--><g   id="j_25"  transform="translate(2075,143)" style=""><g  id="v-287" style="opacity: 1;"><rect  x="0" y="160" width="400" height="240" rx="70" id="v-289" stroke-width="2" pointer-events="visiblePainted" fill="#1a6fbf" stroke="#1764ac" stroke-dasharray=""></rect><circle  cx="200" cy="88.88888888888889" r="88.88888888888889" id="v-288" stroke-width="2" pointer-events="visiblePainted" fill="#1a6fbf" stroke="#1764ac" stroke-dasharray=""></circle><line  x1="80" y1="266.6666666666667" x2="80" y2="400" id="v-295" stroke="#1764ac" stroke-width="1" stroke-dasharray=""></line><line  x1="320" y1="266.6666666666667" x2="320" y2="400" id="v-296" stroke="#1764ac" stroke-width="1" stroke-dasharray=""></line><text  id="v-290" font-size="33.599999999999994px" xml:space="preserve" y="216.9" font-weight="bold" text-anchor="middle" pointer-events="visible" font-family="Open Sans, Tahoma, Arial" fill="#ffffff" dominant-baseline="hanging" transform="matrix(1,0,0,1,200,0)"><tspan dy="0" >Automation Client</tspan></text><text  id="v-291" font-size="16.799999999999997px" xml:space="preserve" y="258.5" text-anchor="middle" font-family="Open Sans, Tahoma, Arial" fill="#ffffff" dominant-baseline="hanging" transform="matrix(1,0,0,1,200,0)" style="display: block;"><tspan dy="0" >[Person]</tspan></text><text  id="v-292" font-size="24px" xml:space="preserve" y="290.3" text-anchor="middle" font-family="Open Sans, Tahoma, Arial" fill="#ffffff" dominant-baseline="hanging" transform="matrix(1,0,0,1,200,0)" style="display: block;"><tspan dy="0" >CI/CD pipelines and scripts</tspan><tspan dy="1.2em" x="0" >using API keys</tspan></text><g  id="v-293" font-weight="normal" text-anchor="middle" color="#ffffff" transform="matrix(1,0,0,1,197.5,368)" display="none"><g ></g><g ></g><g ></g><g ></g></g><image  id="v-294"></image></g></g><!--z-index:25--><g   id="j_26"  transform="translate(200,1443)" style=""><g  id="v-303" style="opacity: 1;"><rect  id="v-304" rx="20" ry="20" stroke-width="2" pointer-events="visiblePainted" fill="#777777" stroke="#6b6b6b" stroke-dasharray="" width="450" height="300"></rect><text  id="v-305" font-size="33.599999999999994px" xml:space="preserve" y="86.9" font-weight="bold" text-anchor="middle" pointer-events="visible" font-family="Open Sans, Tahoma, Arial" fill="#ffffff" dominant-baseline="hanging" transform="matrix(1,0,0,1,225,0)"><tspan dy="0" >Identity Provider</tspan></text><text  id="v-306" font-size="16.799999999999997px" xml:space="preserve" y="128.5" text-anchor="middle" font-family="Open Sans, Tahoma, Arial" fill="#ffffff" dominant-baseline="hanging" transform="matrix(1,0,0,1,225,0)" style="display: block;"><tspan dy="0" >[Software System]</tspan></text><text  id="v-307" font-size="24px" xml:space="preserve" y="160.3" text-anchor="middle" font-family="Open Sans, Tahoma, Arial" fill="#ffffff" dominant-baseline="hanging" transform="matrix(1,0,0,1,225,0)" style="display: block;"><tspan dy="0" >OIDC/SSO provider (Keycloak,</tspan><tspan dy="1.2em" x="0" >Entra ID, Auth0, AD FS)</tspan></text><g  id="v-308" color="#ffffff" transform="matrix(1,0,0,1,222.5,268)" display="none"><g ></g><g ></g><g ></g><g ></g></g><image  id="v-309"></image></g></g><!--z-index:26--><g   id="j_27"  transform="translate(950,1443)" style=""><g  id="v-316" style="opacity: 1;"><rect  id="v-317" rx="20" ry="20" stroke-width="2" pointer-events="visiblePainted" fill="#777777" stroke="#6b6b6b" stroke-dasharray="" width="450" height="300"></rect><text  id="v-318" font-size="33.599999999999994px" xml:space="preserve" y="86.9" font-weight="bold" text-anchor="middle" pointer-events="visible" font-family="Open Sans, Tahoma, Arial" fill="#ffffff" dominant-baseline="hanging" transform="matrix(1,0,0,1,225,0)"><tspan dy="0" >Active Directory / LDAP</tspan></text><text  id="v-319" font-size="16.799999999999997px" xml:space="preserve" y="128.5" text-anchor="middle" font-family="Open Sans, Tahoma, Arial" fill="#ffffff" dominant-baseline="hanging" transform="matrix(1,0,0,1,225,0)" style="display: block;"><tspan dy="0" >[Software System]</tspan></text><text  id="v-320" font-size="24px" xml:space="preserve" y="160.3" text-anchor="middle" font-family="Open Sans, Tahoma, Arial" fill="#ffffff" dominant-baseline="hanging" transform="matrix(1,0,0,1,225,0)" style="display: block;"><tspan dy="0" >Enterprise directory services for</tspan><tspan dy="1.2em" x="0" >users and groups</tspan></text><g  id="v-321" color="#ffffff" transform="matrix(1,0,0,1,222.5,268)" display="none"><g ></g><g ></g><g ></g><g ></g></g><image  id="v-322"></image></g></g><!--z-index:27--><g   id="j_28"  transform="translate(1700,1443)" style=""><g  id="v-326" style="opacity: 1;"><rect  id="v-327" rx="20" ry="20" stroke-width="2" pointer-events="visiblePainted" fill="#777777" stroke="#6b6b6b" stroke-dasharray="" width="450" height="300"></rect><text  id="v-328" font-size="33.599999999999994px" xml:space="preserve" y="86.9" font-weight="bold" text-anchor="middle" pointer-events="visible" font-family="Open Sans, Tahoma, Arial" fill="#ffffff" dominant-baseline="hanging" transform="matrix(1,0,0,1,225,0)"><tspan dy="0" >HR Systems</tspan></text><text  id="v-329" font-size="16.799999999999997px" xml:space="preserve" y="128.5" text-anchor="middle" font-family="Open Sans, Tahoma, Arial" fill="#ffffff" dominant-baseline="hanging" transform="matrix(1,0,0,1,225,0)" style="display: block;"><tspan dy="0" >[Software System]</tspan></text><text  id="v-330" font-size="24px" xml:space="preserve" y="160.3" text-anchor="middle" font-family="Open Sans, Tahoma, Arial" fill="#ffffff" dominant-baseline="hanging" transform="matrix(1,0,0,1,225,0)" style="display: block;"><tspan dy="0" >Authoritative source for employee</tspan><tspan dy="1.2em" x="0" >identity data</tspan></text><g  id="v-331" color="#ffffff" transform="matrix(1,0,0,1,222.5,268)" display="none"><g ></g><g ></g><g ></g><g ></g></g><image  id="v-332"></image></g></g><!--z-index:28--><g   id="j_29"  transform="translate(2450,1443)" style=""><g  id="v-336" style="opacity: 1;"><rect  id="v-337" rx="20" ry="20" stroke-width="2" pointer-events="visiblePainted" fill="#777777" stroke="#6b6b6b" stroke-dasharray="" width="450" height="300"></rect><text  id="v-338" font-size="33.599999999999994px" xml:space="preserve" y="101.30000000000001" font-weight="bold" text-anchor="middle" pointer-events="visible" font-family="Open Sans, Tahoma, Arial" fill="#ffffff" dominant-baseline="hanging" transform="matrix(1,0,0,1,225,0)"><tspan dy="0" >File Systems</tspan></text><text  id="v-339" font-size="16.799999999999997px" xml:space="preserve" y="142.9" text-anchor="middle" font-family="Open Sans, Tahoma, Arial" fill="#ffffff" dominant-baseline="hanging" transform="matrix(1,0,0,1,225,0)" style="display: block;"><tspan dy="0" >[Software System]</tspan></text><text  id="v-340" font-size="24px" xml:space="preserve" y="174.7" text-anchor="middle" font-family="Open Sans, Tahoma, Arial" fill="#ffffff" dominant-baseline="hanging" transform="matrix(1,0,0,1,225,0)" style="display: block;"><tspan dy="0" >CSV file-based bulk import/export</tspan></text><g  id="v-341" color="#ffffff" transform="matrix(1,0,0,1,222.5,268)" display="none"><g ></g><g ></g><g ></g><g ></g></g><image  id="v-342"></image></g></g><!--z-index:29--><g   id="j_30"  transform="translate(3200,1443)" style=""><g  id="v-349" style="opacity: 1;"><rect  id="v-350" rx="20" ry="20" stroke-width="2" pointer-events="visiblePainted" fill="#1a1a1a" stroke="#171717" stroke-dasharray="8,8" width="450" height="300"></rect><text  id="v-351" font-size="33.599999999999994px" xml:space="preserve" y="86.9" font-weight="bold" text-anchor="middle" pointer-events="visible" font-family="Open Sans, Tahoma, Arial" fill="#4d4d4d" dominant-baseline="hanging" transform="matrix(1,0,0,1,225,0)"><tspan dy="0" >Enterprise Databases</tspan></text><text  id="v-352" font-size="16.799999999999997px" xml:space="preserve" y="128.5" text-anchor="middle" font-family="Open Sans, Tahoma, Arial" fill="#4d4d4d" dominant-baseline="hanging" transform="matrix(1,0,0,1,225,0)" style="display: block;"><tspan dy="0" >[Software System]</tspan></text><text  id="v-353" font-size="24px" xml:space="preserve" y="160.3" text-anchor="middle" font-family="Open Sans, Tahoma, Arial" fill="#4d4d4d" dominant-baseline="hanging" transform="matrix(1,0,0,1,225,0)" style="display: block;"><tspan dy="0" >PostgreSQL, MySQL, Oracle, SQL</tspan><tspan dy="1.2em" x="0" >Server with identity data</tspan></text><g  id="v-354" color="#4d4d4d" transform="matrix(1,0,0,1,222.5,268)" display="none"><g ></g><g ></g><g ></g><g ></g></g><image  id="v-355"></image></g></g><!--z-index:30--><g   id="j_31"  transform="translate(3950,1443)" style=""><g  id="v-362" style="opacity: 1;"><rect  id="v-363" rx="20" ry="20" stroke-width="2" pointer-events="visiblePainted" fill="#1a1a1a" stroke="#171717" stroke-dasharray="8,8" width="450" height="300"></rect><text  id="v-364" font-size="33.599999999999994px" xml:space="preserve" y="86.9" font-weight="bold" text-anchor="middle" pointer-events="visible" font-family="Open Sans, Tahoma, Arial" fill="#4d4d4d" dominant-baseline="hanging" transform="matrix(1,0,0,1,225,0)"><tspan dy="0" >SCIM 2.0 Systems</tspan></text><text  id="v-365" font-size="16.799999999999997px" xml:space="preserve" y="128.5" text-anchor="middle" font-family="Open Sans, Tahoma, Arial" fill="#4d4d4d" dominant-baseline="hanging" transform="matrix(1,0,0,1,225,0)" style="display: block;"><tspan dy="0" >[Software System]</tspan></text><text  id="v-366" font-size="24px" xml:space="preserve" y="160.3" text-anchor="middle" font-family="Open Sans, Tahoma, Arial" fill="#4d4d4d" dominant-baseline="hanging" transform="matrix(1,0,0,1,225,0)" style="display: block;"><tspan dy="0" >Cloud applications supporting</tspan><tspan dy="1.2em" x="0" >SCIM provisioning</tspan></text><g  id="v-367" color="#4d4d4d" transform="matrix(1,0,0,1,222.5,268)" display="none"><g ></g><g ></g><g ></g><g ></g></g><image  id="v-368"></image></g></g><!--z-index:31--><g   id="j_32"  transform="translate(1700,843)" style=""><g  id="v-372" style="opacity: 1;"><rect  id="v-373" rx="20" ry="20" stroke-width="2" pointer-events="visiblePainted" fill="#2b8ee6" stroke="#2780cf" stroke-dasharray="" width="450" height="300"></rect><text  id="v-374" font-size="33.599999999999994px" xml:space="preserve" y="29.30000000000001" font-weight="bold" text-anchor="middle" pointer-events="visible" font-family="Open Sans, Tahoma, Arial" fill="#ffffff" dominant-baseline="hanging" transform="matrix(1,0,0,1,225,0)"><tspan dy="0" >JIM</tspan></text><text  id="v-375" font-size="16.799999999999997px" xml:space="preserve" y="70.9" text-anchor="middle" font-family="Open Sans, Tahoma, Arial" fill="#ffffff" dominant-baseline="hanging" transform="matrix(1,0,0,1,225,0)" style="display: block;"><tspan dy="0" >[Software System]</tspan></text><text  id="v-376" font-size="24px" xml:space="preserve" y="102.7" text-anchor="middle" font-family="Open Sans, Tahoma, Arial" fill="#ffffff" dominant-baseline="hanging" transform="matrix(1,0,0,1,225,0)" style="display: block;"><tspan dy="0" >Central identity hub implementing</tspan><tspan dy="1.2em" x="0" >the metaverse pattern.</tspan><tspan dy="1.2em" x="0" >Synchronises identities across</tspan><tspan dy="1.2em" x="0" >enterprise systems with</tspan><tspan dy="1.2em" x="0" >bidirectional data flow and</tspan><tspan dy="1.2em" x="0" >transformation</tspan></text><g  id="v-377" color="#ffffff" transform="matrix(1,0,0,1,185,268)" display="none"><g  transform="translate(5 0)"><svg xmlns="http://www.w3.org/2000/svg" width="20" height="20" fill="currentColor" viewBox="0 0 16 16"><path fill-rule="evenodd" d="M6.5 12a5.5 5.5 0 1 0 0-11 5.5 5.5 0 0 0 0 11zM13 6.5a6.5 6.5 0 1 1-13 0 6.5 6.5 0 0 1 13 0z"></path><path d="M10.344 11.742c.03.04.062.078.098.115l3.85 3.85a1 1 0 0 0 1.415-1.414l-3.85-3.85a1.007 1.007 0 0 0-.115-.1 6.538 6.538 0 0 1-1.398 1.4z"></path><path fill-rule="evenodd" d="M6.5 3a.5.5 0 0 1 .5.5V6h2.5a.5.5 0 0 1 0 1H7v2.5a.5.5 0 0 1-1 0V7H3.5a.5.5 0 0 1 0-1H6V3.5a.5.5 0 0 1 .5-.5z"></path></svg></g><g  transform="translate(30 0)"><svg xmlns="http://www.w3.org/2000/svg" width="20" height="20" fill="currentColor" viewBox="0 0 16 16"><path d="M1 2.828c.885-.37 2.154-.769 3.388-.893 1.33-.134 2.458.063 3.112.752v9.746c-.935-.53-2.12-.603-3.213-.493-1.18.12-2.37.461-3.287.811V2.828zm7.5-.141c.654-.689 1.782-.886 3.112-.752 1.234.124 2.503.523 3.388.893v9.923c-.918-.35-2.107-.692-3.287-.81-1.094-.111-2.278-.039-3.213.492V2.687zM8 1.783C7.015.936 5.587.81 4.287.94c-1.514.153-3.042.672-3.994 1.105A.5.5 0 0 0 0 2.5v11a.5.5 0 0 0 .707.455c.882-.4 2.303-.881 3.68-1.02 1.409-.142 2.59.087 3.223.877a.5.5 0 0 0 .78 0c.633-.79 1.814-1.019 3.222-.877 1.378.139 2.8.62 3.681 1.02A.5.5 0 0 0 16 13.5v-11a.5.5 0 0 0-.293-.455c-.952-.433-2.48-.952-3.994-1.105C10.413.809 8.985.936 8 1.783z"></path></svg></g><g  transform="translate(55 0)"><svg xmlns="http://www.w3.org/2000/svg" width="20" height="20" fill="currentColor" viewBox="0 0 16 16"><path d="M5 10.5a.5.5 0 0 1 .5-.5h2a.5.5 0 0 1 0 1h-2a.5.5 0 0 1-.5-.5zm0-2a.5.5 0 0 1 .5-.5h5a.5.5 0 0 1 0 1h-5a.5.5 0 0 1-.5-.5zm0-2a.5.5 0 0 1 .5-.5h5a.5.5 0 0 1 0 1h-5a.5.5 0 0 1-.5-.5zm0-2a.5.5 0 0 1 .5-.5h5a.5.5 0 0 1 0 1h-5a.5.5 0 0 1-.5-.5z"></path><path d="M3 0h10a2 2 0 0 1 2 2v12a2 2 0 0 1-2 2H3a2 2 0 0 1-2-2v-1h1v1a1 1 0 0 0 1 1h10a1 1 0 0 0 1-1V2a1 1 0 0 0-1-1H3a1 1 0 0 0-1 1v1H1V2a2 2 0 0 1 2-2z"></path><path d="M1 5v-.5a.5.5 0 0 1 1 0V5h.5a.5.5 0 0 1 0 1h-2a.5.5 0 0 1 0-1H1zm0 3v-.5a.5.5 0 0 1 1 0V8h.5a.5.5 0 0 1 0 1h-2a.5.5 0 0 1 0-1H1zm0 3v-.5a.5.5 0 0 1 1 0v.5h.5a.5.5 0 0 1 0 1h-2a.5.5 0 0 1 0-1H1z"></path></svg></g><g ></g></g><image  id="v-378"></image></g></g><!--z-index:32--><g   id="j_33" ><path  stroke="#cccccc" d="M 1683 543 L 1844 843" id="v-394" stroke-width="2" stroke-dasharray="" fill="none" style="opacity: 1;"></path><path  fill="black" stroke="black" d="M 0 0 0 0" transform="matrix(0.47410332155505014,0.8804692160947302,-0.8804692160947302,0.47410332155505014,1682.68994140625,543)"></path><path  fill="#cccccc" stroke="#cccccc" d="M 20 0 L 0 10 L 20 20 z" id="v-396" transform="matrix(-0.4741032629342655,-0.8804692476600661,0.8804692476600661,-0.4741032629342655,1835.425353824617,847.7410376059433)" style="opacity: 1;"></path><path  d="M 1683 543 L 1844 843" id="v-395" fill="none" style="cursor: auto; pointer-events: visiblepainted;"></path><g ><g id="v-385"  label-idx="0" cursor="move" transform="matrix(1,0,0,1,1763.5,669.52001953125)" style="cursor: default; opacity: 1;"><rect joint-selector="rect" id="v-389" fill="#0e1117" rx="3" ry="3" pointer-events="none" width="138.58413696289062" height="34.621337890625" transform="matrix(1,0,0,1,-69,-17.3)"></rect><text joint-selector="text" id="v-388" font-size="24px" xml:space="preserve" y="0.8em" fill="#cccccc" text-anchor="middle" pointer-events="none" font-family="Open Sans, Tahoma, Arial" font-weight="normal" transform="matrix(1,0,0,1,0,-8.8)"><tspan dy="0" >Manages via</tspan></text></g><g id="v-386"  label-idx="1" cursor="move" transform="matrix(1,0,0,1,1763.5,710)" style="cursor: default; opacity: 1;"><rect joint-selector="rect" id="v-391" fill="#0e1117" rx="3" ry="3"  pointer-events="none" width="121.63491821289062" height="47.85707092285156" transform="matrix(1,0,0,1,-59.6,-23.9)" style="display: block;"></rect><text joint-selector="text" id="v-390" font-size="16.799999999999997px" xml:space="preserve" y="0.8em" fill="#cccccc" text-anchor="middle" pointer-events="none"  font-family="Open Sans, Tahoma, Arial" font-weight="normal" transform="matrix(1,0,0,1,0,-16.6)" style="display: block;"><tspan dy="0" >[Blazor Web UI,</tspan><tspan dy="1.2em" x="0" >PowerShell]</tspan></text></g><g id="v-387"  label-idx="2" cursor="move" transform="matrix(1,0,0,1,1753.5,728.47998046875)" style="cursor: default; opacity: 1;"><rect joint-selector="rect" id="v-393" fill="#ffffff" rx="3" ry="3"  width="0" height="0" transform="matrix(1,0,0,1,0,0)" display="none"></rect><text joint-selector="text" id="v-392" fill="#000000" font-size="14" text-anchor="middle" pointer-events="none"></text></g></g><g  display="none" style="display: none;"></g><g  id="v-398" display="none"><g  id="v-383"><path  end="source" d="M 26 0 L 0 13 L 26 26 z"></path></g><g  id="v-384"><path  end="target" d="M 26 0 L 0 13 L 26 26 z"></path></g></g><g  id="v-397" display="none"><g  id="v-382" transform="translate(1701.914933026174, 578.2452168189578) "><g  event="remove"><circle r="11"></circle><path transform="scale(.8) translate(-16, -16)" d="M24.778,21.419 19.276,15.917 24.777,10.415 21.949,7.585 16.447,13.087 10.945,7.585 8.117,10.415 13.618,15.917 8.116,21.419 10.946,24.248 16.447,18.746 21.948,24.248z"></path><title>Remove link.</title></g><g  event="link:options"><circle r="11" transform="translate(25)"></circle><path fill="white" transform="scale(.55) translate(29, -16)" d="M31.229,17.736c0.064-0.571,0.104-1.148,0.104-1.736s-0.04-1.166-0.104-1.737l-4.377-1.557c-0.218-0.716-0.504-1.401-0.851-2.05l1.993-4.192c-0.725-0.91-1.549-1.734-2.458-2.459l-4.193,1.994c-0.647-0.347-1.334-0.632-2.049-0.849l-1.558-4.378C17.165,0.708,16.588,0.667,16,0.667s-1.166,0.041-1.737,0.105L12.707,5.15c-0.716,0.217-1.401,0.502-2.05,0.849L6.464,4.005C5.554,4.73,4.73,5.554,4.005,6.464l1.994,4.192c-0.347,0.648-0.632,1.334-0.849,2.05l-4.378,1.557C0.708,14.834,0.667,15.412,0.667,16s0.041,1.165,0.105,1.736l4.378,1.558c0.217,0.715,0.502,1.401,0.849,2.049l-1.994,4.193c0.725,0.909,1.549,1.733,2.459,2.458l4.192-1.993c0.648,0.347,1.334,0.633,2.05,0.851l1.557,4.377c0.571,0.064,1.148,0.104,1.737,0.104c0.588,0,1.165-0.04,1.736-0.104l1.558-4.377c0.715-0.218,1.399-0.504,2.049-0.851l4.193,1.993c0.909-0.725,1.733-1.549,2.458-2.458l-1.993-4.193c0.347-0.647,0.633-1.334,0.851-2.049L31.229,17.736zM16,20.871c-2.69,0-4.872-2.182-4.872-4.871c0-2.69,2.182-4.872,4.872-4.872c2.689,0,4.871,2.182,4.871,4.872C20.871,18.689,18.689,20.871,16,20.871z"></path><title>Link options.</title></g></g></g></g><!--z-index:33--><g   id="j_34" ><path  stroke="#cccccc" d="M 2167 543 L 2006 843" id="v-417" stroke-width="2" stroke-dasharray="" fill="none" style="opacity: 1;"></path><path  fill="black" stroke="black" d="M 0 0 0 0" transform="matrix(-0.47410338017583303,0.8804691845293903,-0.8804691845293903,-0.47410338017583303,2167.31005859375,543)"></path><path  fill="#cccccc" stroke="#cccccc" d="M 20 0 L 0 10 L 20 20 z" id="v-419" transform="matrix(0.4741034974173923,-0.8804691213986988,0.8804691213986988,0.4741034974173923,1996.9652601399641,838.2589687398131)" style="opacity: 1;"></path><path  d="M 2167 543 L 2006 843" id="v-418" fill="none" style="cursor: auto; pointer-events: visiblepainted;"></path><g ><g id="v-408"  label-idx="0" cursor="move" transform="matrix(1,0,0,1,2086.5,679.5999755859375)" style="cursor: default; opacity: 1;"><rect joint-selector="rect" id="v-412" fill="#0e1117" rx="3" ry="3" pointer-events="none" width="159.49407958984375" height="34.621337890625" transform="matrix(1,0,0,1,-79.5,-17.3)"></rect><text joint-selector="text" id="v-411" font-size="24px" xml:space="preserve" y="0.8em" fill="#cccccc" text-anchor="middle" pointer-events="none" font-family="Open Sans, Tahoma, Arial" font-weight="normal" transform="matrix(1,0,0,1,0,-8.8)"><tspan dy="0" >Automates via</tspan></text></g><g id="v-409"  label-idx="1" cursor="move" transform="matrix(1,0,0,1,2086.5,710)" style="cursor: default; opacity: 1;"><rect joint-selector="rect" id="v-414" fill="#0e1117" rx="3" ry="3"  pointer-events="none" width="174.6540069580078" height="27.69706916809082" transform="matrix(1,0,0,1,-86.6,-13.8)" style="display: block;"></rect><text joint-selector="text" id="v-413" font-size="16.799999999999997px" xml:space="preserve" y="0.8em" fill="#cccccc" text-anchor="middle" pointer-events="none"  font-family="Open Sans, Tahoma, Arial" font-weight="normal" transform="matrix(1,0,0,1,0,-6.5)" style="display: block;"><tspan dy="0" >[REST API, PowerShell]</tspan></text></g><g id="v-410"  label-idx="2" cursor="move" transform="matrix(1,0,0,1,2076.5,718.4000244140625)" style="cursor: default; opacity: 1;"><rect joint-selector="rect" id="v-416" fill="#ffffff" rx="3" ry="3"  width="0" height="0" transform="matrix(1,0,0,1,0,0)" display="none"></rect><text joint-selector="text" id="v-415" fill="#000000" font-size="14" text-anchor="middle" pointer-events="none"></text></g></g><g  display="none" style="display: none;"></g><g  id="v-421" display="none"><g  id="v-406"><path  end="source" d="M 26 0 L 0 13 L 26 26 z"></path></g><g  id="v-407"><path  end="target" d="M 26 0 L 0 13 L 26 26 z"></path></g></g><g  id="v-420" display="none"><g  id="v-405" transform="translate(2148.0850669738256, 578.2452168189578) "><g  event="remove"><circle r="11"></circle><path transform="scale(.8) translate(-16, -16)" d="M24.778,21.419 19.276,15.917 24.777,10.415 21.949,7.585 16.447,13.087 10.945,7.585 8.117,10.415 13.618,15.917 8.116,21.419 10.946,24.248 16.447,18.746 21.948,24.248z"></path><title>Remove link.</title></g><g  event="link:options"><circle r="11" transform="translate(25)"></circle><path fill="white" transform="scale(.55) translate(29, -16)" d="M31.229,17.736c0.064-0.571,0.104-1.148,0.104-1.736s-0.04-1.166-0.104-1.737l-4.377-1.557c-0.218-0.716-0.504-1.401-0.851-2.05l1.993-4.192c-0.725-0.91-1.549-1.734-2.458-2.459l-4.193,1.994c-0.647-0.347-1.334-0.632-2.049-0.849l-1.558-4.378C17.165,0.708,16.588,0.667,16,0.667s-1.166,0.041-1.737,0.105L12.707,5.15c-0.716,0.217-1.401,0.502-2.05,0.849L6.464,4.005C5.554,4.73,4.73,5.554,4.005,6.464l1.994,4.192c-0.347,0.648-0.632,1.334-0.849,2.05l-4.378,1.557C0.708,14.834,0.667,15.412,0.667,16s0.041,1.165,0.105,1.736l4.378,1.558c0.217,0.715,0.502,1.401,0.849,2.049l-1.994,4.193c0.725,0.909,1.549,1.733,2.459,2.458l4.192-1.993c0.648,0.347,1.334,0.633,2.05,0.851l1.557,4.377c0.571,0.064,1.148,0.104,1.737,0.104c0.588,0,1.165-0.04,1.736-0.104l1.558-4.377c0.715-0.218,1.399-0.504,2.049-0.851l4.193,1.993c0.909-0.725,1.733-1.549,2.458-2.458l-1.993-4.193c0.347-0.647,0.633-1.334,0.851-2.049L31.229,17.736zM16,20.871c-2.69,0-4.872-2.182-4.872-4.871c0-2.69,2.182-4.872,4.872-4.872c2.689,0,4.871,2.182,4.871,4.872C20.871,18.689,18.689,20.871,16,20.871z"></path><title>Link options.</title></g></g></g></g><!--z-index:34--><g   id="j_35" ><path  stroke="#cccccc" d="M 650 1548 L 1221 1434 C 1227.4724009687436 1432.847669088526 1233.4724009687436 1430.5143357551924 1239 1427 L 1700 1135" id="v-440" stroke-width="2" stroke-dasharray="" fill="none" style="opacity: 1;"></path><path  fill="black" stroke="black" d="M 0 0 0 0" transform="matrix(0.9806758116577612,-0.19563985388818725,0.19563985388818725,0.9806758116577612,650,1548.1199951171875)"></path><path  fill="#cccccc" stroke="#cccccc" d="M 20 0 L 0 10 L 20 20 z" id="v-442" transform="matrix(-0.8450683546668283,0.5346582795961359,-0.5346582795961359,-0.8450683546668283,1705.3465827488797,1143.810643719457)" style="opacity: 1;"></path><path  d="M 650 1548 L 1221 1434 C 1227.4724009687436 1432.847669088526 1233.4724009687436 1430.5143357551924 1239 1427 L 1700 1135" id="v-441" fill="none" style="cursor: auto; pointer-events: visiblepainted;"></path><g ><g id="v-431"  label-idx="0" cursor="move" transform="matrix(1,0,0,1,1212.597900390625,1422.2774658203125)" style="cursor: default; opacity: 1;"><rect joint-selector="rect" id="v-435" fill="#0e1117" rx="3" ry="3" pointer-events="none" width="156.155029296875" height="34.621337890625" transform="matrix(1,0,0,1,-76.9,-17.3)"></rect><text joint-selector="text" id="v-434" font-size="24px" xml:space="preserve" y="0.8em" fill="#cccccc" text-anchor="middle" pointer-events="none" font-family="Open Sans, Tahoma, Arial" font-weight="normal" transform="matrix(1,0,0,1,0,-8.8)"><tspan dy="0" >Authenticates</tspan></text></g><g id="v-432"  label-idx="1" cursor="move" transform="matrix(1,0,0,1,1212.597900390625,1452.677490234375)" style="cursor: default; opacity: 1;"><rect joint-selector="rect" id="v-437" fill="#0e1117" rx="3" ry="3"  pointer-events="none" width="186.71083068847656" height="27.69706916809082" transform="matrix(1,0,0,1,-92.7,-13.8)" style="display: block;"></rect><text joint-selector="text" id="v-436" font-size="16.799999999999997px" xml:space="preserve" y="0.8em" fill="#cccccc" text-anchor="middle" pointer-events="none"  font-family="Open Sans, Tahoma, Arial" font-weight="normal" transform="matrix(1,0,0,1,0,-6.5)" style="display: block;"><tspan dy="0" >[OIDC/OpenID Connect]</tspan></text></g><g id="v-433"  label-idx="2" cursor="move" transform="matrix(1,0,0,1,1202.597900390625,1461.0775146484375)" style="cursor: default; opacity: 1;"><rect joint-selector="rect" id="v-439" fill="#ffffff" rx="3" ry="3"  width="0" height="0" transform="matrix(1,0,0,1,0,0)" display="none"></rect><text joint-selector="text" id="v-438" fill="#000000" font-size="14" text-anchor="middle" pointer-events="none"></text></g></g><g  display="none" style="display: none;"><g  transform="translate(1230.7086014531155, 1432.2715036327888)" id="v-574"><circle  idx="0" r="10"></circle><path  idx="0" d="M16,5.333c-7.732,0-14,4.701-14,10.5c0,1.982,0.741,3.833,2.016,5.414L2,25.667l5.613-1.441c2.339,1.317,5.237,2.107,8.387,2.107c7.732,0,14-4.701,14-10.5C30,10.034,23.732,5.333,16,5.333z" transform="translate(5, -33)"></path><path  idx="0" transform="scale(.8) translate(9.5, -37)" d="M24.778,21.419 19.276,15.917 24.777,10.415 21.949,7.585 16.447,13.087 10.945,7.585 8.117,10.415 13.618,15.917 8.116,21.419 10.946,24.248 16.447,18.746 21.948,24.248z"><title>Remove vertex.</title></path></g></g><g  id="v-444" display="none"><g  id="v-429"><path  end="source" d="M 26 0 L 0 13 L 26 26 z"></path></g><g  id="v-430"><path  end="target" d="M 26 0 L 0 13 L 26 26 z"></path></g></g><g  id="v-443" display="none"><g  id="v-428" transform="translate(689.2258669870507, 1540.1685659605537) "><g  event="remove"><circle r="11"></circle><path transform="scale(.8) translate(-16, -16)" d="M24.778,21.419 19.276,15.917 24.777,10.415 21.949,7.585 16.447,13.087 10.945,7.585 8.117,10.415 13.618,15.917 8.116,21.419 10.946,24.248 16.447,18.746 21.948,24.248z"></path><title>Remove link.</title></g><g  event="link:options"><circle r="11" transform="translate(25)"></circle><path fill="white" transform="scale(.55) translate(29, -16)" d="M31.229,17.736c0.064-0.571,0.104-1.148,0.104-1.736s-0.04-1.166-0.104-1.737l-4.377-1.557c-0.218-0.716-0.504-1.401-0.851-2.05l1.993-4.192c-0.725-0.91-1.549-1.734-2.458-2.459l-4.193,1.994c-0.647-0.347-1.334-0.632-2.049-0.849l-1.558-4.378C17.165,0.708,16.588,0.667,16,0.667s-1.166,0.041-1.737,0.105L12.707,5.15c-0.716,0.217-1.401,0.502-2.05,0.849L6.464,4.005C5.554,4.73,4.73,5.554,4.005,6.464l1.994,4.192c-0.347,0.648-0.632,1.334-0.849,2.05l-4.378,1.557C0.708,14.834,0.667,15.412,0.667,16s0.041,1.165,0.105,1.736l4.378,1.558c0.217,0.715,0.502,1.401,0.849,2.049l-1.994,4.193c0.725,0.909,1.549,1.733,2.459,2.458l4.192-1.993c0.648,0.347,1.334,0.633,2.05,0.851l1.557,4.377c0.571,0.064,1.148,0.104,1.737,0.104c0.588,0,1.165-0.04,1.736-0.104l1.558-4.377c0.715-0.218,1.399-0.504,2.049-0.851l4.193,1.993c0.909-0.725,1.733-1.549,2.458-2.458l-1.993-4.193c0.347-0.647,0.633-1.334,0.851-2.049L31.229,17.736zM16,20.871c-2.69,0-4.872-2.182-4.872-4.871c0-2.69,2.182-4.872,4.872-4.872c2.689,0,4.871,2.182,4.871,4.872C20.871,18.689,18.689,20.871,16,20.871z"></path><title>Link options.</title></g></g></g></g><!--z-index:35--><g   id="j_36" ><path  stroke="#cccccc" d="M 1738 1143 L 1363 1443" id="v-460" stroke-width="2" stroke-dasharray="" fill="none" style="opacity: 1;"></path><path  fill="black" stroke="black" d="M 0 0 0 0" transform="matrix(-0.7808688416748546,0.6246950072646418,-0.6246950072646418,-0.7808688416748546,1737.5,1143)"></path><path  fill="#cccccc" stroke="#cccccc" d="M 20 0 L 0 10 L 20 20 z" id="v-462" transform="matrix(0.7808686753084834,-0.624695215222571,0.624695215222571,0.7808686753084834,1356.2530769150019,1435.1913171569533)" style="opacity: 1;"></path><path  d="M 1738 1143 L 1363 1443" id="v-461" fill="none" style="cursor: auto; pointer-events: visiblepainted;"></path><g ><g id="v-451"  label-idx="0" cursor="move" transform="matrix(1,0,0,1,1550.5,1279.5999755859375)" style="cursor: default; opacity: 1;"><rect joint-selector="rect" id="v-455" fill="#0e1117" rx="3" ry="3" pointer-events="none" width="149.39527893066406" height="34.621337890625" transform="matrix(1,0,0,1,-73.5,-17.3)"></rect><text joint-selector="text" id="v-454" font-size="24px" xml:space="preserve" y="0.8em" fill="#cccccc" text-anchor="middle" pointer-events="none" font-family="Open Sans, Tahoma, Arial" font-weight="normal" transform="matrix(1,0,0,1,0,-8.8)"><tspan dy="0" >Synchronises</tspan></text></g><g id="v-452"  label-idx="1" cursor="move" transform="matrix(1,0,0,1,1550.5,1310)" style="cursor: default; opacity: 1;"><rect joint-selector="rect" id="v-457" fill="#0e1117" rx="3" ry="3"  pointer-events="none" width="110.31028747558594" height="27.69706916809082" transform="matrix(1,0,0,1,-54.4,-13.8)" style="display: block;"></rect><text joint-selector="text" id="v-456" font-size="16.799999999999997px" xml:space="preserve" y="0.8em" fill="#cccccc" text-anchor="middle" pointer-events="none"  font-family="Open Sans, Tahoma, Arial" font-weight="normal" transform="matrix(1,0,0,1,0,-6.5)" style="display: block;"><tspan dy="0" >[LDAP/LDAPS]</tspan></text></g><g id="v-453"  label-idx="2" cursor="move" transform="matrix(1,0,0,1,1540.5,1318.4000244140625)" style="cursor: default; opacity: 1;"><rect joint-selector="rect" id="v-459" fill="#ffffff" rx="3" ry="3"  width="0" height="0" transform="matrix(1,0,0,1,0,0)" display="none"></rect><text joint-selector="text" id="v-458" fill="#000000" font-size="14" text-anchor="middle" pointer-events="none"></text></g></g><g  display="none" style="display: none;"></g><g  id="v-464" display="none"><g  id="v-449"><path  end="source" d="M 26 0 L 0 13 L 26 26 z"></path></g><g  id="v-450"><path  end="target" d="M 26 0 L 0 13 L 26 26 z"></path></g></g><g  id="v-463" display="none"><g  id="v-448" transform="translate(1706.7652476222788, 1167.987801902177) "><g  event="remove"><circle r="11"></circle><path transform="scale(.8) translate(-16, -16)" d="M24.778,21.419 19.276,15.917 24.777,10.415 21.949,7.585 16.447,13.087 10.945,7.585 8.117,10.415 13.618,15.917 8.116,21.419 10.946,24.248 16.447,18.746 21.948,24.248z"></path><title>Remove link.</title></g><g  event="link:options"><circle r="11" transform="translate(25)"></circle><path fill="white" transform="scale(.55) translate(29, -16)" d="M31.229,17.736c0.064-0.571,0.104-1.148,0.104-1.736s-0.04-1.166-0.104-1.737l-4.377-1.557c-0.218-0.716-0.504-1.401-0.851-2.05l1.993-4.192c-0.725-0.91-1.549-1.734-2.458-2.459l-4.193,1.994c-0.647-0.347-1.334-0.632-2.049-0.849l-1.558-4.378C17.165,0.708,16.588,0.667,16,0.667s-1.166,0.041-1.737,0.105L12.707,5.15c-0.716,0.217-1.401,0.502-2.05,0.849L6.464,4.005C5.554,4.73,4.73,5.554,4.005,6.464l1.994,4.192c-0.347,0.648-0.632,1.334-0.849,2.05l-4.378,1.557C0.708,14.834,0.667,15.412,0.667,16s0.041,1.165,0.105,1.736l4.378,1.558c0.217,0.715,0.502,1.401,0.849,2.049l-1.994,4.193c0.725,0.909,1.549,1.733,2.459,2.458l4.192-1.993c0.648,0.347,1.334,0.633,2.05,0.851l1.557,4.377c0.571,0.064,1.148,0.104,1.737,0.104c0.588,0,1.165-0.04,1.736-0.104l1.558-4.377c0.715-0.218,1.399-0.504,2.049-0.851l4.193,1.993c0.909-0.725,1.733-1.549,2.458-2.458l-1.993-4.193c0.347-0.647,0.633-1.334,0.851-2.049L31.229,17.736zM16,20.871c-2.69,0-4.872-2.182-4.872-4.871c0-2.69,2.182-4.872,4.872-4.872c2.689,0,4.871,2.182,4.871,4.872C20.871,18.689,18.689,20.871,16,20.871z"></path><title>Link options.</title></g></g></g></g><!--z-index:36--><g   id="j_37" ><path  stroke="#cccccc" d="M 1925 1143 L 1925 1443" id="v-480" stroke-width="2" stroke-dasharray="" fill="none" style="opacity: 1;"></path><path  fill="black" stroke="black" d="M 0 0 0 0" transform="matrix(6.123233995736766e-17,1,-1,6.123233995736766e-17,1925,1143)"></path><path  fill="#cccccc" stroke="#cccccc" d="M 20 0 L 0 10 L 20 20 z" id="v-482" transform="matrix(-1.8369701987210297e-16,-1,1,-1.8369701987210297e-16,1915,1443)" style="opacity: 1;"></path><path  d="M 1925 1143 L 1925 1443" id="v-481" fill="none" style="cursor: auto; pointer-events: visiblepainted;"></path><g ><g id="v-471"  label-idx="0" cursor="move" transform="matrix(1,0,0,1,1925,1279.5999755859375)" style="cursor: default; opacity: 1;"><rect joint-selector="rect" id="v-475" fill="#0e1117" rx="3" ry="3" pointer-events="none" width="148.11441040039062" height="34.621337890625" transform="matrix(1,0,0,1,-74.1,-17.3)"></rect><text joint-selector="text" id="v-474" font-size="24px" xml:space="preserve" y="0.8em" fill="#cccccc" text-anchor="middle" pointer-events="none" font-family="Open Sans, Tahoma, Arial" font-weight="normal" transform="matrix(1,0,0,1,0,-8.8)"><tspan dy="0" >Imports from</tspan></text></g><g id="v-472"  label-idx="1" cursor="move" transform="matrix(1,0,0,1,1925,1310)" style="cursor: default; opacity: 1;"><rect joint-selector="rect" id="v-477" fill="#0e1117" rx="3" ry="3"  pointer-events="none" width="41.93948745727539" height="27.69706916809082" transform="matrix(1,0,0,1,-20.3,-13.8)" style="display: block;"></rect><text joint-selector="text" id="v-476" font-size="16.799999999999997px" xml:space="preserve" y="0.8em" fill="#cccccc" text-anchor="middle" pointer-events="none"  font-family="Open Sans, Tahoma, Arial" font-weight="normal" transform="matrix(1,0,0,1,0,-6.5)" style="display: block;"><tspan dy="0" >[CSV]</tspan></text></g><g id="v-473"  label-idx="2" cursor="move" transform="matrix(1,0,0,1,1915,1318.4000244140625)" style="cursor: default; opacity: 1;"><rect joint-selector="rect" id="v-479" fill="#ffffff" rx="3" ry="3"  width="0" height="0" transform="matrix(1,0,0,1,0,0)" display="none"></rect><text joint-selector="text" id="v-478" fill="#000000" font-size="14" text-anchor="middle" pointer-events="none"></text></g></g><g  display="none" style="display: none;"></g><g  id="v-484" display="none"><g  id="v-469"><path  end="source" d="M 26 0 L 0 13 L 26 26 z"></path></g><g  id="v-470"><path  end="target" d="M 26 0 L 0 13 L 26 26 z"></path></g></g><g  id="v-483" display="none"><g  id="v-468" transform="translate(1925.0000000000002, 1183) "><g  event="remove"><circle r="11"></circle><path transform="scale(.8) translate(-16, -16)" d="M24.778,21.419 19.276,15.917 24.777,10.415 21.949,7.585 16.447,13.087 10.945,7.585 8.117,10.415 13.618,15.917 8.116,21.419 10.946,24.248 16.447,18.746 21.948,24.248z"></path><title>Remove link.</title></g><g  event="link:options"><circle r="11" transform="translate(25)"></circle><path fill="white" transform="scale(.55) translate(29, -16)" d="M31.229,17.736c0.064-0.571,0.104-1.148,0.104-1.736s-0.04-1.166-0.104-1.737l-4.377-1.557c-0.218-0.716-0.504-1.401-0.851-2.05l1.993-4.192c-0.725-0.91-1.549-1.734-2.458-2.459l-4.193,1.994c-0.647-0.347-1.334-0.632-2.049-0.849l-1.558-4.378C17.165,0.708,16.588,0.667,16,0.667s-1.166,0.041-1.737,0.105L12.707,5.15c-0.716,0.217-1.401,0.502-2.05,0.849L6.464,4.005C5.554,4.73,4.73,5.554,4.005,6.464l1.994,4.192c-0.347,0.648-0.632,1.334-0.849,2.05l-4.378,1.557C0.708,14.834,0.667,15.412,0.667,16s0.041,1.165,0.105,1.736l4.378,1.558c0.217,0.715,0.502,1.401,0.849,2.049l-1.994,4.193c0.725,0.909,1.549,1.733,2.459,2.458l4.192-1.993c0.648,0.347,1.334,0.633,2.05,0.851l1.557,4.377c0.571,0.064,1.148,0.104,1.737,0.104c0.588,0,1.165-0.04,1.736-0.104l1.558-4.377c0.715-0.218,1.399-0.504,2.049-0.851l4.193,1.993c0.909-0.725,1.733-1.549,2.458-2.458l-1.993-4.193c0.347-0.647,0.633-1.334,0.851-2.049L31.229,17.736zM16,20.871c-2.69,0-4.872-2.182-4.872-4.871c0-2.69,2.182-4.872,4.872-4.872c2.689,0,4.871,2.182,4.871,4.872C20.871,18.689,18.689,20.871,16,20.871z"></path><title>Link options.</title></g></g></g></g><!--z-index:37--><g   id="j_38" ><path  stroke="#cccccc" d="M 2113 1143 L 2488 1443" id="v-500" stroke-width="2" stroke-dasharray="" fill="none" style="opacity: 1;"></path><path  fill="black" stroke="black" d="M 0 0 0 0" transform="matrix(0.7808688000832672,0.624695059254128,-0.624695059254128,0.7808688000832672,2112.5,1143)"></path><path  fill="#cccccc" stroke="#cccccc" d="M 20 0 L 0 10 L 20 20 z" id="v-502" transform="matrix(-0.7808688416748548,-0.6246950072646416,0.6246950072646416,-0.7808688416748548,2481.253144594102,1450.8086902472076)" style="opacity: 1;"></path><path  d="M 2113 1143 L 2488 1443" id="v-501" fill="none" style="cursor: auto; pointer-events: visiblepainted;"></path><g ><g id="v-491"  label-idx="0" cursor="move" transform="matrix(1,0,0,1,2300.5,1279.5999755859375)" style="cursor: default; opacity: 1;"><rect joint-selector="rect" id="v-495" fill="#0e1117" rx="3" ry="3" pointer-events="none" width="183.2410888671875" height="34.621337890625" transform="matrix(1,0,0,1,-90.4,-17.3)"></rect><text joint-selector="text" id="v-494" font-size="24px" xml:space="preserve" y="0.8em" fill="#cccccc" text-anchor="middle" pointer-events="none" font-family="Open Sans, Tahoma, Arial" font-weight="normal" transform="matrix(1,0,0,1,0,-8.8)"><tspan dy="0" >Imports/Exports</tspan></text></g><g id="v-492"  label-idx="1" cursor="move" transform="matrix(1,0,0,1,2300.5,1310)" style="cursor: default; opacity: 1;"><rect joint-selector="rect" id="v-497" fill="#0e1117" rx="3" ry="3"  pointer-events="none" width="77.58114624023438" height="27.69706916809082" transform="matrix(1,0,0,1,-38.1,-13.8)" style="display: block;"></rect><text joint-selector="text" id="v-496" font-size="16.799999999999997px" xml:space="preserve" y="0.8em" fill="#cccccc" text-anchor="middle" pointer-events="none"  font-family="Open Sans, Tahoma, Arial" font-weight="normal" transform="matrix(1,0,0,1,0,-6.5)" style="display: block;"><tspan dy="0" >[CSV files]</tspan></text></g><g id="v-493"  label-idx="2" cursor="move" transform="matrix(1,0,0,1,2290.5,1318.4000244140625)" style="cursor: default; opacity: 1;"><rect joint-selector="rect" id="v-499" fill="#ffffff" rx="3" ry="3"  width="0" height="0" transform="matrix(1,0,0,1,0,0)" display="none"></rect><text joint-selector="text" id="v-498" fill="#000000" font-size="14" text-anchor="middle" pointer-events="none"></text></g></g><g  display="none" style="display: none;"></g><g  id="v-504" display="none"><g  id="v-489"><path  end="source" d="M 26 0 L 0 13 L 26 26 z"></path></g><g  id="v-490"><path  end="target" d="M 26 0 L 0 13 L 26 26 z"></path></g></g><g  id="v-503" display="none"><g  id="v-488" transform="translate(2144.234752377721, 1167.987801902177) "><g  event="remove"><circle r="11"></circle><path transform="scale(.8) translate(-16, -16)" d="M24.778,21.419 19.276,15.917 24.777,10.415 21.949,7.585 16.447,13.087 10.945,7.585 8.117,10.415 13.618,15.917 8.116,21.419 10.946,24.248 16.447,18.746 21.948,24.248z"></path><title>Remove link.</title></g><g  event="link:options"><circle r="11" transform="translate(25)"></circle><path fill="white" transform="scale(.55) translate(29, -16)" d="M31.229,17.736c0.064-0.571,0.104-1.148,0.104-1.736s-0.04-1.166-0.104-1.737l-4.377-1.557c-0.218-0.716-0.504-1.401-0.851-2.05l1.993-4.192c-0.725-0.91-1.549-1.734-2.458-2.459l-4.193,1.994c-0.647-0.347-1.334-0.632-2.049-0.849l-1.558-4.378C17.165,0.708,16.588,0.667,16,0.667s-1.166,0.041-1.737,0.105L12.707,5.15c-0.716,0.217-1.401,0.502-2.05,0.849L6.464,4.005C5.554,4.73,4.73,5.554,4.005,6.464l1.994,4.192c-0.347,0.648-0.632,1.334-0.849,2.05l-4.378,1.557C0.708,14.834,0.667,15.412,0.667,16s0.041,1.165,0.105,1.736l4.378,1.558c0.217,0.715,0.502,1.401,0.849,2.049l-1.994,4.193c0.725,0.909,1.549,1.733,2.459,2.458l4.192-1.993c0.648,0.347,1.334,0.633,2.05,0.851l1.557,4.377c0.571,0.064,1.148,0.104,1.737,0.104c0.588,0,1.165-0.04,1.736-0.104l1.558-4.377c0.715-0.218,1.399-0.504,2.049-0.851l4.193,1.993c0.909-0.725,1.733-1.549,2.458-2.458l-1.993-4.193c0.347-0.647,0.633-1.334,0.851-2.049L31.229,17.736zM16,20.871c-2.69,0-4.872-2.182-4.872-4.871c0-2.69,2.182-4.872,4.872-4.872c2.689,0,4.871,2.182,4.871,4.872C20.871,18.689,18.689,20.871,16,20.871z"></path><title>Link options.</title></g></g></g></g><!--z-index:38--><g   id="j_39" ><path  stroke="#666666" d="M 2150 1083 L 3200 1503" id="v-520" stroke-width="2" stroke-dasharray="8 8" fill="none" style="opacity: 1;"></path><path  fill="black" stroke="black" d="M 0 0 0 0" transform="matrix(0.9284766955435519,0.371390664708372,-0.371390664708372,0.9284766955435519,2150,1083)"></path><path  fill="#666666" stroke="#666666" d="M 20 0 L 0 10 L 20 20 z" id="v-522" transform="matrix(-0.928476707906966,-0.3713906337998342,0.3713906337998342,-0.928476707906966,3196.286192772321,1512.284806229568)" style="opacity: 1;"></path><path  d="M 2150 1083 L 3200 1503" id="v-521" fill="none" style="cursor: auto; pointer-events: visiblepainted;"></path><g ><g id="v-511"  label-idx="0" cursor="move" transform="matrix(1,0,0,1,2675,1279.5999755859375)" style="cursor: default; opacity: 1;"><rect joint-selector="rect" id="v-515" fill="#0e1117" rx="3" ry="3" pointer-events="none" width="149.39527893066406" height="34.621337890625" transform="matrix(1,0,0,1,-73.5,-17.3)"></rect><text joint-selector="text" id="v-514" font-size="24px" xml:space="preserve" y="0.8em" fill="#666666" text-anchor="middle" pointer-events="none" font-family="Open Sans, Tahoma, Arial" font-weight="normal" transform="matrix(1,0,0,1,0,-8.8)"><tspan dy="0" >Synchronises</tspan></text></g><g id="v-512"  label-idx="1" cursor="move" transform="matrix(1,0,0,1,2675,1310)" style="cursor: default; opacity: 1;"><rect joint-selector="rect" id="v-517" fill="#0e1117" rx="3" ry="3"  pointer-events="none" width="43.16794967651367" height="27.69706916809082" transform="matrix(1,0,0,1,-20.9,-13.8)" style="display: block;"></rect><text joint-selector="text" id="v-516" font-size="16.799999999999997px" xml:space="preserve" y="0.8em" fill="#666666" text-anchor="middle" pointer-events="none"  font-family="Open Sans, Tahoma, Arial" font-weight="normal" transform="matrix(1,0,0,1,0,-6.5)" style="display: block;"><tspan dy="0" >[SQL]</tspan></text></g><g id="v-513"  label-idx="2" cursor="move" transform="matrix(1,0,0,1,2665,1318.4000244140625)" style="cursor: default; opacity: 1;"><rect joint-selector="rect" id="v-519" fill="#ffffff" rx="3" ry="3"  width="0" height="0" transform="matrix(1,0,0,1,0,0)" display="none"></rect><text joint-selector="text" id="v-518" fill="#000000" font-size="14" text-anchor="middle" pointer-events="none"></text></g></g><g  display="none" style="display: none;"></g><g  id="v-524" display="none"><g  id="v-509"><path  end="source" d="M 26 0 L 0 13 L 26 26 z"></path></g><g  id="v-510"><path  end="target" d="M 26 0 L 0 13 L 26 26 z"></path></g></g><g  id="v-523" display="none"><g  id="v-508" transform="translate(2187.1390676354104, 1097.8556270541642) "><g  event="remove"><circle r="11"></circle><path transform="scale(.8) translate(-16, -16)" d="M24.778,21.419 19.276,15.917 24.777,10.415 21.949,7.585 16.447,13.087 10.945,7.585 8.117,10.415 13.618,15.917 8.116,21.419 10.946,24.248 16.447,18.746 21.948,24.248z"></path><title>Remove link.</title></g><g  event="link:options"><circle r="11" transform="translate(25)"></circle><path fill="white" transform="scale(.55) translate(29, -16)" d="M31.229,17.736c0.064-0.571,0.104-1.148,0.104-1.736s-0.04-1.166-0.104-1.737l-4.377-1.557c-0.218-0.716-0.504-1.401-0.851-2.05l1.993-4.192c-0.725-0.91-1.549-1.734-2.458-2.459l-4.193,1.994c-0.647-0.347-1.334-0.632-2.049-0.849l-1.558-4.378C17.165,0.708,16.588,0.667,16,0.667s-1.166,0.041-1.737,0.105L12.707,5.15c-0.716,0.217-1.401,0.502-2.05,0.849L6.464,4.005C5.554,4.73,4.73,5.554,4.005,6.464l1.994,4.192c-0.347,0.648-0.632,1.334-0.849,2.05l-4.378,1.557C0.708,14.834,0.667,15.412,0.667,16s0.041,1.165,0.105,1.736l4.378,1.558c0.217,0.715,0.502,1.401,0.849,2.049l-1.994,4.193c0.725,0.909,1.549,1.733,2.459,2.458l4.192-1.993c0.648,0.347,1.334,0.633,2.05,0.851l1.557,4.377c0.571,0.064,1.148,0.104,1.737,0.104c0.588,0,1.165-0.04,1.736-0.104l1.558-4.377c0.715-0.218,1.399-0.504,2.049-0.851l4.193,1.993c0.909-0.725,1.733-1.549,2.458-2.458l-1.993-4.193c0.347-0.647,0.633-1.334,0.851-2.049L31.229,17.736zM16,20.871c-2.69,0-4.872-2.182-4.872-4.871c0-2.69,2.182-4.872,4.872-4.872c2.689,0,4.871,2.182,4.871,4.872C20.871,18.689,18.689,20.871,16,20.871z"></path><title>Link options.</title></g></g></g></g><!--z-index:39--><g   id="j_40" ><path  stroke="#666666" d="M 2150 1047 L 3790 1441 C 3796.666666666666 1442.3333333333333 3802.9999999999995 1444.3333333333333 3809 1447 L 3950 1503" id="v-541" stroke-width="2" stroke-dasharray="8 8" fill="none" style="opacity: 1;"></path><path  fill="black" stroke="black" d="M 0 0 0 0" transform="matrix(0.9723873020607068,0.23337295214120202,-0.23337295214120202,0.9723873020607068,2150,1047)"></path><path  fill="#666666" stroke="#666666" d="M 20 0 L 0 10 L 20 20 z" id="v-543" transform="matrix(-0.928476707906966,-0.3713906337998342,0.3713906337998342,-0.928476707906966,3946.286192772321,1512.284806229568)" style="opacity: 1;"></path><path  d="M 2150 1047 L 3790 1441 C 3796.666666666666 1442.3333333333333 3802.9999999999995 1444.3333333333333 3809 1447 L 3950 1503" id="v-542" fill="none" style="cursor: auto; pointer-events: visiblepainted;"></path><g ><g id="v-532"  label-idx="0" cursor="move" transform="matrix(1,0,0,1,3053.46337890625,1250.651611328125)" style="cursor: default; opacity: 1;"><rect joint-selector="rect" id="v-536" fill="#0e1117" rx="3" ry="3" pointer-events="none" width="143.5703582763672" height="34.621337890625" transform="matrix(1,0,0,1,-71.8,-17.3)"></rect><text joint-selector="text" id="v-535" font-size="24px" xml:space="preserve" y="0.8em" fill="#666666" text-anchor="middle" pointer-events="none" font-family="Open Sans, Tahoma, Arial" font-weight="normal" transform="matrix(1,0,0,1,0,-8.8)"><tspan dy="0" >Provisions to</tspan></text></g><g id="v-533"  label-idx="1" cursor="move" transform="matrix(1,0,0,1,3053.46337890625,1281.0516357421875)" style="cursor: default; opacity: 1;"><rect joint-selector="rect" id="v-538" fill="#0e1117" rx="3" ry="3"  pointer-events="none" width="79.40349578857422" height="27.69706916809082" transform="matrix(1,0,0,1,-39,-13.8)" style="display: block;"></rect><text joint-selector="text" id="v-537" font-size="16.799999999999997px" xml:space="preserve" y="0.8em" fill="#666666" text-anchor="middle" pointer-events="none"  font-family="Open Sans, Tahoma, Arial" font-weight="normal" transform="matrix(1,0,0,1,0,-6.5)" style="display: block;"><tspan dy="0" >[SCIM 2.0]</tspan></text></g><g id="v-534"  label-idx="2" cursor="move" transform="matrix(1,0,0,1,3043.46337890625,1289.4515380859375)" style="cursor: default; opacity: 1;"><rect joint-selector="rect" id="v-540" fill="#ffffff" rx="3" ry="3"  width="0" height="0" transform="matrix(1,0,0,1,0,0)" display="none"></rect><text joint-selector="text" id="v-539" fill="#000000" font-size="14" text-anchor="middle" pointer-events="none"></text></g></g><g  display="none" style="display: none;"><g  transform="translate(3800, 1443)" id="v-575"><circle  idx="0" r="10"></circle><path  idx="0" d="M16,5.333c-7.732,0-14,4.701-14,10.5c0,1.982,0.741,3.833,2.016,5.414L2,25.667l5.613-1.441c2.339,1.317,5.237,2.107,8.387,2.107c7.732,0,14-4.701,14-10.5C30,10.034,23.732,5.333,16,5.333z" transform="translate(5, -33)"></path><path  idx="0" transform="scale(.8) translate(9.5, -37)" d="M24.778,21.419 19.276,15.917 24.777,10.415 21.949,7.585 16.447,13.087 10.945,7.585 8.117,10.415 13.618,15.917 8.116,21.419 10.946,24.248 16.447,18.746 21.948,24.248z"><title>Remove vertex.</title></path></g></g><g  id="v-545" display="none"><g  id="v-530"><path  end="source" d="M 26 0 L 0 13 L 26 26 z"></path></g><g  id="v-531"><path  end="target" d="M 26 0 L 0 13 L 26 26 z"></path></g></g><g  id="v-544" display="none"><g  id="v-528" transform="translate(2188.8933383566355, 1056.3438873856794) "><g  event="remove"><circle r="11"></circle><path transform="scale(.8) translate(-16, -16)" d="M24.778,21.419 19.276,15.917 24.777,10.415 21.949,7.585 16.447,13.087 10.945,7.585 8.117,10.415 13.618,15.917 8.116,21.419 10.946,24.248 16.447,18.746 21.948,24.248z"></path><title>Remove link.</title></g><g  event="link:options"><circle r="11" transform="translate(25)"></circle><path fill="white" transform="scale(.55) translate(29, -16)" d="M31.229,17.736c0.064-0.571,0.104-1.148,0.104-1.736s-0.04-1.166-0.104-1.737l-4.377-1.557c-0.218-0.716-0.504-1.401-0.851-2.05l1.993-4.192c-0.725-0.91-1.549-1.734-2.458-2.459l-4.193,1.994c-0.647-0.347-1.334-0.632-2.049-0.849l-1.558-4.378C17.165,0.708,16.588,0.667,16,0.667s-1.166,0.041-1.737,0.105L12.707,5.15c-0.716,0.217-1.401,0.502-2.05,0.849L6.464,4.005C5.554,4.73,4.73,5.554,4.005,6.464l1.994,4.192c-0.347,0.648-0.632,1.334-0.849,2.05l-4.378,1.557C0.708,14.834,0.667,15.412,0.667,16s0.041,1.165,0.105,1.736l4.378,1.558c0.217,0.715,0.502,1.401,0.849,2.049l-1.994,4.193c0.725,0.909,1.549,1.733,2.459,2.458l4.192-1.993c0.648,0.347,1.334,0.633,2.05,0.851l1.557,4.377c0.571,0.064,1.148,0.104,1.737,0.104c0.588,0,1.165-0.04,1.736-0.104l1.558-4.377c0.715-0.218,1.399-0.504,2.049-0.851l4.193,1.993c0.909-0.725,1.733-1.549,2.458-2.458l-1.993-4.193c0.347-0.647,0.633-1.334,0.851-2.049L31.229,17.736zM16,20.871c-2.69,0-4.872-2.182-4.872-4.871c0-2.69,2.182-4.872,4.872-4.872c2.689,0,4.871,2.182,4.871,4.872C20.871,18.689,18.689,20.871,16,20.871z"></path><title>Link options.</title></g></g></g></g><!--z-index:40--><g   id="j_41" ><path  stroke="#cccccc" d="M 1700 1038 L 1129 1152 C 1122.5275990312562 1153.152330911474 1116.5275990312562 1155.4856642448074 1111 1159 L 650 1451" id="v-561" stroke-width="2" stroke-dasharray="" fill="none" style="opacity: 1;"></path><path  fill="black" stroke="black" d="M 0 0 0 0" transform="matrix(-0.9806758116577613,0.1956398538881867,-0.1956398538881867,-0.9806758116577613,1700,1037.8800048828125)"></path><path  fill="#cccccc" stroke="#cccccc" d="M 20 0 L 0 10 L 20 20 z" id="v-563" transform="matrix(0.8450683546668284,-0.5346582795961357,0.5346582795961357,0.8450683546668284,644.6534172511203,1442.189356280543)" style="opacity: 1;"></path><path  d="M 1700 1038 L 1129 1152 C 1122.5275990312562 1153.152330911474 1116.5275990312562 1155.4856642448074 1111 1159 L 650 1451" id="v-562" fill="none" style="cursor: auto; pointer-events: visiblepainted;"></path><g ><g id="v-552"  label-idx="0" cursor="move" transform="matrix(1,0,0,1,1137.402099609375,1136.9224853515625)" style="cursor: default; opacity: 1;"><rect joint-selector="rect" id="v-556" fill="#0e1117" rx="3" ry="3" pointer-events="none" width="191.740478515625" height="34.621337890625" transform="matrix(1,0,0,1,-95.6,-17.3)"></rect><text joint-selector="text" id="v-555" font-size="24px" xml:space="preserve" y="0.8em" fill="#cccccc" text-anchor="middle" pointer-events="none" font-family="Open Sans, Tahoma, Arial" font-weight="normal" transform="matrix(1,0,0,1,0,-8.8)"><tspan dy="0" >Authenticates via</tspan></text></g><g id="v-553"  label-idx="1" cursor="move" transform="matrix(1,0,0,1,1137.402099609375,1167.322509765625)" style="cursor: default; opacity: 1;"><rect joint-selector="rect" id="v-558" fill="#0e1117" rx="3" ry="3"  pointer-events="none" width="52.57259750366211" height="27.69706916809082" transform="matrix(1,0,0,1,-25.6,-13.8)" style="display: block;"></rect><text joint-selector="text" id="v-557" font-size="16.799999999999997px" xml:space="preserve" y="0.8em" fill="#cccccc" text-anchor="middle" pointer-events="none"  font-family="Open Sans, Tahoma, Arial" font-weight="normal" transform="matrix(1,0,0,1,0,-6.5)" style="display: block;"><tspan dy="0" >[OIDC]</tspan></text></g><g id="v-554"  label-idx="2" cursor="move" transform="matrix(1,0,0,1,1127.402099609375,1175.7225341796875)" style="cursor: default; opacity: 1;"><rect joint-selector="rect" id="v-560" fill="#ffffff" rx="3" ry="3"  width="0" height="0" transform="matrix(1,0,0,1,0,0)" display="none"></rect><text joint-selector="text" id="v-559" fill="#000000" font-size="14" text-anchor="middle" pointer-events="none"></text></g></g><g  display="none" style="display: none;"><g  transform="translate(1119.2913985468845, 1153.7284963672112)" id="v-576"><circle  idx="0" r="10"></circle><path  idx="0" d="M16,5.333c-7.732,0-14,4.701-14,10.5c0,1.982,0.741,3.833,2.016,5.414L2,25.667l5.613-1.441c2.339,1.317,5.237,2.107,8.387,2.107c7.732,0,14-4.701,14-10.5C30,10.034,23.732,5.333,16,5.333z" transform="translate(5, -33)"></path><path  idx="0" transform="scale(.8) translate(9.5, -37)" d="M24.778,21.419 19.276,15.917 24.777,10.415 21.949,7.585 16.447,13.087 10.945,7.585 8.117,10.415 13.618,15.917 8.116,21.419 10.946,24.248 16.447,18.746 21.948,24.248z"><title>Remove vertex.</title></path></g></g><g  id="v-565" display="none"><g  id="v-550"><path  end="source" d="M 26 0 L 0 13 L 26 26 z"></path></g><g  id="v-551"><path  end="target" d="M 26 0 L 0 13 L 26 26 z"></path></g></g><g  id="v-564" display="none"><g  id="v-549" transform="translate(1660.774133012949, 1045.831434039446) "><g  event="remove"><circle r="11"></circle><path transform="scale(.8) translate(-16, -16)" d="M24.778,21.419 19.276,15.917 24.777,10.415 21.949,7.585 16.447,13.087 10.945,7.585 8.117,10.415 13.618,15.917 8.116,21.419 10.946,24.248 16.447,18.746 21.948,24.248z"></path><title>Remove link.</title></g><g  event="link:options"><circle r="11" transform="translate(25)"></circle><path fill="white" transform="scale(.55) translate(29, -16)" d="M31.229,17.736c0.064-0.571,0.104-1.148,0.104-1.736s-0.04-1.166-0.104-1.737l-4.377-1.557c-0.218-0.716-0.504-1.401-0.851-2.05l1.993-4.192c-0.725-0.91-1.549-1.734-2.458-2.459l-4.193,1.994c-0.647-0.347-1.334-0.632-2.049-0.849l-1.558-4.378C17.165,0.708,16.588,0.667,16,0.667s-1.166,0.041-1.737,0.105L12.707,5.15c-0.716,0.217-1.401,0.502-2.05,0.849L6.464,4.005C5.554,4.73,4.73,5.554,4.005,6.464l1.994,4.192c-0.347,0.648-0.632,1.334-0.849,2.05l-4.378,1.557C0.708,14.834,0.667,15.412,0.667,16s0.041,1.165,0.105,1.736l4.378,1.558c0.217,0.715,0.502,1.401,0.849,2.049l-1.994,4.193c0.725,0.909,1.549,1.733,2.459,2.458l4.192-1.993c0.648,0.347,1.334,0.633,2.05,0.851l1.557,4.377c0.571,0.064,1.148,0.104,1.737,0.104c0.588,0,1.165-0.04,1.736-0.104l1.558-4.377c0.715-0.218,1.399-0.504,2.049-0.851l4.193,1.993c0.909-0.725,1.733-1.549,2.458-2.458l-1.993-4.193c0.347-0.647,0.633-1.334,0.851-2.049L31.229,17.736zM16,20.871c-2.69,0-4.872-2.182-4.872-4.871c0-2.69,2.182-4.872,4.872-4.872c2.689,0,4.871,2.182,4.871,4.872C20.871,18.689,18.689,20.871,16,20.871z"></path><title>Link options.</title></g></g></g></g><!--z-index:41--><!--z-index:42--><!--z-index:43--></g><g ></g><g ></g><g ><g transform="translate(20,1990)"><g><text font-size="24px" xml:space="preserve" y="0.8em" font-weight="normal" text-anchor="start" fill="#cccccc" pointer-events="none" display="block" font-family="Open Sans, Tahoma, Arial"><tspan dy="0" display="block">JIM v0.2.0</tspan></text></g></g></g></g></svg>