<svg xmlns="http://www.w3.org/2000/svg" xmlns:xlink="http://www.w3.org/1999/xlink" version="1.1" viewBox="0 0 1030 1499" style="background: #0e1117"><defs joint-selector="defs"></defs><g joint-selector="layers"  transform="matrix(1,0,0,1,0,0)"><g ></g><g ><!--z-index:0--><!--z-index:1--><!--z-index:2--><!--z-index:3--><!--z-index:4--><!--z-index:5--><!--z-index:6--><!--z-index:7--><!--z-index:8--><!--z-index:9--><!--z-index:10--><!--z-index:11--><g   id="j_156"  transform="translate(20,1395)"><g id="v-2308"><text  id="v-2309" font-size="24px" xml:space="preserve" y="0.8em" font-weight="normal" text-anchor="start" fill="#cccccc" pointer-events="none" display="block" font-family="Open Sans, Tahoma, Arial"><tspan dy="0"  display="block">Friday, February 20, 2026 at 4:37 PM Coordinated Universal Time</tspan></text></g></g><!--z-index:12--><g   id="j_155"  transform="translate(20,1361)"><g id="v-2306"><text  id="v-2307" font-size="24px" xml:space="preserve" y="0.8em" font-weight="normal" text-anchor="start" fill="#cccccc" pointer-events="none" display="block" font-family="Open Sans, Tahoma, Arial"><tspan dy="0"  display="block">Component diagram for JIM Scheduler Service</tspan></text></g></g><!--z-index:13--><g   id="j_154"  transform="translate(20,1315)"><g id="v-2304"><text  id="v-2305" font-size="36px" xml:space="preserve" y="0.8em" font-weight="normal" text-anchor="start" fill="#cccccc" pointer-events="none" display="block" font-family="Open Sans, Tahoma, Arial"><tspan dy="0"  display="block">Component View: JIM - Scheduler Service</tspan></text></g></g><!--z-index:14--><g   id="j_158"  transform="translate(200,143)" style=""><g id="v-2323"><rect  id="v-2324" width="630" height="1039" rx="20" ry="20" stroke-width="2" pointer-events="none" stroke="#2780cf" fill="#0e1117" stroke-dasharray=""></rect><text  id="v-2325" font-size="33.599999999999994px" xml:space="preserve" y="1000" font-weight="bold" text-anchor="start" pointer-events="visible" font-family="Open Sans, Tahoma, Arial" fill="#ffffff" transform="matrix(1,0,0,1,15,0)"><tspan dy="0" >JIM</tspan></text><text  id="v-2326" font-size="16.799999999999997px" xml:space="preserve" y="1024" font-weight="normal" text-anchor="start" pointer-events="visible" font-family="Open Sans, Tahoma, Arial" fill="#ffffff" transform="matrix(1,0,0,1,15,0)"><tspan dy="0" >[Software System]</tspan></text><image  id="v-2327" pointer-events="visible"></image></g></g><!--z-index:15--><g   id="j_157"  transform="translate(290,783)" style=""><g  id="v-2316" style="opacity: 1;"><rect  id="v-2317" rx="20" ry="20" stroke-width="2" pointer-events="visiblePainted" fill="#5aa5eb" stroke="#5195d4" stroke-dasharray="" width="450" height="300"></rect><text  id="v-2318" font-size="33.599999999999994px" xml:space="preserve" y="86.9" font-weight="bold" text-anchor="middle" pointer-events="visible" font-family="Open Sans, Tahoma, Arial" fill="#ffffff" dominant-baseline="hanging" transform="matrix(1,0,0,1,225,0)"><tspan dy="0" >Application Layer</tspan></text><text  id="v-2319" font-size="16.799999999999997px" xml:space="preserve" y="128.5" text-anchor="middle" font-family="Open Sans, Tahoma, Arial" fill="#ffffff" dominant-baseline="hanging" transform="matrix(1,0,0,1,225,0)" style="display: block;"><tspan dy="0" >[Container: JIM.Application]</tspan></text><text  id="v-2320" font-size="24px" xml:space="preserve" y="160.3" text-anchor="middle" font-family="Open Sans, Tahoma, Arial" fill="#ffffff" dominant-baseline="hanging" transform="matrix(1,0,0,1,225,0)" style="display: block;"><tspan dy="0" >Business logic and domain</tspan><tspan dy="1.2em" x="0" >services</tspan></text><g  id="v-2321" color="#ffffff" transform="matrix(1,0,0,1,210,268)" display="none"><g  transform="translate(5 0)"><svg xmlns="http://www.w3.org/2000/svg" width="20" height="20" fill="currentColor" viewBox="0 0 16 16"><path fill-rule="evenodd" d="M6.5 12a5.5 5.5 0 1 0 0-11 5.5 5.5 0 0 0 0 11zM13 6.5a6.5 6.5 0 1 1-13 0 6.5 6.5 0 0 1 13 0z"></path><path d="M10.344 11.742c.03.04.062.078.098.115l3.85 3.85a1 1 0 0 0 1.415-1.414l-3.85-3.85a1.007 1.007 0 0 0-.115-.1 6.538 6.538 0 0 1-1.398 1.4z"></path><path fill-rule="evenodd" d="M6.5 3a.5.5 0 0 1 .5.5V6h2.5a.5.5 0 0 1 0 1H7v2.5a.5.5 0 0 1-1 0V7H3.5a.5.5 0 0 1 0-1H6V3.5a.5.5 0 0 1 .5-.5z"></path></svg></g><g ></g><g ></g><g ></g></g><image  id="v-2322"></image></g></g><!--z-index:16--><g   id="j_160"  transform="translate(220,163)" style=""><g id="v-2338"><rect  id="v-2339" width="590" height="419" rx="20" ry="20" stroke-width="2" pointer-events="none" stroke="#5195d4" fill="#0e1117" stroke-dasharray=""></rect><text  id="v-2340" font-size="33.599999999999994px" xml:space="preserve" y="380" font-weight="bold" text-anchor="start" pointer-events="visible" font-family="Open Sans, Tahoma, Arial" fill="#ffffff" transform="matrix(1,0,0,1,15,0)"><tspan dy="0" >Scheduler Service</tspan></text><text  id="v-2341" font-size="16.799999999999997px" xml:space="preserve" y="404" font-weight="normal" text-anchor="start" pointer-events="visible" font-family="Open Sans, Tahoma, Arial" fill="#ffffff" transform="matrix(1,0,0,1,15,0)"><tspan dy="0" >[Container]</tspan></text><image  id="v-2342" pointer-events="visible"></image></g></g><!--z-index:17--><g   id="j_159"  transform="translate(240,183)" style=""><g  id="v-2331" style="opacity: 1;"><rect  id="v-2332" rx="20" ry="20" stroke-width="2" pointer-events="visiblePainted" fill="#4a90d9" stroke="#4382c3" stroke-dasharray="" width="550" height="300"></rect><text  id="v-2333" font-size="33.599999999999994px" xml:space="preserve" y="72.5" font-weight="bold" text-anchor="middle" pointer-events="visible" font-family="Open Sans, Tahoma, Arial" fill="#ffffff" dominant-baseline="hanging" transform="matrix(1,0,0,1,275,0)"><tspan dy="0" >Scheduler Host</tspan></text><text  id="v-2334" font-size="16.799999999999997px" xml:space="preserve" y="114.1" text-anchor="middle" font-family="Open Sans, Tahoma, Arial" fill="#ffffff" dominant-baseline="hanging" transform="matrix(1,0,0,1,275,0)" style="display: block;"><tspan dy="0" >[Component: .NET BackgroundService]</tspan></text><text  id="v-2335" font-size="24px" xml:space="preserve" y="145.89999999999998" text-anchor="middle" font-family="Open Sans, Tahoma, Arial" fill="#ffffff" dominant-baseline="hanging" transform="matrix(1,0,0,1,275,0)" style="display: block;"><tspan dy="0" >Polling loop that evaluates due schedules,</tspan><tspan dy="1.2em" x="0" >starts executions, and performs crash</tspan><tspan dy="1.2em" x="0" >recovery</tspan></text><g  id="v-2336" color="#ffffff" transform="matrix(1,0,0,1,272.5,268)" display="none"><g ></g><g ></g><g ></g><g ></g></g><image  id="v-2337"></image></g></g><!--z-index:18--><g   id="j_161" ><path  stroke="#cccccc" d="M 515 483 L 515 783" id="v-2358" stroke-width="2" stroke-dasharray="" fill="none" style="opacity: 1;"></path><path  fill="black" stroke="black" d="M 0 0 0 0" transform="matrix(6.123233995736766e-17,1,-1,6.123233995736766e-17,515,483)"></path><path  fill="#cccccc" stroke="#cccccc" d="M 20 0 L 0 10 L 20 20 z" id="v-2360" transform="matrix(-1.8369701987210297e-16,-1,1,-1.8369701987210297e-16,504.99999999999994,783)" style="opacity: 1;"></path><path  d="M 515 483 L 515 783" id="v-2359" fill="none" style="cursor: auto; pointer-events: visiblepainted;"></path><g ><g id="v-2349"  label-idx="0" cursor="move" transform="matrix(1,0,0,1,515,619.5999755859375)" style="cursor: default; opacity: 1;"><rect joint-selector="rect" id="v-2353" fill="#0e1117" rx="3" ry="3" pointer-events="none" width="160.12744140625" height="91.27781295776367" transform="matrix(1,0,0,1,-80.1,-45.6)"></rect><text joint-selector="text" id="v-2352" font-size="24px" xml:space="preserve" y="0.8em" fill="#cccccc" text-anchor="middle" pointer-events="none" font-family="Open Sans, Tahoma, Arial" font-weight="normal" transform="matrix(1,0,0,1,0,-37.9)"><tspan dy="0" >Evaluates</tspan><tspan dy="1.2em" x="0" >schedules and</tspan><tspan dy="1.2em" x="0" >creates tasks</tspan></text></g><g id="v-2350"  label-idx="1" cursor="move" transform="matrix(1,0,0,1,515,678.7999877929688)" style="cursor: default; opacity: 1;"><rect joint-selector="rect" id="v-2355" fill="#0e1117" rx="3" ry="3"  pointer-events="none" width="111.27191162109375" height="20.20668315887451" transform="matrix(1,0,0,1,-55,-10.1)" style="display: block;"></rect><text joint-selector="text" id="v-2354" font-size="16.799999999999997px" xml:space="preserve" y="0.8em" fill="#cccccc" text-anchor="middle" pointer-events="none"  font-family="Open Sans, Tahoma, Arial" font-weight="normal" transform="matrix(1,0,0,1,0,-6.7)" style="display: block;"><tspan dy="0" >[Method calls]</tspan></text></g><g id="v-2351"  label-idx="2" cursor="move" transform="matrix(1,0,0,1,505,687.2000122070312)" style="cursor: default; opacity: 1;"><rect joint-selector="rect" id="v-2357" fill="#ffffff" rx="3" ry="3"  width="0" height="0" transform="matrix(1,0,0,1,0,0)" display="none"></rect><text joint-selector="text" id="v-2356" fill="#000000" font-size="14" text-anchor="middle" pointer-events="none"></text></g></g><g  display="none" style="display: none;"></g><g  id="v-2362" display="none"><g  id="v-2347"><path  end="source" d="M 26 0 L 0 13 L 26 26 z"></path></g><g  id="v-2348"><path  end="target" d="M 26 0 L 0 13 L 26 26 z"></path></g></g><g  id="v-2361" display="none"><g  id="v-2346" transform="translate(515, 523) "><g  event="remove"><circle r="11"></circle><path transform="scale(.8) translate(-16, -16)" d="M24.778,21.419 19.276,15.917 24.777,10.415 21.949,7.585 16.447,13.087 10.945,7.585 8.117,10.415 13.618,15.917 8.116,21.419 10.946,24.248 16.447,18.746 21.948,24.248z"></path><title>Remove link.</title></g><g  event="link:options"><circle r="11" transform="translate(25)"></circle><path fill="white" transform="scale(.55) translate(29, -16)" d="M31.229,17.736c0.064-0.571,0.104-1.148,0.104-1.736s-0.04-1.166-0.104-1.737l-4.377-1.557c-0.218-0.716-0.504-1.401-0.851-2.05l1.993-4.192c-0.725-0.91-1.549-1.734-2.458-2.459l-4.193,1.994c-0.647-0.347-1.334-0.632-2.049-0.849l-1.558-4.378C17.165,0.708,16.588,0.667,16,0.667s-1.166,0.041-1.737,0.105L12.707,5.15c-0.716,0.217-1.401,0.502-2.05,0.849L6.464,4.005C5.554,4.73,4.73,5.554,4.005,6.464l1.994,4.192c-0.347,0.648-0.632,1.334-0.849,2.05l-4.378,1.557C0.708,14.834,0.667,15.412,0.667,16s0.041,1.165,0.105,1.736l4.378,1.558c0.217,0.715,0.502,1.401,0.849,2.049l-1.994,4.193c0.725,0.909,1.549,1.733,2.459,2.458l4.192-1.993c0.648,0.347,1.334,0.633,2.05,0.851l1.557,4.377c0.571,0.064,1.148,0.104,1.737,0.104c0.588,0,1.165-0.04,1.736-0.104l1.558-4.377c0.715-0.218,1.399-0.504,2.049-0.851l4.193,1.993c0.909-0.725,1.733-1.549,2.458-2.458l-1.993-4.193c0.347-0.647,0.633-1.334,0.851-2.049L31.229,17.736zM16,20.871c-2.69,0-4.872-2.182-4.872-4.871c0-2.69,2.182-4.872,4.872-4.872c2.689,0,4.871,2.182,4.871,4.872C20.871,18.689,18.689,20.871,16,20.871z"></path><title>Link options.</title></g></g></g></g><!--z-index:19--><!--z-index:20--><!--z-index:21--><!--z-index:22--><!--z-index:23--><!--z-index:24--><!--z-index:25--><!--z-index:26--><!--z-index:27--><!--z-index:28--><!--z-index:29--><!--z-index:30--><!--z-index:31--><!--z-index:32--><!--z-index:33--><!--z-index:34--><!--z-index:35--><!--z-index:36--><!--z-index:37--><!--z-index:38--><!--z-index:39--><!--z-index:40--><!--z-index:41--><!--z-index:42--><!--z-index:43--><!--z-index:44--><!--z-index:45--><!--z-index:46--><!--z-index:47--><!--z-index:48--><!--z-index:49--><!--z-index:50--><!--z-index:51--><!--z-index:52--><!--z-index:53--><!--z-index:54--><!--z-index:55--><!--z-index:56--><!--z-index:57--><!--z-index:58--><!--z-index:59--><!--z-index:60--><!--z-index:61--><!--z-index:62--><!--z-index:63--><!--z-index:64--><!--z-index:65--><!--z-index:66--><!--z-index:67--><!--z-index:68--><!--z-index:69--><!--z-index:70--><!--z-index:71--><!--z-index:72--><!--z-index:73--><!--z-index:74--><!--z-index:75--><!--z-index:76--><!--z-index:77--><!--z-index:78--><!--z-index:79--><!--z-index:80--><!--z-index:81--><!--z-index:82--><!--z-index:83--><!--z-index:84--><!--z-index:85--><!--z-index:86--><!--z-index:87--><!--z-index:88--><!--z-index:89--><!--z-index:90--><!--z-index:91--><!--z-index:92--><!--z-index:93--><!--z-index:94--><!--z-index:95--><!--z-index:96--><!--z-index:97--><!--z-index:98--><!--z-index:99--><!--z-index:100--><!--z-index:101--><!--z-index:102--><!--z-index:103--><!--z-index:104--><!--z-index:105--><!--z-index:106--><!--z-index:107--><!--z-index:108--><!--z-index:109--><!--z-index:110--><!--z-index:111--><!--z-index:112--><!--z-index:113--><!--z-index:114--><!--z-index:115--><!--z-index:116--><!--z-index:117--><!--z-index:118--><!--z-index:119--><!--z-index:120--><!--z-index:121--><!--z-index:122--><!--z-index:123--><!--z-index:124--><!--z-index:125--><!--z-index:126--><!--z-index:127--><!--z-index:128--><!--z-index:129--><!--z-index:130--><!--z-index:131--><!--z-index:132--><!--z-index:133--><!--z-index:134--><!--z-index:135--><!--z-index:136--><!--z-index:137--><!--z-index:138--><!--z-index:139--><!--z-index:140--><!--z-index:141--><!--z-index:142--><!--z-index:143--><!--z-index:144--><!--z-index:145--><!--z-index:146--><!--z-index:147--><!--z-index:148--><!--z-index:149--><!--z-index:150--><!--z-index:151--><!--z-index:152--><!--z-index:153--><!--z-index:154--><!--z-index:155--><!--z-index:156--><!--z-index:157--><!--z-index:158--><!--z-index:159--><!--z-index:160--><!--z-index:161--><!--z-index:162--><!--z-index:163--><!--z-index:164--><!--z-index:165--><!--z-index:166--><!--z-index:167--><!--z-index:168--><!--z-index:169--><!--z-index:170--><!--z-index:171--><!--z-index:172--><!--z-index:173--><!--z-index:174--><!--z-index:175--><!--z-index:176--><!--z-index:177--><!--z-index:178--><!--z-index:179--><!--z-index:180--></g><g ></g><g ></g><g ><g transform="translate(20,1429)"><g><text font-size="24px" xml:space="preserve" y="0.8em" font-weight="normal" text-anchor="start" fill="#cccccc" pointer-events="none" display="block" font-family="Open Sans, Tahoma, Arial"><tspan dy="0" display="block">JIM v0.2.0</tspan></text></g></g></g></g></svg>