<svg xmlns="http://www.w3.org/2000/svg" xmlns:xlink="http://www.w3.org/1999/xlink" version="1.1" viewBox="0 0 3990 1600" style="background: #0e1117"><defs joint-selector="defs"></defs><g joint-selector="layers"  transform="matrix(1,0,0,1,0,0)"><g ></g><g ><!--z-index:0--><!--z-index:1--><!--z-index:2--><!--z-index:3--><!--z-index:4--><!--z-index:5--><!--z-index:6--><!--z-index:7--><!--z-index:8--><!--z-index:9--><!--z-index:10--><!--z-index:11--><!--z-index:12--><!--z-index:13--><!--z-index:14--><!--z-index:15--><!--z-index:16--><!--z-index:17--><!--z-index:18--><!--z-index:19--><!--z-index:20--><g   id="j_137"  transform="translate(20,1496)"><g id="v-2084"><text  id="v-2085" font-size="24px" xml:space="preserve" y="0.8em" font-weight="normal" text-anchor="start" fill="#cccccc" pointer-events="none" display="block" font-family="Open Sans, Tahoma, Arial"><tspan dy="0"  display="block">Friday, February 20, 2026 at 4:37 PM Coordinated Universal Time</tspan></text></g></g><!--z-index:21--><g   id="j_136"  transform="translate(20,1462)"><g id="v-2082"><text  id="v-2083" font-size="24px" xml:space="preserve" y="0.8em" font-weight="normal" text-anchor="start" fill="#cccccc" pointer-events="none" display="block" font-family="Open Sans, Tahoma, Arial"><tspan dy="0"  display="block">Component diagram for JIM Connectors</tspan></text></g></g><!--z-index:22--><g   id="j_135"  transform="translate(20,1416)"><g id="v-2080"><text  id="v-2081" font-size="36px" xml:space="preserve" y="0.8em" font-weight="normal" text-anchor="start" fill="#cccccc" pointer-events="none" display="block" font-family="Open Sans, Tahoma, Arial"><tspan dy="0"  display="block">Component View: JIM - Connectors</tspan></text></g></g><!--z-index:23--><g   id="j_138"  transform="translate(200,982)" style=""><g  id="v-2092" style="opacity: 1;"><rect  id="v-2093" rx="20" ry="20" stroke-width="2" pointer-events="visiblePainted" fill="#777777" stroke="#6b6b6b" stroke-dasharray="" width="450" height="300"></rect><text  id="v-2094" font-size="33.599999999999994px" xml:space="preserve" y="86.9" font-weight="bold" text-anchor="middle" pointer-events="visible" font-family="Open Sans, Tahoma, Arial" fill="#ffffff" dominant-baseline="hanging" transform="matrix(1,0,0,1,225,0)"><tspan dy="0" >Active Directory / LDAP</tspan></text><text  id="v-2095" font-size="16.799999999999997px" xml:space="preserve" y="128.5" text-anchor="middle" font-family="Open Sans, Tahoma, Arial" fill="#ffffff" dominant-baseline="hanging" transform="matrix(1,0,0,1,225,0)" style="display: block;"><tspan dy="0" >[Software System]</tspan></text><text  id="v-2096" font-size="24px" xml:space="preserve" y="160.3" text-anchor="middle" font-family="Open Sans, Tahoma, Arial" fill="#ffffff" dominant-baseline="hanging" transform="matrix(1,0,0,1,225,0)" style="display: block;"><tspan dy="0" >Enterprise directory services for</tspan><tspan dy="1.2em" x="0" >users and groups</tspan></text><g  id="v-2097" color="#ffffff" transform="matrix(1,0,0,1,222.5,268)" display="none"><g ></g><g ></g><g ></g><g ></g></g><image  id="v-2098"></image></g></g><!--z-index:24--><g   id="j_139"  transform="translate(950,982)" style=""><g  id="v-2102" style="opacity: 1;"><rect  id="v-2103" rx="20" ry="20" stroke-width="2" pointer-events="visiblePainted" fill="#777777" stroke="#6b6b6b" stroke-dasharray="" width="450" height="300"></rect><text  id="v-2104" font-size="33.599999999999994px" xml:space="preserve" y="86.9" font-weight="bold" text-anchor="middle" pointer-events="visible" font-family="Open Sans, Tahoma, Arial" fill="#ffffff" dominant-baseline="hanging" transform="matrix(1,0,0,1,225,0)"><tspan dy="0" >HR Systems</tspan></text><text  id="v-2105" font-size="16.799999999999997px" xml:space="preserve" y="128.5" text-anchor="middle" font-family="Open Sans, Tahoma, Arial" fill="#ffffff" dominant-baseline="hanging" transform="matrix(1,0,0,1,225,0)" style="display: block;"><tspan dy="0" >[Software System]</tspan></text><text  id="v-2106" font-size="24px" xml:space="preserve" y="160.3" text-anchor="middle" font-family="Open Sans, Tahoma, Arial" fill="#ffffff" dominant-baseline="hanging" transform="matrix(1,0,0,1,225,0)" style="display: block;"><tspan dy="0" >Authoritative source for employee</tspan><tspan dy="1.2em" x="0" >identity data</tspan></text><g  id="v-2107" color="#ffffff" transform="matrix(1,0,0,1,222.5,268)" display="none"><g ></g><g ></g><g ></g><g ></g></g><image  id="v-2108"></image></g></g><!--z-index:25--><g   id="j_140"  transform="translate(1700,982)" style=""><g  id="v-2112" style="opacity: 1;"><rect  id="v-2113" rx="20" ry="20" stroke-width="2" pointer-events="visiblePainted" fill="#777777" stroke="#6b6b6b" stroke-dasharray="" width="450" height="300"></rect><text  id="v-2114" font-size="33.599999999999994px" xml:space="preserve" y="101.30000000000001" font-weight="bold" text-anchor="middle" pointer-events="visible" font-family="Open Sans, Tahoma, Arial" fill="#ffffff" dominant-baseline="hanging" transform="matrix(1,0,0,1,225,0)"><tspan dy="0" >File Systems</tspan></text><text  id="v-2115" font-size="16.799999999999997px" xml:space="preserve" y="142.9" text-anchor="middle" font-family="Open Sans, Tahoma, Arial" fill="#ffffff" dominant-baseline="hanging" transform="matrix(1,0,0,1,225,0)" style="display: block;"><tspan dy="0" >[Software System]</tspan></text><text  id="v-2116" font-size="24px" xml:space="preserve" y="174.7" text-anchor="middle" font-family="Open Sans, Tahoma, Arial" fill="#ffffff" dominant-baseline="hanging" transform="matrix(1,0,0,1,225,0)" style="display: block;"><tspan dy="0" >CSV file-based bulk import/export</tspan></text><g  id="v-2117" color="#ffffff" transform="matrix(1,0,0,1,222.5,268)" display="none"><g ></g><g ></g><g ></g><g ></g></g><image  id="v-2118"></image></g></g><!--z-index:26--><g   id="j_141"  transform="translate(2450,982)" style=""><g  id="v-2125" style="opacity: 1;"><rect  id="v-2126" rx="20" ry="20" stroke-width="2" pointer-events="visiblePainted" fill="#1a1a1a" stroke="#171717" stroke-dasharray="8,8" width="450" height="300"></rect><text  id="v-2127" font-size="33.599999999999994px" xml:space="preserve" y="86.9" font-weight="bold" text-anchor="middle" pointer-events="visible" font-family="Open Sans, Tahoma, Arial" fill="#4d4d4d" dominant-baseline="hanging" transform="matrix(1,0,0,1,225,0)"><tspan dy="0" >Enterprise Databases</tspan></text><text  id="v-2128" font-size="16.799999999999997px" xml:space="preserve" y="128.5" text-anchor="middle" font-family="Open Sans, Tahoma, Arial" fill="#4d4d4d" dominant-baseline="hanging" transform="matrix(1,0,0,1,225,0)" style="display: block;"><tspan dy="0" >[Software System]</tspan></text><text  id="v-2129" font-size="24px" xml:space="preserve" y="160.3" text-anchor="middle" font-family="Open Sans, Tahoma, Arial" fill="#4d4d4d" dominant-baseline="hanging" transform="matrix(1,0,0,1,225,0)" style="display: block;"><tspan dy="0" >PostgreSQL, MySQL, Oracle, SQL</tspan><tspan dy="1.2em" x="0" >Server with identity data</tspan></text><g  id="v-2130" color="#4d4d4d" transform="matrix(1,0,0,1,222.5,268)" display="none"><g ></g><g ></g><g ></g><g ></g></g><image  id="v-2131"></image></g></g><!--z-index:27--><g   id="j_142"  transform="translate(3250,982)" style=""><g  id="v-2138" style="opacity: 1;"><rect  id="v-2139" rx="20" ry="20" stroke-width="2" pointer-events="visiblePainted" fill="#1a1a1a" stroke="#171717" stroke-dasharray="8,8" width="450" height="300"></rect><text  id="v-2140" font-size="33.599999999999994px" xml:space="preserve" y="86.9" font-weight="bold" text-anchor="middle" pointer-events="visible" font-family="Open Sans, Tahoma, Arial" fill="#4d4d4d" dominant-baseline="hanging" transform="matrix(1,0,0,1,225,0)"><tspan dy="0" >SCIM 2.0 Systems</tspan></text><text  id="v-2141" font-size="16.799999999999997px" xml:space="preserve" y="128.5" text-anchor="middle" font-family="Open Sans, Tahoma, Arial" fill="#4d4d4d" dominant-baseline="hanging" transform="matrix(1,0,0,1,225,0)" style="display: block;"><tspan dy="0" >[Software System]</tspan></text><text  id="v-2142" font-size="24px" xml:space="preserve" y="160.3" text-anchor="middle" font-family="Open Sans, Tahoma, Arial" fill="#4d4d4d" dominant-baseline="hanging" transform="matrix(1,0,0,1,225,0)" style="display: block;"><tspan dy="0" >Cloud applications supporting</tspan><tspan dy="1.2em" x="0" >SCIM provisioning</tspan></text><g  id="v-2143" color="#4d4d4d" transform="matrix(1,0,0,1,222.5,268)" display="none"><g ></g><g ></g><g ></g><g ></g></g><image  id="v-2144"></image></g></g><!--z-index:28--><g   id="j_145"  transform="translate(610,142)" style=""><g id="v-2160"><rect  id="v-2161" width="3180" height="538" rx="20" ry="20" stroke-width="2" pointer-events="none" stroke="#2780cf" fill="#0e1117" stroke-dasharray=""></rect><text  id="v-2162" font-size="33.599999999999994px" xml:space="preserve" y="499" font-weight="bold" text-anchor="start" pointer-events="visible" font-family="Open Sans, Tahoma, Arial" fill="#ffffff" transform="matrix(1,0,0,1,15,0)"><tspan dy="0" >JIM</tspan></text><text  id="v-2163" font-size="16.799999999999997px" xml:space="preserve" y="523" font-weight="normal" text-anchor="start" pointer-events="visible" font-family="Open Sans, Tahoma, Arial" fill="#ffffff" transform="matrix(1,0,0,1,15,0)"><tspan dy="0" >[Software System]</tspan></text><image  id="v-2164" pointer-events="visible"></image></g></g><!--z-index:29--><g   id="j_144"  transform="translate(630,162)" style=""><g id="v-2155"><rect  id="v-2156" width="3140" height="419" rx="20" ry="20" stroke-width="2" pointer-events="none" stroke="#5195d4" fill="#0e1117" stroke-dasharray=""></rect><text  id="v-2157" font-size="33.599999999999994px" xml:space="preserve" y="380" font-weight="bold" text-anchor="start" pointer-events="visible" font-family="Open Sans, Tahoma, Arial" fill="#ffffff" transform="matrix(1,0,0,1,15,0)"><tspan dy="0" >Connectors</tspan></text><text  id="v-2158" font-size="16.799999999999997px" xml:space="preserve" y="404" font-weight="normal" text-anchor="start" pointer-events="visible" font-family="Open Sans, Tahoma, Arial" fill="#ffffff" transform="matrix(1,0,0,1,15,0)"><tspan dy="0" >[Container]</tspan></text><image  id="v-2159" pointer-events="visible"></image></g></g><!--z-index:30--><g   id="j_143"  transform="translate(650,182)" style=""><g  id="v-2148" style="opacity: 1;"><rect  id="v-2149" rx="20" ry="20" stroke-width="2" pointer-events="visiblePainted" fill="#4a90d9" stroke="#4382c3" stroke-dasharray="" width="550" height="300"></rect><text  id="v-2150" font-size="33.599999999999994px" xml:space="preserve" y="72.5" font-weight="bold" text-anchor="middle" pointer-events="visible" font-family="Open Sans, Tahoma, Arial" fill="#ffffff" dominant-baseline="hanging" transform="matrix(1,0,0,1,275,0)"><tspan dy="0" >LDAP Connector</tspan></text><text  id="v-2151" font-size="16.799999999999997px" xml:space="preserve" y="114.1" text-anchor="middle" font-family="Open Sans, Tahoma, Arial" fill="#ffffff" dominant-baseline="hanging" transform="matrix(1,0,0,1,275,0)" style="display: block;"><tspan dy="0" >[Component: IConnector Implementation]</tspan></text><text  id="v-2152" font-size="24px" xml:space="preserve" y="145.89999999999998" text-anchor="middle" font-family="Open Sans, Tahoma, Arial" fill="#ffffff" dominant-baseline="hanging" transform="matrix(1,0,0,1,275,0)" style="display: block;"><tspan dy="0" >Active Directory, OpenLDAP, AD-LDS -</tspan><tspan dy="1.2em" x="0" >schema discovery, LDAPS, partitions, delta</tspan><tspan dy="1.2em" x="0" >import</tspan></text><g  id="v-2153" color="#ffffff" transform="matrix(1,0,0,1,272.5,268)" display="none"><g ></g><g ></g><g ></g><g ></g></g><image  id="v-2154"></image></g></g><!--z-index:31--><g   id="j_146"  transform="translate(1500,182)" style=""><g  id="v-2168" style="opacity: 1;"><rect  id="v-2169" rx="20" ry="20" stroke-width="2" pointer-events="visiblePainted" fill="#4a90d9" stroke="#4382c3" stroke-dasharray="" width="550" height="300"></rect><text  id="v-2170" font-size="33.599999999999994px" xml:space="preserve" y="86.9" font-weight="bold" text-anchor="middle" pointer-events="visible" font-family="Open Sans, Tahoma, Arial" fill="#ffffff" dominant-baseline="hanging" transform="matrix(1,0,0,1,275,0)"><tspan dy="0" >File Connector</tspan></text><text  id="v-2171" font-size="16.799999999999997px" xml:space="preserve" y="128.5" text-anchor="middle" font-family="Open Sans, Tahoma, Arial" fill="#ffffff" dominant-baseline="hanging" transform="matrix(1,0,0,1,275,0)" style="display: block;"><tspan dy="0" >[Component: IConnector Implementation]</tspan></text><text  id="v-2172" font-size="24px" xml:space="preserve" y="160.3" text-anchor="middle" font-family="Open Sans, Tahoma, Arial" fill="#ffffff" dominant-baseline="hanging" transform="matrix(1,0,0,1,275,0)" style="display: block;"><tspan dy="0" >CSV import/export, configurable delimiters,</tspan><tspan dy="1.2em" x="0" >schema discovery</tspan></text><g  id="v-2173" color="#ffffff" transform="matrix(1,0,0,1,272.5,268)" display="none"><g ></g><g ></g><g ></g><g ></g></g><image  id="v-2174"></image></g></g><!--z-index:32--><g   id="j_147"  transform="translate(2350,182)" style=""><g  id="v-2178" style="opacity: 1;"><rect  id="v-2179" rx="20" ry="20" stroke-width="2" pointer-events="visiblePainted" fill="#1a1a1a" stroke="#171717" stroke-dasharray="8,8" width="550" height="300"></rect><text  id="v-2180" font-size="33.599999999999994px" xml:space="preserve" y="86.9" font-weight="bold" text-anchor="middle" pointer-events="visible" font-family="Open Sans, Tahoma, Arial" fill="#4d4d4d" dominant-baseline="hanging" transform="matrix(1,0,0,1,275,0)"><tspan dy="0" >Database Connector</tspan></text><text  id="v-2181" font-size="16.799999999999997px" xml:space="preserve" y="128.5" text-anchor="middle" font-family="Open Sans, Tahoma, Arial" fill="#4d4d4d" dominant-baseline="hanging" transform="matrix(1,0,0,1,275,0)" style="display: block;"><tspan dy="0" >[Component: IConnector Implementation]</tspan></text><text  id="v-2182" font-size="24px" xml:space="preserve" y="160.3" text-anchor="middle" font-family="Open Sans, Tahoma, Arial" fill="#4d4d4d" dominant-baseline="hanging" transform="matrix(1,0,0,1,275,0)" style="display: block;"><tspan dy="0" >PostgreSQL, MySQL, Oracle, SQL Server -</tspan><tspan dy="1.2em" x="0" >SQL queries, stored procedures</tspan></text><g  id="v-2183" color="#4d4d4d" transform="matrix(1,0,0,1,272.5,268)" display="none"><g ></g><g ></g><g ></g><g ></g></g><image  id="v-2184"></image></g></g><!--z-index:33--><g   id="j_148"  transform="translate(3200,182)" style=""><g  id="v-2188" style="opacity: 1;"><rect  id="v-2189" rx="20" ry="20" stroke-width="2" pointer-events="visiblePainted" fill="#1a1a1a" stroke="#171717" stroke-dasharray="8,8" width="550" height="300"></rect><text  id="v-2190" font-size="33.599999999999994px" xml:space="preserve" y="86.9" font-weight="bold" text-anchor="middle" pointer-events="visible" font-family="Open Sans, Tahoma, Arial" fill="#4d4d4d" dominant-baseline="hanging" transform="matrix(1,0,0,1,275,0)"><tspan dy="0" >SCIM 2.0 Connector</tspan></text><text  id="v-2191" font-size="16.799999999999997px" xml:space="preserve" y="128.5" text-anchor="middle" font-family="Open Sans, Tahoma, Arial" fill="#4d4d4d" dominant-baseline="hanging" transform="matrix(1,0,0,1,275,0)" style="display: block;"><tspan dy="0" >[Component: IConnector Implementation]</tspan></text><text  id="v-2192" font-size="24px" xml:space="preserve" y="160.3" text-anchor="middle" font-family="Open Sans, Tahoma, Arial" fill="#4d4d4d" dominant-baseline="hanging" transform="matrix(1,0,0,1,275,0)" style="display: block;"><tspan dy="0" >Cloud application provisioning via SCIM</tspan><tspan dy="1.2em" x="0" >protocol</tspan></text><g  id="v-2193" color="#4d4d4d" transform="matrix(1,0,0,1,272.5,268)" display="none"><g ></g><g ></g><g ></g><g ></g></g><image  id="v-2194"></image></g></g><!--z-index:34--><g   id="j_149" ><path  stroke="#cccccc" d="M 831 482 L 519 982" id="v-2207" stroke-width="2" stroke-dasharray="" fill="none" style="opacity: 1;"></path><path  fill="black" stroke="black" d="M 0 0 0 0" transform="matrix(-0.5299989865422611,0.8479982749181604,-0.8479982749181604,-0.5299989865422611,831.25,482)"></path><path  fill="#cccccc" stroke="#cccccc" d="M 20 0 L 0 10 L 20 20 z" id="v-2209" transform="matrix(0.5299987607066414,-0.847998416065398,0.847998416065398,0.5299987607066414,510.27001602524837,976.7000160848376)" style="opacity: 1;"></path><path  d="M 831 482 L 519 982" id="v-2208" fill="none" style="cursor: auto; pointer-events: visiblepainted;"></path><g ><g id="v-2198"  label-idx="0" cursor="move" transform="matrix(1,0,0,1,675,718.5999755859375)" style="cursor: default; opacity: 1;"><rect joint-selector="rect" id="v-2202" fill="#0e1117" rx="3" ry="3" pointer-events="none" width="137.40847778320312" height="31.313705444335938" transform="matrix(1,0,0,1,-66.5,-15.7)"></rect><text joint-selector="text" id="v-2201" font-size="24px" xml:space="preserve" y="0.8em" fill="#cccccc" text-anchor="middle" pointer-events="none" font-family="Open Sans, Tahoma, Arial" font-weight="normal" transform="matrix(1,0,0,1,0,-9.8)"><tspan dy="0" >Connects to</tspan></text></g><g id="v-2199"  label-idx="1" cursor="move" transform="matrix(1,0,0,1,675,749)" style="cursor: default; opacity: 1;"><rect joint-selector="rect" id="v-2204" fill="#0e1117" rx="3" ry="3"  pointer-events="none" width="110.09422302246094" height="25.050965309143066" transform="matrix(1,0,0,1,-54.7,-12.5)" style="display: block;"></rect><text joint-selector="text" id="v-2203" font-size="16.799999999999997px" xml:space="preserve" y="0.8em" fill="#cccccc" text-anchor="middle" pointer-events="none"  font-family="Open Sans, Tahoma, Arial" font-weight="normal" transform="matrix(1,0,0,1,0,-7.2)" style="display: block;"><tspan dy="0" >[LDAP/LDAPS]</tspan></text></g><g id="v-2200"  label-idx="2" cursor="move" transform="matrix(1,0,0,1,665,757.4000244140625)" style="cursor: default; opacity: 1;"><rect joint-selector="rect" id="v-2206" fill="#ffffff" rx="3" ry="3"  width="0" height="0" transform="matrix(1,0,0,1,0,0)" display="none"></rect><text joint-selector="text" id="v-2205" fill="#000000" font-size="14" text-anchor="middle" pointer-events="none"></text></g></g><g  display="none" style="display: none;"></g><g  id="v-2211" display="none"><g  id="v-2196"><path  end="source" d="M 26 0 L 0 13 L 26 26 z"></path></g><g  id="v-2197"><path  end="target" d="M 26 0 L 0 13 L 26 26 z"></path></g></g><g  id="v-2210" display="none"><g  id="v-2195" transform="translate(809.8244507086954, 515.9351751463216) "><g  event="remove"><circle r="11"></circle><path transform="scale(.8) translate(-16, -16)" d="M24.778,21.419 19.276,15.917 24.777,10.415 21.949,7.585 16.447,13.087 10.945,7.585 8.117,10.415 13.618,15.917 8.116,21.419 10.946,24.248 16.447,18.746 21.948,24.248z"></path><title>Remove link.</title></g><g  event="link:options"><circle r="11" transform="translate(25)"></circle><path fill="white" transform="scale(.55) translate(29, -16)" d="M31.229,17.736c0.064-0.571,0.104-1.148,0.104-1.736s-0.04-1.166-0.104-1.737l-4.377-1.557c-0.218-0.716-0.504-1.401-0.851-2.05l1.993-4.192c-0.725-0.91-1.549-1.734-2.458-2.459l-4.193,1.994c-0.647-0.347-1.334-0.632-2.049-0.849l-1.558-4.378C17.165,0.708,16.588,0.667,16,0.667s-1.166,0.041-1.737,0.105L12.707,5.15c-0.716,0.217-1.401,0.502-2.05,0.849L6.464,4.005C5.554,4.73,4.73,5.554,4.005,6.464l1.994,4.192c-0.347,0.648-0.632,1.334-0.849,2.05l-4.378,1.557C0.708,14.834,0.667,15.412,0.667,16s0.041,1.165,0.105,1.736l4.378,1.558c0.217,0.715,0.502,1.401,0.849,2.049l-1.994,4.193c0.725,0.909,1.549,1.733,2.459,2.458l4.192-1.993c0.648,0.347,1.334,0.633,2.05,0.851l1.557,4.377c0.571,0.064,1.148,0.104,1.737,0.104c0.588,0,1.165-0.04,1.736-0.104l1.558-4.377c0.715-0.218,1.399-0.504,2.049-0.851l4.193,1.993c0.909-0.725,1.733-1.549,2.458-2.458l-1.993-4.193c0.347-0.647,0.633-1.334,0.851-2.049L31.229,17.736zM16,20.871c-2.69,0-4.872-2.182-4.872-4.871c0-2.69,2.182-4.872,4.872-4.872c2.689,0,4.871,2.182,4.871,4.872C20.871,18.689,18.689,20.871,16,20.871z"></path><title>Link options.</title></g></g></g></g><!--z-index:35--><g   id="j_150" ><path  stroke="#cccccc" d="M 1803 482 L 1897 982" id="v-2227" stroke-width="2" stroke-dasharray="" fill="none" style="opacity: 1;"></path><path  fill="black" stroke="black" d="M 0 0 0 0" transform="matrix(0.18428847532349488,0.9828721981330744,-0.9828721981330744,0.18428847532349488,1803.1300048828125,482)"></path><path  fill="#cccccc" stroke="#cccccc" d="M 20 0 L 0 10 L 20 20 z" id="v-2229" transform="matrix(-0.18428860620084273,-0.9828721735935708,0.9828721735935708,-0.18428860620084273,1887.0512737010727,983.8428724463816)" style="opacity: 1;"></path><path  d="M 1803 482 L 1897 982" id="v-2228" fill="none" style="cursor: auto; pointer-events: visiblepainted;"></path><g ><g id="v-2218"  label-idx="0" cursor="move" transform="matrix(1,0,0,1,1850,718.5999755859375)" style="cursor: default; opacity: 1;"><rect joint-selector="rect" id="v-2222" fill="#0e1117" rx="3" ry="3" pointer-events="none" width="148.98635864257812" height="31.313705444335938" transform="matrix(1,0,0,1,-74,-15.7)"></rect><text joint-selector="text" id="v-2221" font-size="24px" xml:space="preserve" y="0.8em" fill="#cccccc" text-anchor="middle" pointer-events="none" font-family="Open Sans, Tahoma, Arial" font-weight="normal" transform="matrix(1,0,0,1,0,-9.8)"><tspan dy="0" >Reads/Writes</tspan></text></g><g id="v-2219"  label-idx="1" cursor="move" transform="matrix(1,0,0,1,1850,749)" style="cursor: default; opacity: 1;"><rect joint-selector="rect" id="v-2224" fill="#0e1117" rx="3" ry="3"  pointer-events="none" width="66.38996887207031" height="25.050965309143066" transform="matrix(1,0,0,1,-32.8,-12.5)" style="display: block;"></rect><text joint-selector="text" id="v-2223" font-size="16.799999999999997px" xml:space="preserve" y="0.8em" fill="#cccccc" text-anchor="middle" pointer-events="none"  font-family="Open Sans, Tahoma, Arial" font-weight="normal" transform="matrix(1,0,0,1,0,-7.2)" style="display: block;"><tspan dy="0" >[File I/O]</tspan></text></g><g id="v-2220"  label-idx="2" cursor="move" transform="matrix(1,0,0,1,1840,757.4000244140625)" style="cursor: default; opacity: 1;"><rect joint-selector="rect" id="v-2226" fill="#ffffff" rx="3" ry="3"  width="0" height="0" transform="matrix(1,0,0,1,0,0)" display="none"></rect><text joint-selector="text" id="v-2225" fill="#000000" font-size="14" text-anchor="middle" pointer-events="none"></text></g></g><g  display="none" style="display: none;"></g><g  id="v-2231" display="none"><g  id="v-2216"><path  end="source" d="M 26 0 L 0 13 L 26 26 z"></path></g><g  id="v-2217"><path  end="target" d="M 26 0 L 0 13 L 26 26 z"></path></g></g><g  id="v-2230" display="none"><g  id="v-2215" transform="translate(1810.3905286527954, 521.3113226212527) "><g  event="remove"><circle r="11"></circle><path transform="scale(.8) translate(-16, -16)" d="M24.778,21.419 19.276,15.917 24.777,10.415 21.949,7.585 16.447,13.087 10.945,7.585 8.117,10.415 13.618,15.917 8.116,21.419 10.946,24.248 16.447,18.746 21.948,24.248z"></path><title>Remove link.</title></g><g  event="link:options"><circle r="11" transform="translate(25)"></circle><path fill="white" transform="scale(.55) translate(29, -16)" d="M31.229,17.736c0.064-0.571,0.104-1.148,0.104-1.736s-0.04-1.166-0.104-1.737l-4.377-1.557c-0.218-0.716-0.504-1.401-0.851-2.05l1.993-4.192c-0.725-0.91-1.549-1.734-2.458-2.459l-4.193,1.994c-0.647-0.347-1.334-0.632-2.049-0.849l-1.558-4.378C17.165,0.708,16.588,0.667,16,0.667s-1.166,0.041-1.737,0.105L12.707,5.15c-0.716,0.217-1.401,0.502-2.05,0.849L6.464,4.005C5.554,4.73,4.73,5.554,4.005,6.464l1.994,4.192c-0.347,0.648-0.632,1.334-0.849,2.05l-4.378,1.557C0.708,14.834,0.667,15.412,0.667,16s0.041,1.165,0.105,1.736l4.378,1.558c0.217,0.715,0.502,1.401,0.849,2.049l-1.994,4.193c0.725,0.909,1.549,1.733,2.459,2.458l4.192-1.993c0.648,0.347,1.334,0.633,2.05,0.851l1.557,4.377c0.571,0.064,1.148,0.104,1.737,0.104c0.588,0,1.165-0.04,1.736-0.104l1.558-4.377c0.715-0.218,1.399-0.504,2.049-0.851l4.193,1.993c0.909-0.725,1.733-1.549,2.458-2.458l-1.993-4.193c0.347-0.647,0.633-1.334,0.851-2.049L31.229,17.736zM16,20.871c-2.69,0-4.872-2.182-4.872-4.871c0-2.69,2.182-4.872,4.872-4.872c2.689,0,4.871,2.182,4.871,4.872C20.871,18.689,18.689,20.871,16,20.871z"></path><title>Link options.</title></g></g></g></g><!--z-index:36--><g   id="j_151" ><path  stroke="#cccccc" d="M 1663 482 L 1288 982" id="v-2247" stroke-width="2" stroke-dasharray="" fill="none" style="opacity: 1;"></path><path  fill="black" stroke="black" d="M 0 0 0 0" transform="matrix(-0.5999999761129287,0.8000000179153027,-0.8000000179153027,-0.5999999761129287,1662.5,482)"></path><path  fill="#cccccc" stroke="#cccccc" d="M 20 0 L 0 10 L 20 20 z" id="v-2249" transform="matrix(0.6000000826393694,-0.799999938020466,0.799999938020466,0.6000000826393694,1279.4999997934017,975.999998553811)" style="opacity: 1;"></path><path  d="M 1663 482 L 1288 982" id="v-2248" fill="none" style="cursor: auto; pointer-events: visiblepainted;"></path><g ><g id="v-2238"  label-idx="0" cursor="move" transform="matrix(1,0,0,1,1475.5,718.5999755859375)" style="cursor: default; opacity: 1;"><rect joint-selector="rect" id="v-2242" fill="#0e1117" rx="3" ry="3" pointer-events="none" width="151.31558227539062" height="31.313705444335938" transform="matrix(1,0,0,1,-74.3,-15.7)"></rect><text joint-selector="text" id="v-2241" font-size="24px" xml:space="preserve" y="0.8em" fill="#cccccc" text-anchor="middle" pointer-events="none" font-family="Open Sans, Tahoma, Arial" font-weight="normal" transform="matrix(1,0,0,1,0,-9.8)"><tspan dy="0" >Imports from</tspan></text></g><g id="v-2239"  label-idx="1" cursor="move" transform="matrix(1,0,0,1,1475.5,749)" style="cursor: default; opacity: 1;"><rect joint-selector="rect" id="v-2244" fill="#0e1117" rx="3" ry="3"  pointer-events="none" width="41.4288330078125" height="25.050965309143066" transform="matrix(1,0,0,1,-20.4,-12.5)" style="display: block;"></rect><text joint-selector="text" id="v-2243" font-size="16.799999999999997px" xml:space="preserve" y="0.8em" fill="#cccccc" text-anchor="middle" pointer-events="none"  font-family="Open Sans, Tahoma, Arial" font-weight="normal" transform="matrix(1,0,0,1,0,-7.2)" style="display: block;"><tspan dy="0" >[CSV]</tspan></text></g><g id="v-2240"  label-idx="2" cursor="move" transform="matrix(1,0,0,1,1465.5,757.4000244140625)" style="cursor: default; opacity: 1;"><rect joint-selector="rect" id="v-2246" fill="#ffffff" rx="3" ry="3"  width="0" height="0" transform="matrix(1,0,0,1,0,0)" display="none"></rect><text joint-selector="text" id="v-2245" fill="#000000" font-size="14" text-anchor="middle" pointer-events="none"></text></g></g><g  display="none" style="display: none;"></g><g  id="v-2251" display="none"><g  id="v-2236"><path  end="source" d="M 26 0 L 0 13 L 26 26 z"></path></g><g  id="v-2237"><path  end="target" d="M 26 0 L 0 13 L 26 26 z"></path></g></g><g  id="v-2250" display="none"><g  id="v-2235" transform="translate(1639, 514) "><g  event="remove"><circle r="11"></circle><path transform="scale(.8) translate(-16, -16)" d="M24.778,21.419 19.276,15.917 24.777,10.415 21.949,7.585 16.447,13.087 10.945,7.585 8.117,10.415 13.618,15.917 8.116,21.419 10.946,24.248 16.447,18.746 21.948,24.248z"></path><title>Remove link.</title></g><g  event="link:options"><circle r="11" transform="translate(25)"></circle><path fill="white" transform="scale(.55) translate(29, -16)" d="M31.229,17.736c0.064-0.571,0.104-1.148,0.104-1.736s-0.04-1.166-0.104-1.737l-4.377-1.557c-0.218-0.716-0.504-1.401-0.851-2.05l1.993-4.192c-0.725-0.91-1.549-1.734-2.458-2.459l-4.193,1.994c-0.647-0.347-1.334-0.632-2.049-0.849l-1.558-4.378C17.165,0.708,16.588,0.667,16,0.667s-1.166,0.041-1.737,0.105L12.707,5.15c-0.716,0.217-1.401,0.502-2.05,0.849L6.464,4.005C5.554,4.73,4.73,5.554,4.005,6.464l1.994,4.192c-0.347,0.648-0.632,1.334-0.849,2.05l-4.378,1.557C0.708,14.834,0.667,15.412,0.667,16s0.041,1.165,0.105,1.736l4.378,1.558c0.217,0.715,0.502,1.401,0.849,2.049l-1.994,4.193c0.725,0.909,1.549,1.733,2.459,2.458l4.192-1.993c0.648,0.347,1.334,0.633,2.05,0.851l1.557,4.377c0.571,0.064,1.148,0.104,1.737,0.104c0.588,0,1.165-0.04,1.736-0.104l1.558-4.377c0.715-0.218,1.399-0.504,2.049-0.851l4.193,1.993c0.909-0.725,1.733-1.549,2.458-2.458l-1.993-4.193c0.347-0.647,0.633-1.334,0.851-2.049L31.229,17.736zM16,20.871c-2.69,0-4.872-2.182-4.872-4.871c0-2.69,2.182-4.872,4.872-4.872c2.689,0,4.871,2.182,4.871,4.872C20.871,18.689,18.689,20.871,16,20.871z"></path><title>Link options.</title></g></g></g></g><!--z-index:37--><g   id="j_152" ><path  stroke="#666666" d="M 2634 482 L 2666 982" id="v-2264" stroke-width="2" stroke-dasharray="8 8" fill="none" style="opacity: 1;"></path><path  fill="black" stroke="black" d="M 0 0 0 0" transform="matrix(0.06237824639192365,0.9980525809680912,-0.9980525809680912,0.06237824639192365,2634.3798828125,482)"></path><path  fill="#666666" stroke="#666666" d="M 20 0 L 0 10 L 20 20 z" id="v-2266" transform="matrix(-0.062378113493182945,-0.9980525892742483,0.9980525892742483,-0.062378113493182945,2655.6493587578143,982.623777242518)" style="opacity: 1;"></path><path  d="M 2634 482 L 2666 982" id="v-2265" fill="none" style="cursor: auto; pointer-events: visiblepainted;"></path><g ><g id="v-2255"  label-idx="0" cursor="move" transform="matrix(1,0,0,1,2650,718.5999755859375)" style="cursor: default; opacity: 1;"><rect joint-selector="rect" id="v-2259" fill="#0e1117" rx="3" ry="3" pointer-events="none" width="137.40847778320312" height="31.313705444335938" transform="matrix(1,0,0,1,-66.5,-15.7)"></rect><text joint-selector="text" id="v-2258" font-size="24px" xml:space="preserve" y="0.8em" fill="#666666" text-anchor="middle" pointer-events="none" font-family="Open Sans, Tahoma, Arial" font-weight="normal" transform="matrix(1,0,0,1,0,-9.8)"><tspan dy="0" >Connects to</tspan></text></g><g id="v-2256"  label-idx="1" cursor="move" transform="matrix(1,0,0,1,2650,749)" style="cursor: default; opacity: 1;"><rect joint-selector="rect" id="v-2261" fill="#0e1117" rx="3" ry="3"  pointer-events="none" width="42.66263198852539" height="25.050965309143066" transform="matrix(1,0,0,1,-20.9,-12.5)" style="display: block;"></rect><text joint-selector="text" id="v-2260" font-size="16.799999999999997px" xml:space="preserve" y="0.8em" fill="#666666" text-anchor="middle" pointer-events="none"  font-family="Open Sans, Tahoma, Arial" font-weight="normal" transform="matrix(1,0,0,1,0,-7.2)" style="display: block;"><tspan dy="0" >[SQL]</tspan></text></g><g id="v-2257"  label-idx="2" cursor="move" transform="matrix(1,0,0,1,2640,757.4000244140625)" style="cursor: default; opacity: 1;"><rect joint-selector="rect" id="v-2263" fill="#ffffff" rx="3" ry="3"  width="0" height="0" transform="matrix(1,0,0,1,0,0)" display="none"></rect><text joint-selector="text" id="v-2262" fill="#000000" font-size="14" text-anchor="middle" pointer-events="none"></text></g></g><g  display="none" style="display: none;"></g><g  id="v-2268" display="none"><g  id="v-2253"><path  end="source" d="M 26 0 L 0 13 L 26 26 z"></path></g><g  id="v-2254"><path  end="target" d="M 26 0 L 0 13 L 26 26 z"></path></g></g><g  id="v-2267" display="none"><g  id="v-2252" transform="translate(2636.554773171348, 521.9183308023139) "><g  event="remove"><circle r="11"></circle><path transform="scale(.8) translate(-16, -16)" d="M24.778,21.419 19.276,15.917 24.777,10.415 21.949,7.585 16.447,13.087 10.945,7.585 8.117,10.415 13.618,15.917 8.116,21.419 10.946,24.248 16.447,18.746 21.948,24.248z"></path><title>Remove link.</title></g><g  event="link:options"><circle r="11" transform="translate(25)"></circle><path fill="white" transform="scale(.55) translate(29, -16)" d="M31.229,17.736c0.064-0.571,0.104-1.148,0.104-1.736s-0.04-1.166-0.104-1.737l-4.377-1.557c-0.218-0.716-0.504-1.401-0.851-2.05l1.993-4.192c-0.725-0.91-1.549-1.734-2.458-2.459l-4.193,1.994c-0.647-0.347-1.334-0.632-2.049-0.849l-1.558-4.378C17.165,0.708,16.588,0.667,16,0.667s-1.166,0.041-1.737,0.105L12.707,5.15c-0.716,0.217-1.401,0.502-2.05,0.849L6.464,4.005C5.554,4.73,4.73,5.554,4.005,6.464l1.994,4.192c-0.347,0.648-0.632,1.334-0.849,2.05l-4.378,1.557C0.708,14.834,0.667,15.412,0.667,16s0.041,1.165,0.105,1.736l4.378,1.558c0.217,0.715,0.502,1.401,0.849,2.049l-1.994,4.193c0.725,0.909,1.549,1.733,2.459,2.458l4.192-1.993c0.648,0.347,1.334,0.633,2.05,0.851l1.557,4.377c0.571,0.064,1.148,0.104,1.737,0.104c0.588,0,1.165-0.04,1.736-0.104l1.558-4.377c0.715-0.218,1.399-0.504,2.049-0.851l4.193,1.993c0.909-0.725,1.733-1.549,2.458-2.458l-1.993-4.193c0.347-0.647,0.633-1.334,0.851-2.049L31.229,17.736zM16,20.871c-2.69,0-4.872-2.182-4.872-4.871c0-2.69,2.182-4.872,4.872-4.872c2.689,0,4.871,2.182,4.871,4.872C20.871,18.689,18.689,20.871,16,20.871z"></path><title>Link options.</title></g></g></g></g><!--z-index:38--><g   id="j_153" ><path  stroke="#666666" d="M 3475 482 L 3475 982" id="v-2284" stroke-width="2" stroke-dasharray="8 8" fill="none" style="opacity: 1;"></path><path  fill="black" stroke="black" d="M 0 0 0 0" transform="matrix(6.123233995736765e-17,0.9999999999999999,-0.9999999999999999,6.123233995736765e-17,3475,482)"></path><path  fill="#666666" stroke="#666666" d="M 20 0 L 0 10 L 20 20 z" id="v-2286" transform="matrix(-1.8369701987210294e-16,-0.9999999999999999,0.9999999999999999,-1.8369701987210294e-16,3465,982)" style="opacity: 1;"></path><path  d="M 3475 482 L 3475 982" id="v-2285" fill="none" style="cursor: auto; pointer-events: visiblepainted;"></path><g ><g id="v-2275"  label-idx="0" cursor="move" transform="matrix(1,0,0,1,3475,718.5999755859375)" style="cursor: default; opacity: 1;"><rect joint-selector="rect" id="v-2279" fill="#0e1117" rx="3" ry="3" pointer-events="none" width="148.2603759765625" height="31.313705444335938" transform="matrix(1,0,0,1,-72,-15.7)"></rect><text joint-selector="text" id="v-2278" font-size="24px" xml:space="preserve" y="0.8em" fill="#666666" text-anchor="middle" pointer-events="none" font-family="Open Sans, Tahoma, Arial" font-weight="normal" transform="matrix(1,0,0,1,0,-9.8)"><tspan dy="0" >Provisions to</tspan></text></g><g id="v-2276"  label-idx="1" cursor="move" transform="matrix(1,0,0,1,3475,749)" style="cursor: default; opacity: 1;"><rect joint-selector="rect" id="v-2281" fill="#0e1117" rx="3" ry="3"  pointer-events="none" width="61.74890899658203" height="25.050965309143066" transform="matrix(1,0,0,1,-30.5,-12.5)" style="display: block;"></rect><text joint-selector="text" id="v-2280" font-size="16.799999999999997px" xml:space="preserve" y="0.8em" fill="#666666" text-anchor="middle" pointer-events="none"  font-family="Open Sans, Tahoma, Arial" font-weight="normal" transform="matrix(1,0,0,1,0,-7.2)" style="display: block;"><tspan dy="0" >[HTTPS]</tspan></text></g><g id="v-2277"  label-idx="2" cursor="move" transform="matrix(1,0,0,1,3465,757.4000244140625)" style="cursor: default; opacity: 1;"><rect joint-selector="rect" id="v-2283" fill="#ffffff" rx="3" ry="3"  width="0" height="0" transform="matrix(1,0,0,1,0,0)" display="none"></rect><text joint-selector="text" id="v-2282" fill="#000000" font-size="14" text-anchor="middle" pointer-events="none"></text></g></g><g  display="none" style="display: none;"></g><g  id="v-2288" display="none"><g  id="v-2273"><path  end="source" d="M 26 0 L 0 13 L 26 26 z"></path></g><g  id="v-2274"><path  end="target" d="M 26 0 L 0 13 L 26 26 z"></path></g></g><g  id="v-2287" display="none"><g  id="v-2272" transform="translate(3475, 522) "><g  event="remove"><circle r="11"></circle><path transform="scale(.8) translate(-16, -16)" d="M24.778,21.419 19.276,15.917 24.777,10.415 21.949,7.585 16.447,13.087 10.945,7.585 8.117,10.415 13.618,15.917 8.116,21.419 10.946,24.248 16.447,18.746 21.948,24.248z"></path><title>Remove link.</title></g><g  event="link:options"><circle r="11" transform="translate(25)"></circle><path fill="white" transform="scale(.55) translate(29, -16)" d="M31.229,17.736c0.064-0.571,0.104-1.148,0.104-1.736s-0.04-1.166-0.104-1.737l-4.377-1.557c-0.218-0.716-0.504-1.401-0.851-2.05l1.993-4.192c-0.725-0.91-1.549-1.734-2.458-2.459l-4.193,1.994c-0.647-0.347-1.334-0.632-2.049-0.849l-1.558-4.378C17.165,0.708,16.588,0.667,16,0.667s-1.166,0.041-1.737,0.105L12.707,5.15c-0.716,0.217-1.401,0.502-2.05,0.849L6.464,4.005C5.554,4.73,4.73,5.554,4.005,6.464l1.994,4.192c-0.347,0.648-0.632,1.334-0.849,2.05l-4.378,1.557C0.708,14.834,0.667,15.412,0.667,16s0.041,1.165,0.105,1.736l4.378,1.558c0.217,0.715,0.502,1.401,0.849,2.049l-1.994,4.193c0.725,0.909,1.549,1.733,2.459,2.458l4.192-1.993c0.648,0.347,1.334,0.633,2.05,0.851l1.557,4.377c0.571,0.064,1.148,0.104,1.737,0.104c0.588,0,1.165-0.04,1.736-0.104l1.558-4.377c0.715-0.218,1.399-0.504,2.049-0.851l4.193,1.993c0.909-0.725,1.733-1.549,2.458-2.458l-1.993-4.193c0.347-0.647,0.633-1.334,0.851-2.049L31.229,17.736zM16,20.871c-2.69,0-4.872-2.182-4.872-4.871c0-2.69,2.182-4.872,4.872-4.872c2.689,0,4.871,2.182,4.871,4.872C20.871,18.689,18.689,20.871,16,20.871z"></path><title>Link options.</title></g></g></g></g><!--z-index:39--><!--z-index:40--><!--z-index:41--><!--z-index:42--><!--z-index:43--><!--z-index:44--><!--z-index:45--><!--z-index:46--><!--z-index:47--><!--z-index:48--><!--z-index:49--><!--z-index:50--><!--z-index:51--><!--z-index:52--><!--z-index:53--><!--z-index:54--><!--z-index:55--><!--z-index:56--><!--z-index:57--><!--z-index:58--><!--z-index:59--><!--z-index:60--><!--z-index:61--><!--z-index:62--><!--z-index:63--><!--z-index:64--><!--z-index:65--><!--z-index:66--><!--z-index:67--><!--z-index:68--><!--z-index:69--><!--z-index:70--><!--z-index:71--><!--z-index:72--><!--z-index:73--><!--z-index:74--><!--z-index:75--><!--z-index:76--><!--z-index:77--><!--z-index:78--><!--z-index:79--><!--z-index:80--><!--z-index:81--><!--z-index:82--><!--z-index:83--><!--z-index:84--><!--z-index:85--><!--z-index:86--><!--z-index:87--><!--z-index:88--><!--z-index:89--><!--z-index:90--><!--z-index:91--><!--z-index:92--><!--z-index:93--><!--z-index:94--><!--z-index:95--><!--z-index:96--><!--z-index:97--><!--z-index:98--><!--z-index:99--><!--z-index:100--><!--z-index:101--><!--z-index:102--><!--z-index:103--><!--z-index:104--><!--z-index:105--><!--z-index:106--><!--z-index:107--><!--z-index:108--><!--z-index:109--><!--z-index:110--><!--z-index:111--><!--z-index:112--><!--z-index:113--><!--z-index:114--><!--z-index:115--><!--z-index:116--><!--z-index:117--><!--z-index:118--><!--z-index:119--><!--z-index:120--><!--z-index:121--><!--z-index:122--><!--z-index:123--><!--z-index:124--><!--z-index:125--><!--z-index:126--><!--z-index:127--><!--z-index:128--><!--z-index:129--><!--z-index:130--><!--z-index:131--><!--z-index:132--><!--z-index:133--><!--z-index:134--><!--z-index:135--><!--z-index:136--><!--z-index:137--><!--z-index:138--><!--z-index:139--><!--z-index:140--><!--z-index:141--><!--z-index:142--><!--z-index:143--><!--z-index:144--><!--z-index:145--><!--z-index:146--><!--z-index:147--><!--z-index:148--><!--z-index:149--><!--z-index:150--><!--z-index:151--><!--z-index:152--><!--z-index:153--><!--z-index:154--><!--z-index:155--><!--z-index:156--><!--z-index:157--><!--z-index:158--><!--z-index:159--><!--z-index:160--><!--z-index:161--><!--z-index:162--><!--z-index:163--><!--z-index:164--><!--z-index:165--><!--z-index:166--><!--z-index:167--><!--z-index:168--><!--z-index:169--><!--z-index:170--><!--z-index:171--><!--z-index:172--><!--z-index:173--><!--z-index:174--><!--z-index:175--><!--z-index:176--><!--z-index:177--><!--z-index:178--><!--z-index:179--><!--z-index:180--></g><g ></g><g ></g><g ><g transform="translate(20,1530)"><g><text font-size="24px" xml:space="preserve" y="0.8em" font-weight="normal" text-anchor="start" fill="#cccccc" pointer-events="none" display="block" font-family="Open Sans, Tahoma, Arial"><tspan dy="0" display="block">JIM v0.2.0</tspan></text></g></g></g></g></svg>