<svg xmlns="http://www.w3.org/2000/svg" xmlns:xlink="http://www.w3.org/1999/xlink" version="1.1" viewBox="0 0 2500 1000" style="background: #0e1117"><g transform="translate(25,100)"><rect width="450" height="300" rx="20" ry="20" x="0" y="0" fill="#0e1117" stroke-width="2" stroke="#5195d4" stroke-dasharray=""/><text x="225" y="77" text-anchor="middle" dominant-baseline="hanging" fill="#ffffff" font-size="30px" font-family="Open Sans, Tahoma, Arial"><tspan x="225" dy="40px">Boundary, Container,</tspan><tspan x="225" dy="40px">Web Browser</tspan></text></g><g transform="translate(525,100)"><rect width="450" height="300" rx="20" ry="20" x="0" y="0" fill="#0e1117" stroke-width="2" stroke="#2780cf" stroke-dasharray=""/><text x="225" y="77" text-anchor="middle" dominant-baseline="hanging" fill="#ffffff" font-size="30px" font-family="Open Sans, Tahoma, Arial"><tspan x="225" dy="40px">Boundary, Software</tspan><tspan x="225" dy="40px">System</tspan></text></g><g transform="translate(1025,100)"><rect width="450" height="300" rx="20" ry="20" x="0" y="0" fill="#4a90d9" stroke-width="2" stroke="#4382c3" stroke-dasharray=""/><text x="225" y="95" text-anchor="middle" dominant-baseline="hanging" fill="#ffffff" font-size="30px" font-family="Open Sans, Tahoma, Arial"><tspan x="225" dy="40px">Component</tspan></text></g><g transform="translate(1525,100)"><rect width="450" height="300" rx="20" ry="20" x="0" y="0" fill="#5aa5eb" stroke-width="2" stroke="#5195d4" stroke-dasharray=""/><text x="225" y="95" text-anchor="middle" dominant-baseline="hanging" fill="#ffffff" font-size="30px" font-family="Open Sans, Tahoma, Arial"><tspan x="225" dy="40px">Container</tspan></text></g><g transform="translate(2025,100)"><rect width="450" height="300" rx="20" ry="20" x="0" y="0" fill="#6dbce8" stroke-width="2" stroke="#62a9d1" stroke-dasharray=""/><text x="225" y="95" text-anchor="middle" dominant-baseline="hanging" fill="#ffffff" font-size="30px" font-family="Open Sans, Tahoma, Arial"><tspan x="225" dy="40px">Container, Client Library</tspan></text></g><g transform="translate(25,525)"><rect x="0" y="180" width="450" height="270" rx="90" fill="#1a6fbf" stroke-width="2" stroke="#1764ac" stroke-dasharray=""/><circle cx="225" cy="100" r="100" fill="#1a6fbf" stroke-width="2" stroke="#1764ac" stroke-dasharray=""/><line x1="90" y1="300" x2="90" y2="450" stroke-width="1" stroke="#1764ac" stroke-dasharray=""/><line x1="360" y1="300" x2="360" y2="450" stroke-width="1" stroke="#1764ac" stroke-dasharray=""/><text x="225" y="260" text-anchor="middle" dominant-baseline="hanging" fill="#ffffff" font-size="30px" font-family="Open Sans, Tahoma, Arial"><tspan x="225" dy="40px">Person</tspan></text></g><g transform="translate(525,600)"><rect width="450" height="300" rx="20" ry="20" x="0" y="0" fill="#777777" stroke-width="2" stroke="#6b6b6b" stroke-dasharray=""/><text x="225" y="77" text-anchor="middle" dominant-baseline="hanging" fill="#ffffff" font-size="30px" font-family="Open Sans, Tahoma, Arial"><tspan x="225" dy="40px">Software System,</tspan><tspan x="225" dy="40px">External</tspan></text></g><g transform="translate(1025,670)"><path d="M422,0 L422,44 L450,30 L 422,16" style="fill:#cccccc" /><path d="M0,30 L422,30" style="stroke:#cccccc; stroke-width: 2; fill: none; stroke-dasharray: ;" /><text x="225" y="55" text-anchor="middle" dominant-baseline="hanging" fill="#cccccc" font-size="30px" font-family="Open Sans, Tahoma, Arial"><tspan x="225" dy="40px">Relationship</tspan></text></g></svg>