<svg xmlns="http://www.w3.org/2000/svg" xmlns:xlink="http://www.w3.org/1999/xlink" version="1.1" width="4145" height="3360" style="width: 4145px; height: 3360px; background: #0e1117" viewBox="0 0 4145 3420"><style id="v-3" type="text/css">        .joint-element .scalable * {            vector-effect: non-scaling-stroke;        }    </style><defs joint-selector="defs"><marker id="v-2-527367903" orient="auto" overflow="visible" markerUnits="userSpaceOnUse"><path id="v-137" stroke="#cccccc" fill="#cccccc" transform="rotate(180)" d="M 20 -10 0 0 20 10 Z"></path></marker><marker id="v-2537419041" orient="auto" overflow="visible" markerUnits="userSpaceOnUse"><path id="v-235" stroke="#666666" fill="#666666" transform="rotate(180)" d="M 20 -10 0 0 20 10 Z"></path></marker></defs><g joint-selector="layers"  transform="matrix(1,0,0,1,0,0)"><g  style="pointer-events: none;"></g><g ></g><g  style="user-select: none;"><!--z-index:0--><!--z-index:1--><!--z-index:2--><!--z-index:3--><!--z-index:4--><!--z-index:5--><!--z-index:6--><!--z-index:7--><!--z-index:8--><!--z-index:9--><!--z-index:10--><!--z-index:11--><!--z-index:12--><!--z-index:13--><!--z-index:14--><!--z-index:15--><!--z-index:16--><!--z-index:17--><!--z-index:18--><!--z-index:19--><!--z-index:20--><!--z-index:21--><!--z-index:22--><g   id="j_164"  transform="translate(20,3316)"><g id="v-2007"><text  id="v-2008" font-size="24px" xml:space="preserve" y="0.8em" font-weight="normal" text-anchor="start" fill="#cccccc" pointer-events="none" display="block" font-family="Tahoma, Verdana, Helvetica, Arial"><tspan dy="0"  display="none">Thursday, March 26, 2026 at 3:47 PM Coordinated Universal Time</tspan></text></g></g><!--z-index:23--><g   id="j_163"  transform="translate(20,3282)"><g id="v-2005"><text  id="v-2006" font-size="24px" xml:space="preserve" y="0.8em" font-weight="normal" text-anchor="start" fill="#cccccc" pointer-events="none" display="block" font-family="Tahoma, Verdana, Helvetica, Arial"><tspan dy="0"  display="none">Component diagram for JIM Web Application</tspan></text></g></g><!--z-index:24--><g   id="j_162"  transform="translate(20,3236)"><g id="v-2003"><text  id="v-2004" font-size="36px" xml:space="preserve" y="0.8em" font-weight="normal" text-anchor="start" fill="#cccccc" pointer-events="none" display="block" font-family="Tahoma, Verdana, Helvetica, Arial"><tspan dy="0"  display="none">Component View: JIM - Web Application</tspan></text></g></g><!--z-index:25--><g   id="j_165"  transform="translate(2034,143)" style=""><g  id="v-2012" style="opacity: 1;"><rect  x="0" y="160" width="400" height="240" rx="70" id="v-2014" stroke-width="2" pointer-events="visiblePainted" fill="#1a6fbf" stroke="#1764ac" stroke-dasharray="" style="fill: rgb(26, 111, 191); stroke: rgb(23, 100, 172);"></rect><circle  cx="200" cy="88.88888888888889" r="88.88888888888889" id="v-2013" stroke-width="2" pointer-events="visiblePainted" fill="#1a6fbf" stroke="#1764ac" stroke-dasharray="" style="fill: rgb(26, 111, 191); stroke: rgb(23, 100, 172);"></circle><line  x1="80" y1="266.6666666666667" x2="80" y2="400" id="v-2020" stroke="#1764ac" stroke-width="1" stroke-dasharray="" style="stroke: rgb(23, 100, 172);"></line><line  x1="320" y1="266.6666666666667" x2="320" y2="400" id="v-2021" stroke="#1764ac" stroke-width="1" stroke-dasharray="" style="stroke: rgb(23, 100, 172);"></line><text  id="v-2015" font-size="33.599999999999994px" xml:space="preserve" y="173.70000000000002" font-weight="bold" text-anchor="middle" pointer-events="visible" font-family="Tahoma, Verdana, Helvetica, Arial" fill="#ffffff" dominant-baseline="hanging" transform="matrix(1,0,0,1,200,0)" style="fill: rgb(255, 255, 255);"><tspan dy="0" >Administrator</tspan></text><text  id="v-2016" font-size="16.799999999999997px" xml:space="preserve" y="215.3" text-anchor="middle" font-family="Tahoma, Verdana, Helvetica, Arial" fill="#ffffff" dominant-baseline="hanging" transform="matrix(1,0,0,1,200,0)" style="display: block; fill: rgb(255, 255, 255);"><tspan dy="0" >[Person]</tspan></text><text  id="v-2017" font-size="24px" xml:space="preserve" y="247.10000000000002" text-anchor="middle" font-family="Tahoma, Verdana, Helvetica, Arial" fill="#ffffff" dominant-baseline="hanging" transform="matrix(1,0,0,1,200,0)" style="display: block; fill: rgb(255, 255, 255);"><tspan dy="0" >Identity management</tspan><tspan dy="1.2em" x="0" >administrator who</tspan><tspan dy="1.2em" x="0" >configures connected</tspan><tspan dy="1.2em" x="0" >systems, sync rules, and</tspan><tspan dy="1.2em" x="0" >monitors synchronisation</tspan></text><g  id="v-2018" font-weight="normal" text-anchor="middle" color="#ffffff" transform="matrix(1,0,0,1,197.5,368)" display="none" style="fill: rgb(255, 255, 255);"><g ></g><g ></g><g ></g><g ></g></g><image  id="v-2019"></image></g></g><!--z-index:26--><g   id="j_166"  transform="translate(2954,143)" style=""><g  id="v-2028" style="opacity: 1;"><rect  x="0" y="160" width="400" height="240" rx="70" id="v-2030" stroke-width="2" pointer-events="visiblePainted" fill="#1a6fbf" stroke="#1764ac" stroke-dasharray="" style="fill: rgb(26, 111, 191); stroke: rgb(23, 100, 172);"></rect><circle  cx="200" cy="88.88888888888889" r="88.88888888888889" id="v-2029" stroke-width="2" pointer-events="visiblePainted" fill="#1a6fbf" stroke="#1764ac" stroke-dasharray="" style="fill: rgb(26, 111, 191); stroke: rgb(23, 100, 172);"></circle><line  x1="80" y1="266.6666666666667" x2="80" y2="400" id="v-2036" stroke="#1764ac" stroke-width="1" stroke-dasharray="" style="stroke: rgb(23, 100, 172);"></line><line  x1="320" y1="266.6666666666667" x2="320" y2="400" id="v-2037" stroke="#1764ac" stroke-width="1" stroke-dasharray="" style="stroke: rgb(23, 100, 172);"></line><text  id="v-2031" font-size="33.599999999999994px" xml:space="preserve" y="216.9" font-weight="bold" text-anchor="middle" pointer-events="visible" font-family="Tahoma, Verdana, Helvetica, Arial" fill="#ffffff" dominant-baseline="hanging" transform="matrix(1,0,0,1,200,0)" style="fill: rgb(255, 255, 255);"><tspan dy="0" >Automation Client</tspan></text><text  id="v-2032" font-size="16.799999999999997px" xml:space="preserve" y="258.5" text-anchor="middle" font-family="Tahoma, Verdana, Helvetica, Arial" fill="#ffffff" dominant-baseline="hanging" transform="matrix(1,0,0,1,200,0)" style="display: block; fill: rgb(255, 255, 255);"><tspan dy="0" >[Person]</tspan></text><text  id="v-2033" font-size="24px" xml:space="preserve" y="290.3" text-anchor="middle" font-family="Tahoma, Verdana, Helvetica, Arial" fill="#ffffff" dominant-baseline="hanging" transform="matrix(1,0,0,1,200,0)" style="display: block; fill: rgb(255, 255, 255);"><tspan dy="0" >CI/CD pipelines and scripts</tspan><tspan dy="1.2em" x="0" >using API keys</tspan></text><g  id="v-2034" font-weight="normal" text-anchor="middle" color="#ffffff" transform="matrix(1,0,0,1,197.5,368)" display="none" style="fill: rgb(255, 255, 255);"><g ></g><g ></g><g ></g><g ></g></g><image  id="v-2035"></image></g></g><!--z-index:27--><g   id="j_167"  transform="translate(199,1873)" style=""><g  id="v-2044" style="opacity: 1;"><rect  id="v-2045" rx="20" ry="20" stroke-width="2" pointer-events="visiblePainted" fill="#777777" stroke="#6b6b6b" stroke-dasharray="" width="450" height="300" style="fill: rgb(119, 119, 119); stroke: rgb(107, 107, 107);"></rect><text  id="v-2046" font-size="33.599999999999994px" xml:space="preserve" y="86.9" font-weight="bold" text-anchor="middle" pointer-events="visible" font-family="Tahoma, Verdana, Helvetica, Arial" fill="#ffffff" dominant-baseline="hanging" transform="matrix(1,0,0,1,225,0)" style="fill: rgb(255, 255, 255);"><tspan dy="0" >Identity Provider</tspan></text><text  id="v-2047" font-size="16.799999999999997px" xml:space="preserve" y="128.5" text-anchor="middle" font-family="Tahoma, Verdana, Helvetica, Arial" fill="#ffffff" dominant-baseline="hanging" transform="matrix(1,0,0,1,225,0)" style="display: block; fill: rgb(255, 255, 255);"><tspan dy="0" >[Software System]</tspan></text><text  id="v-2048" font-size="24px" xml:space="preserve" y="160.3" text-anchor="middle" font-family="Tahoma, Verdana, Helvetica, Arial" fill="#ffffff" dominant-baseline="hanging" transform="matrix(1,0,0,1,225,0)" style="display: block; fill: rgb(255, 255, 255);"><tspan dy="0" >OIDC/SSO provider (Keycloak,</tspan><tspan dy="1.2em" x="0" >Entra ID, Auth0, AD FS)</tspan></text><g  id="v-2049" color="#ffffff" transform="matrix(1,0,0,1,222.5,268)" display="none" style="fill: rgb(255, 255, 255);"><g ></g><g ></g><g ></g><g ></g></g><image  id="v-2050"></image></g></g><!--z-index:28--><g   id="j_170"  transform="translate(1124,1093)" style="; opacity: 1;"><g id="v-2066"><rect  id="v-2067" width="2820" height="2010" rx="20" ry="20" stroke-width="2" pointer-events="none" stroke="#2780cf" fill="#0e1117" opacity="1" stroke-dasharray=""></rect><text  id="v-2068" font-size="33.599999999999994px" xml:space="preserve" y="1971" font-weight="bold" text-anchor="start" pointer-events="visible" font-family="Tahoma, Verdana, Helvetica, Arial" fill="#ffffff" transform="matrix(1,0,0,1,15,0)"><tspan dy="0" >JIM</tspan></text><text  id="v-2069" font-size="16.799999999999997px" xml:space="preserve" y="1995" font-weight="normal" text-anchor="start" pointer-events="visible" font-family="Tahoma, Verdana, Helvetica, Arial" fill="#ffffff" transform="matrix(1,0,0,1,15,0)"><tspan dy="0" >[Software System]</tspan></text><image  id="v-2070" pointer-events="visible"></image></g></g><!--z-index:29--><g   id="j_169"  transform="translate(1174,1143)" style="; opacity: 1;"><g id="v-2061"><rect  id="v-2062" width="1705" height="1159" rx="20" ry="20" stroke-width="2" pointer-events="none" stroke="#5195d4" fill="#0e1117" opacity="1" stroke-dasharray=""></rect><text  id="v-2063" font-size="33.599999999999994px" xml:space="preserve" y="1120" font-weight="bold" text-anchor="start" pointer-events="visible" font-family="Tahoma, Verdana, Helvetica, Arial" fill="#ffffff" transform="matrix(1,0,0,1,15,0)"><tspan dy="0" >Web Application</tspan></text><text  id="v-2064" font-size="16.799999999999997px" xml:space="preserve" y="1144" font-weight="normal" text-anchor="start" pointer-events="visible" font-family="Tahoma, Verdana, Helvetica, Arial" fill="#ffffff" transform="matrix(1,0,0,1,15,0)"><tspan dy="0" >[Container]</tspan></text><image  id="v-2065" pointer-events="visible"></image></g></g><!--z-index:30--><g   id="j_173"  transform="translate(1754,2674)" style=""><g  id="v-2100" style="opacity: 1;"><rect  id="v-2101" rx="20" ry="20" stroke-width="2" pointer-events="visiblePainted" fill="#5aa5eb" stroke="#5195d4" stroke-dasharray="" width="450" height="300" style="fill: rgb(90, 165, 235); stroke: rgb(81, 149, 212);"></rect><text  id="v-2102" font-size="33.599999999999994px" xml:space="preserve" y="86.9" font-weight="bold" text-anchor="middle" pointer-events="visible" font-family="Tahoma, Verdana, Helvetica, Arial" fill="#ffffff" dominant-baseline="hanging" transform="matrix(1,0,0,1,225,0)" style="fill: rgb(255, 255, 255);"><tspan dy="0" >Application Layer</tspan></text><text  id="v-2103" font-size="16.799999999999997px" xml:space="preserve" y="128.5" text-anchor="middle" font-family="Tahoma, Verdana, Helvetica, Arial" fill="#ffffff" dominant-baseline="hanging" transform="matrix(1,0,0,1,225,0)" style="display: block; fill: rgb(255, 255, 255);"><tspan dy="0" >[Container: JIM.Application]</tspan></text><text  id="v-2104" font-size="24px" xml:space="preserve" y="160.3" text-anchor="middle" font-family="Tahoma, Verdana, Helvetica, Arial" fill="#ffffff" dominant-baseline="hanging" transform="matrix(1,0,0,1,225,0)" style="display: block; fill: rgb(255, 255, 255);"><tspan dy="0" >Business logic and domain</tspan><tspan dy="1.2em" x="0" >services</tspan></text><g  id="v-2105" color="#ffffff" transform="matrix(1,0,0,1,210,268)" display="none" style="fill: rgb(255, 255, 255);"><g  transform="translate(5 0)"><svg xmlns="http://www.w3.org/2000/svg" width="20" height="20" fill="currentColor" viewBox="0 0 16 16"><path fill-rule="evenodd" d="M6.5 12a5.5 5.5 0 1 0 0-11 5.5 5.5 0 0 0 0 11zM13 6.5a6.5 6.5 0 1 1-13 0 6.5 6.5 0 0 1 13 0z"></path><path d="M10.344 11.742c.03.04.062.078.098.115l3.85 3.85a1 1 0 0 0 1.415-1.414l-3.85-3.85a1.007 1.007 0 0 0-.115-.1 6.538 6.538 0 0 1-1.398 1.4z"></path><path fill-rule="evenodd" d="M6.5 3a.5.5 0 0 1 .5.5V6h2.5a.5.5 0 0 1 0 1H7v2.5a.5.5 0 0 1-1 0V7H3.5a.5.5 0 0 1 0-1H6V3.5a.5.5 0 0 1 .5-.5z"></path></svg></g><g ></g><g ></g><g ></g></g><image  id="v-2106"></image></g></g><!--z-index:31--><g   id="j_174"  transform="translate(3444,1193)" style=""><g  id="v-2113" style="opacity: 1;"><rect  id="v-2114" rx="20" ry="20" stroke-width="2" pointer-events="visiblePainted" fill="#6dbce8" stroke="#62a9d1" stroke-dasharray="" width="450" height="300" style="fill: rgb(109, 188, 232); stroke: rgb(98, 169, 209);"></rect><text  id="v-2115" font-size="33.599999999999994px" xml:space="preserve" y="72.5" font-weight="bold" text-anchor="middle" pointer-events="visible" font-family="Tahoma, Verdana, Helvetica, Arial" fill="#ffffff" dominant-baseline="hanging" transform="matrix(1,0,0,1,225,0)" style="fill: rgb(255, 255, 255);"><tspan dy="0" >PowerShell Module</tspan></text><text  id="v-2116" font-size="16.799999999999997px" xml:space="preserve" y="114.1" text-anchor="middle" font-family="Tahoma, Verdana, Helvetica, Arial" fill="#ffffff" dominant-baseline="hanging" transform="matrix(1,0,0,1,225,0)" style="display: block; fill: rgb(255, 255, 255);"><tspan dy="0" >[Container: PowerShell 7]</tspan></text><text  id="v-2117" font-size="24px" xml:space="preserve" y="145.89999999999998" text-anchor="middle" font-family="Tahoma, Verdana, Helvetica, Arial" fill="#ffffff" dominant-baseline="hanging" transform="matrix(1,0,0,1,225,0)" style="display: block; fill: rgb(255, 255, 255);"><tspan dy="0" >Cross-platform module with 79</tspan><tspan dy="1.2em" x="0" >cmdlets for automation and</tspan><tspan dy="1.2em" x="0" >scripting</tspan></text><g  id="v-2118" color="#ffffff" transform="matrix(1,0,0,1,222.5,268)" display="none" style="fill: rgb(255, 255, 255);"><g ></g><g ></g><g ></g><g ></g></g><image  id="v-2119"></image></g></g><!--z-index:32--><g   id="j_168"  transform="translate(1224,1873)" style=""><g  id="v-2054" style="opacity: 1;"><rect  id="v-2055" rx="20" ry="20" stroke-width="2" pointer-events="visiblePainted" fill="#4a90d9" stroke="#4382c3" stroke-dasharray="" width="550" height="300" style="fill: rgb(74, 144, 217); stroke: rgb(67, 130, 195);"></rect><text  id="v-2056" font-size="33.599999999999994px" xml:space="preserve" y="72.5" font-weight="bold" text-anchor="middle" pointer-events="visible" font-family="Tahoma, Verdana, Helvetica, Arial" fill="#ffffff" dominant-baseline="hanging" transform="matrix(1,0,0,1,275,0)" style="fill: rgb(255, 255, 255);"><tspan dy="0" >Blazor Pages</tspan></text><text  id="v-2057" font-size="16.799999999999997px" xml:space="preserve" y="114.1" text-anchor="middle" font-family="Tahoma, Verdana, Helvetica, Arial" fill="#ffffff" dominant-baseline="hanging" transform="matrix(1,0,0,1,275,0)" style="display: block; fill: rgb(255, 255, 255);"><tspan dy="0" >[Component: Blazor Server Components]</tspan></text><text  id="v-2058" font-size="24px" xml:space="preserve" y="145.89999999999998" text-anchor="middle" font-family="Tahoma, Verdana, Helvetica, Arial" fill="#ffffff" dominant-baseline="hanging" transform="matrix(1,0,0,1,275,0)" style="display: block; fill: rgb(255, 255, 255);"><tspan dy="0" >Interactive admin UI - Dashboard,</tspan><tspan dy="1.2em" x="0" >Activities, Connected Systems, Sync</tspan><tspan dy="1.2em" x="0" >Rules, Schedules, Types</tspan></text><g  id="v-2059" color="#ffffff" transform="matrix(1,0,0,1,272.5,268)" display="none" style="fill: rgb(255, 255, 255);"><g ></g><g ></g><g ></g><g ></g></g><image  id="v-2060"></image></g></g><!--z-index:33--><g   id="j_171"  transform="translate(2279,1873)" style=""><g  id="v-2074" style="opacity: 1;"><rect  id="v-2075" rx="20" ry="20" stroke-width="2" pointer-events="visiblePainted" fill="#4a90d9" stroke="#4382c3" stroke-dasharray="" width="550" height="300" style="fill: rgb(74, 144, 217); stroke: rgb(67, 130, 195);"></rect><text  id="v-2076" font-size="33.599999999999994px" xml:space="preserve" y="72.5" font-weight="bold" text-anchor="middle" pointer-events="visible" font-family="Tahoma, Verdana, Helvetica, Arial" fill="#ffffff" dominant-baseline="hanging" transform="matrix(1,0,0,1,275,0)" style="fill: rgb(255, 255, 255);"><tspan dy="0" >API Controllers</tspan></text><text  id="v-2077" font-size="16.799999999999997px" xml:space="preserve" y="114.1" text-anchor="middle" font-family="Tahoma, Verdana, Helvetica, Arial" fill="#ffffff" dominant-baseline="hanging" transform="matrix(1,0,0,1,275,0)" style="display: block; fill: rgb(255, 255, 255);"><tspan dy="0" >[Component: ASP.NET Core Controllers]</tspan></text><text  id="v-2078" font-size="24px" xml:space="preserve" y="145.89999999999998" text-anchor="middle" font-family="Tahoma, Verdana, Helvetica, Arial" fill="#ffffff" dominant-baseline="hanging" transform="matrix(1,0,0,1,275,0)" style="display: block; fill: rgb(255, 255, 255);"><tspan dy="0" >REST endpoints for metaverse,</tspan><tspan dy="1.2em" x="0" >synchronisation, schedules, activities,</tspan><tspan dy="1.2em" x="0" >security, and more</tspan></text><g  id="v-2079" color="#ffffff" transform="matrix(1,0,0,1,272.5,268)" display="none" style="fill: rgb(255, 255, 255);"><g ></g><g ></g><g ></g><g ></g></g><image  id="v-2080"></image></g></g><!--z-index:34--><g   id="j_172"  transform="translate(1564,1193)" style=""><g  id="v-2087" style="opacity: 1;"><rect  id="v-2088" rx="20" ry="20" stroke-width="2" pointer-events="visiblePainted" fill="#4a90d9" stroke="#4382c3" stroke-dasharray="" width="550" height="300" style="fill: rgb(74, 144, 217); stroke: rgb(67, 130, 195);"></rect><text  id="v-2089" font-size="33.599999999999994px" xml:space="preserve" y="86.9" font-weight="bold" text-anchor="middle" pointer-events="visible" font-family="Tahoma, Verdana, Helvetica, Arial" fill="#ffffff" dominant-baseline="hanging" transform="matrix(1,0,0,1,275,0)" style="fill: rgb(255, 255, 255);"><tspan dy="0" >Authentication Middleware</tspan></text><text  id="v-2090" font-size="16.799999999999997px" xml:space="preserve" y="128.5" text-anchor="middle" font-family="Tahoma, Verdana, Helvetica, Arial" fill="#ffffff" dominant-baseline="hanging" transform="matrix(1,0,0,1,275,0)" style="display: block; fill: rgb(255, 255, 255);"><tspan dy="0" >[Component: ASP.NET Core Middleware]</tspan></text><text  id="v-2091" font-size="24px" xml:space="preserve" y="160.3" text-anchor="middle" font-family="Tahoma, Verdana, Helvetica, Arial" fill="#ffffff" dominant-baseline="hanging" transform="matrix(1,0,0,1,275,0)" style="display: block; fill: rgb(255, 255, 255);"><tspan dy="0" >OIDC/SSO authentication and API key</tspan><tspan dy="1.2em" x="0" >validation</tspan></text><g  id="v-2092" color="#ffffff" transform="matrix(1,0,0,1,272.5,268)" display="none" style="fill: rgb(255, 255, 255);"><g ></g><g ></g><g ></g><g ></g></g><image  id="v-2093"></image></g></g><!--z-index:35--><g   id="j_175"  style="opacity: 1;"><path fill="none" cursor="pointer" stroke="transparent" stroke-linecap="round" joint-selector="wrapper" id="v-2137" stroke-width="10" stroke-linejoin="round" d="M 2434 412.2 L 3310 715 C 3316 717.2666666666667 3319 721.5999999999999 3319 728 L 3319 1034 C 3319 1040.5333333333333 3321.6666666666665 1045.8666666666666 3327 1050 L 3493.53 1193"></path><path fill="none" pointer-events="none" joint-selector="line" id="v-2136" stroke="#cccccc" stroke-width="2" stroke-linejoin="round" stroke-dasharray="" d="M 2434 412.2 L 3310 715 C 3316 717.2666666666667 3319 721.5999999999999 3319 728 L 3319 1034 C 3319 1040.5333333333333 3321.6666666666665 1045.8666666666666 3327 1050 L 3493.53 1193" marker-end="url(#v-2-527367903)"></path><g id="v-2126" ><g id="v-2127"  label-idx="0" cursor="move" transform="matrix(1,0,0,1,3315.70068359375,705.2478637695312)" style="cursor: default;"><rect joint-selector="rect" id="v-2131" fill="#0e1117" rx="3" ry="3" x="-70.24974822998047" y="-16.896385192871094" width="141.3612823486328" height="28.112449645996094" pointer-events="none"  style="display: block;"></rect><text joint-selector="text" id="v-2130" font-size="24px" xml:space="preserve" fill="#cccccc" text-anchor="middle" pointer-events="none" font-family="Tahoma, Verdana, Helvetica, Arial" font-weight="normal"  style="display: block;"><tspan dy="0.3em" >Scripts with</tspan></text></g><g id="v-2128"  label-idx="1" cursor="move" transform="matrix(1,0,0,1,3315.70068359375,735.6478881835938)" style="cursor: default;"><rect joint-selector="rect" id="v-2133" fill="#0e1117" rx="3" ry="3" x="-88.196533203125" y="-11.024256706237793" width="177.85079956054688" height="20.080320358276367"  pointer-events="none" style="display: block;"></rect><text joint-selector="text" id="v-2132" font-size="16.799999999999997px" xml:space="preserve" fill="#cccccc" text-anchor="middle" pointer-events="none" font-family="Tahoma, Verdana, Helvetica, Arial" font-weight="normal"  style="display: block;"><tspan dy="0.3em" >[PowerShell cmdlets]</tspan></text></g><g id="v-2129"  label-idx="2" cursor="move" transform="matrix(1,0,0,1,3127.1416015625,680.6494140625)" style="cursor: default;"><rect joint-selector="rect" id="v-2135" fill="#ffffff" rx="3" ry="3" x="0" y="1.1368683772161603e-13" width="0" height="0"  display="none"></rect><text joint-selector="text" id="v-2134" fill="#000000" font-size="14" text-anchor="middle" text-vertical-anchor="middle" pointer-events="none"></text></g></g></g><!--z-index:36--><g   id="j_176"  style="opacity: 1;"><path fill="none" cursor="pointer" stroke="transparent" stroke-linecap="round" joint-selector="wrapper" id="v-2155" stroke-width="10" stroke-linejoin="round" d="M 3354 451.81 L 3835 714 C 3841 716.9333333333333 3844 721.5999999999999 3844 728 L 3844 1034 C 3844 1040.5333333333333 3842.333333333333 1046.5333333333333 3839 1052 L 3756.73 1193"></path><path fill="none" pointer-events="none" joint-selector="line" id="v-2154" stroke="#cccccc" stroke-width="2" stroke-linejoin="round" stroke-dasharray="" d="M 3354 451.81 L 3835 714 C 3841 716.9333333333333 3844 721.5999999999999 3844 728 L 3844 1034 C 3844 1040.5333333333333 3842.333333333333 1046.5333333333333 3839 1052 L 3756.73 1193" marker-end="url(#v-2-527367903)"></path><g id="v-2144" ><g id="v-2145"  label-idx="0" cursor="move" transform="matrix(1,0,0,1,3841.384765625,705.7610473632812)" style="cursor: default;"><rect joint-selector="rect" id="v-2149" fill="#0e1117" rx="3" ry="3" x="-86.75325775146484" y="-16.896385192871094" width="174.85964965820312" height="28.112449645996094" pointer-events="none"  style="display: block;"></rect><text joint-selector="text" id="v-2148" font-size="24px" xml:space="preserve" fill="#cccccc" text-anchor="middle" pointer-events="none" font-family="Tahoma, Verdana, Helvetica, Arial" font-weight="normal"  style="display: block;"><tspan dy="0.3em" >Automates via</tspan></text></g><g id="v-2146"  label-idx="1" cursor="move" transform="matrix(1,0,0,1,3841.384765625,736.1610717773438)" style="cursor: default;"><rect joint-selector="rect" id="v-2151" fill="#0e1117" rx="3" ry="3" x="-82.67444610595703" y="-11.024256706237793" width="166.83929443359375" height="20.080320358276367"  pointer-events="none" style="display: block;"></rect><text joint-selector="text" id="v-2150" font-size="16.799999999999997px" xml:space="preserve" fill="#cccccc" text-anchor="middle" pointer-events="none" font-family="Tahoma, Verdana, Helvetica, Arial" font-weight="normal"  style="display: block;"><tspan dy="0.3em" >[PowerShell scripts]</tspan></text></g><g id="v-2147"  label-idx="2" cursor="move" transform="matrix(1,0,0,1,3806.567138671875,729.352294921875)" style="cursor: default;"><rect joint-selector="rect" id="v-2153" fill="#ffffff" rx="3" ry="3" x="0" y="1.1368683772161603e-13" width="0" height="0"  display="none"></rect><text joint-selector="text" id="v-2152" fill="#000000" font-size="14" text-anchor="middle" text-vertical-anchor="middle" pointer-events="none"></text></g></g></g><!--z-index:37--><g   id="j_177"  style="opacity: 1;"><path fill="none" cursor="pointer" stroke="transparent" stroke-linecap="round" joint-selector="wrapper" id="v-2167" stroke-width="10" stroke-linejoin="round" d="M 2034 420.8 L 1278 715 C 1272 717.2666666666667 1269 721.5999999999999 1269 728 L 1269 1674 C 1269 1680.3999999999999 1271 1686.3999999999999 1275 1692 L 1397.35 1873"></path><path fill="none" pointer-events="none" joint-selector="line" id="v-2166" stroke="#cccccc" stroke-width="2" stroke-linejoin="round" stroke-dasharray="" d="M 2034 420.8 L 1278 715 C 1272 717.2666666666667 1269 721.5999999999999 1269 728 L 1269 1674 C 1269 1680.3999999999999 1271 1686.3999999999999 1275 1692 L 1397.35 1873" marker-end="url(#v-2-527367903)"></path><g id="v-2156" ><g id="v-2157"  label-idx="0" cursor="move" transform="matrix(1,0,0,1,1269,1330.290771484375)" style="cursor: default;"><rect joint-selector="rect" id="v-2161" fill="#0e1117" rx="3" ry="3" x="-28.645832061767578" y="-16.896385192871094" width="57.291664123535156" height="28.112449645996094" pointer-events="none"  style="display: block;"></rect><text joint-selector="text" id="v-2160" font-size="24px" xml:space="preserve" fill="#cccccc" text-anchor="middle" pointer-events="none" font-family="Tahoma, Verdana, Helvetica, Arial" font-weight="normal"  style="display: block;"><tspan dy="0.3em" >Uses</tspan></text></g><g id="v-2158"  label-idx="1" cursor="move" transform="matrix(1,0,0,1,1269,1360.6907958984375)" style="cursor: default;"><rect joint-selector="rect" id="v-2163" fill="#0e1117" rx="3" ry="3" x="-33.32078170776367" y="-11.024256706237793" width="68.07962799072266" height="20.080320358276367"  pointer-events="none" style="display: block;"></rect><text joint-selector="text" id="v-2162" font-size="16.799999999999997px" xml:space="preserve" fill="#cccccc" text-anchor="middle" pointer-events="none" font-family="Tahoma, Verdana, Helvetica, Arial" font-weight="normal"  style="display: block;"><tspan dy="0.3em" >[HTTPS]</tspan></text></g><g id="v-2159"  label-idx="2" cursor="move" transform="matrix(1,0,0,1,1259,931.1726684570312)" style="cursor: default;"><rect joint-selector="rect" id="v-2165" fill="#ffffff" rx="3" ry="3" x="0" y="-2.2737367544323206e-13" width="0" height="0"  display="none"></rect><text joint-selector="text" id="v-2164" fill="#000000" font-size="14" text-anchor="middle" text-vertical-anchor="middle" pointer-events="none"></text></g></g></g><!--z-index:38--><g   id="j_178"  style="opacity: 1;"><path fill="none" cursor="pointer" stroke="transparent" stroke-linecap="round" joint-selector="wrapper" id="v-2179" stroke-width="10" stroke-linejoin="round" d="M 2954 443.78 L 2418 714 C 2412 716.9333333333333 2409 721.5999999999999 2409 728 L 2409 1674 C 2409 1680.3999999999999 2410.333333333333 1686.7333333333331 2413 1693 L 2489.92 1873"></path><path fill="none" pointer-events="none" joint-selector="line" id="v-2178" stroke="#cccccc" stroke-width="2" stroke-linejoin="round" stroke-dasharray="" d="M 2954 443.78 L 2418 714 C 2412 716.9333333333333 2409 721.5999999999999 2409 728 L 2409 1674 C 2409 1680.3999999999999 2410.333333333333 1686.7333333333331 2413 1693 L 2489.92 1873" marker-end="url(#v-2-527367903)"></path><g id="v-2168" ><g id="v-2169"  label-idx="0" cursor="move" transform="matrix(1,0,0,1,2409,1330.53857421875)" style="cursor: default;"><rect joint-selector="rect" id="v-2173" fill="#0e1117" rx="3" ry="3" x="-28.645832061767578" y="-16.896385192871094" width="57.291664123535156" height="28.112449645996094" pointer-events="none"  style="display: block;"></rect><text joint-selector="text" id="v-2172" font-size="24px" xml:space="preserve" fill="#cccccc" text-anchor="middle" pointer-events="none" font-family="Tahoma, Verdana, Helvetica, Arial" font-weight="normal"  style="display: block;"><tspan dy="0.3em" >Calls</tspan></text></g><g id="v-2170"  label-idx="1" cursor="move" transform="matrix(1,0,0,1,2409,1360.9385986328125)" style="cursor: default;"><rect joint-selector="rect" id="v-2175" fill="#0e1117" rx="3" ry="3" x="-51.58132553100586" y="-11.024256706237793" width="104.60794067382812" height="20.080320358276367"  pointer-events="none" style="display: block;"></rect><text joint-selector="text" id="v-2174" font-size="16.799999999999997px" xml:space="preserve" fill="#cccccc" text-anchor="middle" pointer-events="none" font-family="Tahoma, Verdana, Helvetica, Arial" font-weight="normal"  style="display: block;"><tspan dy="0.3em" >[REST/JSON]</tspan></text></g><g id="v-2171"  label-idx="2" cursor="move" transform="matrix(1,0,0,1,2399,1025.0841064453125)" style="cursor: default;"><rect joint-selector="rect" id="v-2177" fill="#ffffff" rx="3" ry="3" x="0" y="0" width="0" height="0"  display="none"></rect><text joint-selector="text" id="v-2176" fill="#000000" font-size="14" text-anchor="middle" text-vertical-anchor="middle" pointer-events="none"></text></g></g></g><!--z-index:39--><g   id="j_179"  style="opacity: 1;"><path fill="none" cursor="pointer" stroke="transparent" stroke-linecap="round" joint-selector="wrapper" id="v-2191" stroke-width="10" stroke-linejoin="round" d="M 3444 1417.04 L 2643 1680 C 2637 1682.3999999999999 2633.333333333333 1686.7333333333331 2632 1693 L 2589.36 1873"></path><path fill="none" pointer-events="none" joint-selector="line" id="v-2190" stroke="#cccccc" stroke-width="2" stroke-linejoin="round" stroke-dasharray="" d="M 3444 1417.04 L 2643 1680 C 2637 1682.3999999999999 2633.333333333333 1686.7333333333331 2632 1693 L 2589.36 1873" marker-end="url(#v-2-527367903)"></path><g id="v-2180" ><g id="v-2181"  label-idx="0" cursor="move" transform="matrix(1,0,0,1,2636.281005859375,1671.0533447265625)" style="cursor: default;"><rect joint-selector="rect" id="v-2185" fill="#0e1117" rx="3" ry="3" x="-28.645832061767578" y="-16.896385192871094" width="57.291664123535156" height="28.112449645996094" pointer-events="none"  style="display: block;"></rect><text joint-selector="text" id="v-2184" font-size="24px" xml:space="preserve" fill="#cccccc" text-anchor="middle" pointer-events="none" font-family="Tahoma, Verdana, Helvetica, Arial" font-weight="normal"  style="display: block;"><tspan dy="0.3em" >Calls</tspan></text></g><g id="v-2182"  label-idx="1" cursor="move" transform="matrix(1,0,0,1,2636.281005859375,1701.453369140625)" style="cursor: default;"><rect joint-selector="rect" id="v-2187" fill="#0e1117" rx="3" ry="3" x="-51.58132553100586" y="-11.024256706237793" width="104.60794067382812" height="20.080320358276367"  pointer-events="none" style="display: block;"></rect><text joint-selector="text" id="v-2186" font-size="16.799999999999997px" xml:space="preserve" fill="#cccccc" text-anchor="middle" pointer-events="none" font-family="Tahoma, Verdana, Helvetica, Arial" font-weight="normal"  style="display: block;"><tspan dy="0.3em" >[REST/JSON]</tspan></text></g><g id="v-2183"  label-idx="2" cursor="move" transform="matrix(1,0,0,1,2937.165771484375,1605.5455322265625)" style="cursor: default;"><rect joint-selector="rect" id="v-2189" fill="#ffffff" rx="3" ry="3" x="0" y="2.2737367544323206e-13" width="0" height="0"  display="none"></rect><text joint-selector="text" id="v-2188" fill="#000000" font-size="14" text-anchor="middle" text-vertical-anchor="middle" pointer-events="none"></text></g></g></g><!--z-index:40--><g   id="j_180"  style="opacity: 1;"><path fill="none" cursor="pointer" stroke="transparent" stroke-linecap="round" joint-selector="wrapper" id="v-2206" stroke-width="10" stroke-linejoin="round" d="M 1564 1469.57 L 1108 1679 C 1102 1682.0666666666666 1096 1685.0666666666666 1090 1688 L 649 1909.87"></path><path fill="none" pointer-events="none" joint-selector="line" id="v-2205" stroke="#cccccc" stroke-width="2" stroke-linejoin="round" stroke-dasharray="" d="M 1564 1469.57 L 1108 1679 C 1102 1682.0666666666666 1096 1685.0666666666666 1090 1688 L 649 1909.87" marker-end="url(#v-2-527367903)"></path><g id="v-2195" ><g id="v-2196"  label-idx="0" cursor="move" transform="matrix(1,0,0,1,1099.140625,1670.0797119140625)" style="cursor: default;"><rect joint-selector="rect" id="v-2200" fill="#0e1117" rx="3" ry="3" x="-83.36470794677734" y="-31.296384811401367" width="166.7294158935547" height="56.912452697753906" pointer-events="none"  style="display: block;"></rect><text joint-selector="text" id="v-2199" font-size="24px" xml:space="preserve" fill="#cccccc" text-anchor="middle" pointer-events="none" font-family="Tahoma, Verdana, Helvetica, Arial" font-weight="normal"  style="display: block;"><tspan dy="-0.3em" >Authenticates</tspan><tspan dy="1.2em" x="0" >via</tspan></text></g><g id="v-2197"  label-idx="1" cursor="move" transform="matrix(1,0,0,1,1099.140625,1714.879638671875)" style="cursor: default;"><rect joint-selector="rect" id="v-2202" fill="#0e1117" rx="3" ry="3" x="-27.924196243286133" y="-11.024256706237793" width="57.297672271728516" height="20.080320358276367"  pointer-events="none" style="display: block;"></rect><text joint-selector="text" id="v-2201" font-size="16.799999999999997px" xml:space="preserve" fill="#cccccc" text-anchor="middle" pointer-events="none" font-family="Tahoma, Verdana, Helvetica, Arial" font-weight="normal"  style="display: block;"><tspan dy="0.3em" >[OIDC]</tspan></text></g><g id="v-2198"  label-idx="2" cursor="move" transform="matrix(1,0,0,1,1092.65625,1721.513671875)" style="cursor: default;"><rect joint-selector="rect" id="v-2204" fill="#ffffff" rx="3" ry="3" x="0" y="2.2737367544323206e-13" width="0" height="0"  display="none"></rect><text joint-selector="text" id="v-2203" fill="#000000" font-size="14" text-anchor="middle" text-vertical-anchor="middle" pointer-events="none"></text></g></g></g><!--z-index:41--><g   id="j_181"  style="opacity: 1;"><path fill="none" cursor="pointer" stroke="transparent" stroke-linecap="round" joint-selector="wrapper" id="v-2224" stroke-width="10" stroke-linejoin="round" d="M 1839 1493 L 1839 1674 C 1839 1680.3999999999999 1836.6666666666665 1686.0666666666666 1832 1691 L 1649.27 1873"></path><path fill="none" pointer-events="none" joint-selector="line" id="v-2223" stroke="#cccccc" stroke-width="2" stroke-linejoin="round" stroke-dasharray="" d="M 1839 1493 L 1839 1674 C 1839 1680.3999999999999 1836.6666666666665 1686.0666666666666 1832 1691 L 1649.27 1873" marker-end="url(#v-2-527367903)"></path><g id="v-2213" ><g id="v-2214"  label-idx="0" cursor="move" transform="matrix(1,0,0,1,1837.5126953125,1668.9825439453125)" style="cursor: default;"><rect joint-selector="rect" id="v-2218" fill="#0e1117" rx="3" ry="3" x="-54.56199645996094" y="-31.296384811401367" width="109.12399291992188" height="56.912452697753906" pointer-events="none"  style="display: block;"></rect><text joint-selector="text" id="v-2217" font-size="24px" xml:space="preserve" fill="#cccccc" text-anchor="middle" pointer-events="none" font-family="Tahoma, Verdana, Helvetica, Arial" font-weight="normal"  style="display: block;"><tspan dy="-0.3em" >Validates</tspan><tspan dy="1.2em" x="0" >requests</tspan></text></g><g id="v-2215"  label-idx="1" cursor="move" transform="matrix(1,0,0,1,1837.5126953125,1713.7825927734375)" style="cursor: default;"><rect joint-selector="rect" id="v-2220" fill="#0e1117" rx="3" ry="3" x="-76.1169662475586" y="-11.024256706237793" width="153.7288055419922" height="20.080320358276367"  pointer-events="none" style="display: block;"></rect><text joint-selector="text" id="v-2219" font-size="16.799999999999997px" xml:space="preserve" fill="#cccccc" text-anchor="middle" pointer-events="none" font-family="Tahoma, Verdana, Helvetica, Arial" font-weight="normal"  style="display: block;"><tspan dy="0.3em" >[ASP.NET Pipeline]</tspan></text></g><g id="v-2216"  label-idx="2" cursor="move" transform="matrix(1,0,0,1,1801.4364013671875,1751.281494140625)" style="cursor: default;"><rect joint-selector="rect" id="v-2222" fill="#ffffff" rx="3" ry="3" x="0" y="2.2737367544323206e-13" width="0" height="0"  display="none"></rect><text joint-selector="text" id="v-2221" fill="#000000" font-size="14" text-anchor="middle" text-vertical-anchor="middle" pointer-events="none"></text></g></g></g><!--z-index:42--><g   id="j_182"  style="opacity: 1;"><path fill="none" cursor="pointer" stroke="transparent" stroke-linecap="round" joint-selector="wrapper" id="v-2242" stroke-width="10" stroke-linejoin="round" d="M 2114 1429.33 L 2914 1681 C 2920.6666666666665 1682.7333333333331 2921.6666666666665 1685.7333333333331 2917 1690 L 2717.52 1873"></path><path fill="none" pointer-events="none" joint-selector="line" id="v-2241" stroke="#cccccc" stroke-width="2" stroke-linejoin="round" stroke-dasharray="" d="M 2114 1429.33 L 2914 1681 C 2920.6666666666665 1682.7333333333331 2921.6666666666665 1685.7333333333331 2917 1690 L 2717.52 1873" marker-end="url(#v-2-527367903)"></path><g id="v-2231" ><g id="v-2232"  label-idx="0" cursor="move" transform="matrix(1,0,0,1,2918.697265625,1669.6854248046875)" style="cursor: default;"><rect joint-selector="rect" id="v-2236" fill="#0e1117" rx="3" ry="3" x="-54.56199645996094" y="-31.296384811401367" width="109.12399291992188" height="56.912452697753906" pointer-events="none"  style="display: block;"></rect><text joint-selector="text" id="v-2235" font-size="24px" xml:space="preserve" fill="#cccccc" text-anchor="middle" pointer-events="none" font-family="Tahoma, Verdana, Helvetica, Arial" font-weight="normal"  style="display: block;"><tspan dy="-0.3em" >Validates</tspan><tspan dy="1.2em" x="0" >requests</tspan></text></g><g id="v-2233"  label-idx="1" cursor="move" transform="matrix(1,0,0,1,2918.697265625,1714.4853515625)" style="cursor: default;"><rect joint-selector="rect" id="v-2238" fill="#0e1117" rx="3" ry="3" x="-76.1169662475586" y="-11.024256706237793" width="153.7288055419922" height="20.080320358276367"  pointer-events="none" style="display: block;"></rect><text joint-selector="text" id="v-2237" font-size="16.799999999999997px" xml:space="preserve" fill="#cccccc" text-anchor="middle" pointer-events="none" font-family="Tahoma, Verdana, Helvetica, Arial" font-weight="normal"  style="display: block;"><tspan dy="0.3em" >[ASP.NET Pipeline]</tspan></text></g><g id="v-2234"  label-idx="2" cursor="move" transform="matrix(1,0,0,1,2639.522705078125,1637.5987548828125)" style="cursor: default;"><rect joint-selector="rect" id="v-2240" fill="#ffffff" rx="3" ry="3" x="0" y="2.2737367544323206e-13" width="0" height="0"  display="none"></rect><text joint-selector="text" id="v-2239" fill="#000000" font-size="14" text-anchor="middle" text-vertical-anchor="middle" pointer-events="none"></text></g></g></g><!--z-index:43--><g   id="j_183"  style="opacity: 1;"><path fill="none" cursor="pointer" stroke="transparent" stroke-linecap="round" joint-selector="wrapper" id="v-2254" stroke-width="10" stroke-linejoin="round" d="M 1499 2173 L 1499 2489 C 1499 2495.533333333333 1501.6666666666665 2500.533333333333 1507 2504 L 1757.6 2674"></path><path fill="none" pointer-events="none" joint-selector="line" id="v-2253" stroke="#cccccc" stroke-width="2" stroke-linejoin="round" stroke-dasharray="" d="M 1499 2173 L 1499 2489 C 1499 2495.533333333333 1501.6666666666665 2500.533333333333 1507 2504 L 1757.6 2674" marker-end="url(#v-2-527367903)"></path><g id="v-2243" ><g id="v-2244"  label-idx="0" cursor="move" transform="matrix(1,0,0,1,1500.876953125,2484.014404296875)" style="cursor: default;"><rect joint-selector="rect" id="v-2248" fill="#0e1117" rx="3" ry="3" x="-28.645832061767578" y="-16.896385192871094" width="57.291664123535156" height="28.112449645996094" pointer-events="none"  style="display: block;"></rect><text joint-selector="text" id="v-2247" font-size="24px" xml:space="preserve" fill="#cccccc" text-anchor="middle" pointer-events="none" font-family="Tahoma, Verdana, Helvetica, Arial" font-weight="normal"  style="display: block;"><tspan dy="0.3em" >Uses</tspan></text></g><g id="v-2245"  label-idx="1" cursor="move" transform="matrix(1,0,0,1,1500.876953125,2514.41455078125)" style="cursor: default;"><rect joint-selector="rect" id="v-2250" fill="#0e1117" rx="3" ry="3" x="-59.39382553100586" y="-11.024256706237793" width="120.25003814697266" height="20.080320358276367"  pointer-events="none" style="display: block;"></rect><text joint-selector="text" id="v-2249" font-size="16.799999999999997px" xml:space="preserve" fill="#cccccc" text-anchor="middle" pointer-events="none" font-family="Tahoma, Verdana, Helvetica, Arial" font-weight="normal"  style="display: block;"><tspan dy="0.3em" >[Method calls]</tspan></text></g><g id="v-2246"  label-idx="2" cursor="move" transform="matrix(1,0,0,1,1489.1173095703125,2516.7060546875)" style="cursor: default;"><rect joint-selector="rect" id="v-2252" fill="#ffffff" rx="3" ry="3" x="0" y="0" width="0" height="0"  display="none"></rect><text joint-selector="text" id="v-2251" fill="#000000" font-size="14" text-anchor="middle" text-vertical-anchor="middle" pointer-events="none"></text></g></g></g><!--z-index:44--><g   id="j_184"  style="opacity: 1;"><path fill="none" cursor="pointer" stroke="transparent" stroke-linecap="round" joint-selector="wrapper" id="v-2266" stroke-width="10" stroke-linejoin="round" d="M 2554 2173 L 2554 2489 C 2554 2495.533333333333 2551 2500.533333333333 2545 2504 L 2204 2696.75"></path><path fill="none" pointer-events="none" joint-selector="line" id="v-2265" stroke="#cccccc" stroke-width="2" stroke-linejoin="round" stroke-dasharray="" d="M 2554 2173 L 2554 2489 C 2554 2495.533333333333 2551 2500.533333333333 2545 2504 L 2204 2696.75" marker-end="url(#v-2-527367903)"></path><g id="v-2255" ><g id="v-2256"  label-idx="0" cursor="move" transform="matrix(1,0,0,1,2551.888427734375,2484.014404296875)" style="cursor: default;"><rect joint-selector="rect" id="v-2260" fill="#0e1117" rx="3" ry="3" x="-28.645832061767578" y="-16.896385192871094" width="57.291664123535156" height="28.112449645996094" pointer-events="none"  style="display: block;"></rect><text joint-selector="text" id="v-2259" font-size="24px" xml:space="preserve" fill="#cccccc" text-anchor="middle" pointer-events="none" font-family="Tahoma, Verdana, Helvetica, Arial" font-weight="normal"  style="display: block;"><tspan dy="0.3em" >Uses</tspan></text></g><g id="v-2257"  label-idx="1" cursor="move" transform="matrix(1,0,0,1,2551.888427734375,2514.41455078125)" style="cursor: default;"><rect joint-selector="rect" id="v-2262" fill="#0e1117" rx="3" ry="3" x="-59.39382553100586" y="-11.024256706237793" width="120.25003814697266" height="20.080320358276367"  pointer-events="none" style="display: block;"></rect><text joint-selector="text" id="v-2261" font-size="16.799999999999997px" xml:space="preserve" fill="#cccccc" text-anchor="middle" pointer-events="none" font-family="Tahoma, Verdana, Helvetica, Arial" font-weight="normal"  style="display: block;"><tspan dy="0.3em" >[Method calls]</tspan></text></g><g id="v-2258"  label-idx="2" cursor="move" transform="matrix(1,0,0,1,2510.06298828125,2543.49560546875)" style="cursor: default;"><rect joint-selector="rect" id="v-2264" fill="#ffffff" rx="3" ry="3" x="0" y="0" width="0" height="0"  display="none"></rect><text joint-selector="text" id="v-2263" fill="#000000" font-size="14" text-anchor="middle" text-vertical-anchor="middle" pointer-events="none"></text></g></g></g><!--z-index:45--><!--z-index:46--><!--z-index:47--><!--z-index:48--><!--z-index:49--><!--z-index:50--><!--z-index:51--><!--z-index:52--><!--z-index:53--><!--z-index:54--><!--z-index:55--><!--z-index:56--><!--z-index:57--><!--z-index:58--><!--z-index:59--><!--z-index:60--><!--z-index:61--><!--z-index:62--><!--z-index:63--><!--z-index:64--><!--z-index:65--><!--z-index:66--><!--z-index:67--><!--z-index:68--><!--z-index:69--><!--z-index:70--><!--z-index:71--><!--z-index:72--><!--z-index:73--><!--z-index:74--><!--z-index:75--><!--z-index:76--><!--z-index:77--><!--z-index:78--><!--z-index:79--><!--z-index:80--><!--z-index:81--><!--z-index:82--><!--z-index:83--><!--z-index:84--><!--z-index:85--><!--z-index:86--><!--z-index:87--><!--z-index:88--><!--z-index:89--><!--z-index:90--><!--z-index:91--><!--z-index:92--><!--z-index:93--><!--z-index:94--><!--z-index:95--><!--z-index:96--><!--z-index:97--><!--z-index:98--><!--z-index:99--><!--z-index:100--><!--z-index:101--><!--z-index:102--><!--z-index:103--><!--z-index:104--><!--z-index:105--><!--z-index:106--><!--z-index:107--><!--z-index:108--><!--z-index:109--><!--z-index:110--><!--z-index:111--><!--z-index:112--><!--z-index:113--><!--z-index:114--><!--z-index:115--><!--z-index:116--><!--z-index:117--><!--z-index:118--><!--z-index:119--><!--z-index:120--><!--z-index:121--><!--z-index:122--><!--z-index:123--><!--z-index:124--><!--z-index:125--><!--z-index:126--><!--z-index:127--><!--z-index:128--><!--z-index:129--><!--z-index:130--><!--z-index:131--><!--z-index:132--><!--z-index:133--><!--z-index:134--><!--z-index:135--><!--z-index:136--><!--z-index:137--><!--z-index:138--><!--z-index:139--><!--z-index:140--><!--z-index:141--><!--z-index:142--><!--z-index:143--><!--z-index:144--><!--z-index:145--><!--z-index:146--><!--z-index:147--><!--z-index:148--><!--z-index:149--><!--z-index:150--><!--z-index:151--><!--z-index:152--><!--z-index:153--></g><g  style="user-select: none;"></g><g ></g><g  display="none"><g transform="translate(20,3350)"><g><text font-size="24px" xml:space="preserve" y="0.8em" font-weight="normal" text-anchor="start" fill="#cccccc" pointer-events="none" display="block" font-family="Open Sans, Tahoma, Arial"><tspan dy="0" display="block">JIM v0.7.1</tspan></text></g></g></g></g></svg>