<svg xmlns="http://www.w3.org/2000/svg" xmlns:xlink="http://www.w3.org/1999/xlink" version="1.1" viewBox="0 0 2500 1000" style="background: #0e1117"><g transform="translate(25,100)"><rect width="450" height="300" rx="20" ry="20" x="0" y="0" fill="#0e1117" stroke-width="2" stroke="#5195d4" stroke-dasharray=""/><text x="225" y="95" text-anchor="middle" dominant-baseline="hanging" fill="#ffffff" font-size="30px" font-family="Open Sans, Tahoma, Arial"><tspan x="225" dy="40px">Boundary, Container</tspan></text></g><g transform="translate(525,100)"><rect width="450" height="300" rx="20" ry="20" x="0" y="0" fill="#0e1117" stroke-width="2" stroke="#2780cf" stroke-dasharray=""/><text x="225" y="77" text-anchor="middle" dominant-baseline="hanging" fill="#ffffff" font-size="30px" font-family="Open Sans, Tahoma, Arial"><tspan x="225" dy="40px">Boundary, Software</tspan><tspan x="225" dy="40px">System</tspan></text></g><g transform="translate(1025,100)"><rect width="450" height="300" rx="20" ry="20" x="0" y="0" fill="#4a90d9" stroke-width="2" stroke="#4382c3" stroke-dasharray=""/><text x="225" y="95" text-anchor="middle" dominant-baseline="hanging" fill="#ffffff" font-size="30px" font-family="Open Sans, Tahoma, Arial"><tspan x="225" dy="40px">Component</tspan></text></g><g transform="translate(1525,100)"><rect width="450" height="300" rx="20" ry="20" x="0" y="0" fill="#5aa5eb" stroke-width="2" stroke="#5195d4" stroke-dasharray=""/><text x="225" y="95" text-anchor="middle" dominant-baseline="hanging" fill="#ffffff" font-size="30px" font-family="Open Sans, Tahoma, Arial"><tspan x="225" dy="40px">Container</tspan></text></g><g transform="translate(2025,100)"><path id="keyElementCylinderPath" d="M 0,22.5 a 225,22.5 0,0,0 450 0 a 225,22.5 0,0,0 -450 0 l 0,255 a 225,22.5 0,0,0 450 0 l 0,-255" fill="#5aa5eb" stroke-width="2" stroke="#5195d4" stroke-dasharray=""></path><text x="225" y="117.5" text-anchor="middle" dominant-baseline="hanging" fill="#ffffff" font-size="30px" font-family="Open Sans, Tahoma, Arial"><tspan x="225" dy="40px">Container, Database</tspan></text></g><g transform="translate(25,600)"><rect width="450" height="300" rx="10" ry="10" x="0" y="0" fill="#5195d4" stroke-width="0" stroke="#5195d4" stroke-dasharray=""/><rect width="446" height="258" rx="10" ry="10" x="2" y="40" fill="#5aa5eb" stroke-width="0"/><rect width="340" height="20" rx="10" ry="10" x="100" y="10" fill="#5aa5eb" stroke-width="0"/><ellipse cx="20" cy="20" rx="10" ry="10" fill="#5aa5eb" stroke-width="0"/><ellipse cx="50" cy="20" rx="10" ry="10" fill="#5aa5eb" stroke-width="0"/><ellipse cx="80" cy="20" rx="10" ry="10" fill="#5aa5eb" stroke-width="0"/><text x="225" y="115" text-anchor="middle" dominant-baseline="hanging" fill="#ffffff" font-size="30px" font-family="Open Sans, Tahoma, Arial"><tspan x="225" dy="40px">Container, Web Browser</tspan></text></g><g transform="translate(525,670)"><path d="M422,0 L422,44 L450,30 L 422,16" style="fill:#cccccc" /><path d="M0,30 L422,30" style="stroke:#cccccc; stroke-width: 2; fill: none; stroke-dasharray: ;" /><text x="225" y="55" text-anchor="middle" dominant-baseline="hanging" fill="#cccccc" font-size="30px" font-family="Open Sans, Tahoma, Arial"><tspan x="225" dy="40px">Relationship</tspan></text></g></svg>